<svg width="480" height="480" viewBox="0 0 480 480" fill="none" xmlns="http://www.w3.org/2000/svg">
<g clip-path="url(#clip0_24_1561)">
<path d="M78.7 79.6C78.7 79.6 81.4 77.4 83 78.9C84.6 80.5 84.2 86 78.9 86.6C78.8 86.6 77.8 83.7 78.7 79.6Z" fill="#D55050"/>
<path d="M426.6 436C426.6 436 421.3 462.2 426.6 476.8L313 477.3V435.6L426.6 436Z" fill="#FFE8DB"/>
<path d="M376.2 453.4L424.2 459C424.2 457.3 424.2 455.7 424.3 454L376.2 453.4Z" fill="#FFE8DB"/>
<path d="M424.5 465.3L333.3 463.7L425 469.6C424.8 468.2 424.6 466.8 424.5 465.3Z" fill="#FFE8DB"/>
<path d="M424.6 448.9C424.7 447.3 424.9 445.7 425.1 444.3L351.9 444.6L424.6 448.9Z" fill="#FFE8DB"/>
<path d="M319.4 435.5C319.4 435.5 327.2 446.3 327.2 457.6C327.2 468.9 317.6 478.1 317.6 478.1L319.4 435.5Z" fill="#182E5A"/>
<path d="M321 473.8V438.3H427.9C429.6 438.3 431 436.9 431 435.2C431 433.5 429.6 432.1 427.9 432.1H190.2C188 432.1 186.2 433.9 186.2 436.1V476C186.2 478.2 188 480 190.2 480H427.9C429.6 480 431 478.6 431 476.9C431 475.2 429.6 473.8 427.9 473.8H321Z" fill="#F46C6B"/>
<g opacity="0.33">
<path opacity="0.33" d="M431.1 476.8C431.1 475.1 429.7 473.7 428 473.7H321.1V438.2H428C429.7 438.2 431.1 436.8 431.1 435.1C431.1 433.5 429.8 432.2 428.3 432H318.7C316.5 432 314.7 433.8 314.7 436V475.9C314.7 478 316.4 479.8 318.5 479.9H428.1C429.7 479.9 431.1 478.6 431.1 476.8Z" fill="#A0A2DA"/>
</g>
<path d="M409.5 388.7C409.5 388.7 404.2 414.9 409.5 429.5L296 430V388.3L409.5 388.7Z" fill="#FFE8DB"/>
<path d="M359.2 406L407.2 411.6C407.2 409.9 407.2 408.3 407.3 406.6L359.2 406Z" fill="#FFE8DB"/>
<path d="M407.5 418L316.3 416.4L408 422.3C407.8 420.8 407.6 419.4 407.5 418Z" fill="#FFE8DB"/>
<path d="M407.6 401.6C407.7 400 407.9 398.4 408.1 397L334.9 397.3L407.6 401.6Z" fill="#FFE8DB"/>
<path d="M302.4 388.2C302.4 388.2 310.2 399 310.2 410.3C310.2 421.6 300.6 430.8 300.6 430.8L302.4 388.2Z" fill="#182E5A"/>
<path d="M304 426.4V390.9H410.9C412.6 390.9 414 389.5 414 387.8C414 386.1 412.6 384.7 410.9 384.7H173.2C171 384.7 169.2 386.5 169.2 388.7V428.6C169.2 430.8 171 432.6 173.2 432.6H410.9C412.6 432.6 414 431.2 414 429.5C414 427.8 412.6 426.4 410.9 426.4H304Z" fill="#B6B6B6"/>
<g opacity="0.52">
<g opacity="0.52">
<path opacity="0.52" d="M414 429.5C414 427.8 412.6 426.4 410.9 426.4H304V390.9H410.9C412.6 390.9 414 389.5 414 387.8C414 386.2 412.7 384.9 411.2 384.7H301.6C299.4 384.7 297.6 386.5 297.6 388.7V428.6C297.6 430.7 299.3 432.5 301.4 432.6H411C412.6 432.6 414 431.2 414 429.5Z" fill="#C1202A"/>
</g>
</g>
<path d="M208.2 412.1C208.2 413 208.1 413.9 208 414.7C207.8 415.5 207.5 416.3 207.1 416.9C206.7 417.6 206 418.1 205.2 418.5C204.4 418.9 203.3 419.1 202 419.1C200.5 419.1 199.1 418.7 198.1 418C197.1 417.3 196.3 416.1 196 414.6L199.9 413.6C200 414.1 200.2 414.5 200.5 414.8C200.9 415.1 201.3 415.3 201.8 415.3C202.3 415.3 202.7 415.2 203 414.9C203.3 414.6 203.5 414.3 203.6 414C203.7 413.7 203.8 413.2 203.8 412.8C203.8 412.4 203.8 412 203.8 411.6V399.1H208.1V412.1H208.2Z" fill="white"/>
<path d="M218.3 399.1H221.9L230.4 418.6H225.5L223.8 414.5H216.2L214.6 418.6H209.9L218.3 399.1ZM219.9 404.8L217.5 410.9H222.3L219.9 404.8Z" fill="white"/>
<path d="M228.6 399.1H233.5L238.3 411.9H238.4L243.3 399.1H247.9L239.8 418.6H236.3L228.6 399.1Z" fill="white"/>
<path d="M254.9 399.1H258.5L267 418.6H262.1L260.4 414.5H252.8L251.2 418.6H246.5L254.9 399.1ZM256.6 404.8L254.2 410.9H259L256.6 404.8Z" fill="white"/>
<path d="M203.6 442.4H212.6C213.9 442.4 215 442.5 216.1 442.7C217.2 442.9 218.2 443.3 219 443.9C219.8 444.5 220.5 445.2 221 446.2C221.5 447.1 221.7 448.3 221.7 449.8C221.7 451.2 221.5 452.4 221 453.3C220.5 454.3 219.9 455 219.1 455.6C218.3 456.2 217.4 456.6 216.3 456.8C215.2 457 214 457.2 212.8 457.2H208.9V466.6H203.6V442.4ZM208.9 452.6H212.4C212.9 452.6 213.3 452.5 213.8 452.5C214.2 452.4 214.6 452.2 215 452C215.3 451.8 215.6 451.5 215.8 451.1C216 450.7 216.1 450.3 216.1 449.7C216.1 449.1 216 448.6 215.7 448.2C215.4 447.8 215 447.5 214.6 447.3C214.2 447.1 213.7 447 213.1 446.9C212.6 446.8 212 446.8 211.5 446.8H208.8L208.9 452.6Z" fill="white"/>
<path d="M225.1 442.4H230.4V451.4H240.8V442.4H246.1V466.6H240.8V456.2H230.4V466.6H225.1V442.4Z" fill="white"/>
<path d="M251 442.4H260C261.3 442.4 262.4 442.5 263.5 442.7C264.6 442.9 265.6 443.3 266.4 443.9C267.2 444.5 267.9 445.2 268.4 446.2C268.9 447.1 269.1 448.3 269.1 449.8C269.1 451.2 268.9 452.4 268.4 453.3C267.9 454.3 267.3 455 266.5 455.6C265.7 456.2 264.8 456.6 263.7 456.8C262.6 457 261.4 457.2 260.2 457.2H256.3V466.6H251V442.4ZM256.3 452.6H259.8C260.3 452.6 260.7 452.5 261.2 452.5C261.6 452.4 262 452.2 262.4 452C262.7 451.8 263 451.5 263.2 451.1C263.4 450.7 263.5 450.3 263.5 449.7C263.5 449.1 263.4 448.6 263.1 448.2C262.8 447.8 262.4 447.5 262 447.3C261.6 447.1 261.1 447 260.5 446.9C260 446.8 259.4 446.8 258.9 446.8H256.2L256.3 452.6Z" fill="white"/>
<path d="M331.8 255.6H243.5V313.9H331.8V255.6Z" fill="#B6B6B6"/>
<path d="M473.9 0H101.4C98 0 95.3 2.7 95.3 6.1V255.9C95.3 259.3 98 262 101.4 262H473.9C477.3 262 480 259.3 480 255.9V6.1C480 2.7 477.3 0 473.9 0Z" fill="#B6B6B6"/>
<path d="M472.8 250.4H100.8V4.40002H472.8" fill="white"/>
<path d="M472.8 4.19995H100.8V20.1H472.8V4.19995Z" fill="#242640"/>
<path d="M115.9 12C115.9 9.8 114.1 8 111.9 8C109.7 8 107.9 9.8 107.9 12C107.9 14.2 109.7 16 111.9 16C114.1 16 115.9 14.2 115.9 12Z" fill="#F0896B"/>
<path d="M129.2 12C129.2 9.8 127.4 8 125.2 8C123 8 121.2 9.8 121.2 12C121.2 14.2 123 16 125.2 16C127.4 15.9 129.2 14.2 129.2 12Z" fill="#FFAE6F"/>
<path d="M143.1 12C143.1 9.8 141.3 8 139.1 8C136.9 8 135.1 9.8 135.1 12C135.1 14.2 136.9 16 139.1 16C141.3 15.9 143.1 14.2 143.1 12Z" fill="#E0E0FC"/>
<path d="M346 305.8H229.3C220.1 305.8 212.6 313.3 212.6 322.5H362.7C362.7 313.3 355.2 305.8 346 305.8Z" fill="#B6B6B6"/>
<path d="M464 29.8H278.7V242.3H464V29.8Z" fill="#FBFAF0"/>
<path d="M267.8 24.6H106.1V244.8H267.8V24.6Z" fill="white"/>
<path d="M254.9 54.2999H214.2C213.5 54.2999 212.9 53.7 212.9 53C212.9 52.3 213.5 51.7 214.2 51.7H254.9C255.6 51.7 256.2 52.3 256.2 53C256.2 53.7 255.7 54.2999 254.9 54.2999Z" fill="#E0E0FC"/>
<path d="M254.9 64.7H214.2C213.5 64.7 212.9 64.1 212.9 63.4C212.9 62.7 213.5 62.1 214.2 62.1H254.9C255.6 62.1 256.2 62.7 256.2 63.4C256.2 64.1 255.7 64.7 254.9 64.7Z" fill="#E0E0FC"/>
<path d="M254.9 76H181.7C181 76 180.4 75.4 180.4 74.7C180.4 74 181 73.4 181.7 73.4H254.9C255.6 73.4 256.2 74 256.2 74.7C256.2 75.4 255.7 76 254.9 76Z" fill="#E0E0FC"/>
<path d="M254.9 87.5H181.7C181 87.5 180.4 86.9 180.4 86.2C180.4 85.5 181 84.9 181.7 84.9H254.9C255.6 84.9 256.2 85.5 256.2 86.2C256.2 87 255.7 87.5 254.9 87.5Z" fill="#E0E0FC"/>
<path d="M186.8 105.7H118.4C117.7 105.7 117.1 105.1 117.1 104.4C117.1 103.7 117.7 103.1 118.4 103.1H186.8C187.5 103.1 188.1 103.7 188.1 104.4C188.1 105.1 187.5 105.7 186.8 105.7Z" fill="#E0E0FC"/>
<path d="M261 113.8H118.4C117.7 113.8 117.1 113.2 117.1 112.5C117.1 111.8 117.7 111.2 118.4 111.2H261C261.7 111.2 262.3 111.8 262.3 112.5C262.3 113.2 261.7 113.8 261 113.8Z" fill="#E0E0FC"/>
<path d="M261 122.2H118.4C117.7 122.2 117.1 121.6 117.1 120.9C117.1 120.2 117.7 119.6 118.4 119.6H261C261.7 119.6 262.3 120.2 262.3 120.9C262.3 121.6 261.7 122.2 261 122.2Z" fill="#E0E0FC"/>
<path d="M261 131.4H118.3C117.6 131.4 117 130.8 117 130.1C117 129.4 117.6 128.8 118.3 128.8H261C261.7 128.8 262.3 129.4 262.3 130.1C262.3 130.8 261.7 131.4 261 131.4Z" fill="#E0E0FC"/>
<path d="M261.3 105.7H195.1C194.4 105.7 193.8 105.1 193.8 104.4C193.8 103.7 194.4 103.1 195.1 103.1H261.3C262 103.1 262.6 103.7 262.6 104.4C262.6 105.2 262 105.7 261.3 105.7Z" fill="#E0E0FC"/>
<path d="M186.8 149H118.4C117.7 149 117.1 148.4 117.1 147.7C117.1 147 117.7 146.4 118.4 146.4H186.8C187.5 146.4 188.1 147 188.1 147.7C188.1 148.5 187.5 149 186.8 149Z" fill="#E0E0FC"/>
<path d="M261 157.1H118.4C117.7 157.1 117.1 156.5 117.1 155.8C117.1 155.1 117.7 154.5 118.4 154.5H261C261.7 154.5 262.3 155.1 262.3 155.8C262.3 156.5 261.7 157.1 261 157.1Z" fill="#E0E0FC"/>
<path d="M261 165.5H118.4C117.7 165.5 117.1 164.9 117.1 164.2C117.1 163.5 117.7 162.9 118.4 162.9H261C261.7 162.9 262.3 163.5 262.3 164.2C262.3 164.9 261.7 165.5 261 165.5Z" fill="#E0E0FC"/>
<path d="M261 174.7H118.4C117.7 174.7 117.1 174.1 117.1 173.4C117.1 172.7 117.7 172.1 118.4 172.1H261C261.7 172.1 262.3 172.7 262.3 173.4C262.3 174.2 261.7 174.7 261 174.7Z" fill="#E0E0FC"/>
<path d="M261.3 149H195.1C194.4 149 193.8 148.4 193.8 147.7C193.8 147 194.4 146.4 195.1 146.4H261.3C262 146.4 262.6 147 262.6 147.7C262.6 148.5 262 149 261.3 149Z" fill="#E0E0FC"/>
<path d="M186.8 185.4H118.4C117.7 185.4 117.1 184.8 117.1 184.1C117.1 183.4 117.7 182.8 118.4 182.8H186.8C187.5 182.8 188.1 183.4 188.1 184.1C188.1 184.8 187.5 185.4 186.8 185.4Z" fill="#E0E0FC"/>
<path d="M261 193.5H118.4C117.7 193.5 117.1 192.9 117.1 192.2C117.1 191.5 117.7 190.9 118.4 190.9H261C261.7 190.9 262.3 191.5 262.3 192.2C262.3 192.9 261.7 193.5 261 193.5Z" fill="#E0E0FC"/>
<path d="M261 201.9H118.4C117.7 201.9 117.1 201.3 117.1 200.6C117.1 199.9 117.7 199.3 118.4 199.3H261C261.7 199.3 262.3 199.9 262.3 200.6C262.3 201.3 261.7 201.9 261 201.9Z" fill="#E0E0FC"/>
<path d="M261 211.1H118.4C117.7 211.1 117.1 210.5 117.1 209.8C117.1 209.1 117.7 208.5 118.4 208.5H261C261.7 208.5 262.3 209.1 262.3 209.8C262.3 210.5 261.7 211.1 261 211.1Z" fill="#E0E0FC"/>
<path d="M261.3 185.4H195.1C194.4 185.4 193.8 184.8 193.8 184.1C193.8 183.4 194.4 182.8 195.1 182.8H261.3C262 182.8 262.6 183.4 262.6 184.1C262.6 184.9 262 185.4 261.3 185.4Z" fill="#E0E0FC"/>
<path d="M118.885 95.9667H172.085V42.7667L118.885 42.7667V95.9667Z" fill="#F46C6B"/>
<path d="M122.1 88.4H167.8C168.6 88.4 169.3 87.7 169.3 86.9C169.3 86.1 168.6 85.4 167.8 85.4H122.1C121.3 85.4 120.6 86.1 120.6 86.9C120.6 87.7 121.3 88.4 122.1 88.4Z" fill="white"/>
<path d="M122.7 88.4C123.3 88.4 123.9 88 124.1 87.5L136.6 57L146.3 74.6C146.5 75 146.9 75.2 147.3 75.3C147.7 75.4 148.1 75.3 148.5 75.1L153.9 71.4L165.9 87.8C166.4 88.5 167.3 88.6 168 88.1C168.7 87.6 168.8 86.7 168.3 86L155.5 68.4C155 67.7 154.1 67.6 153.4 68L148.1 71.6L137.7 52.7C137.4 52.2 136.8 51.9 136.3 51.9C135.7 51.9 135.2 52.3 135 52.8L121.3 86.2C121 87 121.4 87.8 122.1 88.2C122.3 88.4 122.5 88.4 122.7 88.4Z" fill="white"/>
<path d="M148.6 57.6C148.6 54 151.6 51 155.2 51C158.8 51 161.8 54 161.8 57.6C161.8 61.2 158.8 64.2 155.2 64.2C151.5 64.2 148.6 61.2 148.6 57.6ZM151.6 57.6C151.6 59.6 153.2 61.2 155.2 61.2C157.2 61.2 158.8 59.6 158.8 57.6C158.8 55.6 157.2 54 155.2 54C153.2 54 151.6 55.6 151.6 57.6Z" fill="white"/>
<path d="M194.5 64.5H191.8L190.7 61.7H184.9L183.8 64.5H181L187.7 47.9L194.5 64.5ZM189.6 59.2L187.7 54.5L185.8 59.2H189.6Z" fill="#B0AFD5"/>
<path d="M201.6 64.6C200 64.6 198.6 64.0001 197.4 62.9001C196.2 61.7001 195.7 60.3001 195.7 58.7001C195.7 57.1001 196.3 55.7 197.4 54.5C198.6 53.3 200 52.8 201.6 52.8C203.2 52.8 204.4 53.1 205.1 53.8V52.9001H207.5V64.5H205.1V63.6C204.5 64.3 203.3 64.6 201.6 64.6ZM201.6 55.2001C200.6 55.2001 199.8 55.5001 199.1 56.2001C198.4 56.9001 198.1 57.7001 198.1 58.7001C198.1 59.7001 198.4 60.5001 199.1 61.2001C199.8 61.9001 200.6 62.2001 201.6 62.2001C202.6 62.2001 203.4 61.9001 204.1 61.2001C204.8 60.5001 205.1 59.7001 205.1 58.7001C205.1 57.7001 204.8 56.9001 204.1 56.2001C203.4 55.5001 202.6 55.2001 201.6 55.2001Z" fill="#B0AFD5"/>
<path d="M446.1 328.1C446.1 328.1 439.2 361.9 446.1 380.8L299.4 381.4V327.5L446.1 328.1Z" fill="#FFE8DB"/>
<path d="M381 350.4L443 357.6C443 355.4 443 353.3 443.1 351.2L381 350.4Z" fill="#FFE8DB"/>
<path d="M443.4 365.8L325.6 363.7L444.1 371.3C443.8 369.6 443.6 367.7 443.4 365.8Z" fill="#FFE8DB"/>
<path d="M443.6 344.7C443.8 342.6 444 340.6 444.2 338.8L349.7 339.2L443.6 344.7Z" fill="#FFE8DB"/>
<path d="M307.7 327.4C307.7 327.4 317.7 341.3 317.7 355.9C317.7 370.5 305.2 382.4 305.2 382.4L307.7 327.4Z" fill="#182E5A"/>
<path d="M309.7 376.8V331H447.8C450 331 451.8 329.2 451.8 327C451.8 324.8 450 323 447.8 323H140.7C137.8 323 135.5 325.3 135.5 328.2V379.7C135.5 382.6 137.8 384.9 140.7 384.9L447.8 384.8C450 384.8 451.8 383 451.8 380.8C451.8 378.6 450 376.8 447.8 376.8H309.7Z" fill="#242640"/>
<path d="M451.8 380.8C451.8 378.6 450 376.8 447.8 376.8H309.7V331H447.8C450 331 451.8 329.2 451.8 327C451.8 324.9 450.2 323.2 448.1 323H306.5C303.6 323 301.3 325.3 301.3 328.2V379.7C301.3 382.5 303.5 384.7 306.2 384.9H447.8C450 384.8 451.8 383 451.8 380.8Z" fill="#242640"/>
<path d="M157.5 343.1H162.4V351.4H171.9V343.1H176.8V365.3H171.9V355.7H162.4V365.3H157.5V343.1Z" fill="white"/>
<path d="M185.6 347.4H179.3V343.1H196.9V347.4H190.6V365.3H185.7L185.6 347.4Z" fill="white"/>
<path d="M199.3 343.1H206.7L211.8 357.6H211.9L217 343.1H224.4V365.3H219.5V348.3H219.4L213.6 365.3H209.9L204.3 348.3H204.2V365.3H199.3V343.1Z" fill="white"/>
<path d="M229 343.1H233.9V360.8H243V365.3H229V343.1Z" fill="white"/>
<path d="M430.4 160.3C443.765 160.3 454.6 149.465 454.6 136.1C454.6 122.735 443.765 111.9 430.4 111.9C417.035 111.9 406.2 122.735 406.2 136.1C406.2 149.465 417.035 160.3 430.4 160.3Z" fill="#FFAE6F"/>
<path d="M406.5 134.7L412.6 131.5V132.9C412.6 133 412.6 133.1 412.5 133.2C412.5 133.3 412.4 133.4 412.3 133.4L409.5 134.8C409.4 134.9 409.3 134.9 409.1 135C409 135 408.8 135.1 408.7 135.1C408.8 135.1 409 135.2 409.1 135.2C409.2 135.2 409.4 135.3 409.5 135.4L412.3 136.8C412.4 136.9 412.5 136.9 412.5 137C412.6 137.1 412.6 137.2 412.6 137.3V138.7L406.5 135.5V134.7Z" fill="white"/>
<path d="M415.4 140.2V128.8H417.3V133.2C417.6 132.9 417.9 132.7 418.3 132.5C418.7 132.3 419.1 132.2 419.6 132.2C420 132.2 420.4 132.3 420.7 132.4C421 132.5 421.3 132.8 421.5 133C421.7 133.3 421.9 133.6 422 133.9C422.1 134.2 422.2 134.7 422.2 135.1V140.1H420.3V135.1C420.3 134.6 420.2 134.2 420 134C419.8 133.8 419.4 133.6 419 133.6C418.7 133.6 418.4 133.7 418.1 133.8C417.8 133.9 417.5 134.2 417.3 134.4V140.1H415.4V140.2Z" fill="white"/>
<path d="M426.7 140.4C426 140.4 425.5 140.2 425.1 139.8C424.7 139.4 424.6 138.9 424.6 138.2V133.8H423.8C423.7 133.8 423.6 133.8 423.5 133.7C423.4 133.6 423.4 133.5 423.4 133.4V132.6L424.7 132.4L425.1 130.3C425.1 130.2 425.2 130.1 425.2 130.1C425.3 130 425.4 130 425.5 130H426.5V132.5H428.6V133.9H426.5V138.2C426.5 138.4 426.6 138.6 426.7 138.8C426.8 139 427 139 427.2 139C427.3 139 427.4 139 427.5 139C427.6 139 427.6 138.9 427.7 138.9C427.8 138.9 427.8 138.8 427.9 138.8C428 138.8 428 138.8 428 138.8C428.1 138.8 428.1 138.8 428.1 138.8L428.2 138.9L428.8 139.8C428.5 140 428.2 140.2 427.9 140.3C427.5 140.3 427.1 140.4 426.7 140.4Z" fill="white"/>
<path d="M430.1 140.2V132.3H431.3C431.5 132.3 431.7 132.4 431.8 132.7L431.9 133.3C432 133.2 432.2 133 432.3 132.9C432.4 132.8 432.6 132.7 432.8 132.6C433 132.5 433.2 132.4 433.4 132.4C433.6 132.3 433.8 132.3 434 132.3C434.5 132.3 434.9 132.4 435.2 132.7C435.5 133 435.8 133.3 435.9 133.8C436 133.5 436.2 133.3 436.4 133.1C436.6 132.9 436.8 132.8 437 132.6C437.2 132.5 437.5 132.4 437.7 132.3C437.9 132.2 438.2 132.2 438.5 132.2C438.9 132.2 439.3 132.3 439.7 132.4C440 132.5 440.3 132.7 440.6 133C440.8 133.3 441 133.6 441.1 133.9C441.2 134.2 441.3 134.7 441.3 135.2V140.2H439.4V135.2C439.4 134.7 439.3 134.3 439.1 134.1C438.9 133.9 438.6 133.7 438.1 133.7C437.9 133.7 437.7 133.7 437.6 133.8C437.4 133.9 437.3 134 437.2 134.1C437.1 134.2 437 134.4 436.9 134.6C436.8 134.8 436.8 135 436.8 135.2V140.2H434.9V135.2C434.9 134.7 434.8 134.3 434.6 134.1C434.4 133.9 434.1 133.7 433.7 133.7C433.4 133.7 433.2 133.8 432.9 133.9C432.7 134 432.4 134.2 432.2 134.5V140.3L430.1 140.2Z" fill="white"/>
<path d="M445.1 128.8V140.2H443.2V128.8H445.1Z" fill="white"/>
<path d="M447.9 138.6V137.2C447.9 137.1 447.9 137 448 136.9C448.1 136.8 448.1 136.7 448.2 136.7L451 135.3C451.2 135.2 451.5 135.1 451.8 135C451.7 135 451.5 134.9 451.4 134.9C451.3 134.9 451.1 134.8 451 134.7L448.2 133.3C448.1 133.2 448 133.2 448 133.1C448 133 447.9 132.9 447.9 132.8V131.4L454 134.6V135.4L447.9 138.6Z" fill="white"/>
<path d="M439.632 87.6542C451.93 82.5605 457.769 68.4624 452.675 56.1652C447.582 43.868 433.483 38.0285 421.186 43.1223C408.889 48.216 403.05 62.3142 408.143 74.6113C413.237 86.9085 427.335 92.748 439.632 87.6542Z" fill="#FFAE6F"/>
<path d="M416.8 68.2001V72.3001H414.6V60.6001H418.4C419.2 60.6001 419.9 60.7001 420.4 60.9001C421 61.1001 421.4 61.3001 421.8 61.7001C422.2 62.1001 422.4 62.4001 422.6 62.9001C422.8 63.4001 422.9 63.9001 422.9 64.4001C422.9 65.0001 422.8 65.5001 422.6 66.0001C422.4 66.5001 422.1 66.9001 421.7 67.2001C421.3 67.5001 420.8 67.8001 420.3 68.0001C419.7 68.2001 419.1 68.3001 418.3 68.3001H416.8V68.2001ZM416.8 66.5001H418.4C418.8 66.5001 419.2 66.4001 419.5 66.4001C419.8 66.3001 420 66.2001 420.2 66.0001C420.4 65.8001 420.5 65.6001 420.6 65.3001C420.7 65.0001 420.7 64.7001 420.7 64.4001C420.7 64.1001 420.7 63.8001 420.6 63.5001C420.5 63.2001 420.4 63.0001 420.2 62.9001C420 62.7001 419.8 62.6001 419.5 62.5001C419.2 62.4001 418.8 62.4001 418.4 62.4001H416.8V66.5001Z" fill="white"/>
<path d="M434.6 72.3001H432.4V67.2001H426.9V72.3001H424.7V60.6001H426.9V65.6001H432.4V60.6001H434.6V72.3001Z" fill="white"/>
<path d="M439.2 68.2001V72.3001H437V60.6001H440.8C441.6 60.6001 442.3 60.7001 442.8 60.9001C443.4 61.1001 443.8 61.3001 444.2 61.7001C444.6 62.1001 444.8 62.4001 445 62.9001C445.2 63.4001 445.3 63.9001 445.3 64.4001C445.3 65.0001 445.2 65.5001 445 66.0001C444.8 66.5001 444.5 66.9001 444.1 67.2001C443.7 67.5001 443.2 67.8001 442.7 68.0001C442.1 68.2001 441.5 68.3001 440.7 68.3001H439.2V68.2001ZM439.2 66.5001H440.8C441.2 66.5001 441.6 66.4001 441.8 66.4001C442.1 66.3001 442.3 66.2001 442.5 66.0001C442.7 65.8001 442.8 65.6001 442.9 65.3001C443 65.0001 443 64.7001 443 64.4001C443 64.1001 442.9 63.8001 442.9 63.5001C442.8 63.3001 442.7 63.0001 442.5 62.9001C442.3 62.7001 442.1 62.6001 441.8 62.5001C441.5 62.4001 441.2 62.4001 440.8 62.4001H439.2V66.5001Z" fill="white"/>
<path d="M430.2 230.7C443.4 230.7 454.1 220 454.1 206.8C454.1 193.6 443.4 182.9 430.2 182.9C417 182.9 406.3 193.6 406.3 206.8C406.3 220 417 230.7 430.2 230.7Z" fill="#FFAE6F"/>
<path d="M418 199.8C418 200.3 417.9 200.8 417.8 201.2C417.7 201.6 417.5 202 417.2 202.3C416.9 202.6 416.6 202.8 416.2 203C415.8 203.2 415.4 203.2 414.9 203.2C414.7 203.2 414.4 203.2 414.2 203.2C414 203.2 413.7 203.1 413.5 203.1L413.6 202.1C413.6 202 413.6 201.9 413.7 201.9C413.8 201.9 413.9 201.8 414 201.8C414.1 201.8 414.2 201.8 414.3 201.8C414.4 201.8 414.6 201.8 414.7 201.8C414.9 201.8 415.2 201.8 415.4 201.7C415.6 201.6 415.7 201.5 415.9 201.4C416 201.2 416.1 201 416.2 200.8C416.3 200.6 416.3 200.3 416.3 199.9V193.8H418V199.8Z" fill="white"/>
<path d="M427.8 203.1H426.5C426.4 203.1 426.2 203.1 426.1 203C426 202.9 425.9 202.8 425.9 202.7L425.2 200.8H421.3L420.6 202.7C420.6 202.8 420.5 202.9 420.4 203C420.3 203.1 420.2 203.1 420 203.1H418.6L422.3 193.7H424.1L427.8 203.1ZM421.7 199.6H424.7L423.6 196.5C423.6 196.4 423.5 196.2 423.4 196C423.3 195.8 423.3 195.6 423.2 195.4C423.1 195.6 423.1 195.8 423 196C422.9 196.2 422.9 196.4 422.8 196.5L421.7 199.6Z" fill="white"/>
<path d="M426.7 193.8H428.1C428.2 193.8 428.4 193.8 428.5 193.9C428.6 194 428.7 194.1 428.7 194.2L430.9 199.9C431 200.1 431 200.3 431.1 200.5C431.2 200.7 431.2 201 431.3 201.2C431.4 200.7 431.5 200.3 431.7 199.9L433.9 194.2C433.9 194.1 434 194 434.1 193.9C434.2 193.8 434.3 193.8 434.5 193.8H435.9L432.1 203.2H430.5L426.7 193.8Z" fill="white"/>
<path d="M443.9 203.1H442.6C442.5 203.1 442.3 203.1 442.2 203C442.1 202.9 442 202.8 442 202.7L441.3 200.8H437.4L436.7 202.7C436.7 202.8 436.6 202.9 436.5 203C436.4 203.1 436.3 203.1 436.1 203.1H434.7L438.4 193.7H440.2L443.9 203.1ZM437.9 199.6H440.9L439.8 196.5C439.8 196.4 439.7 196.2 439.6 196C439.5 195.8 439.5 195.6 439.4 195.4C439.3 195.6 439.3 195.8 439.2 196C439.1 196.2 439.1 196.4 439 196.5L437.9 199.6Z" fill="white"/>
<path d="M419.2 211C419.2 211.1 419.1 211.2 419 211.2C418.9 211.2 418.9 211.3 418.8 211.3C418.7 211.3 418.6 211.3 418.5 211.2C418.4 211.1 418.3 211.1 418.1 211C418 210.9 417.8 210.8 417.6 210.8C417.4 210.8 417.2 210.7 416.9 210.7C416.7 210.7 416.5 210.7 416.3 210.8C416.1 210.9 416 210.9 415.9 211C415.8 211.1 415.7 211.2 415.6 211.4C415.5 211.5 415.5 211.7 415.5 211.9C415.5 212.1 415.6 212.3 415.7 212.4C415.8 212.5 416 212.7 416.2 212.8C416.4 212.9 416.6 213 416.9 213.1C417.2 213.2 417.4 213.3 417.7 213.4C418 213.5 418.2 213.6 418.5 213.7C418.8 213.8 419 214 419.2 214.2C419.4 214.4 419.6 214.6 419.7 214.9C419.8 215.2 419.9 215.5 419.9 215.9C419.9 216.3 419.8 216.7 419.7 217.1C419.6 217.5 419.3 217.8 419.1 218.1C418.8 218.4 418.5 218.6 418.1 218.7C417.7 218.9 417.2 218.9 416.7 218.9C416.4 218.9 416.1 218.9 415.8 218.8C415.5 218.7 415.2 218.7 415 218.6C414.7 218.5 414.5 218.4 414.3 218.2C414.1 218.1 413.9 217.9 413.7 217.7L414.2 216.9C414.2 216.8 414.3 216.8 414.4 216.8C414.5 216.8 414.5 216.7 414.6 216.7C414.7 216.7 414.8 216.7 414.9 216.8C415 216.9 415.2 217 415.3 217.1C415.5 217.2 415.7 217.3 415.9 217.4C416.1 217.5 416.4 217.5 416.7 217.5C417.2 217.5 417.6 217.4 417.9 217.2C418.2 217 418.3 216.6 418.3 216.2C418.3 216 418.2 215.8 418.1 215.6C418 215.4 417.8 215.3 417.6 215.2C417.4 215.1 417.2 215 416.9 214.9C416.6 214.8 416.4 214.8 416.1 214.7C415.8 214.6 415.6 214.5 415.3 214.4C415 214.3 414.8 214.1 414.6 213.9C414.4 213.7 414.2 213.5 414.1 213.2C414 212.9 413.9 212.6 413.9 212.1C413.9 211.8 414 211.4 414.1 211.1C414.2 210.8 414.4 210.5 414.7 210.2C415 210 415.3 209.8 415.7 209.6C416.1 209.5 416.5 209.4 417 209.4C417.5 209.4 418.1 209.5 418.5 209.7C419 209.9 419.4 210.1 419.7 210.4L419.2 211Z" fill="white"/>
<path d="M425.7 213.4C425.7 213.5 425.6 213.5 425.6 213.5C425.6 213.5 425.5 213.5 425.4 213.5C425.3 213.5 425.2 213.5 425.2 213.4C425.1 213.4 425 213.3 424.9 213.2C424.8 213.1 424.7 213.1 424.5 213C424.4 213 424.2 212.9 423.9 212.9C423.6 212.9 423.4 212.9 423.2 213C423 213.1 422.8 213.2 422.7 213.4C422.6 213.6 422.5 213.8 422.4 214.1C422.3 214.4 422.3 214.7 422.3 215C422.3 215.4 422.3 215.7 422.4 215.9C422.5 216.2 422.6 216.4 422.7 216.6C422.8 216.8 423 216.9 423.2 217C423.4 217.1 423.6 217.1 423.9 217.1C424.2 217.1 424.4 217.1 424.5 217C424.7 216.9 424.8 216.9 424.9 216.8C425 216.7 425.1 216.7 425.2 216.6C425.3 216.5 425.4 216.5 425.5 216.5C425.6 216.5 425.7 216.5 425.8 216.6L426.3 217.2C426.1 217.4 425.9 217.6 425.7 217.7C425.5 217.8 425.3 217.9 425.1 218C424.9 218.1 424.7 218.1 424.4 218.2C424.1 218.3 423.9 218.2 423.7 218.2C423.3 218.2 422.9 218.1 422.5 218C422.1 217.9 421.8 217.6 421.6 217.3C421.3 217 421.1 216.7 421 216.2C420.8 215.8 420.8 215.3 420.8 214.7C420.8 214.2 420.9 213.8 421 213.3C421.1 212.9 421.3 212.5 421.6 212.2C421.9 211.9 422.2 211.7 422.6 211.5C423 211.3 423.5 211.2 424 211.2C424.5 211.2 424.9 211.3 425.3 211.4C425.7 211.5 426 211.8 426.3 212.1L425.7 213.4Z" fill="white"/>
<path d="M427.2 218.6V212H428.1C428.3 212 428.4 212 428.4 212.1C428.4 212.2 428.5 212.3 428.5 212.4L428.6 213.2C428.8 212.8 429.1 212.5 429.4 212.2C429.7 212 430.1 211.8 430.5 211.8C430.8 211.8 431.1 211.9 431.3 212L431.1 213.2C431.1 213.3 431.1 213.3 431 213.4C430.9 213.5 430.9 213.4 430.8 213.4C430.7 213.4 430.7 213.4 430.5 213.4C430.4 213.4 430.2 213.4 430.1 213.4C429.8 213.4 429.5 213.5 429.2 213.7C428.9 213.9 428.8 214.1 428.6 214.5V218.6C428.8 218.6 427.2 218.6 427.2 218.6Z" fill="white"/>
<path d="M434.5 210.1C434.5 210.2 434.5 210.4 434.4 210.5C434.3 210.6 434.3 210.7 434.2 210.8C434.1 210.9 434 211 433.9 211C433.8 211 433.6 211.1 433.5 211.1C433.4 211.1 433.2 211.1 433.1 211C433 211 432.9 210.9 432.8 210.8C432.7 210.7 432.6 210.6 432.6 210.5C432.6 210.4 432.5 210.3 432.5 210.1C432.5 210 432.5 209.8 432.6 209.7C432.6 209.6 432.7 209.5 432.8 209.4C432.9 209.3 433 209.2 433.1 209.2C433.2 209.2 433.3 209.1 433.5 209.1C433.7 209.1 433.8 209.1 433.9 209.2C434 209.3 434.1 209.3 434.2 209.4C434.3 209.5 434.4 209.6 434.4 209.7C434.4 209.8 434.5 209.9 434.5 210.1ZM434.2 212V218.6H432.6V212H434.2Z" fill="white"/>
<path d="M436 220.8V212H437C437.1 212 437.2 212 437.3 212.1C437.4 212.1 437.4 212.2 437.4 212.3L437.5 212.9C437.8 212.6 438.1 212.3 438.4 212.2C438.7 212 439.2 211.9 439.6 211.9C440 211.9 440.3 212 440.6 212.1C440.9 212.2 441.2 212.5 441.4 212.8C441.6 213.1 441.8 213.4 441.9 213.9C442 214.3 442.1 214.8 442.1 215.3C442.1 215.8 442 216.3 441.9 216.7C441.8 217.1 441.6 217.5 441.3 217.8C441 218.1 440.8 218.4 440.4 218.5C440.1 218.7 439.7 218.8 439.2 218.8C438.8 218.8 438.5 218.7 438.2 218.6C437.9 218.5 437.7 218.3 437.5 218.1V220.8H436ZM439.1 213.1C438.8 213.1 438.5 213.2 438.3 213.3C438.1 213.4 437.8 213.6 437.6 213.9V216.9C437.8 217.1 438 217.3 438.2 217.4C438.4 217.5 438.6 217.5 438.9 217.5C439.1 217.5 439.4 217.5 439.6 217.4C439.8 217.3 440 217.2 440.1 217C440.2 216.8 440.3 216.6 440.4 216.3C440.5 216 440.5 215.7 440.5 215.3C440.5 214.9 440.5 214.6 440.4 214.3C440.3 214 440.3 213.8 440.1 213.6C440 213.4 439.8 213.3 439.7 213.2C439.6 213.1 439.3 213.1 439.1 213.1Z" fill="white"/>
<path d="M445.5 218.7C444.9 218.7 444.5 218.5 444.2 218.2C443.9 217.9 443.7 217.4 443.7 216.9V213.2H443C442.9 213.2 442.8 213.2 442.8 213.1C442.7 213 442.7 213 442.7 212.9V212.3L443.8 212.1L444.1 210.3C444.1 210.2 444.2 210.2 444.2 210.1C444.3 210.1 444.3 210 444.4 210H445.2V212.1H446.9V213.2H445.2V216.8C445.2 217 445.2 217.2 445.4 217.3C445.5 217.4 445.6 217.5 445.8 217.5C445.9 217.5 446 217.5 446 217.5C446 217.5 446.1 217.5 446.2 217.4C446.3 217.3 446.3 217.4 446.3 217.3H446.4H446.5L446.6 217.4L447.1 218.2C446.9 218.4 446.6 218.5 446.3 218.6C446.1 218.7 445.8 218.7 445.5 218.7Z" fill="white"/>
<path d="M333.633 225.781C333.633 225.781 334.374 223.887 333.962 215.985C333.551 208.083 341.124 217.714 341.124 217.714C341.124 217.714 339.971 222.982 340.301 226.192C340.712 229.402 334.456 228.579 334.456 228.579L333.633 225.781Z" fill="#FF8E84"/>
<path d="M333.633 225.781C333.633 225.781 333.057 230.637 333.88 234.506L355.611 234.918C355.611 234.918 356.928 231.131 352.154 229.649C347.215 228.085 340.218 225.122 340.218 225.122C340.218 225.122 336.514 228.415 333.633 225.781Z" fill="#182E5A"/>
<path d="M333.88 234.588L355.611 235C355.611 235 355.94 234.012 355.693 232.777L333.551 232.366C333.551 233.107 333.715 233.847 333.88 234.588Z" fill="#F3EDEB"/>
<path d="M339.889 229.485C339.642 229.32 339.478 229.073 339.478 228.744C339.478 228.497 339.56 228.168 339.642 227.921C339.807 227.345 340.054 226.768 340.383 226.192C340.548 225.863 340.795 225.451 341.124 225.204C341.618 224.793 342.276 224.711 342.852 224.628C343.346 224.546 343.84 224.546 344.334 224.546H344.416C345.075 224.546 345.816 224.628 346.392 225.04C346.639 225.204 346.804 225.451 346.721 225.698C346.721 225.863 346.557 226.028 346.31 226.11C346.063 226.192 345.898 226.275 345.569 226.275C345.322 226.275 345.075 226.192 344.828 226.192C343.758 226.028 342.688 225.781 341.618 225.534C341.7 226.11 341.782 226.686 341.782 227.18C341.782 227.921 341.618 228.497 341.371 228.909C341.206 229.155 341.041 229.402 340.795 229.485C340.63 229.567 340.465 229.649 340.301 229.649C340.136 229.567 339.971 229.567 339.889 229.485ZM341.206 225.369C340.877 225.616 340.712 225.945 340.548 226.275C340.301 226.851 340.054 227.427 339.807 228.003C339.724 228.25 339.642 228.497 339.642 228.662C339.642 228.826 339.724 229.073 339.889 229.156C340.054 229.238 340.301 229.238 340.465 229.156C340.63 229.073 340.795 228.909 340.877 228.662C341.124 228.25 341.206 227.674 341.288 227.015C341.453 226.521 341.371 225.945 341.206 225.369C341.288 225.369 341.288 225.369 341.206 225.369ZM342.852 224.875C342.523 224.875 342.112 224.957 341.7 225.122C342.77 225.369 343.758 225.616 344.828 225.781C345.322 225.863 345.816 225.863 346.145 225.781C346.227 225.781 346.31 225.698 346.392 225.534C346.392 225.369 346.31 225.287 346.145 225.204C345.651 224.875 344.91 224.793 344.334 224.793H344.252C343.758 224.793 343.264 224.875 342.852 224.875Z" fill="#303030"/>
<path d="M355.776 232.942C355.858 232.942 355.94 232.86 355.94 232.777C355.94 232.695 355.858 232.613 355.776 232.613L333.716 232.201C333.633 232.201 333.551 232.283 333.551 232.366C333.551 232.448 333.633 232.53 333.716 232.53L355.776 232.942Z" fill="#303030"/>
<path d="M339.724 232.613C339.807 232.613 339.889 232.531 339.889 232.448C339.231 227.839 334.374 227.674 333.633 227.674C333.551 227.674 333.551 227.674 333.551 227.674C333.469 227.674 333.386 227.756 333.386 227.839C333.386 227.921 333.469 228.003 333.551 228.003C333.551 228.003 333.633 228.003 333.716 228.003C334.539 228.003 338.984 228.25 339.642 232.531C339.642 232.531 339.642 232.613 339.724 232.613Z" fill="#303030"/>
<path d="M341.947 232.613C341.947 232.613 342.029 232.613 341.947 232.613L342.112 232.53C344.087 231.46 346.227 230.884 348.532 230.884H354.047C354.13 230.884 354.212 230.802 354.212 230.72C354.212 230.637 354.13 230.555 354.047 230.555H348.532C346.227 230.555 344.005 231.131 342.029 232.284L341.947 232.366C341.865 232.366 341.865 232.53 341.865 232.53C341.865 232.613 341.865 232.613 341.947 232.613Z" fill="#303030"/>
<path d="M346.968 229.896C347.05 229.896 347.05 229.896 347.05 229.814L348.121 228.332C348.203 228.25 348.121 228.168 348.121 228.168C348.038 228.086 347.956 228.168 347.956 228.168L346.968 229.567L339.395 225.863C339.313 225.863 339.231 225.863 339.231 225.945C339.231 226.028 339.231 226.11 339.313 226.11L346.968 229.896Z" fill="#303030"/>
<path d="M307.786 225.781C307.786 225.781 308.527 223.887 308.116 215.985C307.704 208.083 315.277 217.714 315.277 217.714C315.277 217.714 314.125 222.982 314.454 226.192C314.865 229.402 308.61 228.579 308.61 228.579L307.786 225.781Z" fill="#FF8E84"/>
<path d="M307.786 225.781C307.786 225.781 307.21 230.637 308.033 234.506L329.764 234.918C329.764 234.918 331.081 231.131 326.307 229.649C321.368 228.085 314.372 225.122 314.372 225.122C314.372 225.122 310.75 228.415 307.786 225.781Z" fill="#182E5A"/>
<path d="M308.033 234.588L329.764 235C329.764 235 330.094 234.012 329.847 232.777L307.704 232.366C307.786 233.107 307.951 233.847 308.033 234.588Z" fill="#F3EDEB"/>
<path d="M314.042 229.485C313.795 229.32 313.631 229.073 313.631 228.744C313.631 228.497 313.713 228.168 313.795 227.921C313.96 227.345 314.207 226.768 314.536 226.192C314.701 225.863 314.948 225.451 315.277 225.204C315.771 224.793 316.429 224.711 317.006 224.628C317.5 224.546 317.993 224.546 318.487 224.546H318.57C319.228 224.546 319.969 224.628 320.545 225.04C320.792 225.204 320.957 225.451 320.874 225.698C320.874 225.863 320.71 226.028 320.463 226.11C320.216 226.192 320.051 226.275 319.722 226.275C319.475 226.275 319.228 226.192 318.981 226.192C317.911 226.028 316.841 225.781 315.771 225.534C315.853 226.11 315.936 226.686 315.936 227.18C315.936 227.921 315.771 228.497 315.524 228.909C315.359 229.155 315.195 229.402 314.948 229.485C314.783 229.567 314.619 229.649 314.454 229.649C314.289 229.567 314.125 229.567 314.042 229.485ZM315.442 225.369C315.112 225.616 314.948 225.945 314.783 226.275C314.536 226.851 314.289 227.427 314.042 228.003C313.96 228.25 313.878 228.497 313.878 228.662C313.878 228.826 313.96 229.073 314.125 229.156C314.289 229.238 314.536 229.238 314.701 229.156C314.866 229.073 315.03 228.909 315.112 228.662C315.359 228.25 315.442 227.674 315.524 227.015C315.606 226.521 315.606 225.945 315.442 225.369ZM317.006 224.875C316.676 224.875 316.265 224.957 315.853 225.122C316.923 225.369 317.911 225.616 318.981 225.781C319.475 225.863 319.969 225.863 320.298 225.781C320.381 225.781 320.463 225.698 320.545 225.534C320.545 225.369 320.463 225.287 320.298 225.204C319.804 224.875 319.064 224.793 318.487 224.793H318.405C317.993 224.793 317.5 224.875 317.006 224.875Z" fill="#303030"/>
<path d="M329.929 232.942C330.011 232.942 330.094 232.86 330.094 232.777C330.094 232.695 330.011 232.613 329.929 232.613L307.869 232.201C307.786 232.201 307.704 232.283 307.704 232.366C307.704 232.448 307.786 232.53 307.869 232.53L329.929 232.942Z" fill="#303030"/>
<path d="M313.878 232.613C313.878 232.613 313.96 232.613 313.878 232.613C313.96 232.613 314.042 232.531 314.042 232.448C313.384 227.839 308.527 227.674 307.786 227.674C307.704 227.674 307.704 227.674 307.704 227.674C307.622 227.674 307.54 227.756 307.54 227.839C307.54 227.921 307.622 228.003 307.704 228.003C307.704 228.003 307.786 228.003 307.869 228.003C308.692 228.003 313.137 228.25 313.795 232.531L313.878 232.613Z" fill="#303030"/>
<path d="M316.1 232.613C316.1 232.613 316.183 232.613 316.1 232.613L316.265 232.53C318.24 231.46 320.381 230.884 322.685 230.884H328.2C328.283 230.884 328.365 230.802 328.365 230.72C328.365 230.637 328.283 230.555 328.2 230.555H322.685C320.381 230.555 318.158 231.131 316.183 232.284L316.1 232.366C316.018 232.366 316.018 232.53 316.018 232.53C316.018 232.613 316.1 232.613 316.1 232.613Z" fill="#303030"/>
<path d="M321.121 229.896C321.204 229.896 321.204 229.896 321.204 229.814L322.274 228.332C322.356 228.25 322.274 228.168 322.274 228.168C322.191 228.086 322.109 228.168 322.109 228.168L321.121 229.567L313.548 225.863C313.466 225.863 313.384 225.863 313.384 225.945C313.384 226.028 313.384 226.11 313.466 226.11L321.121 229.896Z" fill="#303030"/>
<path d="M340.795 43.7012C340.959 45.5944 340.301 47.57 341.124 49.2163C341.453 49.8748 342.112 50.3687 342.605 50.9449C344.252 52.8381 344.91 55.5545 344.252 58.0239C343.84 59.5879 343.017 60.9872 342.852 62.5512C342.688 64.1152 343.593 66.0084 345.24 66.0907C344.169 66.5023 342.852 66.42 341.947 65.6791C341.042 65.0206 340.548 63.7859 340.63 62.6335C339.807 63.8682 339.971 65.5968 340.959 66.6669C339.889 66.8316 338.737 66.42 338.078 65.5145C337.996 66.0907 338.243 66.5846 338.737 66.9139C336.843 67.1608 334.786 66.6669 333.304 65.5145C333.386 66.173 333.716 66.7492 334.292 67.0785C331.164 67.0785 328.036 67.0785 324.908 67.1608C323.755 67.1608 322.521 67.1608 321.368 66.8316C320.216 66.5023 319.146 65.6791 318.817 64.5267C318.158 65.4322 318.57 66.9139 319.557 67.4077C318.57 67.1608 317.582 66.9139 316.841 66.42C316.1 65.9261 315.359 64.9383 315.524 63.9505C314.454 65.0206 314.701 67.1608 316.018 67.984C314.207 67.4901 312.725 66.173 311.984 64.4444C311.244 62.7158 311.408 60.7403 312.396 59.094C313.302 57.6123 314.783 56.5422 315.277 54.896C315.936 52.6735 314.536 49.9571 315.771 47.9815C316.347 46.9938 317.417 46.4176 318.076 45.5121C318.817 44.3597 318.899 42.878 319.393 41.6433C319.969 40.3263 321.121 39.3385 322.191 38.3507C322.685 37.9392 323.179 37.5276 323.755 37.2807C324.496 37.0337 325.319 37.1983 326.06 37.116C326.636 37.0337 327.213 36.7045 327.789 36.4575C329.847 35.5521 332.398 35.4697 334.127 36.8691C335.444 38.0215 336.103 39.997 337.667 40.8202C338.572 41.3141 339.807 41.3964 340.465 42.2195C340.548 42.5488 340.712 43.125 340.795 43.7012Z" fill="#182E5A"/>
<path d="M317.747 69.8771L323.673 66.9138L324.167 55.8837L332.481 56.2129L333.057 66.9138L335.033 68.0662L341.206 87.6571L327.954 90.7027L317.747 69.8771Z" fill="#FF8E84"/>
<path d="M332.892 63.3744L332.645 58.5179L324.167 56.6246C324.167 56.6246 325.237 63.2921 332.892 63.3744Z" fill="#E05252"/>
<path d="M341.042 87.3278C341.042 87.3278 346.227 103.132 348.532 103.955C350.837 104.778 375.531 99.5103 375.531 99.5103L375.037 95.8885L353.389 95.9708L345.733 75.7214L341.042 87.3278Z" fill="#FF8E84"/>
<path d="M321.78 107.166C321.78 107.166 321.945 101.568 317.253 90.1266L317.829 97.2879L304 96.1355C304 96.1355 306.716 74.5691 309.268 72.9228C311.82 71.2765 321.615 67.6547 321.615 67.6547C321.615 67.6547 330.835 72.3466 333.962 67.3254C333.962 67.3254 342.112 70.0418 344.499 70.9473C346.886 71.8527 350.837 87.0809 350.837 87.0809L347.215 89.0565C347.215 89.0565 347.215 93.4191 343.758 95.0654L341.042 109.059L330.341 112.105L321.78 107.166Z" fill="white"/>
<path d="M347.133 89.1388C347.215 89.1388 347.297 89.0565 347.297 88.9742C347.297 87.6572 346.227 85.7639 345.157 83.8707C344.087 81.9775 343.017 80.0842 342.852 78.6026C342.852 78.5203 342.77 78.5203 342.688 78.5203C342.605 78.5203 342.523 78.6026 342.605 78.6849C342.77 80.2489 343.923 82.2244 344.993 84.1177C346.063 86.0109 347.133 87.9041 347.133 89.1388C347.05 89.1388 347.05 89.0565 347.133 89.1388Z" fill="#E0E0FC"/>
<path d="M334.539 90.9497C334.539 90.9497 328.941 95.5593 322.438 91.5259C322.438 91.5259 328.694 98.8519 334.539 90.9497Z" fill="#E0E0FC"/>
<path d="M321.78 107.166C321.78 107.166 335.938 110.047 341.371 107.495C341.371 107.495 347.544 119.842 348.779 133.424C349.767 143.713 342.359 202.815 342.688 222.735H332.563L330.258 138.692C330.258 138.692 317.417 210.141 316.676 221.583L305.976 221.254C305.976 221.254 307.622 183.8 308.692 175.24C309.762 166.679 308.527 131.037 311.244 123.546C313.96 116.22 321.78 107.166 321.78 107.166Z" fill="#2A28FB"/>
<path d="M316.265 97.0409C316.265 97.0409 316.759 104.367 317.17 104.367C318.076 104.449 337.914 112.104 337.914 112.104L335.856 115.15C335.856 115.15 312.478 114.409 308.363 107.824C307.869 107.001 306.387 96.2178 306.387 96.2178L316.265 97.0409Z" fill="#FF8E84"/>
<path d="M322.768 52.015C322.768 52.015 322.109 49.7925 320.298 51.3564C319.557 52.015 320.381 54.4844 322.85 53.9905C322.768 53.9905 323.509 53.4966 322.768 52.015Z" fill="#FF8E84"/>
<path d="M368.781 95.8063L375.284 95.2301C375.284 95.2301 380.882 96.2179 381.046 96.9587C381.129 97.6995 379.235 102.885 379.235 102.885C379.235 102.885 376.107 101.404 372.403 99.8397C372.321 99.8397 367.711 100.91 367.711 100.91L368.781 95.8063Z" fill="#FF8E84"/>
<path d="M372.897 95.724C372.897 95.724 374.955 94.6539 378.165 93.9954C379.4 93.7485 382.034 92.1022 382.199 92.9253C382.363 93.7485 378.742 95.2301 378.742 95.4771C378.742 95.724 380.717 96.6295 380.717 96.6295L377.26 97.041L372.897 95.724Z" fill="#FF8E84"/>
<path d="M379.482 96.4648C379.482 96.4648 387.467 97.288 387.549 97.9465C387.632 98.605 381.046 98.1111 381.046 98.1111C381.046 98.1111 387.961 99.9221 387.878 100.581C387.796 101.239 380.388 99.7574 380.388 99.7574C380.388 99.7574 386.644 102.803 386.397 103.379C386.15 103.955 379.647 101.404 379.647 101.404C379.647 101.404 384.174 104.696 383.927 105.19C383.68 105.684 379.153 102.885 379.153 102.885L376.107 101.074L379.482 96.4648Z" fill="#FF8E84"/>
<path d="M335.609 111.775L344.169 108.977L351.166 114.656L342.852 116.056L334.209 115.15L335.609 111.775Z" fill="#FF8E84"/>
<path d="M380.47 119.184H375.367V234.424H380.47V119.184Z" fill="#8E92C1"/>
<path d="M328.612 119.184H323.509V234.424H328.612V119.184Z" fill="#8E92C1"/>
<path d="M381.869 117.702H321.121V127.662H381.869V117.702Z" fill="#8E92C1"/>
<path d="M370.016 153.426V152.603C380.305 152.603 383.598 148.241 383.598 134.576C383.598 132.683 383.598 130.954 383.598 129.391C383.68 122.888 383.763 118.937 382.116 117.29C381.458 116.632 380.388 116.303 378.906 116.303V115.479C380.635 115.479 381.869 115.891 382.693 116.714C384.586 118.607 384.504 122.723 384.421 129.473C384.421 131.037 384.421 132.765 384.421 134.576C384.421 141.902 383.516 146.183 381.458 149.064C379.235 152.027 375.696 153.426 370.016 153.426Z" fill="#FFAE6F"/>
<path d="M378.824 168.408H324.332V173.676H378.824V168.408Z" fill="#8E92C1"/>
<path d="M386.891 85.8462L343.676 86.5047L338.161 118.031L381.046 117.867L386.891 85.8462Z" fill="#B6B6B6"/>
<path d="M348.593 114.961L321.103 115.339L321.14 118.055L348.63 117.677L348.593 114.961Z" fill="#B6B6B6"/>
<path d="M368.123 99.675C368.123 97.6171 366.394 95.9708 364.336 96.0531C362.279 96.0531 360.632 97.7817 360.715 99.8396C360.715 101.897 362.443 103.544 364.501 103.461C366.477 103.379 368.123 101.733 368.123 99.675Z" fill="white"/>
<path d="M372.486 157.954H332.645V168.408H372.486V157.954Z" fill="#666EA7"/>
<path d="M367.958 165.527H336.679C335.526 165.527 334.621 164.621 334.621 163.469C334.621 162.316 335.526 161.411 336.679 161.411H367.958C369.111 161.411 370.016 162.316 370.016 163.469C370.016 164.621 369.111 165.527 367.958 165.527Z" fill="#182E5A"/>
<path d="M368.535 163.469C368.535 162.728 367.958 162.152 367.218 162.152C366.477 162.152 365.9 162.728 365.9 163.469C365.9 164.21 366.477 164.786 367.218 164.786C367.958 164.868 368.535 164.292 368.535 163.469Z" fill="#FFAE6F"/>
<path d="M365.077 163.469C365.077 162.728 364.501 162.152 363.76 162.152C363.019 162.152 362.443 162.728 362.443 163.469C362.443 164.21 363.019 164.786 363.76 164.786C364.501 164.868 365.077 164.292 365.077 163.469Z" fill="#FFAE6F"/>
<path d="M361.538 163.469C361.538 162.728 360.962 162.152 360.221 162.152C359.48 162.152 358.904 162.728 358.904 163.469C358.904 164.21 359.48 164.786 360.221 164.786C360.962 164.868 361.538 164.292 361.538 163.469Z" fill="#FFAE6F"/>
<path d="M358.081 163.469C358.081 162.728 357.504 162.152 356.764 162.152C356.023 162.152 355.447 162.728 355.447 163.469C355.447 164.21 356.023 164.786 356.764 164.786C357.504 164.868 358.081 164.292 358.081 163.469Z" fill="#FFAE6F"/>
<path d="M354.541 163.469C354.541 162.728 353.965 162.152 353.224 162.152C352.483 162.152 351.907 162.728 351.907 163.469C351.907 164.21 352.483 164.786 353.224 164.786C353.965 164.868 354.541 164.292 354.541 163.469Z" fill="#FFAE6F"/>
<path d="M351.084 163.469C351.084 162.728 350.508 162.152 349.767 162.152C349.026 162.152 348.45 162.728 348.45 163.469C348.45 164.21 349.026 164.786 349.767 164.786C350.508 164.786 351.084 164.292 351.084 163.469Z" fill="#FFAE6F"/>
<path d="M372.568 147.006H332.728V157.46H372.568V147.006Z" fill="#666EA7"/>
<path d="M368.041 154.579H336.761C335.609 154.579 334.703 153.673 334.703 152.521C334.703 151.368 335.609 150.463 336.761 150.463H368.041C369.193 150.463 370.099 151.368 370.099 152.521C370.099 153.673 369.193 154.579 368.041 154.579Z" fill="#182E5A"/>
<path d="M368.617 152.603C368.617 151.862 368.041 151.286 367.3 151.286C366.559 151.286 365.983 151.862 365.983 152.603C365.983 153.344 366.559 153.92 367.3 153.92C368.041 153.92 368.617 153.344 368.617 152.603Z" fill="#FFAE6F"/>
<path d="M365.16 152.603C365.16 151.862 364.583 151.286 363.843 151.286C363.102 151.286 362.526 151.862 362.526 152.603C362.526 153.344 363.102 153.92 363.843 153.92C364.583 153.92 365.16 153.344 365.16 152.603Z" fill="#FFAE6F"/>
<path d="M360.221 153.92C360.948 153.92 361.538 153.331 361.538 152.603C361.538 151.876 360.948 151.286 360.221 151.286C359.493 151.286 358.904 151.876 358.904 152.603C358.904 153.331 359.493 153.92 360.221 153.92Z" fill="#FFAE6F"/>
<path d="M358.163 152.603C358.163 151.862 357.587 151.286 356.846 151.286C356.105 151.286 355.529 151.862 355.529 152.603C355.529 153.344 356.105 153.92 356.846 153.92C357.504 153.92 358.163 153.344 358.163 152.603Z" fill="#FFAE6F"/>
<path d="M354.623 152.603C354.623 151.862 354.047 151.286 353.306 151.286C352.566 151.286 351.989 151.862 351.989 152.603C351.989 153.344 352.566 153.92 353.306 153.92C354.047 153.92 354.623 153.344 354.623 152.603Z" fill="#FFAE6F"/>
<path d="M351.166 152.603C351.166 151.862 350.59 151.286 349.849 151.286C349.108 151.286 348.532 151.862 348.532 152.603C348.532 153.344 349.108 153.92 349.849 153.92C350.59 153.92 351.166 153.344 351.166 152.603Z" fill="#FFAE6F"/>
<path d="M372.486 157.46H332.645V158.283H372.486V157.46Z" fill="#182E5A"/>
<path d="M336.597 46.6644C337.173 48.9692 336.267 48.393 336.514 52.1795C336.761 55.966 335.197 58.847 333.88 60.5756C332.975 61.728 331.575 62.1396 330.835 62.3042C330.505 62.3865 330.094 62.3042 329.764 62.2219C328.2 61.728 323.591 59.5055 321.368 51.521C318.652 41.8079 327.295 39.5031 327.295 39.5031C334.786 36.9513 335.938 44.3596 336.597 46.6644Z" fill="#F9A9A5"/>
<path d="M338.572 48.0638C338.572 46.3352 338.49 44.5243 337.749 42.9603C337.255 41.8902 336.432 40.9848 335.691 40.1616C335.033 39.4208 334.374 38.68 333.551 38.1861C332.316 37.363 330.917 37.0337 329.435 37.0337C327.295 37.0337 325.072 37.6922 323.344 39.0916C321.368 40.6555 320.134 43.125 319.969 45.6767C319.804 48.2285 320.628 50.7802 322.191 52.8381C323.92 51.768 325.155 50.0394 325.731 48.1461C325.978 47.2407 326.143 46.2529 326.472 45.4298C326.801 44.5243 327.46 43.7012 328.365 43.4542C328.694 43.3719 329.106 43.3719 329.435 43.2073C329.847 43.0426 330.258 42.7134 330.67 42.5488C331.822 42.1372 333.057 43.3719 333.386 44.6066C333.716 45.8413 333.633 47.1584 334.292 48.2285C334.703 48.9693 335.444 49.4632 335.938 50.0394C337.337 51.6034 337.914 53.8258 337.42 55.8014C338.572 53.332 338.572 50.6979 338.572 48.0638Z" fill="#182E5A"/>
<path d="M331.905 55.0606C331.822 55.0606 331.822 55.0606 331.905 55.0606C331.74 54.8959 331.658 54.7313 331.74 54.5667C331.74 54.5667 331.74 54.4844 331.822 54.4844C331.987 54.4844 332.234 54.4021 332.398 54.3197C332.563 54.2374 332.645 54.0728 332.645 53.9082C332.645 53.7435 332.563 53.5789 332.481 53.4966V53.4143C331.987 52.5088 331.987 51.3564 331.987 50.451C331.987 50.3687 332.069 50.3687 332.069 50.3687C332.152 50.3687 332.152 50.3687 332.152 50.451C332.152 51.3564 332.152 52.4265 332.645 53.332V53.4143C332.728 53.5789 332.81 53.7435 332.81 53.9082C332.81 54.1551 332.645 54.3197 332.398 54.4844C332.234 54.5667 331.987 54.649 331.822 54.649C331.822 54.7313 331.822 54.8136 331.905 54.8959C331.987 54.9783 331.987 54.9783 331.905 55.0606Z" fill="#E05252"/>
<path d="M334.374 56.2131C334.374 56.2131 329.6 56.6246 328.447 56.1307C328.447 56.1307 330.505 58.7648 332.234 58.4355C333.88 58.1063 334.374 56.2131 334.374 56.2131Z" fill="white"/>
<path d="M203.9 224.1L197.5 226.7C197.5 226.7 192.4 217.5 189.5 216.9L187.5 215.7C184.5 214 180.8 214.3 178.1 216.4L174.2 219.4L170 218.1L164.4 230.5L170.6 235.1C170.6 235.1 170.3 239.7 171.9 241C173.4 242.3 180.2 242.6 180.2 242.6L197.6 240.9L211.4 235.9L203.9 224.1Z" fill="#FF8E84"/>
<path d="M170.6 235.4C170.5 235.4 170.4 235.3 170.4 235.2C170.1 234.4 171.2 233.3 171.7 233C171.7 232.9 171.6 232.8 171.6 232.7C171 230.8 171.6 228.8 171.7 228.3C171.4 227.6 170.5 225.3 171.6 224.7C172.6 224.2 184.3 221.6 184.7 221.5C184.8 221.5 184.9 221.5 184.9 221.6L189.5 226.3L189.6 226.4C190.4 230.4 192.7 231.3 193.5 231.5L192.3 222.5L188.9 216.6C188.8 216.5 188.9 216.3 189 216.2C189.1 216.1 189.3 216.2 189.4 216.3L192.9 222.2V222.3L194.2 231.7C194.2 231.8 194.2 231.9 194.1 231.9C194 232 194 232 193.9 232C193.8 232 190.3 231.7 189.2 226.5L184.7 221.9C181.3 222.7 172.6 224.6 171.8 225.1C171.2 225.4 171.8 227.3 172.2 228.1C172.2 228.2 172.2 228.2 172.2 228.3C172.2 228.3 171.5 230.6 172.1 232.5C172.3 233 172.4 233.3 172.4 233.5C172.5 233.8 172.4 233.8 172.3 233.9C172.1 234 172 233.9 171.9 233.6C171.4 234.1 170.9 234.8 171 235.1C170.9 235.2 170.8 235.3 170.6 235.4Z" fill="#D75050"/>
<path d="M26.2 463.1L28 416.4L41.9 418.5L39.7 464.3L26.2 463.1Z" fill="#FF8E84"/>
<path d="M26.2 458.5C26.2 458.5 21.9 470.1 23.8 479.1L73.9 480C73.9 480 77.2 470.4 65.9 467.8C54.6 465.2 40.2 456.3 40.2 456.3C40.2 456.3 32.9 464.5 26.2 458.5Z" fill="#E7704F"/>
<path d="M23.8 479.1L73.9 480C73.9 480 74.7 477.7 74.1 475L23.3 474C23.3 475.8 23.4 477.5 23.8 479.1Z" fill="#FBEAD4"/>
<path d="M38.4 467.6C38.1 467.6 37.8 467.5 37.5 467.4C36.9 467.1 36.6 466.4 36.5 465.7C36.5 465.1 36.6 464.4 36.8 463.9C37.2 462.5 37.8 461.2 38.5 459.9C38.9 459.1 39.5 458.2 40.3 457.5C41.4 456.6 42.9 456.3 44.3 456.2C45.4 456.1 46.6 456 47.7 456H47.9C49.4 456 51.1 456.1 52.5 457.1C53.1 457.5 53.4 458.1 53.3 458.6C53.2 459 52.9 459.3 52.4 459.5C51.9 459.7 51.4 459.8 50.8 459.8C50.2 459.8 49.5 459.7 49 459.6C46.5 459.2 44.1 458.6 41.7 458C42 459.3 42.1 460.6 42 461.9C41.9 463.6 41.6 464.9 41 466C40.6 466.7 40.2 467.1 39.7 467.4C39.2 467.5 38.8 467.6 38.4 467.6ZM40.8 458C40.8 458 40.7 458 40.8 458C40 458.6 39.5 459.4 39.1 460.2C38.4 461.5 37.9 462.8 37.5 464.1C37.3 464.6 37.2 465.1 37.2 465.7C37.2 466.1 37.4 466.6 37.8 466.9C38.2 467.1 38.7 467.1 39.1 466.8C39.5 466.6 39.8 466.2 40.1 465.6C40.7 464.6 40.9 463.4 41 461.8C41.2 460.5 41.1 459.2 40.8 458ZM41.7 457.4C44.1 458 46.5 458.6 48.9 459C49.4 459.1 50 459.2 50.6 459.2C51.1 459.2 51.6 459.1 52 458.9C52.2 458.8 52.5 458.7 52.5 458.4C52.6 458.1 52.3 457.8 52 457.6C50.8 456.7 49.2 456.6 47.8 456.6H47.6C46.5 456.6 45.4 456.7 44.3 456.8C43.4 456.9 42.5 457.1 41.7 457.4Z" fill="#303030"/>
<path d="M74.1 475.3L23.3 474.4C23.1 474.4 23 474.2 23 474.1C23 473.9 23.1 473.8 23.3 473.8L74.1 474.7C74.3 474.7 74.4 474.9 74.4 475C74.4 475.2 74.3 475.3 74.1 475.3Z" fill="#303030"/>
<path d="M37.2 474.5C37 474.5 36.9 474.4 36.9 474.2C35.3 463.2 25.8 460.2 25.7 460.2C25.5 460.1 25.4 460 25.5 459.8C25.6 459.6 25.7 459.5 25.9 459.6C26 459.6 35.9 462.7 37.6 474.1C37.6 474.4 37.5 474.5 37.2 474.5C37.3 474.5 37.3 474.5 37.2 474.5Z" fill="#303030"/>
<path d="M43.4 474.7C43.3 474.7 43.2 474.6 43.1 474.5C43 474.3 43.1 474.1 43.2 474.1L43.4 474C48 471.4 53.2 470 58.4 470L71.1 469.9C71.3 469.9 71.4 470 71.4 470.2C71.4 470.4 71.3 470.5 71.1 470.5L58.4 470.6C53.3 470.6 48.2 472 43.7 474.5L43.5 474.6C43.5 474.7 43.4 474.7 43.4 474.7Z" fill="#303030"/>
<path d="M54 468.4H53.9L36.2 459.7C36 459.6 36 459.4 36.1 459.3C36.2 459.1 36.4 459.1 36.5 459.2L53.9 467.8L56.2 464.7C56.3 464.6 56.5 464.5 56.7 464.6C56.8 464.7 56.9 464.9 56.8 465.1L54.3 468.5C54.2 468.4 54.1 468.4 54 468.4Z" fill="#303030"/>
<path d="M100.5 460.4L95.9 415.6L110.6 415.9L114 461.5L100.5 460.4Z" fill="#FF8E84"/>
<path d="M99.7 457.8C99.7 457.8 95.4 469.4 97.3 478.4L147.4 479.3C147.4 479.3 150.7 469.7 139.4 467.1C128.1 464.5 113.7 455.6 113.7 455.6C113.7 455.6 106.5 463.8 99.7 457.8Z" fill="#E7704F"/>
<path d="M97.3 478.4L147.4 479.3C147.4 479.3 148.2 477 147.6 474.3L96.8 473.4C96.8 475.1 97 476.8 97.3 478.4Z" fill="#FBEAD4"/>
<path d="M112 467C111.7 467 111.4 466.9 111.1 466.8C110.5 466.5 110.2 465.8 110.1 465.1C110.1 464.4 110.2 463.8 110.4 463.3C110.8 461.9 111.4 460.6 112.1 459.3C112.5 458.5 113.1 457.6 113.9 457C115 456.1 116.5 455.8 117.9 455.7C119 455.6 120.2 455.5 121.3 455.5H121.5C123 455.5 124.7 455.6 126.1 456.6C126.7 457 127 457.6 126.9 458.1C126.8 458.5 126.5 458.8 126 459C125.5 459.2 125 459.3 124.4 459.3C123.8 459.3 123.1 459.2 122.6 459.1C120.1 458.7 117.7 458.1 115.3 457.5C115.6 458.8 115.7 460.1 115.6 461.4C115.5 463.1 115.2 464.4 114.6 465.5C114.2 466.2 113.8 466.6 113.3 466.9C112.7 466.9 112.3 467 112 467ZM114.3 457.3C113.5 457.9 113 458.7 112.6 459.5C111.9 460.7 111.4 462.1 111 463.4C110.8 463.9 110.7 464.4 110.7 465C110.7 465.5 111 466 111.3 466.2C111.7 466.4 112.2 466.4 112.6 466.1C113 465.9 113.3 465.5 113.6 464.9C114.2 463.9 114.4 462.7 114.5 461.1C114.7 459.9 114.6 458.5 114.3 457.3ZM115.3 456.7C117.7 457.3 120.1 457.8 122.5 458.3C123 458.4 123.6 458.5 124.2 458.5C124.7 458.5 125.2 458.4 125.6 458.2C125.8 458.1 126.1 458 126.1 457.7C126.2 457.4 125.9 457.1 125.6 456.9C124.4 456 122.8 455.9 121.4 455.9H121.2C120.1 455.9 119 456 117.9 456.1C117 456.2 116.1 456.4 115.3 456.7Z" fill="#303030"/>
<path d="M147.7 474.6L96.9 473.7C96.7 473.7 96.6 473.5 96.6 473.4C96.6 473.2 96.7 473.1 96.9 473.1L147.7 474C147.9 474 148 474.2 148 474.3C148 474.5 147.9 474.6 147.7 474.6Z" fill="#303030"/>
<path d="M110.8 473.9C110.6 473.9 110.5 473.8 110.5 473.6C108.9 462.6 99.4 459.6 99.3 459.6C99.1 459.5 99 459.4 99.1 459.2C99.2 459 99.3 458.9 99.5 459C99.6 459 109.5 462.1 111.2 473.5C111.2 473.7 111 473.8 110.8 473.9Z" fill="#303030"/>
<path d="M116.9 474C116.8 474 116.7 473.9 116.6 473.8C116.5 473.6 116.6 473.4 116.7 473.4L116.9 473.3C121.5 470.7 126.7 469.3 131.9 469.3L144.6 469.2C144.8 469.2 144.9 469.3 144.9 469.5C144.9 469.7 144.8 469.8 144.6 469.8L132 470C126.9 470 121.8 471.4 117.3 473.9L117.1 474C117.1 474 117 474 116.9 474Z" fill="#303030"/>
<path d="M127.5 467.7H127.4L109.7 459C109.5 458.9 109.5 458.7 109.6 458.6C109.7 458.4 109.9 458.4 110 458.5L127.4 467.1L129.7 464C129.8 463.9 130 463.8 130.2 463.9C130.3 464 130.4 464.2 130.3 464.4L127.8 467.8C127.7 467.7 127.6 467.7 127.5 467.7Z" fill="#303030"/>
<path d="M26.1 239.4L27.8 362.6L21.1 452.4L47.4 453.9L58.6 365L68.9 297.6C68.9 297.6 80.9 365.3 80.9 368.1C80.9 370.8 91.8 454.3 91.8 454.3L117.6 450.9L112.8 366L100.8 233.3L38.2 232.3L26.1 239.4Z" fill="#2A28FB"/>
<path d="M32.9 134.4L26.3 258.8L105.5 258.6L90.4 132.3L71.2 116.9L45.6 119.7L32.9 134.4Z" fill="white"/>
<path d="M48.9 90.6C48.9 90.6 49.2 113.9 46.5 118.6C43.8 123.2 68.6 129.5 72.6 118C72.7 117.8 70.5 114.8 69.7 104.1L48.9 90.6Z" fill="#FF8E84"/>
<path d="M47.6 113.8L25.9 122.2C15.6 126.2 8.2 135.4 6.5 146.3L1.2 180C-1.4 193.2 0.0999985 206.8 5.5 219.1L27 268.6L43.4 256.3L52.6 255.8L47.6 113.8Z" fill="#F46C6B"/>
<path d="M71.4 114.1L84 255H106.8L104.2 199.6L108.5 207.6L161.9 234.6L170.8 215.4L124.6 187.7L107.6 133.1C106.6 129.8 104.1 127.2 101 125.9L71.4 114.1Z" fill="#F46C6B"/>
<path d="M43.5 256.7C43.3 256.7 43.1 256.6 43.1 256.4L25 208.9C23.4 204.6 22.8 200 23.4 195.5L27.9 162C27.9 161.7 28.2 161.5 28.4 161.6C28.7 161.6 28.8 161.9 28.8 162.1L24.3 195.6C23.7 200 24.2 204.5 25.8 208.6L43.9 256.1C44 256.3 43.9 256.6 43.6 256.7H43.5Z" fill="#182E5A"/>
<path d="M104.3 200C104.1 200 103.9 199.8 103.8 199.6L100.7 165.5C100.7 165.2 100.9 165 101.1 165C101.4 165 101.6 165.2 101.6 165.4L104.7 199.5C104.8 199.8 104.6 200 104.3 200Z" fill="#182E5A"/>
<path d="M40.6 258.3L42.2 260.9L48.4 264.7C48.4 264.7 45.1 284.7 37.6 287.3L32.2 268.3L30.7 266L40.6 258.3Z" fill="#FF8E84"/>
<path d="M70.3 109.8C70 108.2 69.8 106.3 69.6 104L48.9 90.6C48.9 90.6 48.9 93.4 48.9 97.2C50.9 102 56.7 110.8 70.3 109.8Z" fill="#D75050"/>
<path d="M235.4 63.4C235.1 67.3 236.5 71.4 234.6 74.8C233.8 76.2 232.6 77.2 231.6 78.4C228.1 82.3 226.8 88 228.1 93.1C228.9 96.3 230.7 99.2 231.1 102.5C231.5 105.8 229.5 109.7 226.2 109.8C228.4 110.7 231.1 110.4 233 109C234.9 107.6 236 105.1 235.7 102.7C237.4 105.2 237.1 108.8 235.1 111C237.3 111.4 239.7 110.4 241 108.6C241.1 109.7 240.6 110.9 239.7 111.6C243.6 112.2 247.8 111.1 251 108.7C250.9 110 250.1 111.2 249 112C255.5 112 261.9 112.1 268.4 112.1C270.9 112.1 273.4 112.1 275.7 111.4C278 110.7 280.2 109 281 106.7C282.4 108.6 281.6 111.7 279.4 112.7C281.4 112.2 283.4 111.7 285.1 110.6C286.8 109.5 288.1 107.5 287.9 105.5C290.2 107.8 289.7 112.2 286.9 113.9C290.6 112.9 293.8 110.2 295.2 106.6C296.7 103.1 296.4 98.9 294.4 95.6C292.6 92.5 289.5 90.2 288.5 86.8C287.1 82.1 290 76.6 287.5 72.4C286.3 70.4 284 69.2 282.7 67.2C281.1 64.8 281 61.8 279.9 59.2C278.7 56.4 276.4 54.4 274.2 52.4C273.2 51.5 272.2 50.6 271 50.3C269.5 49.8 267.8 50.2 266.3 49.9C265 49.7 263.9 49 262.7 48.5C258.5 46.7 253.2 46.4 249.6 49.4C246.8 51.8 245.5 55.8 242.3 57.5C240.4 58.5 237.8 58.7 236.4 60.4C235.8 61.2 235.5 62.3 235.4 63.4Z" fill="#182E5A"/>
<path d="M283 117.8L270.9 111.6L269.8 88.8L252.5 89.5L251.5 111.5L247.3 113.9L234.6 154.6L262.1 160.9L283 117.8Z" fill="#FF8E84"/>
<path d="M251.8 104.3L252.2 94.2L269.8 90.2C269.8 90.2 267.6 104.1 251.8 104.3Z" fill="#D75050"/>
<path d="M274.8 194.9C274.8 194.9 274.4 183.3 284.2 159.6L285.7 174.3L275.2 113.1C275.2 113.1 256 122.9 249.7 112.3C249.7 112.3 232.5 117.2 227.9 119.8C223.2 122.4 220 153.9 219 150.3L222.3 157.4C222.3 157.4 222.3 166.4 229.4 169.8L235 198.7L257.2 205.1L274.8 194.9Z" fill="white"/>
<path d="M248.4 161.4C248.4 161.4 260 171 273.5 162.5C273.4 162.5 260.5 177.8 248.4 161.4Z" fill="#F6E6D7"/>
<path d="M247.3 428.6C247.3 428.6 246.2 437.5 246.9 443.9C247 445.2 250.9 452.4 250.9 452.4L240 467.3L231.3 475.3L226.1 470.9C226.1 470.9 236.1 456 236.7 448C237.3 439.9 232.6 424 232.6 424L247.3 428.6Z" fill="#FF8E84"/>
<path d="M246.9 463.1C246.9 463.1 249.3 469.5 249.4 475.1L251.4 474.9C251.4 474.9 251.6 462.4 253 459.8L246.9 463.1Z" fill="#FFAE6F"/>
<path d="M212.5 479.1C212.6 478.4 224.3 472.1 226.1 470.9C233.2 473.7 238.3 466.9 245.2 452.9C246.1 451.1 248 449.2 249.3 448C250.8 450.8 252.5 452.7 253.5 455.1C255.6 459.9 252.8 460.9 247.2 463.6C241.6 466.3 239.3 476 239.3 476C230 479.9 212.4 479.9 212.5 479.1Z" fill="#FFAE6F"/>
<path d="M305.9 431.3C305.9 431.3 304 440.1 304.1 446.5C304.1 447.8 307.3 455.4 307.3 455.4L295.1 469.2L285.8 476.4L281 471.5C281 471.5 291.6 457.9 292.9 449.9C294.3 441.9 291.7 425.4 291.7 425.4L305.9 431.3Z" fill="#FF8E84"/>
<path d="M302.3 465.6C302.3 465.6 304.1 472.2 303.7 477.8H305.7C305.7 477.8 307 465.3 308.6 462.9L302.3 465.6Z" fill="#FFAE6F"/>
<path d="M266.6 478.5C266.7 477.8 278.9 472.5 280.9 471.5C287.8 475 293.4 468.6 301.5 455.2C302.5 453.5 304.6 451.8 306 450.7C307.2 453.6 308.7 455.6 309.6 458.2C311.3 463.1 308.3 463.9 302.6 466.1C296.8 468.3 293.6 477.7 293.6 477.7C284 480.8 266.5 479.2 266.6 478.5Z" fill="#FFAE6F"/>
<path d="M274.8 194.9C274.8 194.9 245.5 200.9 234.2 195.7C234.2 195.7 221.4 221.2 218.8 249.4C216.8 270.7 230.8 401.2 230.1 442.5H253L257.1 260.3C257.1 260.3 285.3 417.7 286.8 441.4H310.5C310.5 441.4 304.1 353.9 301.9 336.2C299.6 318.5 302.3 244.5 296.6 229.1C290.9 213.7 274.8 194.9 274.8 194.9Z" fill="#182E5A"/>
<path d="M270.9 111.3C270.9 111.3 264.7 159.7 256.8 186L265.8 264.3L306.9 257C306.9 257 289.1 199 288.3 196.1C287.5 193.3 294.2 120.3 294.2 120.3L270.9 111.3Z" fill="#A0A2DA"/>
<path d="M294.3 120.3C303.6 123.6 307.7 125.8 307.7 128.5C307.7 131.1 306.9 135.6 306.9 135.6L279.4 209.5L203 239.9L196.8 223.7L257.9 194.7L266.1 176L294.3 120.3Z" fill="#A0A2DA"/>
<path d="M251.5 111.5C251.5 111.5 233.4 153.6 232.7 157C231.9 160.4 238 185.2 238 185.2L231.1 263.2L215.3 262.4L227.9 191.4L224 174.2L221 181.2L227.7 201.4L220.6 235.9L201 183.2C200 180.6 200.1 177.7 201.3 175.1L222.2 128.5C222.2 128.5 220.7 122.1 226 120.2C231.1 118.3 251.5 111.5 251.5 111.5Z" fill="#A0A2DA"/>
<path d="M227.6 187C227.5 187 227.3 186.9 227.3 186.8L221.9 157.5C221.9 154.7 224.1 150.9 226.4 146.8C228.6 142.9 230.8 138.9 231.2 135.8C231.2 135.7 231.3 135.6 231.5 135.6C231.7 135.6 231.8 135.8 231.7 135.9C231.3 139.2 229 143.2 226.8 147.1C224.5 151.1 222.4 154.9 222.4 157.5L227.8 186.8C227.9 186.8 227.8 186.9 227.6 187Z" fill="#070724"/>
<path d="M270.9 111.3C270.9 111.3 263.2 168.1 256.8 186L275.2 155.9L272 147.4L281.6 115.3L270.9 111.3Z" fill="#666EA7"/>
<path d="M251.5 111.5L232.6 157C232.6 157 233 165.8 237.9 185.2L226.1 157L235.7 142.7L241.5 114.7L251.5 111.5Z" fill="#666EA7"/>
<path d="M202.8 240.1L196.4 223.4C196.3 223.3 196.4 223.1 196.5 223.1L264.5 190.3C264.6 190.2 264.8 191.7 264.7 191.7L197 223.5L203.2 239.6C203.2 239.6 282.1 207.6 282.2 207.8C282.3 207.9 282.8 208.9 282.6 208.9L203.2 240.2C203.1 240.2 203 240.2 202.8 240.1C202.9 240.2 202.9 240.2 202.8 240.1Z" fill="#18173F"/>
<path d="M80.2 76.7C81.5 81.3 79.5 80.2 80.1 87.7C80.7 95.2 77.2 100.9 74.4 104.3C71.6 107.7 66.4 107.9 66.4 107.9C66.4 107.9 52.7 105.6 46.7 86.3C40.7 67 59.9 62.4 59.9 62.4C76.3 57.4 78.9 72.1 80.2 76.7Z" fill="#F9A9A5"/>
<path d="M262 56.4001C262 56.4001 279.2 61.0001 273.9 80.3001C269.2 97.2001 259.1 101.1 256.7 101.8C256.3 101.9 256 101.9 255.6 101.9C254.3 101.7 251 101 248.9 98.4001C246.3 95.0001 243.2 89.3001 243.7 81.8001C244.3 74.3001 242.4 75.4001 243.6 70.8001C244.8 66.1001 247.1 51.4001 262 56.4001Z" fill="#F9A9A5"/>
<path d="M47.6 86.5C47.6 86.5 51.9 80.4 51.3 68.9C51.3 68.9 56.1 66.8 59.5 66.8C62.8 66.9 67 69.4 73.6 68.5C80.2 67.6 82.6 62.5 82.6 62.5C82.6 62.5 81.3 62.7 80.5 62.7C80.5 62.7 82.3 60.3 84.2 56.1C84.2 56.1 82.6 56.6 76.2 56.2C76.2 56.2 77.9 54.5 78.8 52.5C78.8 52.5 73.8 54 67.3 53.6C60.8 53.1 52.2 52.6 48.5 55.7C44.7 58.8 44.6 59.4 44.6 59.4C44.6 59.4 45.6 54.6 47.3 53.4C47.3 53.4 43.1 55.7 43.2 60.1C43.2 60.1 40.7 60.7 39.5 61.2C38.2 61.7 42.6 61.2 42.6 61.2C42.6 61.2 36 73.8 46.5 89.6L47.6 86.5Z" fill="#182E5A"/>
<path d="M44.4 59.4001C44.4 59.4001 46.9 54.0001 51.7 51.7001C56.5 49.4001 66.4 50 70 48.3C70 48.3 67.6 52.1001 61.8 54.2001C56 56.3001 51.6 59 51.6 59L44.4 59.4001Z" fill="#182E5A"/>
<path d="M76.7 67.1001C76.7 67.1001 79.3 74.9001 80.2 79.1001C80.2 79.1001 80.5 67.4001 78.6 64.4001C76.7 61.4001 76.7 67.1001 76.7 67.1001Z" fill="#182E5A"/>
<path d="M49.5 85.6C49.5 85.6 49 79.9 43.4 82.7C41.2 83.8 41.8 90.2 48.4 90.4C48.5 90.4 50.7 89.6 49.5 85.6Z" fill="#FF8E84"/>
<path d="M67.9 91.7L67.7 91.6C67.4 91.2 67.3 90.9 67.5 90.4C67.6 90.1 67.9 90.1 68.1 90C68.2 90 68.2 90 68.3 90L68.5 89.9C68.9 89.8 69.2 89.7 69.5 89.5C69.8 89.3 70.1 88.9 70 88.5C70 88.3 69.8 88.1 69.7 87.9C68.4 86.1 67.7 83.8 67.8 81.6C67.8 81.5 67.9 81.4 67.9 81.4C68.1 81.4 68.2 81.5 68.2 81.6C68.2 83.8 68.8 85.9 70.1 87.7C70.2 87.9 70.4 88.1 70.5 88.4C70.6 89 70.3 89.5 69.8 89.8C69.4 90 69 90.2 68.7 90.3L68.5 90.4C68.4 90.4 68.3 90.4 68.3 90.5C68.1 90.5 68 90.6 67.9 90.7C67.7 91.1 67.8 91.3 68 91.5C68.1 91.5 68.1 91.6 67.9 91.7Z" fill="#D55050"/>
<path d="M60 94.3C60 94.3 66.8 95.3 73.4 93.8C73.4 93.8 71 98.6 67.3 98.5C63.5 98.3 60 94.3 60 94.3Z" fill="white"/>
<path d="M240 72.6C240.1 69 240.1 65.3 241.7 62C242.7 59.8 244.4 58 246 56.2C247.3 54.7 248.7 53.2 250.4 52.1C252.9 50.4 255.9 49.7 258.9 49.7C263.4 49.6 268 51.1 271.5 53.9C275.6 57.2 278.1 62.3 278.5 67.5C278.9 72.7 277.2 78.1 274 82.3C270.5 80.1 267.8 76.5 266.6 72.5C266 70.6 265.8 68.6 265 66.8C264.3 65 262.9 63.3 261 62.8C260.2 62.6 259.4 62.6 258.7 62.3C257.8 62 257.1 61.2 256.1 60.9C253.6 60 251.2 62.6 250.5 65.1C249.8 67.6 249.9 70.4 248.6 72.7C247.7 74.2 246.3 75.2 245.1 76.5C242.2 79.7 241 84.3 242 88.5C239.9 83.5 240 78 240 72.6Z" fill="#182E5A"/>
<path d="M272.8 80.7C272.8 80.7 274.2 76.1001 278 79.4001C279.5 80.7001 277.9 85.9001 272.8 84.9001C272.7 84.8001 271.2 83.8 272.8 80.7Z" fill="#FF8E84"/>
<path d="M253.8 87C253.9 87 253.9 87 254 86.9C254.2 86.6 254.3 86.3 254.2 85.9C254.2 85.8 254.1 85.8 254.1 85.8C253.7 85.7 253.3 85.7 252.9 85.5C252.6 85.3 252.3 85 252.3 84.6C252.3 84.3 252.5 84 252.6 83.7L252.7 83.6C253.7 81.7 253.8 79.3 253.8 77.4C253.8 77.3 253.7 77.2 253.6 77.2C253.5 77.2 253.4 77.3 253.4 77.4C253.4 79.3 253.4 81.6 252.4 83.4L252.3 83.5C252.1 83.8 251.9 84.2 251.9 84.6C251.9 85.1 252.2 85.5 252.7 85.8C253.1 86 253.5 86.1 253.9 86.2C253.9 86.4 253.9 86.6 253.8 86.7C253.7 86.8 253.7 86.9 253.8 87Z" fill="#E05252"/>
<path d="M248.6 89.4C248.6 89.4 258.6 90.3 260.9 89.3C260.9 89.3 256.6 94.7 253.1 94.1C249.7 93.4 248.6 89.4 248.6 89.4Z" fill="white"/>
</g>
<defs>
<clipPath id="clip0_24_1561">
<rect width="480" height="480" fill="white"/>
</clipPath>
</defs>
</svg>
