<svg width="480" height="480" viewBox="0 0 480 480" fill="none" xmlns="http://www.w3.org/2000/svg">
<g clip-path="url(#clip0_44_1162)">
<path d="M251.3 113.3H83.9C74.7 113.3 67.2 120.8 67.2 130V181.5C67.2 190.7 74.7 198.2 83.9 198.2H251.2C260.4 198.2 267.9 190.7 267.9 181.5V130C267.9 120.8 260.5 113.3 251.3 113.3Z" fill="white" stroke="#3B508E" stroke-miterlimit="10"/>
<path d="M239.9 151.4H154.6C152.8 151.4 151.3 149.9 151.3 148.1C151.3 146.3 152.8 144.8 154.6 144.8H239.9C241.7 144.8 243.2 146.3 243.2 148.1C243.2 150 241.7 151.4 239.9 151.4Z" fill="#666EA7"/>
<path d="M239.9 135.9H154.6C152.8 135.9 151.3 134.4 151.3 132.6C151.3 130.8 152.8 129.3 154.6 129.3H239.9C241.7 129.3 243.2 130.8 243.2 132.6C243.2 134.4 241.7 135.9 239.9 135.9Z" fill="#666EA7"/>
<path d="M239.9 167H154.6C152.8 167 151.3 165.5 151.3 163.7C151.3 161.9 152.8 160.4 154.6 160.4H239.9C241.7 160.4 243.2 161.9 243.2 163.7C243.2 165.5 241.7 167 239.9 167Z" fill="#666EA7"/>
<path d="M239.9 182.5H154.6C152.8 182.5 151.3 181 151.3 179.2C151.3 177.4 152.8 175.9 154.6 175.9H239.9C241.7 175.9 243.2 177.4 243.2 179.2C243.2 181.1 241.7 182.5 239.9 182.5Z" fill="#666EA7"/>
<path d="M444.5 191.4H377.4V335.8H444.5V191.4Z" fill="#3B508E"/>
<path d="M377.2 191.4H281.2V335.8H377.2V191.4Z" fill="#666EA7"/>
<path d="M305.9 308.7V218.5H353.8V234.2H321.2V255.7H350.6V271.4H321.2V308.6L305.9 308.7Z" fill="#FFE8DB"/>
<path d="M302.4 335.6H191V480H302.4V335.6Z" fill="#FFAE6F"/>
<path d="M411.5 335.6H300.1V480H411.5V335.6Z" fill="#E7704F"/>
<path d="M263.2 452.9H279.1L254.9 362.7H235.8L211.6 452.9H227.5L232.7 432.3H258L263.2 452.9ZM236.4 417.4L245 383.3H245.5L254.1 417.4H236.4Z" fill="#FFE8DB"/>
<path d="M480 335.6H335.5V480H480V335.6Z" fill="#2A28FB"/>
<path d="M444.4 429.8C448.1 422.9 450 414.5 450 404.7C450 394.9 448.1 386.5 444.4 379.6C440.7 372.7 435.6 367.4 429.2 363.8C422.8 360.2 415.6 358.4 407.7 358.4C399.7 358.4 392.5 360.2 386.1 363.8C379.7 367.4 374.7 372.7 371 379.6C367.3 386.5 365.4 394.9 365.4 404.7C365.4 414.5 367.3 422.9 371 429.7C374.7 436.6 379.7 441.9 386.1 445.5C392.5 449.1 399.7 451 407.7 451C413.4 451 418.6 450.1 423.5 448.2L430.8 457.1H448.6L435.7 441C439.1 437.9 442.1 434.2 444.4 429.8ZM395.7 430.8C392.3 428.5 389.6 425.2 387.7 420.9C385.8 416.5 384.9 411.2 384.9 404.8C384.9 398.4 385.8 393.1 387.7 388.7C389.6 384.3 392.3 381 395.7 378.8C399.1 376.5 403.2 375.4 407.8 375.4C412.4 375.4 416.4 376.5 419.9 378.8C423.3 381.1 426 384.4 427.9 388.7C429.8 393.1 430.7 398.4 430.7 404.8C430.7 411.2 429.8 416.5 427.9 420.9C426.9 423.3 425.6 425.3 424.1 427.1L417.4 418.5H401.2L412.8 433.7C411.2 434 409.6 434.2 407.8 434.2C403.1 434.2 399.1 433 395.7 430.8Z" fill="#FFE8DB"/>
<path d="M297.6 216.3C299.1 212.7 317.2 204.7 317.2 204.7C317.2 204.7 312.3 200.6 289.8 212.7C289.8 212.7 290.1 215.5 288.8 215.8C287.5 216.1 295 232.3 295 232.3C295 232.3 296.1 219.9 297.6 216.3Z" fill="#666EA7"/>
<path opacity="0.7" d="M285.5 266.1C293.6 282.5 300.5 296.8 300.5 296.8C300.5 296.8 311.5 302.1 316.1 294.1L312.1 268.9C312.1 268.9 322.9 237.1 322.4 225.5C322.4 225.5 349.8 201.1 359.9 191.3H285.4V266.1H285.5Z" fill="#182E5A"/>
<path d="M377.2 122.2L390.7 116.5C390.2 115.5 389.8 114.6 389.5 113.9C385.4 106 380.4 85.8999 380.4 85.8999L364.8 93.4999C364.8 93.4999 373.9 114.3 375.2 118C375.4 118.6 376.1 120.2 377.2 122.2Z" fill="#F9A9A5"/>
<path d="M290.3 298.9C290.3 298.9 289.7 295.7 283.9 296.5C278.2 297.3 278.7 300.3 278.7 300.3C278.7 300.3 279.1 304.7 278.5 306.9C277.9 309.1 273.5 321 272.5 322.1C271.4 323.2 267.8 329.4 268.2 330.3C268.6 331.2 270 334.3 271 335C271.9 335.7 282.7 336.8 288.7 332.9C294.7 329 294.8 321.2 299.8 316.8C304.8 312.4 304.9 309.1 304.9 309.1C304.9 309.1 295.9 294.1 293.5 293.6C293.6 293.5 293.3 298.8 290.3 298.9Z" fill="#2A28FB"/>
<path d="M286.6 328.8C292.9 324.8 293.1 316.9 298.3 312.4C301.3 309.8 302.6 307.7 303.3 306.3C304.3 307.9 305 309.1 305 309.1C305 309.1 304.8 312.4 299.9 316.8C294.9 321.2 294.8 329 288.8 332.9C282.8 336.8 272 335.7 271.1 335C270.4 334.5 269.5 332.8 268.9 331.5C271.5 332.1 281 332.4 286.6 328.8Z" fill="#E7704F"/>
<path d="M284.1 319.2C284.3 319.2 284.5 319.1 284.5 318.9C284.5 318.7 284.4 318.5 284.2 318.4C283.9 318.3 277.8 317 274.2 318C274 318.1 273.9 318.3 273.9 318.5C274 318.7 274.2 318.9 274.4 318.8C277.7 317.9 283.9 319.2 284.1 319.2Z" fill="white"/>
<path d="M286.1 315.9C286.3 315.9 286.4 315.8 286.5 315.6C286.6 315.4 286.4 315.2 286.2 315.1C286 315 280.3 313.4 275.3 314.9C275.1 315 275 315.2 275 315.4C275.1 315.6 275.3 315.7 275.5 315.7C280.3 314.3 285.9 315.9 285.9 315.9C286 315.9 286.1 315.9 286.1 315.9Z" fill="white"/>
<path d="M287.1 313.1C287.3 313.1 287.4 313 287.5 312.8C287.6 312.6 287.4 312.4 287.2 312.3C286.9 312.2 280.2 310.5 276.4 312.1C276.2 312.2 276.1 312.4 276.2 312.6C276.3 312.8 276.5 312.9 276.7 312.8C280.3 311.4 286.9 313.1 287.1 313.1Z" fill="white"/>
<path d="M288.3 310C288.5 310 288.6 309.9 288.7 309.7C288.8 309.5 288.6 309.3 288.4 309.2C288.1 309.1 280.7 307.4 277.4 309.2C277.2 309.3 277.1 309.6 277.2 309.7C277.3 309.9 277.5 310 277.7 309.9C280.9 308.2 288.2 309.9 288.3 310Z" fill="white"/>
<path d="M289.3 306.4C289.5 306.4 289.6 306.3 289.7 306.1C289.8 305.9 289.7 305.7 289.5 305.6C289.3 305.5 283.3 303.1 278.5 305.5C278.3 305.6 278.2 305.8 278.3 306C278.4 306.2 278.6 306.3 278.8 306.2C283.3 303.9 289.1 306.3 289.1 306.3C289.2 306.4 289.3 306.4 289.3 306.4Z" fill="white"/>
<path d="M278.9 303.6C278.9 303.6 279 303.6 279.1 303.5C283.4 301 290.1 302.3 290.2 302.3C290.4 302.3 290.6 302.2 290.7 302C290.7 301.8 290.6 301.6 290.4 301.5C290.1 301.4 283.3 300.1 278.8 302.8C278.6 302.9 278.5 303.2 278.7 303.3C278.6 303.5 278.7 303.6 278.9 303.6Z" fill="white"/>
<path d="M287.7 313.1C287.5 313.1 287.3 312.9 287.4 312.6C287.7 310.7 286.6 308.7 285.6 307.5C285.2 307 284.7 306.5 284.3 306C283.4 305 282.5 304 281.9 302.8C281.4 303.2 280.9 303.6 280.5 304C280.2 304.3 279.8 304.7 279.5 305.1C278.9 305.8 278.2 306.5 277.5 307.1C276.9 307.7 275.9 308.1 275.3 307.4C275.1 307.2 275 307 274.9 306.7C274.7 306 274.9 305.1 275.4 304.2C276.7 301.9 279.8 300.6 282.3 301.3L282.4 301.4C282.7 301.2 283.1 301 283.5 300.9C285.1 300.3 286.8 300.5 288 301.3C288.9 302 289.5 303 290 303.8C290.7 305.1 291.5 306.5 291.9 308.1C292 308.6 292.1 309.2 291.8 309.7C291.4 310.6 290.3 310.7 289.4 310.4C288.7 310.1 288.2 309.4 287.8 308.8C287.4 308.2 287.1 307.7 286.8 307.1C286 305.7 285.1 304.2 283.9 303C283.5 302.5 283.1 302.3 282.7 302.3C282.6 302.3 282.6 302.4 282.5 302.4V302.5C283.1 303.6 284 304.5 284.8 305.5C285.3 306 285.7 306.5 286.2 307.1C287.8 309.1 288.5 311.1 288.2 312.9C288.1 313 287.9 313.1 287.7 313.1ZM283.7 301.7H283.6C283.9 301.9 284.1 302.1 284.4 302.4C285.6 303.7 286.5 305.2 287.4 306.7C287.7 307.3 288.1 307.8 288.4 308.4C288.8 308.9 289.1 309.5 289.7 309.8C290.2 310 290.8 309.9 291 309.5C291.1 309.2 291.1 308.8 291 308.5C290.6 307 289.9 305.6 289.2 304.4C288.8 303.6 288.3 302.7 287.5 302.1C286.9 301.7 286.2 301.5 285.4 301.5C284.8 301.4 284.3 301.5 283.7 301.7ZM276 304.6C275.7 305.1 275.4 305.8 275.6 306.5C275.6 306.7 275.7 306.8 275.7 306.8C275.9 307 276.4 306.8 276.9 306.4C277.6 305.8 278.2 305.1 278.8 304.5C279.1 304.1 279.5 303.8 279.8 303.4C280.3 302.9 280.8 302.4 281.4 302C279.3 301.7 277 302.8 276 304.6Z" fill="white"/>
<path d="M296.1 277C296.1 277 292.3 293 294 295.3C295.7 297.7 292.4 300.4 292.4 300.4L284.9 301.8L280.8 300.9C280.8 300.9 284.1 294.7 282.1 278.6C281 270.5 296.1 277 296.1 277Z" fill="#F9A9A5"/>
<path d="M279.8 259.9L276.2 285.5C276.2 285.5 287.3 290.4 294.5 287.6C301.7 284.8 299.9 277 299.9 277L290.6 263.1L279.8 259.9Z" fill="#182E5A"/>
<path d="M314.9 288.4C314.9 288.4 311.9 285.3 306.7 273.9L292.9 279.2C292.9 279.2 302.8 293.1 302.1 297.5C301.8 299.7 304.7 303.5 304.7 303.5L315.5 298.6C315.5 298.6 316.4 294.4 316.1 294.1C315.8 293.8 314.9 288.4 314.9 288.4Z" fill="#F9A9A5"/>
<path d="M313.8 287C313.8 287 322.1 292.6 328.4 303.6C328.4 303.6 328.1 305.8 323.7 309.4C319.2 313 314.5 316.8 312.9 318.7C311.3 320.6 303.7 332.1 292.9 332.5C292.9 332.5 289.4 327.6 289.9 325.4C290.5 323.1 300.2 304.6 300 302.5C299.8 300.4 299.3 295.4 300.6 294.6C301.9 293.7 308.5 292 308.8 293C309.1 294 308 296.4 308 296.4C308 296.4 315.4 290.4 313.8 287Z" fill="#2A28FB"/>
<path d="M310.8 315.1C312.5 313.1 317.3 309.3 321.8 305.7C325 303.2 326.1 301.3 326.4 300.4C327.1 301.4 327.7 302.5 328.4 303.6C328.4 303.6 328.1 305.8 323.7 309.4C319.2 313 314.5 316.8 312.9 318.7C311.3 320.6 303.7 332.1 292.9 332.5C292.9 332.5 291.7 330.9 290.8 329.1C301.6 328.3 309.2 317 310.8 315.1Z" fill="#E7704F"/>
<path d="M298.1 315.7C298.3 315.7 298.5 315.5 298.5 315.3C298.5 315.1 298.4 314.8 298.1 314.8L294.7 314.3C294.4 314.2 294.2 314.4 294.2 314.7C294.2 314.9 294.3 315.2 294.6 315.2L298.1 315.7Z" fill="white"/>
<path d="M299.5 313.3C299.7 313.3 299.9 313.2 299.9 312.9C299.9 312.7 299.8 312.4 299.5 312.4L296.1 311.8C295.9 311.8 295.6 311.9 295.6 312.2C295.6 312.4 295.7 312.7 296 312.7L299.5 313.3Z" fill="white"/>
<path d="M300.7 310.9C300.9 310.9 301.1 310.8 301.1 310.5C301.1 310.3 301 310 300.7 310L297 309.3C296.8 309.3 296.5 309.4 296.5 309.7C296.5 309.9 296.6 310.2 296.9 310.2L300.7 310.9Z" fill="white"/>
<path d="M301.9 308.1C302.1 308.1 302.3 307.9 302.3 307.7C302.3 307.5 302.2 307.2 301.9 307.2L298.1 306.6C297.8 306.5 297.6 306.7 297.6 307C297.6 307.2 297.7 307.5 298 307.5L301.9 308.1Z" fill="white"/>
<path d="M303.3 305.6C303.5 305.6 303.7 305.4 303.7 305.2C303.7 305 303.6 304.7 303.3 304.7L299.4 304.2C299.2 304.2 299 304.4 299 304.6C299 304.8 299.1 305.1 299.4 305.1L303.3 305.6Z" fill="white"/>
<path d="M304.8 302.7C305 302.7 305.2 302.5 305.2 302.3C305.2 302.1 305 301.9 304.8 301.9H300C299.8 301.9 299.6 302.1 299.6 302.3C299.6 302.5 299.8 302.7 300 302.7H304.8Z" fill="white"/>
<path d="M299.8 300.2H299.9C301.9 299.5 306.7 299.7 306.7 299.7C306.9 299.7 307.1 299.5 307.1 299.3C307.1 299.1 306.9 298.9 306.7 298.9C306.5 298.9 301.8 298.8 299.6 299.5C299.4 299.6 299.2 299.8 299.3 300C299.5 300.1 299.6 300.2 299.8 300.2Z" fill="white"/>
<path d="M310.6 308.4C310.1 307.7 309.4 307.3 308.7 306.8C308.2 306.5 307.8 306.2 307.3 305.9C306.4 305.2 305.7 304.2 305.1 303.2C305 303 304.8 302.8 304.7 302.6C304.1 301.6 303.1 300.5 301.9 300C301.6 299.9 301.3 299.8 301.2 299.9C301 300 300.9 300.1 300.7 300.3L300.6 300.4C299.8 301.3 298.7 302 297.5 302.3C296.7 302.6 295.7 302.5 295.2 301.7C294.9 301.2 295 300.6 295.4 300.1C295.7 299.7 296.2 299.4 296.6 299.3C297.9 298.7 299.6 298.5 301.4 298.8C301.8 297.9 302.7 297.1 303.6 296.8C304.7 296.4 306 296.6 306.9 297.2C307.7 297.7 308.3 298.6 308.8 299.4C308.9 299.6 309.1 299.8 309.1 300.1C309.1 300.4 309.1 300.7 308.8 301C308.6 301.3 308.2 301.5 307.8 301.6C307.2 301.7 306.6 301.4 306.2 301.2C305.5 300.9 304.7 300.6 304 300.3C304.5 300.8 305 301.5 305.4 302C305.6 302.2 305.7 302.4 305.8 302.7C306.4 303.6 307 304.5 307.8 305.2C308.2 305.5 308.6 305.8 309.1 306.1C309.9 306.6 310.7 307.1 311.3 307.9C311.4 308.1 311.4 308.4 311.2 308.5C311.1 308.6 311 308.6 311 308.6C310.8 308.6 310.7 308.5 310.6 308.4ZM296.9 300.1C296.5 300.3 296.2 300.5 296.1 300.7C295.9 300.9 295.9 301.2 296 301.4C296.2 301.7 296.8 301.7 297.3 301.6C298.3 301.3 299.3 300.7 300 299.9L300.1 299.8C300.2 299.7 300.2 299.7 300.3 299.6C299 299.5 297.9 299.7 296.9 300.1ZM303.9 297.6C303.2 297.8 302.6 298.3 302.3 299C303.8 299.3 305.2 299.9 306.6 300.5C307 300.7 307.5 300.9 307.8 300.8C308 300.8 308.2 300.7 308.3 300.5C308.4 300.4 308.4 300.3 308.4 300.3C308.4 300.2 308.3 300 308.2 299.9C307.7 299.1 307.2 298.4 306.5 297.9C306 297.6 305.4 297.4 304.9 297.4C304.5 297.5 304.2 297.5 303.9 297.6Z" fill="white"/>
<path d="M253.7 210.6C255.8 212.4 293.2 289.6 293.2 289.6C293.2 289.6 307.9 288.3 312.6 280.3L304.8 261.7C304.8 261.7 315.6 229.9 315.1 218.3C315.1 218.3 364.2 190.7 370.1 182.4C376 174.1 367.3 148.8 367.3 148.8L319.8 136.2C319.8 136.2 315.2 148.3 314.4 148.3C313.6 148.3 267.9 169.2 255.3 190.9C255.3 190.9 250.7 197.9 250.4 200.2C250.1 202.6 251.7 208.8 253.7 210.6ZM281.6 203.4C282.9 203.1 282.6 200.3 282.6 200.3C305.1 188.2 310 192.3 310 192.3C310 192.3 291.9 200.3 290.4 203.9C288.9 207.5 287.8 219.9 287.8 219.9C287.8 219.9 280.3 203.7 281.6 203.4Z" fill="#3A4D8B"/>
<path d="M321.6 174.3C321.4 174.2 321.3 174.1 321.4 173.9L324.7 165.5C321.6 159.4 325.4 148 325.5 147.5L325.6 147.3H332.4L325.3 165.5C325.3 165.6 325.3 165.7 325.2 165.7L321.9 174.1C321.8 174.3 321.7 174.3 321.6 174.3ZM326 147.9C325.5 149.3 322.6 159.3 325 164.9L331.6 147.9H326Z" fill="#009DDD"/>
<path d="M315.2 148.7C314.9 148.7 314.6 148.7 314.3 148.6C314.2 148.6 314.1 148.4 314.1 148.3C314.1 148.2 314.2 148.1 314.4 148.1C314.7 148.1 314.9 148.2 315.2 148.2C318.9 148.2 320.8 143.6 320.8 143.5C320.8 143.4 321 143.3 321.1 143.4C321.2 143.5 321.3 143.6 321.2 143.7C321.4 143.7 319.3 148.7 315.2 148.7Z" fill="#009DDD"/>
<path d="M317.1 91.0001C317.1 91.0001 310.6 130.7 301.5 130.4C292.4 130.1 279.1 156.7 279.1 156.7L271.7 149.5L296.6 111.6L301.9 85.1001L317.1 91.0001Z" fill="#F9A9A5"/>
<path d="M323.9 60.7002C323.9 60.7002 309.1 61.5002 303.4 69.1002C301.3 71.9002 299.5 92.4002 298.5 95.1002L305.9 96.6002L304.9 101.9C304.9 101.9 305.3 110.4 313.6 112.6C313.6 112.6 317.4 130.4 317.5 131.4C317.6 132.4 316.6 137 316.7 138.2C316.8 139.5 314.1 149.7 314.1 149.7C314.1 149.7 328.5 157.4 337.1 157.5C345.7 157.6 369 151.9 369 151.9C369 151.9 368.1 148.1 367.1 146.7C366.2 145.2 365.3 142.2 364.7 139.2C364.1 136.2 365.1 133.4 361.7 131.2L365.3 100.9L367.1 105.1C367.1 105.1 377.9 104.1 388.9 98.2002C388.9 98.2002 380.8 84.0002 377.8 78.4002C374.8 72.8002 368.3 60.5002 361.3 59.3002C353.8 58.0002 323.9 60.7002 323.9 60.7002Z" fill="#B0AFD5"/>
<path d="M330.1 102.5C330.1 102.5 345.4 110.3 355.8 101.9C355.8 101.9 346 120.5 330.1 102.5Z" fill="#E0E0FC"/>
<path d="M303.1 17.1001C303.2 20.6001 304.9 24.3001 303.6 27.5001C303.1 28.8001 302.1 29.9001 301.3 31.0001C298.6 34.9001 297.9 40.2001 299.6 44.6001C300.7 47.4001 302.6 49.9001 303.2 52.8001C303.8 55.7001 302.5 59.5001 299.5 59.9001C301.6 60.5001 304 60.0001 305.6 58.5001C307.2 57.0001 307.9 54.7001 307.4 52.5001C309.2 54.6001 309.3 57.9001 307.7 60.1001C309.7 60.2001 311.8 59.1001 312.8 57.3001C313 58.3001 312.7 59.4001 311.9 60.1001C315.5 60.2001 317.2 61.0001 319.8 58.4001C319.8 59.6001 319.3 60.8001 318.3 61.5001C324.2 60.9001 332 58.2001 337.9 57.5001C340.1 57.3001 342.4 57.0001 344.4 56.1001C346.4 55.2001 348.3 53.5001 348.7 51.3001C350.1 52.9001 349.7 55.8001 347.9 56.9001C349.6 56.3001 351.4 55.6001 352.9 54.4001C354.3 53.2001 355.3 51.3001 354.9 49.5001C357.2 51.4001 357.2 55.3001 354.9 57.2001C358.1 56.0001 360.7 53.1001 361.7 49.8001C362.7 46.5001 362 42.7001 359.9 39.9001C358 37.3001 354.9 35.5001 353.6 32.6001C351.9 28.5001 353.9 23.2001 351.3 19.7001C350 18.0001 347.8 17.1001 346.4 15.5001C344.7 13.5001 344.3 10.8001 343.1 8.50008C341.7 6.10008 339.4 4.50008 337.2 2.90008C336.2 2.20008 335.2 1.50008 334.1 1.30008C332.7 1.00008 331.2 1.50008 329.8 1.40008C328.6 1.30008 327.5 0.900077 326.4 0.500077C322.4 -0.699923 317.6 -0.399923 314.7 2.60008C312.4 5.00008 311.7 8.80008 308.9 10.7001C307.2 11.8001 305 12.2001 303.9 13.9001C303.2 15.0001 303.1 16.0001 303.1 17.1001Z" fill="#FFAE6F"/>
<path d="M347.7 59.2L344.3 58.5C342.3 58.1 340.7 56.5 340.3 54.5L336.7 36.5L321.1 38.8L322.4 58.9L318.9 61.5C323.5 67 331.4 68.5 337.6 64.9L347.7 59.2Z" fill="#F9A9A5"/>
<path d="M322.1 52.3999L321.5 43.2999L337.1 37.8999C337 37.7999 335.6 54.5999 322.1 52.3999Z" fill="#D75050"/>
<path d="M384.5 101.2C384.5 101.2 389.9 114.2 391.9 119C393.9 123.8 382.7 143.4 357.9 163.5C357.9 163.5 354.1 166.3 351.9 166.5C349.7 166.7 343.3 164.1 343.3 164.1L335.9 168.4L337.5 165.2L335.2 163.8L327.9 165.3L341.3 154.2C341.3 154.2 354.4 155.2 355.5 154.7C357.5 153.9 375.8 119.3 377 118.8C378.1 118.6 384.5 101.2 384.5 101.2Z" fill="#F9A9A5"/>
<path d="M249.5 122.5L327.3 117.2L342 173.1L264.8 179.2L249.5 122.5Z" fill="#182E5A"/>
<path d="M369.962 166.294L320.382 169.712L320.719 174.601L370.3 171.182L369.962 166.294Z" fill="#182E5A"/>
<path d="M283.1 145C282.8 141.3 285.6 138.1 289.3 137.9C293 137.6 296.2 140.4 296.4 144.1C296.7 147.8 293.9 151 290.2 151.2C286.5 151.5 283.3 148.7 283.1 145Z" fill="white"/>
<path d="M185.358 1H18.6418C9.47384 1 2 8.77385 2 18.3098V71.6902C2 81.2262 9.47384 89 18.6418 89H185.358C194.526 89 202 81.2262 202 71.6902V18.3098C202 8.77385 194.526 1 185.358 1Z" fill="white" stroke="#3B508E" stroke-miterlimit="10"/>
<path d="M38 48.6999C29.1 41.4999 27.8 28.2999 35 19.4999C42.2 10.5999 55.4 9.29988 64.2 16.4999C73.1 23.6999 74.4 36.8999 67.2 45.6999C60 54.5999 46.9 55.8999 38 48.6999ZM62.5 18.6999C54.8 12.3999 43.5 13.5999 37.2 21.2999C30.9 28.9999 32.1 40.2999 39.8 46.5999C47.5 52.8999 58.8 51.6999 65.1 43.9999C71.4 36.2999 70.2 24.8999 62.5 18.6999Z" fill="#666EA7"/>
<path d="M16.8 74.9999C16 74.2999 15.8 73.0999 16.5 72.2999L37.6 46.3999L40.6 48.7999L19.5 74.6999C18.9 75.4999 17.6 75.6999 16.8 74.9999Z" fill="#666EA7"/>
<path d="M151.4 21.1H87.3C85.5 21.1 84 19.6 84 17.8C84 16 85.5 14.5 87.3 14.5H151.4C153.2 14.5 154.7 16 154.7 17.8C154.7 19.7 153.2 21.1 151.4 21.1Z" fill="#666EA7"/>
<path d="M172.6 37.8002H87.3C85.5 37.8002 84 36.3002 84 34.5002C84 32.7002 85.5 31.2002 87.3 31.2002H172.6C174.4 31.2002 175.9 32.7002 175.9 34.5002C175.9 36.3002 174.4 37.8002 172.6 37.8002Z" fill="#666EA7"/>
<path d="M172.6 54.4999H87.3C85.5 54.4999 84 52.9999 84 51.1999C84 49.3999 85.5 47.8999 87.3 47.8999H172.6C174.4 47.8999 175.9 49.3999 175.9 51.1999C175.9 52.9999 174.4 54.4999 172.6 54.4999Z" fill="#666EA7"/>
<path d="M172.6 71.1H87.3C85.5 71.1 84 69.6 84 67.8C84 66 85.5 64.5 87.3 64.5H172.6C174.4 64.5 175.9 66 175.9 67.8C175.9 69.7 174.4 71.1 172.6 71.1Z" fill="#666EA7"/>
<path d="M141.4 125.7H78.7V183.9H141.4V125.7Z" fill="#E7704F"/>
<path d="M185 225.3H17.7C8.5 225.3 1 232.8 1 242V293.5C1 302.7 8.5 310.2 17.7 310.2H185C194.2 310.2 201.7 302.7 201.7 293.5V242C201.7 232.8 194.2 225.3 185 225.3Z" fill="white" stroke="#3B508E" stroke-miterlimit="10"/>
<path d="M175.6 263.4H90.3C88.5 263.4 87 261.9 87 260.1C87 258.3 88.5 256.8 90.3 256.8H175.6C177.4 256.8 178.9 258.3 178.9 260.1C178.9 261.9 177.4 263.4 175.6 263.4Z" fill="#666EA7"/>
<path d="M175.6 247.9H90.3C88.5 247.9 87 246.4 87 244.6C87 242.8 88.5 241.3 90.3 241.3H175.6C177.4 241.3 178.9 242.8 178.9 244.6C178.9 246.4 177.4 247.9 175.6 247.9Z" fill="#666EA7"/>
<path d="M175.6 279H90.3C88.5 279 87 277.5 87 275.7C87 273.9 88.5 272.4 90.3 272.4H175.6C177.4 272.4 178.9 273.9 178.9 275.7C178.9 277.5 177.4 279 175.6 279Z" fill="#666EA7"/>
<path d="M175.6 294.5H90.3C88.5 294.5 87 293 87 291.2C87 289.4 88.5 287.9 90.3 287.9H175.6C177.4 287.9 178.9 289.4 178.9 291.2C178.9 293 177.4 294.5 175.6 294.5Z" fill="#666EA7"/>
<path d="M18.9 300.5H68.6C73 300.5 76.6 296.9 76.6 292.5V242.8C76.6 238.4 73 234.8 68.6 234.8H18.9C14.5 234.8 10.9 238.4 10.9 242.8V292.5C10.8 296.9 14.4 300.5 18.9 300.5Z" fill="#FFAE6F"/>
<path d="M35.5 260.3C35.4 262.1 35.6 263.8 36.1 265.5L32 269.2L34.4 273.6L39.4 272C39.5 272.1 39.6 272.2 39.6 272.3C40.8 273.7 42.2 274.8 43.6 275.6L43.1 280.9L47.8 282.4L50.4 277.7C52.2 277.8 54 277.7 55.8 277.2L59 281.1L63.3 278.7L61.9 273.9C62 273.8 62.1 273.7 62.2 273.7C63.5 272.5 64.6 271.1 65.4 269.5L70.5 269.6L71.6 264.7L67.3 262.6C67.4 260.7 67.2 258.7 66.7 256.8L70.6 253L68.1 248.6L63.2 250.3L63.1 250.2C61.9 248.9 60.6 247.8 59.2 246.9V241L54.4 239.9L52.2 244.7C50.4 244.6 48.5 244.8 46.7 245.3L43 241.3L38.8 243.9L40.4 248.8L40.3 248.9C38.9 250.2 37.9 251.6 37 253.2L31.9 252.8L30.5 257.7L35.5 260.3ZM43.9 252.7C48.4 248.5 55.4 248.9 59.6 253.6C63.8 258.3 63.5 265.6 59 269.9C54.5 274.1 47.5 273.7 43.3 269C39.2 264.2 39.4 256.9 43.9 252.7Z" fill="white"/>
<path d="M19.7 282.6C19.7 283.4 19.8 284.2 19.9 284.9L18.1 286.6L19.2 288.6L21.5 287.9L21.6 288C22.1 288.6 22.7 289.1 23.4 289.5L23.2 291.9L25.3 292.6L26.5 290.5C27.3 290.6 28.1 290.5 28.9 290.3L30.3 292L32.2 290.9L31.6 288.7L31.7 288.6C32.3 288 32.8 287.4 33.1 286.7H35.4L35.9 284.5L34 283.6C34.1 282.7 34 281.9 33.7 281L35.4 279.3L34.3 277.3L32.1 278.1C32.1 278.1 32.1 278.1 32 278C31.5 277.4 30.9 276.9 30.2 276.5V273.9L28.1 273.4L27.1 275.6C26.3 275.5 25.4 275.6 24.6 275.9L23 274.1L21.1 275.3L21.8 277.5C21.2 278.1 20.7 278.7 20.3 279.4L18 279.2L17.4 281.4L19.7 282.6ZM23.5 279.2C25.5 277.3 28.7 277.5 30.5 279.6C32.4 281.7 32.2 285 30.2 286.9C28.2 288.8 25 288.6 23.2 286.5C21.3 284.3 21.5 281.1 23.5 279.2Z" fill="white"/>
<path d="M105.7 162.1V161.5C105.7 159.4 105.9 157.8 106.3 156.5C106.7 155.3 107.2 154.3 107.9 153.5C108.6 152.7 109.4 152.1 110.4 151.4C111.1 150.9 111.8 150.4 112.4 149.9C113 149.4 113.4 148.8 113.8 148.2C114.1 147.6 114.3 146.9 114.3 146.1C114.3 145.3 114.1 144.6 113.7 144C113.3 143.4 112.8 142.9 112.1 142.6C111.4 142.3 110.7 142.1 109.9 142.1C109.1 142.1 108.4 142.3 107.7 142.6C107 142.9 106.5 143.4 106 144.1C105.6 144.8 105.3 145.6 105.3 146.5H98.1C98.2 144.1 98.7 142.2 99.8 140.6C100.9 139.1 102.3 137.9 104.1 137.1C105.9 136.3 107.8 136 110 136C112.4 136 114.4 136.4 116.2 137.2C118 138 119.4 139.1 120.5 140.6C121.6 142.1 122 143.8 122 145.9C122 147.3 121.8 148.5 121.3 149.6C120.8 150.7 120.2 151.6 119.4 152.4C118.6 153.2 117.6 154 116.5 154.6C115.6 155.2 114.8 155.7 114.2 156.3C113.6 156.9 113.2 157.6 112.9 158.4C112.6 159.2 112.5 160.2 112.4 161.3V161.9H105.7V162.1ZM109.2 173.4C108 173.4 107 173 106.2 172.1C105.4 171.2 105 170.3 105 169.1C105 167.9 105.4 166.9 106.2 166.1C107 165.3 108 164.9 109.2 164.9C110.3 164.9 111.3 165.3 112.2 166.1C113.1 166.9 113.5 167.9 113.5 169.1C113.5 169.9 113.3 170.6 112.9 171.2C112.5 171.8 112 172.4 111.3 172.7C110.7 173.2 110 173.4 109.2 173.4Z" fill="#FFE8DB"/>
<path d="M326.8 11.1001C326.8 11.1001 311.5 11.2001 312.3 28.5001C313.1 45.8001 323.1 50.5001 323.1 50.5001C323.1 50.5001 327.1 51.3001 329.9 49.1001C332.7 46.9001 336.4 42.7001 337.4 36.3001C338.4 29.9001 339.7 31.2001 339.6 27.1001C339.5 23.1001 340.3 10.4001 326.8 11.1001Z" fill="#F9A9A5"/>
<path d="M322.2 36.6002C322.3 36.6002 322.3 36.6002 322.3 36.5002C322.5 36.2002 322.5 35.9002 322.4 35.6002C322.4 35.5002 322.3 35.5002 322.3 35.5002C321.9 35.5002 321.6 35.5002 321.2 35.3002C320.9 35.2002 320.6 34.9002 320.6 34.6002C320.6 34.3002 320.7 34.0002 320.8 33.7002L320.9 33.6002C321.6 31.8002 321.4 29.6002 321.3 27.9002C321.3 27.8002 321.2 27.7002 321.1 27.7002C321 27.7002 320.9 27.8002 321 27.9002C321.2 29.7002 321.4 31.7002 320.7 33.4002L320.6 33.5002C320.5 33.8002 320.3 34.2002 320.4 34.5002C320.5 34.9002 320.8 35.3002 321.2 35.5002C321.6 35.7002 321.9 35.7002 322.3 35.7002C322.3 35.9002 322.3 36.0002 322.2 36.2002C322 36.4002 322 36.5002 322.2 36.6002C322.1 36.5002 322.2 36.6002 322.2 36.6002Z" fill="#E05252"/>
<path d="M317.7 39.1999C317.7 39.1999 326.8 38.9999 328.9 37.8999C328.9 37.8999 325.5 43.1999 322.3 42.9999C319.1 42.6999 317.7 39.1999 317.7 39.1999Z" fill="white"/>
<path d="M308.2 24.9002C307.9 21.6002 307.6 18.3002 308.6 15.2002C309.3 13.1002 310.6 11.3002 311.9 9.50017C313 8.00017 314 6.50017 315.4 5.30017C317.5 3.50017 320.2 2.60017 322.9 2.20017C327 1.70017 331.3 2.50017 334.7 4.70017C338.7 7.30017 341.6 11.6002 342.4 16.3002C343.3 21.0002 342.3 26.0002 339.8 30.1002C336.4 28.4002 333.6 25.5002 332.1 22.0002C331.4 20.4002 331 18.6002 330.1 17.0002C329.3 15.4002 327.9 14.0002 326.1 13.7002C325.4 13.6002 324.7 13.7002 324 13.5002C323.1 13.3002 322.4 12.7002 321.5 12.5002C319.2 12.0002 317.3 14.5002 316.9 16.9002C316.5 19.3002 316.9 21.8002 315.9 23.9002C315.2 25.3002 314.1 26.4002 313.1 27.7002C310.8 30.8002 310.2 35.2002 311.5 38.8002C309.2 34.8002 308.7 29.7002 308.2 24.9002Z" fill="#FFAE6F"/>
<path d="M338.7 28.9C338.7 28.9 339.5 24.6 343.3 27.2C344.8 28.2 343.9 33 339.1 32.7C339.1 32.6 337.6 31.8 338.7 28.9Z" fill="#FF8E84"/>
</g>
<defs>
<clipPath id="clip0_44_1162">
<rect width="480" height="480" fill="white"/>
</clipPath>
</defs>
</svg>
