<svg width="264" height="264" viewBox="0 0 264 264" fill="none" xmlns="http://www.w3.org/2000/svg">
<g clip-path="url(#clip0_22_70)">
<path d="M173.1 57.6L158.5 67.9C157.7 68.6 156.4 67.8 156.7 66.8L161 47.1L173.1 57.6Z" fill="url(#paint0_linear_22_70)"/>
<path d="M257.9 0H165.3C161.9 0 159.2 2.7 159.2 6.1V51.8C159.2 55.2 162 58 165.5 57.9L258.1 54.6C261.4 54.5 264.1 51.8 264.1 48.5V6.1C264 2.7 261.3 0 257.9 0Z" fill="url(#paint1_linear_22_70)"/>
<path d="M255 2.90002H168.5C165.3 2.90002 162.7 5.30002 162.7 8.30002V48.3C162.7 51.3 165.4 53.7 168.6 53.6L255.1 50.8C258.2 50.7 260.7 48.3 260.7 45.5V8.20002C260.8 5.30002 258.2 2.90002 255 2.90002Z" fill="#BDD0FB"/>
<path opacity="0.66" d="M247.3 41H174.5C173.7 41 173.1 41.6 173.1 42.4V42.9C173.1 43.7 173.7 44.3 174.5 44.3H247.3C248.1 44.3 248.7 43.7 248.7 42.9V42.4C248.7 41.6 248.1 41 247.3 41Z" fill="white"/>
<path opacity="0.66" d="M247.3 10H174.5C173.7 10 173.1 10.6 173.1 11.4V11.9C173.1 12.7 173.7 13.3 174.5 13.3H247.3C248.1 13.3 248.7 12.7 248.7 11.9V11.4C248.7 10.6 248.1 10 247.3 10Z" fill="white"/>
<path opacity="0.66" d="M245.5 20H174.5C173.7 20 173.1 20.6 173.1 21.4V21.9C173.1 22.7 173.7 23.3 174.5 23.3H245.5C246.3 23.3 246.9 22.7 246.9 21.9V21.4C246.9 20.6 246.3 20 245.5 20Z" fill="white"/>
<path opacity="0.66" d="M217.8 30.4H174.5C173.7 30.4 173.1 31 173.1 31.8V32.3C173.1 33.1 173.7 33.7 174.5 33.7H217.8C218.6 33.7 219.2 33.1 219.2 32.3V31.8C219.2 31 218.6 30.4 217.8 30.4Z" fill="white"/>
<path opacity="0.66" d="M247.3 30.4H227C226.2 30.4 225.6 31 225.6 31.8V32.3C225.6 33.1 226.2 33.7 227 33.7H247.3C248.1 33.7 248.7 33.1 248.7 32.3V31.8C248.7 31 248.1 30.4 247.3 30.4Z" fill="white"/>
<path d="M0.499974 131.4L49.5 254.8C52 261.1 58.5 264.8 65.2 263.9L193.8 254.9L147.5 123.2C146.3 120 143.1 117.8 139.6 117.9C117 118.4 34.9 120.5 5.49997 123.1C1.49997 123.4 -1.10003 127.6 0.499974 131.4Z" fill="#182E5A"/>
<path d="M60.8 258.2L11.8 133.7C10.8 131.2 12.6 128.5 15.3 128.4L136.4 123.8C139.5 123.7 142.4 125.6 143.5 128.5L188 249.9L60.8 258.2Z" fill="#2A28FB"/>
<path d="M237.6 259.8C237.6 262.1 235.7 264 233.4 264H64.2C60.7 264 57.9 261.2 57.9 257.7L55.2 254.6L230.9 253.1C234.6 253.1 237.6 256.1 237.6 259.8Z" fill="#182E5A"/>
<path d="M198 104.2C198 104.4 197.8 104.6 197.6 104.7C197.1 104.8 196.7 104.9 196.2 104.9C195.9 104.9 195.6 104.7 195.6 104.4C195.6 104.1 195.8 103.8 196.1 103.8C196.5 103.7 197 103.7 197.4 103.6C197.7 103.5 198 103.8 198 104C198 104.1 198 104.2 198 104.2Z" fill="#7D97F4"/>
<path d="M193.8 104.6C193.8 104.9 193.5 105.1 193.2 105.1C192.4 105.1 191.6 105 190.8 105C190.6 105 190.5 105 190.3 104.9C190 104.9 189.8 104.6 189.8 104.3C189.8 104 190.1 103.8 190.4 103.8C190.6 103.8 190.7 103.8 190.9 103.9C191.7 104 192.4 104 193.2 104C193.5 104 193.8 104.2 193.8 104.6ZM188.1 103.9C188 104.3 187.7 104.5 187.4 104.4C186.5 104.2 185.5 103.9 184.6 103.5C184.3 103.4 184.2 103.1 184.3 102.8C184.4 102.5 184.7 102.4 185 102.5C185.9 102.8 186.8 103.1 187.7 103.4C187.9 103.3 188.1 103.6 188.1 103.9ZM182.7 101.8C182.7 101.9 182.7 101.9 182.6 102C182.5 102.3 182.1 102.4 181.8 102.2C180.9 101.7 180.1 101.2 179.3 100.6C179.1 100.4 179 100.1 179.2 99.8C179.4 99.6 179.7 99.5 180 99.7C180.8 100.2 181.6 100.7 182.4 101.2C182.7 101.3 182.8 101.6 182.7 101.8ZM178.1 98.4C178.1 98.5 178 98.6 178 98.7C177.8 98.9 177.4 98.9 177.2 98.7C176.5 98 175.8 97.3 175.2 96.6C175 96.4 175 96 175.3 95.8C175.5 95.6 175.9 95.6 176.1 95.9C176.7 96.6 177.3 97.3 178 97.9C178 98.1 178.1 98.3 178.1 98.4ZM174.4 94.1C174.4 94.3 174.3 94.4 174.2 94.5C174 94.7 173.6 94.6 173.4 94.3C172.9 93.5 172.4 92.6 172 91.7C171.9 91.4 172 91.1 172.2 91C172.5 90.9 172.8 91 172.9 91.2C173.3 92 173.8 92.9 174.3 93.6C174.4 93.8 174.4 94 174.4 94.1ZM171.9 88.9C171.9 89.1 171.7 89.3 171.5 89.4C171.2 89.5 170.9 89.3 170.8 89.1C170.5 88.2 170.2 87.2 170 86.3C169.9 86 170.1 85.7 170.4 85.6C170.7 85.5 171 85.7 171 86C171.2 86.9 171.4 87.8 171.8 88.7C171.9 88.8 171.9 88.9 171.9 88.9ZM170.7 83.3C170.7 83.6 170.5 83.8 170.2 83.8C169.9 83.8 169.6 83.6 169.6 83.3C169.5 82.3 169.5 81.3 169.5 80.4C169.5 80.1 169.8 79.9 170.1 79.9C170.4 79.9 170.6 80.2 170.6 80.5C170.6 81.4 170.6 82.3 170.7 83.3ZM171.5 74.8C171.5 74.9 171.5 74.9 171.5 74.8C171.3 75.7 171.1 76.5 170.9 77.3C170.9 77.4 170.9 77.5 170.8 77.7C170.7 78 170.5 78.2 170.2 78.2C169.9 78.2 169.7 77.9 169.7 77.6C169.7 77.5 169.7 77.4 169.8 77.2C169.9 76.4 170.1 75.5 170.4 74.7C170.5 74.4 170.8 74.2 171.1 74.3C171.4 74.3 171.5 74.6 171.5 74.8Z" fill="#7D97F4"/>
<path d="M217 83.5C217 83.8 216.7 84 216.4 84C216.1 84 215.9 83.7 215.9 83.4C216 82.5 216 81.6 216 80.6C216 80.3 216.2 80 216.5 80C216.8 80 217.1 80.2 217.1 80.5C217.1 81.6 217.1 82.5 217 83.5ZM216.6 86.3C216.4 87.3 216.1 88.2 215.8 89.1C215.7 89.4 215.4 89.5 215.1 89.4C214.8 89.3 214.7 89 214.8 88.7C215.1 87.8 215.4 86.9 215.6 86C215.7 85.7 216 85.5 216.3 85.6C216.4 85.8 216.6 86 216.6 86.3ZM216.9 77.9C216.9 78.1 216.7 78.3 216.4 78.4C216.1 78.5 215.8 78.2 215.8 77.9C215.7 77 215.5 76.1 215.2 75.2C215.1 74.9 215.3 74.6 215.6 74.5C215.9 74.4 216.2 74.6 216.3 74.9C216.6 75.8 216.8 76.8 216.9 77.7C216.9 77.8 216.9 77.8 216.9 77.9ZM214.7 91.6C214.7 91.7 214.7 91.7 214.6 91.8C214.2 92.7 213.7 93.5 213.2 94.3C213 94.5 212.7 94.6 212.4 94.5C212.1 94.4 212.1 94 212.2 93.7C212.7 92.9 213.2 92.1 213.6 91.3C213.7 91 214.1 90.9 214.3 91.1C214.6 91.2 214.8 91.4 214.7 91.6ZM215.4 72.5C215.4 72.7 215.3 72.9 215.1 72.9C214.8 73 214.5 72.9 214.4 72.6C214 71.8 213.6 70.9 213.2 70.1C213.1 69.8 213.1 69.5 213.4 69.3C213.7 69.1 214 69.2 214.2 69.5C214.7 70.3 215.1 71.2 215.5 72.1C215.4 72.3 215.4 72.4 215.4 72.5ZM212.6 67.6C212.6 67.8 212.5 67.9 212.4 68C212.2 68.2 211.8 68.1 211.6 67.9C211.1 67.2 210.5 66.5 209.8 65.8C209.6 65.6 209.6 65.2 209.8 65C210 64.8 210.4 64.8 210.6 65C211.3 65.7 211.9 66.4 212.5 67.2C212.6 67.3 212.6 67.4 212.6 67.6ZM208.7 63.5C208.7 63.6 208.6 63.7 208.6 63.8C208.4 64 208.1 64.1 207.8 63.9C207.1 63.3 206.4 62.8 205.6 62.3C205.3 62.1 205.3 61.8 205.4 61.5C205.6 61.2 205.9 61.2 206.2 61.3C207 61.8 207.8 62.4 208.5 63C208.7 63.1 208.8 63.3 208.7 63.5Z" fill="#7D97F4"/>
<path d="M211.6 96.3C211.6 96.4 211.5 96.5 211.5 96.6C211.2 97 210.9 97.3 210.6 97.7C210.4 97.9 210 97.9 209.8 97.7C209.6 97.5 209.6 97.1 209.8 96.9C210.1 96.6 210.4 96.2 210.7 95.9C210.9 95.7 211.2 95.6 211.5 95.8C211.6 96 211.6 96.2 211.6 96.3Z" fill="#7D97F4"/>
<path d="M204.6 95.1C204.7 95 204.7 94.9 204.7 94.8L203.9 91.5C205 90.3 205.9 89 206.6 87.6L210 87.2C210.1 87.2 210.2 87.1 210.2 87L211 83C211 82.9 211 82.8 210.9 82.7L208 80.9C208 79.3 207.7 77.7 207.1 76.2L209.2 73.5C209.3 73.4 209.3 73.3 209.2 73.2L207 69.8C206.9 69.7 206.8 69.6 206.7 69.7L203.4 70.5C202.3 69.4 200.9 68.5 199.5 67.8L199.1 64.4C199.1 64.3 199 64.2 198.9 64.2L194.9 63.4C194.8 63.4 194.7 63.4 194.6 63.5L192.8 66.4C191.2 66.4 189.6 66.7 188.1 67.3L185.4 65.2C185.3 65.1 185.2 65.1 185.1 65.2L181.7 67.4C181.6 67.5 181.6 67.6 181.6 67.7L182.4 71C181.3 72.2 180.4 73.5 179.7 74.9L176.3 75.3C176.2 75.3 176.1 75.4 176.1 75.5L175.3 79.5C175.3 79.6 175.3 79.7 175.4 79.8L178.3 81.6C178.3 83.2 178.6 84.8 179.2 86.3L177 89C176.9 89.1 176.9 89.2 177 89.3L179.2 92.7C179.3 92.8 179.4 92.9 179.5 92.8L182.8 92C183.9 93.1 185.3 94 186.7 94.7L187.1 98.1C187.1 98.2 187.2 98.3 187.3 98.3L191.3 99.1C191.4 99.1 191.5 99.1 191.6 99L193.4 96.1C195 96.1 196.6 95.8 198.1 95.2L200.8 97.3C200.9 97.4 201 97.4 201.1 97.3L204.6 95.1Z" fill="#7D97F4"/>
<path d="M197.3 81.7C197.2 82.6 196.8 83.4 196.2 84.1C195.4 84.9 194.4 85.4 193.3 85.4C191 85.5 189.1 83.7 189 81.4C188.9 79.1 190.7 77.2 193 77.1C194.1 77.1 195.2 77.4 196 78.2C196.8 79 197.3 80 197.3 81.1C197.3 81.3 197.3 81.5 197.3 81.7ZM190.1 80.9C190.1 81.1 190.1 81.2 190.1 81.3C190.2 83 191.6 84.3 193.3 84.2C194.1 84.2 194.9 83.8 195.4 83.2C196 82.6 196.2 81.8 196.2 81C196.2 80.2 195.8 79.4 195.2 78.9C194.6 78.3 193.8 78.1 193 78.1C191.5 78.2 190.2 79.4 190.1 80.9Z" fill="white"/>
<path d="M203.4 82.3C203.4 82.6 203.3 83 203.2 83.3C203.1 84 202.8 84.7 202.6 85.3V85.4C202.5 85.6 202.3 85.7 202 85.7C201.9 85.7 201.9 85.7 201.8 85.6C201.5 85.5 201.4 85.2 201.5 84.9C201.8 84.3 202 83.7 202.1 83V82.9C202.4 81.4 202.3 79.8 201.9 78.4C201.7 77.6 201.3 76.8 200.8 76.1C200.8 76.1 200.8 76.1 200.8 76C199.4 73.9 197.4 72.5 194.9 72C194.6 71.9 194.3 71.9 194 71.8C191.9 71.6 189.8 72.1 188 73.2C185.9 74.5 184.5 76.6 184 79.1C183.5 81.5 183.9 84 185.3 86.1C186.7 88.2 188.7 89.6 191.2 90.1C191.5 90.2 191.8 90.2 192.1 90.3C193.5 90.5 194.8 90.3 196.1 89.9C196.2 89.9 196.3 89.9 196.3 89.9C196.5 89.9 196.7 90.1 196.8 90.3C196.9 90.6 196.7 90.9 196.5 91C195.1 91.5 193.5 91.7 192 91.5C191.6 91.5 191.3 91.4 191 91.3C188.3 90.7 186 89.1 184.4 86.8C182.9 84.5 182.4 81.7 182.9 79C183.5 76.3 185.1 74 187.4 72.4C189.4 71.1 191.8 70.5 194.2 70.8C194.6 70.8 194.9 70.9 195.3 71C200.5 72.1 204 77.1 203.4 82.3Z" fill="white"/>
<path d="M223 102.4C222.4 101.3 220.8 101.5 220.5 102.7C219.3 107.1 216.3 114.8 210.1 117.6C209.8 117.7 209.5 117.9 209.2 118C208.9 117.2 208.9 116.2 209.6 115.1C211.5 112.1 208 108.1 208 108.1C208 108.1 207.8 111.7 205.1 113.9C202.8 115.8 201.7 120.1 203.2 123.7C206.6 136.8 211.6 154.1 192 166.8C172.3 179.5 144.6 142.9 144.6 142.9L158.4 186.5C158.4 186.5 179.6 202.2 204.3 180.1C229 158 212.6 126 212.6 126C212.6 126 231.4 118.4 223 102.4Z" fill="#FF8E84"/>
<path d="M132.7 70.6C132.7 70.6 140.2 37.1 101.8 45.9C101.8 45.9 83.1 42.9 82.2 60.5C82.2 60.5 70.2 68.4 79 83.7C79 83.7 43.3 69.9 27.7 101.2C12.1 132.5 26.4 149.8 41.4 154.2C41.4 154.2 29.3 160.3 35 174.1C40.7 187.9 69.9 197.6 87.1 180.8C87.1 180.8 136.1 187.3 135.1 152.7C135.1 152.7 157.9 138 134 109.4C110 80.8 132.7 70.6 132.7 70.6Z" fill="#182E5A"/>
<path d="M136.1 122.5C129 120.2 108.2 115.9 88 133.9C84.6 137 83.1 141.7 84.3 146.1C89.3 165.8 99.5 230.4 86.7 255.3L135 253.6C135 253.6 146.4 208.1 160.6 188C170.4 174.1 146.1 135 140 125.6C139.1 124.1 137.8 123.1 136.1 122.5Z" fill="#B0AFD5"/>
<path d="M117 83.2C117 83.2 105.9 113 104.9 126.2C104.9 126.2 116.5 131.7 127.7 122.9C127.7 122.9 129.3 93 131.1 87.7L117 83.2Z" fill="#FF8E84"/>
<path d="M130.2 58.5C134 51 146.9 105.5 141.6 109.8C120.2 116.4 105.6 92.9 105.6 92.9C105.6 92.9 99.5 71.6 106.4 64.5C113.2 57.5 119.6 60 130.2 58.5Z" fill="#F9A9A5"/>
<path d="M85.2 137.8C85.2 137.8 50.9 165.4 41.9 203.7C32.8 242 90.6 247 90.6 247C90.6 247 98.6 238.4 107.9 241.6C117.2 244.9 108.9 226.3 98 226.2C87.1 226.1 92 234.8 76.7 227.5C61.8 220.4 52.8 199.2 91.7 167.9C93.9 166.1 95.8 163.8 96.9 161.1C104.6 142.6 98.8 130.2 85.2 137.8Z" fill="#F9A9A5"/>
<path d="M135.9 89.4C135.9 89.4 135.7 89.4 135.6 89.3C135 88.8 134.8 88.3 135 87.4C135.1 86.9 135.6 86.7 135.9 86.6C136 86.5 136.1 86.5 136.1 86.5L136.5 86.3C137.1 86 137.6 85.7 138.1 85.2C138.5 84.8 138.9 84 138.6 83.4C138.5 83.1 138.2 82.8 138 82.6L137.9 82.5C135.3 79.9 133.4 76.5 132.8 72.9C132.8 72.7 132.9 72.6 133 72.6C133.2 72.6 133.3 72.7 133.4 72.8C134 76.3 135.8 79.6 138.3 82.1L138.4 82.2C138.7 82.5 139 82.8 139.2 83.2C139.6 84.1 139.2 85.1 138.6 85.7C138.1 86.2 137.5 86.5 136.9 86.9L136.6 87.1C136.5 87.2 136.4 87.2 136.2 87.3C135.9 87.4 135.7 87.5 135.6 87.7C135.5 88.4 135.6 88.7 136 89C136.1 89.1 136.2 89.3 136.1 89.4C136 89.3 135.9 89.4 135.9 89.4Z" fill="#D75050"/>
<path d="M141.6 91.7C141.6 91.7 131.5 95.4 124.6 95.9C124.6 95.9 130.7 100.5 135.8 99.3C140.9 98.1 141.6 91.7 141.6 91.7Z" fill="white"/>
<path d="M118.6 50.1C118.6 50.1 131.3 53.3 133 59.1C134.7 64.9 114.8 69.9 109.2 70.1L104.4 93.3C104.4 93.3 91.5 71.2 97 58.7C102.3 46.1 118.6 50.1 118.6 50.1Z" fill="#182E5A"/>
<path d="M107 88.3C107 88.3 100.2 77.5 96 85.6C91.8 93.8 103.9 99.6 108.3 95.5L107 88.3Z" fill="#F9A9A5"/>
<g clip-path="url(#clip1_22_70)">
</g>
</g>
<defs>
<linearGradient id="paint0_linear_22_70" x1="153.152" y1="61.2778" x2="169.714" y2="51.6666" gradientUnits="userSpaceOnUse">
<stop stop-color="#4F52FF"/>
<stop offset="1" stop-color="#4042E2"/>
</linearGradient>
<linearGradient id="paint1_linear_22_70" x1="159.16" y1="28.9711" x2="264" y2="28.9711" gradientUnits="userSpaceOnUse">
<stop stop-color="#4F52FF"/>
<stop offset="1" stop-color="#4042E2"/>
</linearGradient>
<clipPath id="clip0_22_70">
<rect width="264" height="264" fill="white"/>
</clipPath>
<clipPath id="clip1_22_70">
<rect width="2392.1" height="1102.5" fill="white" transform="translate(-1064 -419)"/>
</clipPath>
</defs>
</svg>
