<svg width="264" height="264" viewBox="0 0 264 264" fill="none" xmlns="http://www.w3.org/2000/svg">
<g clip-path="url(#clip0_22_106)">
<path d="M260.1 0H24.4C22.3 0 20.6 1.7 20.6 3.8V162C20.6 164.1 22.3 165.8 24.4 165.8H260.2C262.3 165.8 264 164.1 264 162V3.8C264 1.7 262.3 0 260.1 0Z" fill="#1E2136"/>
<path d="M259.4 2.79999H25.7V158.5H259.4V2.79999Z" fill="#666EA7"/>
<path d="M259.4 2.70001H25.8V12.8H259.4V2.70001Z" fill="#8E92C1"/>
<path d="M34.7 8.09998C34.7 6.69998 33.6 5.59998 32.2 5.59998C30.8 5.59998 29.7 6.69998 29.7 8.09998C29.7 9.49998 30.8 10.6 32.2 10.6C33.6 10.6 34.7 9.49998 34.7 8.09998Z" fill="#F0896B"/>
<path d="M43.1 8.09998C43.1 6.69998 42 5.59998 40.6 5.59998C39.2 5.59998 38 6.69998 38 8.09998C38 9.49998 39.1 10.6 40.5 10.6C41.9 10.6 43.1 9.49998 43.1 8.09998Z" fill="#FFAE6F"/>
<path d="M51.9 8.09998C51.9 6.69998 50.8 5.59998 49.4 5.59998C48 5.59998 46.9 6.69998 46.9 8.09998C46.9 9.49998 48 10.6 49.4 10.6C50.8 10.6 51.9 9.49998 51.9 8.09998Z" fill="#E0E0FC"/>
<path d="M52.9 75.3H39.9C39.2 75.3 38.6 74.7 38.6 74C38.6 73.3 39.2 72.7 39.9 72.7H52.9C53.6 72.7 54.2 73.3 54.2 74C54.2 74.7 53.6 75.3 52.9 75.3Z" fill="#FFAE6F"/>
<path d="M57.2 80.5H44.2C43.5 80.5 42.9 79.9 42.9 79.2C42.9 78.5 43.5 77.9 44.2 77.9H57.2C57.9 77.9 58.5 78.5 58.5 79.2C58.5 79.9 57.9 80.5 57.2 80.5Z" fill="#F0896B"/>
<path d="M177 112.5H164C163.3 112.5 162.7 111.9 162.7 111.2C162.7 110.5 163.3 109.9 164 109.9H177C177.7 109.9 178.3 110.5 178.3 111.2C178.3 112 177.7 112.5 177 112.5Z" fill="#FFAE6F"/>
<path d="M181.3 117.7H168.3C167.6 117.7 167 117.1 167 116.4C167 115.7 167.6 115.1 168.3 115.1H181.3C182 115.1 182.6 115.7 182.6 116.4C182.6 117.2 182 117.7 181.3 117.7Z" fill="#F0896B"/>
<path d="M100.5 86.9H51.4C50.7 86.9 50.1 86.3 50.1 85.6C50.1 84.9 50.7 84.3 51.4 84.3H100.5C101.2 84.3 101.8 84.9 101.8 85.6C101.8 86.3 101.2 86.9 100.5 86.9Z" fill="white"/>
<path d="M110.4 100.1H61.3C60.6 100.1 60 99.5 60 98.8C60 98.1 60.6 97.5 61.3 97.5H110.4C111.1 97.5 111.7 98.1 111.7 98.8C111.7 99.5 111.1 100.1 110.4 100.1Z" fill="white"/>
<path d="M131.9 105.8H61.3C60.6 105.8 60 105.2 60 104.5C60 103.8 60.6 103.2 61.3 103.2H131.9C132.6 103.2 133.2 103.8 133.2 104.5C133.2 105.2 132.6 105.8 131.9 105.8Z" fill="white"/>
<path d="M77 111.6H60.8C60.4 111.6 60 111.3 60 110.8V109.7C60 109.3 60.3 108.9 60.8 108.9H77C77.4 108.9 77.8 109.2 77.8 109.7V110.8C77.7 111.2 77.4 111.6 77 111.6Z" fill="white"/>
<path d="M127.2 93.7H51.4C50.7 93.7 50.1 93.1 50.1 92.4C50.1 91.7 50.7 91.1 51.4 91.1H127.2C127.9 91.1 128.5 91.7 128.5 92.4C128.5 93.1 128 93.7 127.2 93.7Z" fill="white"/>
<path d="M100.5 130.5H51.4C50.7 130.5 50.1 129.9 50.1 129.2C50.1 128.5 50.7 127.9 51.4 127.9H100.5C101.2 127.9 101.8 128.5 101.8 129.2C101.8 129.9 101.2 130.5 100.5 130.5Z" fill="white"/>
<path d="M111.1 137.3H51.3C50.7 137.3 50.1 136.8 50.1 136.1V135.8C50.1 135.2 50.6 134.6 51.3 134.6H111.1C111.7 134.6 112.3 135.1 112.3 135.8V136.1C112.2 136.7 111.7 137.3 111.1 137.3Z" fill="white"/>
<path d="M57.4 99.1C57.4 98.3 56.7 97.6 55.9 97.6C55.1 97.6 54.4 98.3 54.4 99.1C54.4 99.9 55.1 100.6 55.9 100.6C56.7 100.6 57.4 99.9 57.4 99.1Z" fill="#FFAE6F"/>
<path d="M55.9 106.1C56.7284 106.1 57.4 105.428 57.4 104.6C57.4 103.772 56.7284 103.1 55.9 103.1C55.0716 103.1 54.4 103.772 54.4 104.6C54.4 105.428 55.0716 106.1 55.9 106.1Z" fill="#FFAE6F"/>
<path d="M55.9 111.7C56.7284 111.7 57.4 111.028 57.4 110.2C57.4 109.372 56.7284 108.7 55.9 108.7C55.0716 108.7 54.4 109.372 54.4 110.2C54.4 111.028 55.0716 111.7 55.9 111.7Z" fill="#FFAE6F"/>
<path d="M99.3 144.8H50.3C49.6 144.8 49 144.2 49 143.5C49 142.8 49.6 142.2 50.3 142.2H99.4C100.1 142.2 100.7 142.8 100.7 143.5C100.6 144.2 100 144.8 99.3 144.8Z" fill="white"/>
<path d="M234.4 103.2H158.6C157.9 103.2 157.3 102.6 157.3 101.9C157.3 101.2 157.9 100.6 158.6 100.6H234.4C235.1 100.6 235.7 101.2 235.7 101.9C235.7 102.6 235.1 103.2 234.4 103.2Z" fill="white"/>
<path d="M212.3 76.2H163.2C162.5 76.2 161.9 75.6 161.9 74.9C161.9 74.2 162.5 73.6 163.2 73.6H212.3C213 73.6 213.6 74.2 213.6 74.9C213.6 75.6 213 76.2 212.3 76.2Z" fill="white"/>
<path d="M233.8 81.9H163.2C162.5 81.9 161.9 81.3 161.9 80.6C161.9 79.9 162.5 79.3 163.2 79.3H233.8C234.5 79.3 235.1 79.9 235.1 80.6C235.1 81.4 234.5 81.9 233.8 81.9Z" fill="white"/>
<path d="M178.8 87.7H162.6C162.2 87.7 161.8 87.4 161.8 86.9V85.8C161.8 85.4 162.1 85 162.6 85H178.8C179.2 85 179.6 85.3 179.6 85.8V86.9C179.6 87.3 179.3 87.7 178.8 87.7Z" fill="white"/>
<path d="M158.8 75.6C159.628 75.6 160.3 74.9284 160.3 74.1C160.3 73.2715 159.628 72.6 158.8 72.6C157.972 72.6 157.3 73.2715 157.3 74.1C157.3 74.9284 157.972 75.6 158.8 75.6Z" fill="#FFAE6F"/>
<path d="M158.8 82.4C159.628 82.4 160.3 81.7284 160.3 80.9C160.3 80.0715 159.628 79.4 158.8 79.4C157.972 79.4 157.3 80.0715 157.3 80.9C157.3 81.7284 157.972 82.4 158.8 82.4Z" fill="#FFAE6F"/>
<path d="M160.2 86.1C160.2 85.3 159.5 84.6 158.7 84.6C157.9 84.6 157.2 85.3 157.2 86.1C157.2 86.9 157.9 87.6 158.7 87.6C159.6 87.6 160.2 86.9 160.2 86.1Z" fill="#FFAE6F"/>
<path d="M64.7 40.3L47.1 47.2V47.3L64.7 54.2V61.7L36.7 50.7V43.7L64.7 32.7V40.3Z" fill="#FFAE6F"/>
<path d="M85.5 21.8L91.8 23.7L75.2 66.9L68.9 65L85.5 21.8Z" fill="#FFAE6F"/>
<path d="M96.1 54.1L113.7 47.2V47.1L96.1 40.2V32.7L124.1 43.7V50.7L96.1 61.7V54.1Z" fill="#FFAE6F"/>
<path d="M171.5 227.8H168.8V256.5H171.5V227.8Z" fill="#666EA7"/>
<path d="M181.8 257H158.6C158.6 256 159.4 255.3 160.3 255.3H180C181 255.3 181.8 256.1 181.8 257Z" fill="#666EA7"/>
<path d="M185.2 226.8C185.2 228.4 183.9 229.7 182.3 229.7H158.8C157.2 229.7 155.9 228.4 155.9 226.8V224.2C155.9 222.6 157.2 221.3 158.8 221.3H182.3C183.9 221.3 185.2 222.6 185.2 224.2V226.8Z" fill="#666EA7"/>
<path d="M150.6 208.7C150.6 208.7 146.7 209.3 142.2 212.3C141.5 212.8 141.1 213.6 141.2 214.4C141.7 218.6 143.9 232.2 151.1 245.5C151.5 246.2 151.6 247 151.4 247.8L150.2 253.6L147.9 255.8H153.9L157.9 245L156.2 244.5C154.9 244.1 154 242.9 154 241.5L153.8 230C154 224.9 150.6 221.3 150.6 221.3L160.1 220.8L150.6 208.7Z" fill="#FF8E84"/>
<path d="M145.6 256.8C145.1 257.5 151.5 258.5 154.7 256.9C154.7 256.9 159.2 249.1 159.2 245.1C159.2 245.1 158.8 244.3 156.2 244.5C156.2 244.5 154.7 253.7 153.1 254.8C151.5 255.8 148.7 254.9 148.7 254.9C148.7 254.9 146.4 255.8 145.6 256.8Z" fill="#666EA7"/>
<path d="M158.9 221.4C158.8 221.3 148.6 220.2 148.6 220.2C148.6 220.2 148.9 223.3 147.9 227.6C146.9 231.9 131.9 250.4 131.9 250.4L133.5 255.4C128.6 257.1 123.9 257.4 119.2 256.3L128.9 250.5C128.9 250.5 138 219.4 143.6 213.9L153.8 210.4L158.9 221.4Z" fill="#F9A9A5"/>
<path d="M181.8 203.3C181.8 203.3 187.7 212.1 188.2 216C188.7 220 186.6 221.6 180.4 221.9C174.2 222.2 157.7 222.2 157.7 222.2L143.6 210.2C143.6 210.2 153.9 206.5 156.5 205.5C159.2 204.4 181.8 203.3 181.8 203.3Z" fill="#2A28FB"/>
<path d="M132.8 253.6C132.8 253.6 134.5 255.2 133.3 257.1C133.3 257.1 119.9 259.5 116.2 258.4C116.2 258.4 117 256.7 121.1 254.7L120.8 254.9C120.4 255.2 120.6 255.8 121.1 255.8C123.9 255.7 129.5 255.2 132.8 253.6Z" fill="#666EA7"/>
<path d="M156.2 164.1C156.2 164.9 163.5 195.1 163.5 195.1L184.4 201.3C188.4 202.5 192.8 200.8 195 197.3C200.6 188.5 197.9 176.8 189.1 171.2L186.1 169.3C179.8 165.3 174.3 160.1 170.1 154L169 152.4L156.2 164.1Z" fill="#182E5A"/>
<path d="M165.8 202.1C165.8 202.1 158.9 195.6 155.6 191.3C153.8 189 153.2 185.9 154 183C155.5 177.8 158.3 172.4 158.5 171.6C158.9 170.3 166.6 170.4 166.6 170.4C166.6 170.4 181.7 180.2 187.7 196.8L181 198.9C181 198.9 177.1 192.3 173.2 188.1C173.2 188.1 179.9 197 180.2 200.7L165.8 202.1Z" fill="url(#paint0_linear_22_106)"/>
<path d="M151.9 202.6L156.9 197.7L163.9 200.6C163.9 200.6 170.8 201.7 174.8 200.6C178.8 199.5 178.8 199.5 178.8 199.5L187.8 196.7L189.2 200.7C189.6 201.7 189.2 202.8 188.3 203.5C187.5 204.1 186.6 204.7 186 204.9C184.8 205.4 156.9 204.5 156.9 204.5L151.9 202.6Z" fill="#F9A9A5"/>
<path d="M156.5 162.7C156.6 163 159.7 171.4 159.9 171.5C160.1 171.6 164.3 171.9 166.3 170.5L161.3 160.8L156.5 162.7Z" fill="#FF8E84"/>
<path d="M158.5 151C158.5 151 154.9 152.8 152.6 158.3C150.4 163.8 152.4 166.2 154.8 166.4C157.2 166.6 160.7 166.4 164.3 162.7C167.9 159 163.2 148.9 158.5 151Z" fill="#F9A9A5"/>
<path d="M161.6 160C161.6 160 164 152 157 152.3L155.4 153.5C155.4 153.5 152.6 149.3 156.7 147C160.8 144.7 167.2 146.2 169.3 151.7C171.4 157.3 170.6 161 167.7 163.8C164.9 166.7 163.5 163.7 163.5 163.7C163.5 163.7 165 161.1 164.2 159.8C163.5 158.5 162 160.2 162 160.2L161.6 160Z" fill="#182E5A"/>
<path d="M160.6 159.3C160.6 159.3 163.9 155.8 165 158.3C166.2 160.8 161.8 161.4 160.1 161.5L160.6 159.3Z" fill="url(#paint1_linear_22_106)"/>
<path d="M170.9 204.9H141.6C140.9 204.9 140.3 204.3 140.3 203.6C140.3 202.9 140.9 202.3 141.6 202.3H170.8C171.5 202.3 172.1 202.9 172.1 203.6C172.2 204.3 171.6 204.9 170.9 204.9Z" fill="#1E2136"/>
<path d="M115.4 178.4H139.7C141.5 178.4 143.1 179.4 143.9 181.1L155.1 204.9H124.9C123.7 204.9 122.7 204.2 122.3 203.1L113.6 181C113.1 179.8 114 178.4 115.4 178.4Z" fill="#B6B6B6"/>
<path d="M132.5 190.6C133 192.2 132.6 193.8 131.6 194.2C130.6 194.5 129.3 193.5 128.8 191.8C128.3 190.2 128.7 188.6 129.7 188.2C130.8 187.9 132 189 132.5 190.6Z" fill="white"/>
<path d="M204.2 253.4C204.2 253.4 204.5 255.1 204.6 257.1C204.7 258 204 258.7 203.2 258.8C200.2 259.1 193.4 259.6 189.1 259C188.5 258.9 188.2 258.2 188.7 257.7C190.5 256 194.8 252.8 201.9 252.1L204.2 253.4Z" fill="url(#paint2_linear_22_106)"/>
<path d="M205.7 249.6L204.2 253.3C204 253.8 203.5 254.1 202.9 254.1C202.5 254.1 202.1 254 201.7 253.9C200.8 253.6 200.4 252.7 200.6 251.9L201.7 248.1L205.7 249.6Z" fill="#661722"/>
<path d="M231.6 256.4C231.6 256.4 228.6 258.9 227.4 262.2C227.1 263.1 227.8 264 228.7 264H234.9C235.8 264 236.5 263.2 236.4 262.3C236 260 234.8 256.4 231.6 256.4Z" fill="url(#paint3_linear_22_106)"/>
<path d="M219.2 192.2L200.8 248.4C200.8 248.4 204.3 250.7 206 250.6L227.9 205.5C227.9 205.5 231.7 233.3 229.9 253.3L236.2 253.8C236.2 253.8 246.4 202.8 238.7 185.3L219.2 192.2Z" fill="#FFAE6F"/>
<path d="M235.3 253.1C235.3 253.1 234.7 255.8 234.2 257.6C234.1 257.9 233.8 258.1 233.5 258C232.6 257.7 231.8 257.5 231.2 257.6C230.9 257.6 230.7 257.4 230.7 257.2L230.6 252.7L235.3 253.1Z" fill="#C4421B"/>
<path d="M227.8 205C227.9 205 228 204.9 228 204.8L227.3 199.1C227.3 199 227.2 198.9 227.1 198.9C227 198.9 226.9 199 226.9 199.1L227.6 204.8C227.6 204.9 227.7 205 227.8 205Z" fill="#661722"/>
<path d="M215.8 142.8C215.8 142.8 230.7 144.1 228.6 154.8C228.6 154.8 236.8 170.3 240.7 188.6C240.8 189.2 240.4 189.8 239.8 189.9L215 194.2C214.3 194.3 213.7 193.9 213.5 193.2L207.6 170.3L205.3 181L198 179.1L204.2 147.8C204 147.6 204.9 143 215.8 142.8Z" fill="#FFE8DB"/>
<path d="M207.4 169.1C207.5 169.1 207.6 169 207.6 168.9L205.5 159.4C205.5 159.3 205.4 159.2 205.3 159.3C205.2 159.3 205.1 159.4 205.2 159.5L207.3 169C207.2 169.1 207.3 169.1 207.4 169.1Z" fill="#FFAE6F"/>
<path d="M208.9 197.4C209.7 197 210.6 196.9 211.5 197.1L213.2 197.5C213.6 197.6 213.9 197.3 214 197L215.8 181.1C218 182.2 221.3 182 222.3 182L218.2 200.8H203.8L208.9 197.4Z" fill="#C4421B"/>
<path d="M210.9 132.6L215.5 145.4C215.5 145.4 211.4 148.6 208.5 147.5L206.2 140.1C206.2 140.2 207.9 131.2 210.9 132.6Z" fill="#661722"/>
<path d="M197.2 128C197.2 128.2 201.6 140.5 201.6 140.5L208.6 137.8L206.1 125.5C206.2 125.6 197.2 124.7 197.2 128Z" fill="#C4421B"/>
<path d="M205 128.6L206.8 135C206.8 135.1 206.8 135.2 206.8 135.2C206.8 135.7 206.7 137.5 204.9 137.3C203.2 137.1 201.7 136.9 200.8 137.4C200.4 137.6 200.2 138.1 200.3 138.5C200.7 139.6 201.7 142.1 202.8 144.2C203 144.6 203.6 144.8 204 144.6C205.3 144 208 142.7 210 141.1C210.3 140.9 210.4 140.5 210.3 140.2C210 138.6 209.1 133.6 209 132.2C209 130.9 210.5 129.8 211.1 129.5C211.3 129.4 211.5 129.2 211.5 128.9C211.7 128 211.9 126.1 209.4 125.7C208.9 125.6 208.5 125.1 208.6 124.6C208.8 123.6 208.7 122.1 206.8 121.5C204.8 120.9 203.6 122.1 202.9 123C202.6 123.4 202.2 123.5 201.8 123.3C201.6 123.2 201.3 123.2 201 123.4C200.6 123.7 200 123.6 199.7 123.2C199.1 122.3 198.1 121.5 196.3 122.1C193.1 123.1 193.3 126.8 194.5 128.7C195.7 130.7 199 129.4 200.6 128.1C201.8 127.1 203.6 127.7 204.5 128C204.7 128.1 204.9 128.3 205 128.6Z" fill="#182E5A"/>
<path d="M209.6 134.4C209.6 134.4 207.7 130.9 209 129.8C210.2 128.7 212.3 128.9 212.3 131.6C212.2 135 209.6 134.4 209.6 134.4Z" fill="#C4421B"/>
<path d="M170.6 162.9L171 161.5C171.3 160.7 171.9 160 172.7 159.7L180.6 156.5C180.6 156.5 180.7 155.5 178.9 154.8C177.1 154.1 177.5 152.1 177.5 152.1C177.5 152.1 179.9 153.2 183.5 155C185.5 156 186.7 157.8 187.3 159.1L205.1 180.9L203 182.3C200.2 184.2 196.5 183.3 194.9 180.3L185.2 161.8C180.5 163.2 175.6 163.5 170.6 162.9Z" fill="#661722"/>
<path d="M220.8 182.1C221.8 182.1 222.5 182 222.6 182H222.7L228.1 156.7C228.1 156.6 228.1 156.5 228 156.5C227.9 156.5 227.8 156.5 227.8 156.6L222.4 181.7C221.6 181.8 217.3 182.1 215 180.4L219.7 158.4L218.7 156.5C218.7 156.4 218.5 156.4 218.4 156.4C218.3 156.4 218.3 156.6 218.3 156.7L219.2 158.4L214.5 180.5L214.6 180.6C216.4 181.9 219 182.1 220.8 182.1Z" fill="#FFAE6F"/>
<path d="M189.8 204.3H218.5V201.3H189.8C190.4 201.4 190.4 204.3 189.8 204.3Z" fill="#91B3FA"/>
<path d="M217.5 204.3C218.1 204.3 218.5 203.9 218.5 203.3V202.3C218.5 201.7 218.1 201.3 217.5 201.3H189.9C189.4 201.3 188.9 201.1 188.9 201C188.9 200.9 189.4 200.7 189.9 200.7H220.2C220.9 200.7 221.4 201.3 221.4 201.9V203.8C221.4 204.4 220.9 205 220.2 205H189.9C189.4 205 188.9 204.8 188.9 204.7C188.9 204.5 189.4 204.4 189.9 204.4H217.5V204.3Z" fill="url(#paint4_linear_22_106)"/>
<path d="M98.3 260.8C98.2 260.8 98 260.8 97.9 260.7C97.4 260.5 97.2 259.9 97.4 259.3L117.2 208.9C117.4 208.4 118 208.1 118.4 208.4C118.9 208.6 119.1 209.2 118.9 209.8L99.1 260.2C99 260.6 98.7 260.8 98.3 260.8Z" fill="#666EA7"/>
<path d="M120.7 260.8C120.3 260.8 120 260.6 119.8 260.2L100 209.8C99.8 209.3 100 208.7 100.5 208.4C101 208.2 101.5 208.4 101.7 208.9L121.5 259.3C121.7 259.8 121.5 260.4 121 260.7C120.9 260.8 120.8 260.8 120.7 260.8Z" fill="#666EA7"/>
<path d="M192.7 259.7C192.6 259.7 192.4 259.7 192.3 259.6C191.8 259.4 191.6 258.8 191.8 258.2L211.6 207.8C211.8 207.3 212.4 207 212.8 207.3C213.3 207.5 213.5 208.1 213.3 208.7L193.5 259.1C193.4 259.4 193 259.7 192.7 259.7Z" fill="#666EA7"/>
<path d="M215 259.7C214.6 259.7 214.3 259.5 214.1 259.1L194.3 208.7C194.1 208.2 194.3 207.6 194.8 207.3C195.3 207.1 195.8 207.3 196 207.8L215.8 258.2C216 258.7 215.8 259.3 215.3 259.6C215.3 259.7 215.2 259.7 215 259.7Z" fill="#666EA7"/>
<path d="M222.7 206.3C222.8 206 222.7 205.6 222.4 205.4C222.2 205.1 221.8 205 221.4 205H90.1C89.6 205 89.1 205.2 88.8 205.6C88.5 206 88.5 206.4 88.7 206.8L90.1 209.5C90.4 210.1 91.1 210.5 91.9 210.5H220.5C221.2 210.5 221.8 210.1 222 209.4L222.7 206.3Z" fill="#666EA7"/>
<path d="M33.4 254.8C33.4 254.8 32.8 258 32.5 261.1C32.4 262.3 33.3 263.4 34.5 263.5C38.7 263.7 47.6 264.1 50.8 264C51.3 264 51.6 263.5 51.4 263C51.3 262.6 51 262.3 50.6 262.1L36 255.2L33.4 254.8Z" fill="#1E2136"/>
<path d="M32.9 252.9L33.3 256.7C33.3 256.7 35.9 257.9 37.6 256.6L36.6 252.4L32.9 252.9Z" fill="#FF8E84"/>
<path d="M16.4 256.3C16.4 256.3 15.5 257.9 14.6 262.1C14.4 262.9 15 263.6 15.7 263.7C17.1 263.8 19.2 264 20.9 264C21.7 264 22.3 263.3 22.2 262.6C22 261.1 21.5 258.5 19.7 256.5L16.4 256.3Z" fill="#1E2136"/>
<path d="M15.7 251.4L16.7 257.1C16.7 257.1 17.7 257.9 19.8 257.3L19.4 251.1L15.7 251.4Z" fill="#FF8E84"/>
<path d="M37.4 252.8C33.6 236.2 33.5 204.1 33.7 189.5L34.4 180.7L25.1 181.8H23.3V182L13.5 183.2C9 208.6 13.8 246.1 15.5 253.5C15.6 254 16 254.3 16.4 254.4C17.2 254.5 18.4 254.7 19.7 254.3C20.1 254.2 20.4 253.8 20.5 253.3C20.7 248.5 20.7 223.2 22.9 206.4C24.5 228.1 30.2 249.1 31.5 253.6C31.7 254.2 32.2 254.5 32.7 254.5C34.6 254.5 36.1 254 36.9 253.7C37.3 253.5 37.5 253.1 37.4 252.8Z" fill="#4B5B95"/>
<path d="M40.8 135.2C28.2 134.9 14.2 138.3 14.2 138.3C10.2 160.3 13.1 185.6 13.1 185.6C22.9 188.3 33.9 184.2 33.9 184.2C35.6 175 43.5 149.2 43.5 149.2C49.7 148.5 54.8 146.8 59 144.4C55.8 140.7 54.4 135.9 53.7 133.1C49.3 134.6 44.7 135.3 40.8 135.2Z" fill="#E0E0FC"/>
<path d="M78.4 116.9C77.2 115.4 75.6 116.1 75.6 116.1C73.7 123.9 63.8 130.2 53.8 133.2C54.4 136 55.9 140.7 59.1 144.5C75.7 135.3 78.4 116.9 78.4 116.9Z" fill="#FF8E84"/>
<path d="M78.1 117.3C78.2 117.7 76.7 118.3 75.8 116.6C75.8 115.8 75.3 112.3 75.8 111.7C78.4 108.2 83.4 103.9 83.4 103.9C84.2 104.7 83.5 105.6 83.5 105.6L81.1 108.1C81.6 109 82.2 109.8 82.5 110.9C82.7 111.7 82.6 112.6 82.1 113.4C81.7 114.2 81.1 115.2 80.5 115.9C79.5 117.3 78.1 117.3 78.1 117.3Z" fill="#FF8E84"/>
<path d="M19 150.5L14.3 138.2C14.3 138.2 2.4 146.1 0.4 156.3C2.6 156.5 6.7 157.1 10.6 159.1C11.5 154.4 19 150.5 19 150.5Z" fill="#E0E0FC"/>
<path d="M29.2 162.1C29.2 162.1 15.9 169.5 11.5 163C10.6 161.7 10.4 160.3 10.6 159.1C6.6 157.1 2.6 156.4 0.4 156.3C-0.2 159.4 0.1 162.6 1.8 165.9C9.5 180.3 31 165.4 31 165.4L29.2 162.1Z" fill="#FF8E84"/>
<path d="M28.1 124.8L24 136.4C23.9 136.6 24 136.8 24.2 136.9C25.3 137.5 29.2 139.3 34 136.3C34.5 136 34.8 135.5 34.9 134.9L36.3 124.8H28.1Z" fill="#FF8E84"/>
<path d="M35.6 116.5C35.6 116.5 40.8 126.6 40.1 130.7C39.4 134.8 32.8 134.4 27 131L23.1 120.1L35.6 116.5Z" fill="#F9A9A5"/>
<path d="M27.4 125.7C27.6 125.6 27.7 125.3 27.6 125.1C27.2 124.4 26.4 123.1 26.1 121.9C26.1 121.9 25.1 121.3 28.6 120.5C32 119.7 37.1 118.5 38.2 115.6C39.3 112.8 36.6 105.6 32.2 111.3C32 111.5 31.7 111.5 31.5 111.3C30.8 110.4 28.9 108.4 26.3 109.6C23.8 110.7 23.6 112.5 23.6 113.4C23.6 113.7 23.4 113.9 23.1 113.8C21.9 113.6 18.9 113.3 17.5 116.4C16.3 118.9 17.1 120.3 17.7 121C17.9 121.2 17.8 121.6 17.5 121.7C16.7 121.9 15.6 122.6 15.7 124.5C15.8 127.1 18.8 126.9 19.6 126.8C19.7 126.8 19.9 126.8 20 126.9C20.7 127.7 23.9 131.1 27.4 131.5C27.7 131.5 27.9 131.2 27.8 131L26.3 126.6C26.2 126.4 26.3 126.2 26.5 126.1L27.4 125.7Z" fill="#C24D35"/>
<path d="M28 126.3C28 126.3 24.2 123.7 23.9 125.8C23.6 128 27.3 129 29.1 128.2L28 126.3Z" fill="url(#paint5_linear_22_106)"/>
<path d="M27.6 174.9L34.9 149.5C35 149.2 35.2 149 35.5 149C36.8 148.8 40.6 148.4 45 148C50.3 147.6 56.5 147.2 60.1 147.5C60.6 147.5 60.9 148.1 60.7 148.6C58.6 152.8 50 170.1 45.7 175.7C45.6 175.9 45.3 176 45.1 176L28.3 175.8C27.8 175.8 27.4 175.4 27.6 174.9Z" fill="#1E2136"/>
<path d="M29.3 168.8C29.3 168.8 28.3 164.6 28.7 163.2C29.1 161.7 29.9 159.8 32.5 160.2C35.1 160.6 38.2 161.7 38.2 161.7C38.2 161.7 38 163.6 36 163L37.2 164C37.2 164 37 165.5 35.3 164.7L36.5 166C36.5 166 35.8 167.3 34.5 166.5C33.4 165.6 32.8 169.3 29.3 168.8Z" fill="#FF8E84"/>
<path d="M44.5 155.6C44.5 156.8 45.5 157.7 46.6 157.7C47.8 157.7 48.7 156.7 48.7 155.6C48.7 154.4 47.7 153.5 46.6 153.5C45.5 153.5 44.5 154.5 44.5 155.6Z" fill="white"/>
</g>
<defs>
<linearGradient id="paint0_linear_22_106" x1="158.231" y1="191.683" x2="254.534" y2="143.19" gradientUnits="userSpaceOnUse">
<stop stop-color="#FE7062"/>
<stop offset="1" stop-color="#FF928E"/>
</linearGradient>
<linearGradient id="paint1_linear_22_106" x1="155.45" y1="148.348" x2="168.202" y2="168.847" gradientUnits="userSpaceOnUse">
<stop stop-color="#FEBBBA"/>
<stop offset="1" stop-color="#FF928E"/>
</linearGradient>
<linearGradient id="paint2_linear_22_106" x1="196.31" y1="284.255" x2="196.062" y2="310.388" gradientUnits="userSpaceOnUse">
<stop stop-color="#09005D"/>
<stop offset="1" stop-color="#1A0F91"/>
</linearGradient>
<linearGradient id="paint3_linear_22_106" x1="231.616" y1="284.588" x2="231.37" y2="310.721" gradientUnits="userSpaceOnUse">
<stop stop-color="#09005D"/>
<stop offset="1" stop-color="#1A0F91"/>
</linearGradient>
<linearGradient id="paint4_linear_22_106" x1="204.902" y1="219.16" x2="205.025" y2="211.789" gradientUnits="userSpaceOnUse">
<stop stop-color="#4F52FF"/>
<stop offset="1" stop-color="#4042E2"/>
</linearGradient>
<linearGradient id="paint5_linear_22_106" x1="34.0658" y1="131.756" x2="19.5066" y2="122.685" gradientUnits="userSpaceOnUse">
<stop stop-color="#FEBBBA"/>
<stop offset="1" stop-color="#FF928E"/>
</linearGradient>
<clipPath id="clip0_22_106">
<rect width="264" height="264" fill="white"/>
</clipPath>
</defs>
</svg>
