<svg width="840" height="588" viewBox="0 0 840 588" fill="none" xmlns="http://www.w3.org/2000/svg">
<path d="M829.867 567.735H19.6665C14.091 567.735 9.534 572.292 9.534 577.867C9.534 583.443 14.091 588 19.6665 588H829.867C835.443 588 840 583.443 840 577.867C840 572.302 835.443 567.735 829.867 567.735Z" fill="#9E82DB"/>
<path d="M461.811 70.329L462.178 69.2055L296.383 14.175L296.152 14.3115L206.619 68.7435L207.228 69.7515L296.53 15.4665L461.811 70.329Z" fill="#3B508E"/>
<path d="M307.786 541.445H310.936L310.936 81.7763H307.786L307.786 541.445Z" fill="#E7704F"/>
<path d="M281.494 541.445H284.644L284.644 81.7763H281.494L281.494 541.445Z" fill="#E7704F"/>
<path d="M308.63 88.426L282.778 114.278L284.448 115.949L310.3 90.0965L308.63 88.426Z" fill="#E7704F"/>
<path d="M284.44 88.4253L282.77 90.0958L308.622 115.948L310.293 114.278L284.44 88.4253Z" fill="#E7704F"/>
<path d="M308.627 115.453L282.775 141.305L284.445 142.976L310.297 117.124L308.627 115.453Z" fill="#E7704F"/>
<path d="M284.445 115.461L282.775 117.132L308.627 142.984L310.298 141.314L284.445 115.461Z" fill="#E7704F"/>
<path d="M445.04 69.2523L443.867 70.4254L462.064 88.623L463.237 87.4499L445.04 69.2523Z" fill="#E7704F"/>
<path d="M462.074 69.2552L443.876 87.4528L445.049 88.6258L463.247 70.4283L462.074 69.2552Z" fill="#E7704F"/>
<path d="M426.013 69.2506L424.84 70.4237L443.038 88.6213L444.211 87.4482L426.013 69.2506Z" fill="#E7704F"/>
<path d="M443.047 69.2534L424.85 87.451L426.023 88.624L444.22 70.4264L443.047 69.2534Z" fill="#E7704F"/>
<path d="M407.229 69.2501L406.056 70.4232L424.253 88.6207L425.426 87.4477L407.229 69.2501Z" fill="#E7704F"/>
<path d="M424.262 69.2528L406.065 87.4504L407.238 88.6235L425.436 70.4259L424.262 69.2528Z" fill="#E7704F"/>
<path d="M388.202 69.2484L387.029 70.4214L405.227 88.619L406.4 87.4459L388.202 69.2484Z" fill="#E7704F"/>
<path d="M405.228 69.2584L387.031 87.456L388.204 88.6291L406.402 70.4315L405.228 69.2584Z" fill="#E7704F"/>
<path d="M370.206 69.2494L369.033 70.4225L387.231 88.6201L388.404 87.447L370.206 69.2494Z" fill="#E7704F"/>
<path d="M387.231 69.2569L369.033 87.4544L370.206 88.6275L388.404 70.4299L387.231 69.2569Z" fill="#E7704F"/>
<path d="M351.172 69.2551L349.999 70.4282L368.197 88.6258L369.37 87.4527L351.172 69.2551Z" fill="#E7704F"/>
<path d="M368.204 69.2551L350.007 87.4527L351.18 88.6258L369.377 70.4282L368.204 69.2551Z" fill="#E7704F"/>
<path d="M332.586 69.2528L331.413 70.4259L349.611 88.6234L350.784 87.4504L332.586 69.2528Z" fill="#E7704F"/>
<path d="M349.618 69.2528L331.421 87.4504L332.594 88.6235L350.792 70.4259L349.618 69.2528Z" fill="#E7704F"/>
<path d="M313.56 69.2511L312.387 70.4241L330.584 88.6217L331.758 87.4486L313.56 69.2511Z" fill="#E7704F"/>
<path d="M330.592 69.2511L312.394 87.4486L313.567 88.6217L331.765 70.4241L330.592 69.2511Z" fill="#E7704F"/>
<path d="M264.052 69.2491L262.879 70.4222L281.076 88.6198L282.25 87.4467L264.052 69.2491Z" fill="#E7704F"/>
<path d="M281.085 69.251L262.887 87.4486L264.06 88.6217L282.258 70.4241L281.085 69.251Z" fill="#E7704F"/>
<path d="M245.018 69.2548L243.845 70.4279L262.042 88.6255L263.216 87.4524L245.018 69.2548Z" fill="#E7704F"/>
<path d="M262.051 69.2566L243.853 87.4542L245.026 88.6272L263.224 70.4297L262.051 69.2566Z" fill="#E7704F"/>
<path d="M225.94 69.2542L224.767 70.4273L242.964 88.6249L244.137 87.4518L225.94 69.2542Z" fill="#E7704F"/>
<path d="M242.972 69.2542L224.774 87.4518L225.947 88.6249L244.145 70.4273L242.972 69.2542Z" fill="#E7704F"/>
<path d="M206.913 69.2525L205.74 70.4255L223.938 88.6231L225.111 87.45L206.913 69.2525Z" fill="#E7704F"/>
<path d="M223.945 69.2525L205.747 87.45L206.92 88.6231L225.118 70.4256L223.945 69.2525Z" fill="#E7704F"/>
<path d="M308.625 142.186L282.773 168.039L284.443 169.709L310.296 143.857L308.625 142.186Z" fill="#E7704F"/>
<path d="M284.444 142.195L282.773 143.865L308.625 169.718L310.296 168.047L284.444 142.195Z" fill="#E7704F"/>
<path d="M308.63 169.222L282.778 195.074L284.448 196.745L310.3 170.892L308.63 169.222Z" fill="#E7704F"/>
<path d="M284.441 169.223L282.77 170.893L308.623 196.746L310.293 195.075L284.441 169.223Z" fill="#E7704F"/>
<path d="M308.624 195.065L282.772 220.918L284.442 222.588L310.294 196.736L308.624 195.065Z" fill="#E7704F"/>
<path d="M284.442 195.072L282.772 196.742L308.624 222.595L310.294 220.924L284.442 195.072Z" fill="#E7704F"/>
<path d="M308.629 222.1L282.776 247.952L284.447 249.623L310.299 223.77L308.629 222.1Z" fill="#E7704F"/>
<path d="M284.439 222.101L282.769 223.771L308.621 249.624L310.292 247.953L284.439 222.101Z" fill="#E7704F"/>
<path d="M308.629 248.244L282.777 274.097L284.447 275.767L310.299 249.915L308.629 248.244Z" fill="#E7704F"/>
<path d="M284.44 248.245L282.769 249.916L308.621 275.768L310.292 274.098L284.44 248.245Z" fill="#E7704F"/>
<path d="M308.626 275.273L282.774 301.126L284.444 302.796L310.297 276.944L308.626 275.273Z" fill="#E7704F"/>
<path d="M284.444 275.28L282.774 276.95L308.626 302.802L310.297 301.132L284.444 275.28Z" fill="#E7704F"/>
<path d="M308.623 302.301L282.771 328.153L284.442 329.824L310.294 303.972L308.623 302.301Z" fill="#E7704F"/>
<path d="M284.442 302.307L282.771 303.978L308.623 329.83L310.294 328.16L284.442 302.307Z" fill="#E7704F"/>
<path d="M308.628 329.335L282.776 355.188L284.446 356.858L310.299 331.006L308.628 329.335Z" fill="#E7704F"/>
<path d="M284.439 329.336L282.768 331.007L308.621 356.859L310.291 355.189L284.439 329.336Z" fill="#E7704F"/>
<path d="M308.623 357.152L282.77 383.004L284.441 384.675L310.293 358.822L308.623 357.152Z" fill="#E7704F"/>
<path d="M284.441 357.16L282.77 358.831L308.622 384.683L310.293 383.013L284.441 357.16Z" fill="#E7704F"/>
<path d="M308.627 384.188L282.775 410.041L284.445 411.711L310.298 385.859L308.627 384.188Z" fill="#E7704F"/>
<path d="M284.446 384.194L282.775 385.865L308.627 411.717L310.298 410.047L284.446 384.194Z" fill="#E7704F"/>
<path d="M308.627 410.333L282.775 436.185L284.446 437.856L310.298 412.003L308.627 410.333Z" fill="#E7704F"/>
<path d="M284.438 410.332L282.768 412.002L308.62 437.854L310.291 436.184L284.438 410.332Z" fill="#E7704F"/>
<path d="M308.625 437.361L282.772 463.213L284.443 464.884L310.295 439.031L308.625 437.361Z" fill="#E7704F"/>
<path d="M284.443 437.367L282.773 439.037L308.625 464.89L310.295 463.219L284.443 437.367Z" fill="#E7704F"/>
<path d="M308.622 464.387L282.77 490.24L284.44 491.91L310.293 466.058L308.622 464.387Z" fill="#E7704F"/>
<path d="M284.44 464.396L282.77 466.067L308.622 491.919L310.292 490.248L284.44 464.396Z" fill="#E7704F"/>
<path d="M308.627 491.424L282.774 517.276L284.445 518.947L310.297 493.095L308.627 491.424Z" fill="#E7704F"/>
<path d="M284.438 491.422L282.767 493.093L308.62 518.945L310.29 517.275L284.438 491.422Z" fill="#E7704F"/>
<path d="M309.95 68.586H463.669L484.123 89.2605H309.95V68.586ZM462.682 70.9485H312.312V86.898H478.453L462.682 70.9485Z" fill="#E7704F"/>
<path d="M203.773 68.8485H295.921L307.807 88.9875H203.773V68.8485ZM294.882 70.6755H205.6V87.1605H304.615L294.882 70.6755Z" fill="#E7704F"/>
<path d="M464.352 69.762H461.989V87.6855H464.352V69.762Z" fill="#E7704F"/>
<path d="M292.32 19.5405H300.29L311.84 73.899H280.76L292.32 19.5405ZM298.368 21.9135H294.231L283.679 71.547H308.921L298.368 21.9135Z" fill="#E7704F"/>
<path d="M308.763 70.1295L310.159 68.229L288.865 52.5315L303.943 38.766L293.58 24.318L291.658 25.704L300.793 38.4405L285.148 52.731L308.763 70.1295Z" fill="#E7704F"/>
<path d="M186.469 70.749L209.506 58.9365V94.3845H186.469V70.749Z" fill="#3B508E"/>
<path d="M280.214 89.2586H312.512V67.9856H280.214V89.2586Z" fill="#3B508E"/>
<path d="M287.898 23.3891L305.034 23.3891V6.2531L287.898 6.2531V23.3891Z" fill="#3B508E"/>
<path d="M480.9 96.5475C484.269 96.5475 487 93.8162 487 90.447C487 87.0778 484.269 84.3465 480.9 84.3465C477.531 84.3465 474.799 87.0778 474.799 90.447C474.799 93.8162 477.531 96.5475 480.9 96.5475Z" fill="#3B508E"/>
<path d="M462.584 129.935H500.688V111.917H462.584V129.935Z" fill="#FFAE6F"/>
<path d="M466.725 130.421C467.05 130.421 467.313 130.158 467.313 129.833V112.098L481.782 91.371C481.971 91.1085 481.897 90.7305 481.635 90.552C481.372 90.363 480.994 90.426 480.816 90.699L466.242 111.573C466.168 111.668 466.137 111.794 466.137 111.909V129.833C466.126 130.158 466.399 130.421 466.725 130.421Z" fill="#3B508E"/>
<path d="M497.049 130.421C496.723 130.421 496.461 130.158 496.461 129.833V112.098L481.992 91.371C481.803 91.1085 481.876 90.7305 482.139 90.552C482.401 90.363 482.779 90.426 482.958 90.699L497.532 111.573C497.605 111.668 497.637 111.794 497.637 111.909V129.833C497.637 130.158 497.374 130.421 497.049 130.421Z" fill="#3B508E"/>
<path d="M762.814 55.8495H667.328C664.094 55.8495 661.479 58.464 661.479 61.698V94.458C661.479 97.692 664.094 100.306 667.328 100.306H762.814C766.048 100.306 768.663 97.692 768.663 94.458V61.698C768.673 58.4745 766.048 55.8495 762.814 55.8495Z" fill="white" stroke="#3B508E" stroke-width="0.5" stroke-miterlimit="10"/>
<path d="M689.346 80.8185H670.383V68.3865C670.383 65.2155 672.966 62.6325 676.137 62.6325H683.582C686.753 62.6325 689.335 65.2155 689.335 68.3865V80.8185H689.346ZM672.966 78.246H686.774V68.3865C686.774 66.633 685.345 65.205 683.592 65.205H676.148C674.394 65.205 672.966 66.633 672.966 68.3865V78.246Z" fill="#FF9652"/>
<path d="M690.532 75.4635H669.386C668.84 75.4635 668.399 75.9045 668.399 76.4505V94.059C668.399 95.76 669.785 97.146 671.486 97.146H688.432C690.133 97.146 691.519 95.76 691.519 94.059V76.4505C691.519 75.9045 691.078 75.4635 690.532 75.4635Z" fill="#FFAE6F"/>
<path d="M682.458 91.7385L680.946 84.0315C681.524 83.6955 681.912 83.0655 681.912 82.3515C681.912 81.27 681.041 80.3985 679.959 80.3985C678.878 80.3985 678.006 81.27 678.006 82.3515C678.006 83.0655 678.395 83.6955 678.972 84.0315L677.46 91.7385H682.458Z" fill="#182E5A"/>
<path d="M733.835 72.2295H703.573C702.565 72.2295 701.736 71.4 701.736 70.392V69.384C701.736 68.376 702.565 67.5465 703.573 67.5465H733.835C734.843 67.5465 735.672 68.376 735.672 69.384V70.392C735.672 71.4105 734.843 72.2295 733.835 72.2295Z" fill="#182E5A"/>
<path d="M754.624 88.032H704.077C702.786 88.032 701.736 86.982 701.736 85.6905C701.736 84.399 702.786 83.349 704.077 83.349H754.624C755.916 83.349 756.966 84.399 756.966 85.6905C756.966 86.9715 755.916 88.032 754.624 88.032Z" fill="#182E5A"/>
<path d="M141.907 568.124H471.009C473.98 568.124 476.385 565.719 476.385 562.748V342.048C476.385 339.077 473.98 336.672 471.009 336.672H141.907C138.936 336.672 136.531 339.077 136.531 342.048V562.748C136.531 565.719 138.936 568.124 141.907 568.124Z" fill="#1E2136"/>
<path d="M161.293 563.562H471.494V341.235H161.293V563.562Z" fill="#3B508E"/>
<path d="M149.079 475.02C152.89 475.02 155.999 471.902 155.999 468.101V436.716C155.999 432.905 152.88 429.797 149.079 429.797C145.267 429.797 142.159 432.915 142.159 436.716V468.101C142.159 471.902 145.267 475.02 149.079 475.02Z" fill="#8E92C1"/>
<path d="M216.332 371.081H180.726C178.773 371.081 177.167 369.474 177.167 367.521C177.167 365.568 178.773 363.961 180.726 363.961H216.332C218.285 363.961 219.891 365.568 219.891 367.521C219.891 369.484 218.295 371.081 216.332 371.081Z" fill="#FFAE6F"/>
<path d="M228.081 385.329H192.476C190.523 385.329 188.916 383.723 188.916 381.77C188.916 379.816 190.523 378.21 192.476 378.21H228.081C230.034 378.21 231.64 379.816 231.64 381.77C231.64 383.723 230.044 385.329 228.081 385.329Z" fill="#F0896B"/>
<path d="M346.521 402.895H212.415C210.462 402.895 208.856 401.289 208.856 399.336C208.856 397.383 210.462 395.776 212.415 395.776H346.521C348.474 395.776 350.081 397.383 350.081 399.336C350.081 401.289 348.485 402.895 346.521 402.895Z" fill="white"/>
<path d="M373.579 438.974H239.474C237.521 438.974 235.914 437.367 235.914 435.414C235.914 433.461 237.521 431.855 239.474 431.855H373.579C375.533 431.855 377.139 433.461 377.139 435.414C377.139 437.367 375.543 438.974 373.579 438.974Z" fill="white"/>
<path d="M432.442 454.64H239.474C237.521 454.64 235.914 453.033 235.914 451.08C235.914 449.127 237.521 447.52 239.474 447.52H432.442C434.395 447.52 436.002 449.127 436.002 451.08C436.012 453.033 434.406 454.64 432.442 454.64Z" fill="white"/>
<path d="M282.251 470.306H238.004C236.859 470.306 235.914 469.371 235.914 468.216V465.265C235.914 464.121 236.849 463.176 238.004 463.176H282.251C283.395 463.176 284.34 464.11 284.34 465.265V468.216C284.34 469.361 283.395 470.306 282.251 470.306Z" fill="white"/>
<path d="M419.633 421.407H212.415C210.462 421.407 208.856 419.801 208.856 417.848C208.856 415.895 210.462 414.288 212.415 414.288H419.633C421.586 414.288 423.192 415.895 423.192 417.848C423.192 419.801 421.586 421.407 419.633 421.407Z" fill="white"/>
<path d="M216.332 490.235H180.726C178.773 490.235 177.167 488.628 177.167 486.675C177.167 484.722 178.773 483.116 180.726 483.116H216.332C218.285 483.116 219.891 484.722 219.891 486.675C219.891 488.639 218.295 490.235 216.332 490.235Z" fill="#FFAE6F"/>
<path d="M228.081 504.483H192.476C190.523 504.483 188.916 502.877 188.916 500.924C188.916 498.971 190.523 497.364 192.476 497.364H228.081C230.034 497.364 231.64 498.971 231.64 500.924C231.64 502.877 230.044 504.483 228.081 504.483Z" fill="#F0896B"/>
<path d="M346.521 522.05H212.415C210.462 522.05 208.856 520.443 208.856 518.49C208.856 516.537 210.462 514.931 212.415 514.931H346.521C348.474 514.931 350.081 516.537 350.081 518.49C350.081 520.443 348.485 522.05 346.521 522.05Z" fill="white"/>
<path d="M419.633 540.561H212.415C210.462 540.561 208.856 538.954 208.856 537.001C208.856 535.048 210.462 533.442 212.415 533.442H419.633C421.586 533.442 423.192 535.048 423.192 537.001C423.192 538.954 421.586 540.561 419.633 540.561Z" fill="white"/>
<path d="M227.367 437.304C229.594 437.304 231.399 435.499 231.399 433.272C231.399 431.045 229.594 429.24 227.367 429.24C225.14 429.24 223.335 431.045 223.335 433.272C223.335 435.499 225.14 437.304 227.367 437.304Z" fill="#FFAE6F"/>
<path d="M227.367 455.816C229.594 455.816 231.399 454.01 231.399 451.784C231.399 449.557 229.594 447.752 227.367 447.752C225.14 447.752 223.335 449.557 223.335 451.784C223.335 454.01 225.14 455.816 227.367 455.816Z" fill="#FFAE6F"/>
<path d="M231.409 466.032C231.409 463.806 229.603 462 227.378 462C225.152 462 223.346 463.806 223.346 466.032C223.346 468.258 225.152 470.064 227.378 470.064C229.603 470.064 231.409 468.258 231.409 466.032Z" fill="#FFAE6F"/>
<path d="M640.437 483.052H524.485V559.598H640.437V483.052Z" fill="#182E5A"/>
<path d="M826.959 147.567H337.963C333.553 147.567 329.983 151.137 329.983 155.547V483.483C329.983 487.893 333.553 491.463 337.963 491.463H826.959C831.369 491.463 834.939 487.893 834.939 483.483V155.547C834.939 151.137 831.358 147.567 826.959 147.567Z" fill="#1E2136"/>
<path d="M825.5 153.374H337.228V476.227H825.5V153.374Z" fill="#666EA7"/>
<path d="M825.5 153.111H337.228V173.996H825.5V153.111Z" fill="#8E92C1"/>
<path d="M357.021 163.275C357.021 160.388 354.679 158.046 351.792 158.046C348.905 158.046 346.563 160.388 346.563 163.275C346.563 166.163 348.905 168.504 351.792 168.504C354.679 168.504 357.021 166.163 357.021 163.275Z" fill="#F0896B"/>
<path d="M374.44 163.275C374.44 160.388 372.099 158.046 369.212 158.046C366.324 158.046 363.983 160.388 363.983 163.275C363.983 166.163 366.324 168.504 369.212 168.504C372.099 168.504 374.44 166.163 374.44 163.275Z" fill="#FFAE6F"/>
<path d="M392.732 163.275C392.732 160.388 390.39 158.046 387.503 158.046C384.615 158.046 382.274 160.388 382.274 163.275C382.274 166.163 384.615 168.504 387.503 168.504C390.39 168.504 392.732 166.163 392.732 163.275Z" fill="#E0E0FC"/>
<path d="M659.001 547.47H505.911C493.773 547.47 483.935 557.309 483.935 569.447H680.967C680.977 557.309 671.139 547.47 659.001 547.47Z" fill="#1E2136"/>
<path d="M421.449 195.857H367.5C364.528 195.857 362.103 193.431 362.103 190.46C362.103 187.488 364.528 185.063 367.5 185.063H421.449C424.42 185.063 426.846 187.488 426.846 190.46C426.846 193.431 424.42 195.857 421.449 195.857Z" fill="#FFAE6F"/>
<path d="M439.257 217.434H385.308C382.336 217.434 379.911 215.009 379.911 212.037C379.911 209.066 382.336 206.64 385.308 206.64H439.257C442.228 206.64 444.654 209.066 444.654 212.037C444.643 215.009 442.218 217.434 439.257 217.434Z" fill="#F0896B"/>
<path d="M618.723 244.051H415.516C412.545 244.051 410.119 241.626 410.119 238.654C410.119 235.683 412.545 233.257 415.516 233.257H618.733C621.705 233.257 624.13 235.683 624.13 238.654C624.12 241.626 621.694 244.051 618.723 244.051Z" fill="white"/>
<path d="M659.725 298.725H456.519C453.547 298.725 451.122 296.299 451.122 293.328C451.122 290.356 453.547 287.931 456.519 287.931H659.736C662.707 287.931 665.133 290.356 665.133 293.328C665.123 296.299 662.697 298.725 659.725 298.725Z" fill="white"/>
<path d="M748.923 322.465H456.519C453.547 322.465 451.122 320.04 451.122 317.068C451.122 314.097 453.547 311.671 456.519 311.671H748.934C751.905 311.671 754.33 314.097 754.33 317.068C754.32 320.029 751.895 322.465 748.923 322.465Z" fill="white"/>
<path d="M521.336 346.196H454.282C452.55 346.196 451.122 344.778 451.122 343.035V338.562C451.122 336.83 452.539 335.402 454.282 335.402H521.336C523.068 335.402 524.496 336.819 524.496 338.562V343.035C524.496 344.778 523.068 346.196 521.336 346.196Z" fill="white"/>
<path d="M729.509 272.107H415.516C412.545 272.107 410.119 269.682 410.119 266.71C410.119 263.739 412.545 261.314 415.516 261.314H729.509C732.48 261.314 734.906 263.739 734.906 266.71C734.906 269.682 732.47 272.107 729.509 272.107Z" fill="white"/>
<path d="M421.449 376.415H367.5C364.528 376.415 362.103 373.989 362.103 371.018C362.103 368.046 364.528 365.62 367.5 365.62H421.449C424.42 365.62 426.846 368.046 426.846 371.018C426.846 373.979 424.42 376.415 421.449 376.415Z" fill="#FFAE6F"/>
<path d="M439.257 397.992H385.308C382.336 397.992 379.911 395.567 379.911 392.595C379.911 389.623 382.336 387.198 385.308 387.198H439.257C442.228 387.198 444.654 389.623 444.654 392.595C444.643 395.567 442.218 397.992 439.257 397.992Z" fill="#F0896B"/>
<path d="M618.723 424.61H415.516C412.545 424.61 410.119 422.184 410.119 419.213C410.119 416.241 412.545 413.816 415.516 413.816H618.733C621.705 413.816 624.13 416.241 624.13 419.213C624.12 422.184 621.694 424.61 618.723 424.61Z" fill="white"/>
<path d="M729.509 452.666H415.516C412.545 452.666 410.119 450.24 410.119 447.269C410.119 444.297 412.545 441.872 415.516 441.872H729.509C732.48 441.872 734.906 444.297 734.906 447.269C734.906 450.23 732.47 452.666 729.509 452.666Z" fill="white"/>
<path d="M438.175 296.205C441.55 296.205 444.286 293.469 444.286 290.094C444.286 286.719 441.55 283.983 438.175 283.983C434.8 283.983 432.064 286.719 432.064 290.094C432.064 293.469 434.8 296.205 438.175 296.205Z" fill="#FFAE6F"/>
<path d="M438.175 324.261C441.55 324.261 444.286 321.525 444.286 318.15C444.286 314.775 441.55 312.039 438.175 312.039C434.8 312.039 432.064 314.775 432.064 318.15C432.064 321.525 434.8 324.261 438.175 324.261Z" fill="#FFAE6F"/>
<path d="M438.175 345.838C441.55 345.838 444.286 343.102 444.286 339.727C444.286 336.352 441.55 333.617 438.175 333.617C434.8 333.617 432.064 336.352 432.064 339.727C432.064 343.102 434.8 345.838 438.175 345.838Z" fill="#FFAE6F"/>
<path d="M808.532 351.582H693.368C689.955 351.582 687.183 354.354 687.183 357.767V562.202C687.183 565.614 689.955 568.386 693.368 568.386H808.532C811.944 568.386 814.716 565.614 814.716 562.202V357.767C814.716 354.354 811.944 351.582 808.532 351.582Z" fill="#1E2136"/>
<path d="M807.376 354.669H694.533C692.612 354.669 691.058 356.223 691.058 358.145V549.591H810.852V358.155C810.852 356.234 809.287 354.669 807.376 354.669Z" fill="#2A28FB"/>
<path d="M763.318 554.075H738.202C735.861 554.075 733.95 555.986 733.95 558.327C733.95 560.668 735.861 562.579 738.202 562.579H763.318C765.66 562.579 767.571 560.668 767.571 558.327C767.571 555.996 765.66 554.075 763.318 554.075Z" fill="#47536C"/>
<path d="M804.836 128.236H709.349C706.115 128.236 703.5 130.851 703.5 134.085V166.845C703.5 170.079 706.115 172.694 709.349 172.694H804.836C808.07 172.694 810.684 170.079 810.684 166.845V134.085C810.684 130.851 808.07 128.236 804.836 128.236Z" fill="white" stroke="#3B508E" stroke-width="0.5" stroke-miterlimit="10"/>
<path d="M743.389 144.617H713.129C712.121 144.617 711.291 143.787 711.291 142.779V141.771C711.291 140.763 712.121 139.934 713.129 139.934H743.389C744.397 139.934 745.227 140.763 745.227 141.771V142.779C745.227 143.798 744.397 144.617 743.389 144.617Z" fill="#182E5A"/>
<path d="M764.179 160.419H713.633C712.341 160.419 711.291 159.369 711.291 158.078C711.291 156.786 712.341 155.736 713.633 155.736H764.179C765.471 155.736 766.521 156.786 766.521 158.078C766.521 159.359 765.471 160.419 764.179 160.419Z" fill="#182E5A"/>
<path d="M500.577 109.872H441.976C436.747 109.872 432.495 114.114 432.495 119.354V177.954C432.495 183.183 436.737 187.436 441.976 187.436H500.577C505.806 187.436 510.058 183.194 510.058 177.954V119.354C510.058 114.114 505.816 109.872 500.577 109.872Z" fill="#2A28FB"/>
<path d="M480.921 157.332C481.015 155.263 480.784 153.174 480.249 151.147L485.047 146.748L482.202 141.55L476.269 143.43C476.175 143.315 476.091 143.188 475.986 143.073C474.579 141.466 472.972 140.165 471.24 139.146L471.817 132.867L466.305 131.092L463.239 136.626C461.097 136.458 458.944 136.678 456.865 137.266L453.086 132.689L448.025 135.555L449.62 141.267C449.505 141.361 449.39 141.445 449.285 141.55C447.741 142.999 446.502 144.669 445.536 146.465L439.467 146.391L438.144 152.208L443.215 154.675C443.079 156.954 443.32 159.243 443.94 161.469L439.331 165.91L442.25 171.066L447.993 169.081C448.035 169.134 448.077 169.197 448.119 169.25C449.505 170.835 451.08 172.116 452.77 173.124L452.718 180.043L458.346 181.387L460.898 175.696C463.071 175.865 465.255 175.633 467.365 175.025L471.681 179.75L476.637 176.684L474.715 170.866C474.757 170.824 474.799 170.793 474.841 170.762C476.437 169.26 477.708 167.528 478.684 165.659L484.711 166.141L486.328 160.409L480.921 157.332ZM471.009 166.236C465.706 171.213 457.412 170.709 452.519 165.123C447.626 159.526 447.961 150.927 453.264 145.95C458.566 140.973 466.862 141.477 471.754 147.063C476.647 152.659 476.311 161.259 471.009 166.236Z" fill="white"/>
<path d="M499.59 131.061C499.632 130.137 499.527 129.202 499.296 128.299L501.438 126.336L500.168 124.015L497.511 124.855C497.469 124.803 497.427 124.75 497.385 124.698C496.755 123.984 496.041 123.396 495.264 122.944L495.516 120.141L493.048 119.343L491.673 121.821C490.717 121.747 489.751 121.842 488.817 122.104L487.126 120.057L484.858 121.338L485.572 123.889C485.52 123.931 485.467 123.973 485.425 124.015C484.732 124.666 484.176 125.412 483.745 126.21L481.026 126.178L480.438 128.782L482.706 129.885C482.643 130.903 482.748 131.932 483.031 132.919L480.973 134.904L482.275 137.214L484.848 136.321C484.869 136.342 484.89 136.374 484.911 136.395C485.53 137.098 486.234 137.676 486.99 138.127L486.969 141.225L489.478 141.823L490.623 139.282C491.589 139.356 492.576 139.251 493.521 138.978L495.453 141.088L497.668 139.723L496.807 137.119C496.828 137.098 496.85 137.088 496.86 137.067C497.574 136.395 498.141 135.618 498.582 134.788L501.281 135.009L502.005 132.447L499.59 131.061ZM495.148 135.051C492.775 137.277 489.069 137.056 486.874 134.547C484.69 132.048 484.837 128.194 487.21 125.968C489.583 123.742 493.29 123.963 495.485 126.472C497.669 128.971 497.521 132.825 495.148 135.051Z" fill="white"/>
<path d="M577.678 35.4795C578.004 31.416 576.891 27.3735 576.86 23.289C576.818 17.1885 579.316 11.109 583.642 6.80401C586.477 3.97951 590.541 1.84801 594.405 2.89801C599.067 1.08151 604.894 3.06601 607.477 7.33951C610.155 11.7705 609.462 17.7555 612.58 21.882C615.111 25.2105 619.458 26.46 623.049 28.5915C626.524 30.66 629.412 33.684 631.312 37.254C633.328 41.055 634.064 46.095 631.344 49.4235C632.447 47.6595 632.604 45.339 631.733 43.449C630.861 41.559 629.002 40.1625 626.955 39.8475C628.572 41.2545 629.065 43.5645 629.055 45.717C629.055 47.859 628.645 50.0115 628.887 52.143C629.275 55.5975 631.47 58.7895 634.557 60.4065C632.037 61.131 629.79 62.5905 627.28 63.357C622.65 64.7745 617.316 63.567 613.757 60.291C614.219 63.7875 617.137 66.8115 620.613 67.3995C612.223 68.0505 603.614 65.3625 597.072 60.06C596.39 63.336 598.909 66.927 602.227 67.389C595.402 64.4175 587.265 64.155 581.542 59.388C577.71 56.196 575.515 51.135 575.778 46.158C575.988 42.546 577.395 39.0915 577.678 35.4795Z" fill="#182E5A"/>
<path d="M627.511 102.386L638.516 98.7525C638.211 97.9335 637.928 97.1985 637.697 96.642C634.956 90.1215 632.373 73.962 632.373 73.962L619.605 78.939C619.605 78.939 625.453 95.928 626.241 98.9205C626.367 99.4245 626.829 100.685 627.511 102.386Z" fill="#FF8E84"/>
<path d="M547.501 236.24C547.501 236.24 547.207 233.667 542.629 233.909C538.051 234.15 538.293 236.565 538.293 236.565C538.293 236.565 538.366 240.03 537.715 241.731C537.075 243.422 532.886 252.525 531.962 253.302C531.038 254.079 527.814 258.731 528.045 259.487C528.276 260.243 529.221 262.784 529.914 263.403C530.607 264.023 539.06 265.577 544.047 262.889C549.034 260.19 549.633 254.027 553.833 250.908C558.033 247.79 558.39 245.186 558.39 245.186C558.39 245.186 552.247 232.775 550.41 232.176C550.41 232.187 549.853 236.345 547.501 236.24Z" fill="#FC9452"/>
<path d="M542.608 259.571C547.837 256.799 548.541 250.604 552.94 247.422C555.46 245.606 556.668 243.968 557.245 242.907C557.949 244.262 558.411 245.196 558.411 245.196C558.411 245.196 558.043 247.8 553.854 250.919C549.654 254.037 549.055 260.201 544.068 262.899C539.08 265.598 530.617 264.033 529.935 263.413C529.441 262.972 528.822 261.555 528.423 260.505C530.523 261.156 537.967 262.028 542.608 259.571Z" fill="#FFE8DB"/>
<path d="M541.243 251.822C541.39 251.832 541.527 251.738 541.569 251.601C541.621 251.433 541.527 251.255 541.359 251.202C541.159 251.139 536.382 249.68 533.484 250.236C533.316 250.268 533.2 250.436 533.232 250.604C533.263 250.772 533.431 250.919 533.599 250.856C536.319 250.352 541.117 251.79 541.17 251.801L541.243 251.822Z" fill="white"/>
<path d="M543.081 249.323C543.217 249.333 543.354 249.249 543.407 249.113C543.47 248.945 543.385 248.766 543.228 248.703C543.039 248.64 538.671 246.981 534.618 247.842C534.45 247.873 534.334 248.041 534.376 248.22C534.408 248.398 534.618 248.514 534.754 248.462C538.639 247.653 542.965 249.27 542.965 249.27C543.018 249.312 543.049 249.312 543.081 249.323Z" fill="white"/>
<path d="M544.047 247.223C544.183 247.233 544.33 247.149 544.372 247.013C544.425 246.845 544.341 246.666 544.173 246.603C543.963 246.53 538.797 244.755 535.679 245.742C535.511 245.794 535.416 245.973 535.468 246.141C535.521 246.309 535.699 246.393 535.867 246.351C538.776 245.427 543.91 247.191 543.963 247.212L544.047 247.223Z" fill="white"/>
<path d="M545.212 244.807C545.349 244.818 545.496 244.734 545.538 244.587C545.59 244.419 545.506 244.24 545.338 244.188C545.097 244.114 539.395 242.267 536.634 243.453C536.466 243.527 536.392 243.715 536.466 243.873C536.539 244.041 536.718 244.104 536.886 244.041C539.469 242.939 545.086 244.776 545.149 244.797L545.212 244.807Z" fill="white"/>
<path d="M546.231 242.067C546.357 242.078 546.483 242.004 546.535 241.889C546.619 241.731 546.556 241.542 546.399 241.458C546.21 241.364 541.653 239.106 537.737 240.702C537.569 240.765 537.495 240.954 537.558 241.112C537.621 241.269 537.81 241.364 537.967 241.29C541.621 239.789 546.063 242.004 546.063 242.004C546.147 242.046 546.189 242.057 546.231 242.067Z" fill="white"/>
<path d="M538.178 239.158C538.178 239.158 538.293 239.148 538.346 239.127C541.884 237.405 547.092 238.896 547.145 238.906C547.302 238.948 547.481 238.864 547.533 238.697C547.586 238.529 547.491 238.35 547.323 238.308C547.103 238.235 541.832 236.723 538.073 238.56C537.915 238.633 537.852 238.823 537.926 238.98C537.968 239.085 538.062 239.148 538.178 239.158Z" fill="white"/>
<path d="M544.498 247.265C544.33 247.223 544.225 247.044 544.267 246.876C544.656 245.364 543.879 243.768 543.165 242.697C542.871 242.246 542.546 241.826 542.22 241.385C541.6 240.555 540.96 239.705 540.508 238.739V238.728C540.067 239.012 539.679 239.327 539.343 239.621C539.049 239.873 538.765 240.135 538.482 240.387C537.946 240.881 537.379 241.406 536.77 241.847C536.224 242.246 535.437 242.498 534.975 241.952C534.849 241.805 534.765 241.595 534.744 241.353C534.67 240.755 534.849 240.093 535.29 239.442C536.476 237.678 538.975 236.859 540.949 237.636L541.044 237.689H541.075C541.359 237.563 541.653 237.447 541.968 237.363C543.249 237.017 544.593 237.248 545.464 237.993C546.157 238.581 546.535 239.442 546.84 240.135C547.302 241.185 547.838 242.382 548.048 243.663C548.111 244.052 548.142 244.503 547.9 244.902C547.512 245.553 546.609 245.616 545.989 245.27C545.433 244.955 545.097 244.377 544.824 243.863C544.582 243.39 544.352 242.918 544.121 242.445C543.554 241.259 542.955 240.02 542.115 239.001C541.8 238.623 541.506 238.403 541.233 238.329C541.17 238.361 541.117 238.382 541.065 238.413C541.065 238.413 541.086 238.455 541.096 238.487C541.516 239.39 542.105 240.177 542.745 241.017C543.081 241.458 543.406 241.889 543.711 242.351C544.855 244.073 545.254 245.648 544.897 247.044C544.855 247.202 544.708 247.296 544.561 247.286L544.498 247.265ZM542.125 237.983C542.083 237.993 542.052 238.004 542.052 238.004C542.22 238.161 542.42 238.35 542.619 238.592C543.501 239.673 544.11 240.933 544.698 242.162C544.929 242.634 545.149 243.107 545.391 243.558C545.632 244.01 545.895 244.472 546.315 244.703C546.661 244.902 547.186 244.881 547.365 244.566C547.491 244.346 547.47 244.041 547.417 243.758C547.218 242.571 546.703 241.406 546.262 240.387C545.979 239.757 545.632 238.97 545.055 238.476C544.624 238.119 544.057 237.909 543.438 237.857C542.997 237.825 542.556 237.867 542.125 237.983ZM535.815 239.81C535.573 240.167 535.3 240.723 535.363 241.28C535.384 241.437 535.426 241.511 535.458 241.542C535.605 241.731 536.046 241.584 536.392 241.332C536.97 240.912 537.516 240.408 538.051 239.925C538.345 239.663 538.629 239.39 538.933 239.138C539.322 238.802 539.784 238.434 540.309 238.109C538.629 237.731 536.76 238.403 535.815 239.81Z" fill="white"/>
<path d="M553.487 219.261C553.487 219.261 549.455 231.62 550.62 233.594C551.786 235.568 549.045 237.489 549.045 237.489L543.029 238.119L539.837 237.101C539.837 237.101 542.871 232.449 542.283 219.576C541.989 213.15 553.487 219.261 553.487 219.261Z" fill="#FF8E84"/>
<path d="M541.768 204.771L537.254 224.711C537.254 224.711 545.696 229.299 551.586 227.525C557.477 225.75 556.553 219.524 556.553 219.524L550.116 207.921L541.768 204.771Z" fill="#C24D35"/>
<path d="M567.567 229.551C567.567 229.551 565.372 226.905 562.033 217.613L550.788 220.899C550.788 220.899 557.686 232.491 556.888 235.903C556.489 237.646 558.526 240.807 558.526 240.807L567.378 237.657C567.378 237.657 568.333 234.433 568.165 234.129C568.018 233.835 567.567 229.551 567.567 229.551Z" fill="#FF8E84"/>
<path d="M566.811 228.302C566.811 228.302 573.016 233.3 577.279 242.319C577.279 242.319 576.933 244.052 573.174 246.614C569.415 249.176 565.456 251.853 564.039 253.26C562.621 254.678 555.922 263.214 547.354 262.857C547.354 262.857 544.887 258.794 545.475 257.051C546.073 255.308 554.957 241.322 554.946 239.652C554.936 237.983 554.851 234.035 555.943 233.436C557.035 232.838 562.327 231.893 562.506 232.701C562.684 233.51 561.635 235.368 561.635 235.368C561.635 235.368 567.819 231.105 566.811 228.302Z" fill="#FFAE6F"/>
<path d="M562.632 250.299C564.081 248.871 568.103 246.162 571.925 243.569C574.581 241.763 575.568 240.366 575.915 239.694C576.387 240.534 576.838 241.405 577.279 242.329C577.279 242.329 576.933 244.062 573.174 246.624C569.415 249.186 565.457 251.863 564.039 253.27C562.622 254.688 555.923 263.224 547.355 262.867C547.355 262.867 546.536 261.513 545.958 260.043C554.495 260.158 561.204 251.716 562.632 250.299Z" fill="#FFE8DB"/>
<path d="M552.584 250.005C552.741 250.016 552.899 249.911 552.941 249.743C552.983 249.564 552.878 249.375 552.689 249.333L550.063 248.682C549.853 248.598 549.696 248.756 549.654 248.934C549.612 249.113 549.717 249.302 549.906 249.344L552.531 249.995L552.584 250.005Z" fill="white"/>
<path d="M553.854 248.147C554.012 248.157 554.169 248.052 554.211 247.895C554.253 247.716 554.148 247.527 553.97 247.485L551.324 246.803C551.156 246.792 550.956 246.866 550.914 247.044C550.872 247.223 550.977 247.412 551.155 247.454L553.802 248.136L553.854 248.147Z" fill="white"/>
<path d="M554.925 246.309C555.082 246.32 555.24 246.215 555.282 246.057C555.324 245.879 555.219 245.69 555.04 245.648L552.163 244.892C551.995 244.871 551.796 244.955 551.754 245.133C551.712 245.312 551.817 245.501 551.996 245.543L554.872 246.299L554.925 246.309Z" fill="white"/>
<path d="M556.07 244.241C556.227 244.251 556.385 244.146 556.427 243.978C556.469 243.8 556.353 243.611 556.175 243.569L553.224 242.855C553.025 242.781 552.856 242.928 552.814 243.107C552.772 243.285 552.888 243.474 553.066 243.516L556.017 244.23L556.07 244.241Z" fill="white"/>
<path d="M557.298 242.319C557.466 242.33 557.623 242.225 557.655 242.046C557.697 241.857 557.571 241.679 557.392 241.647L554.347 241.028L554.316 241.017C554.137 241.007 553.98 241.112 553.948 241.29C553.906 241.479 554.032 241.658 554.211 241.689L557.256 242.309L557.298 242.319Z" fill="white"/>
<path d="M558.684 240.156C558.873 240.167 559.041 240.03 559.051 239.841C559.062 239.663 558.926 239.484 558.737 239.474L554.978 239.148C554.789 239.138 554.621 239.274 554.61 239.463C554.6 239.652 554.736 239.82 554.925 239.831L558.684 240.156Z" fill="white"/>
<path d="M554.914 237.857L555.019 237.846C556.658 237.458 560.396 237.888 560.438 237.888H560.448C560.627 237.899 560.795 237.773 560.816 237.584C560.837 237.395 560.7 237.227 560.511 237.206C560.343 237.195 556.615 236.765 554.862 237.174C554.683 237.216 554.568 237.405 554.61 237.584C554.641 237.741 554.778 237.846 554.914 237.857Z" fill="white"/>
<path d="M562.884 245.018C562.558 244.472 562.033 244.083 561.466 243.663C561.12 243.411 560.773 243.149 560.458 242.844C559.786 242.193 559.345 241.385 558.915 240.597C558.82 240.419 558.715 240.24 558.621 240.062C558.169 239.264 557.539 238.298 556.605 237.846C556.353 237.731 556.174 237.689 556.048 237.741C555.922 237.773 555.786 237.899 555.649 238.025L555.565 238.098C554.841 238.759 553.948 239.232 552.993 239.432C552.321 239.579 551.523 239.495 551.218 238.844C551.029 238.445 551.124 237.93 551.46 237.563C551.754 237.237 552.153 237.069 552.436 236.975C553.539 236.597 554.83 236.565 556.216 236.891C556.626 236.187 557.319 235.652 558.096 235.452C558.988 235.221 559.996 235.431 560.7 235.988C561.319 236.46 561.708 237.143 562.086 237.857C562.18 238.025 562.275 238.213 562.285 238.444C562.296 238.686 562.212 238.928 562.033 239.127C561.823 239.358 561.498 239.505 561.183 239.516C560.689 239.558 560.238 239.306 559.902 239.127C559.345 238.844 558.799 238.56 558.243 238.308C558.642 238.77 558.957 239.285 559.219 239.736C559.324 239.915 559.429 240.104 559.524 240.282C559.954 241.059 560.353 241.794 560.941 242.372C561.225 242.645 561.54 242.876 561.876 243.128C562.464 243.569 563.083 244.02 563.472 244.692C563.566 244.85 563.514 245.06 563.346 245.154C563.283 245.196 563.22 245.207 563.146 245.196C563.041 245.175 562.947 245.112 562.884 245.018ZM552.657 237.594C552.321 237.71 552.111 237.836 551.974 237.993C551.827 238.151 551.764 238.382 551.838 238.529C551.964 238.812 552.447 238.833 552.856 238.749C553.696 238.571 554.473 238.172 555.114 237.584L555.187 237.51C555.229 237.468 555.282 237.426 555.334 237.384C554.326 237.269 553.444 237.332 552.657 237.594ZM558.264 236.082C557.718 236.229 557.224 236.575 556.899 237.048C558.033 237.405 559.114 237.94 560.206 238.507C560.542 238.686 560.899 238.865 561.141 238.822C561.277 238.822 561.424 238.749 561.519 238.644C561.571 238.581 561.592 238.518 561.592 238.466C561.592 238.371 561.529 238.256 561.466 238.151C561.12 237.478 560.784 236.891 560.269 236.502C559.912 236.229 559.461 236.061 559.009 236.029C558.768 236.008 558.516 236.019 558.264 236.082Z" fill="white"/>
<path d="M524.37 164.147C525.882 165.711 550.42 229.058 550.42 229.058C550.42 229.058 562.117 228.995 566.307 222.978L561.403 207.806C561.403 207.806 572.019 183.446 572.365 174.237C572.365 174.237 612.874 155.61 618.093 149.478C623.311 143.346 618.03 122.808 618.03 122.808L581.353 109.746C581.353 109.746 576.901 119.018 576.292 118.976C575.683 118.923 538.261 132.468 526.869 148.764C526.869 148.764 522.753 153.962 522.396 155.778C522.039 157.595 522.858 162.582 524.37 164.147ZM546.85 160.251C547.89 160.136 547.869 157.868 547.869 157.868C568.207 150.465 572.995 143.483 572.995 143.483C572.995 143.483 555.198 158.466 553.749 161.217C552.289 163.968 550.672 173.681 550.672 173.681C550.672 173.681 545.811 160.367 546.85 160.251Z" fill="#E7704F"/>
<path d="M561.393 208.016C561.309 208.005 561.235 207.953 561.214 207.869L550.473 173.754C550.442 173.638 550.505 173.523 550.61 173.491C550.715 173.449 550.83 173.512 550.872 173.628L561.613 207.743C561.645 207.858 561.582 207.974 561.477 208.005L561.393 208.016Z" fill="#009DDD"/>
<path d="M580.314 139.923L580.24 139.902C580.135 139.849 580.094 139.723 580.146 139.618L583.296 133.171C581.238 128.131 584.966 119.385 585.123 119.007L585.186 118.87L590.531 119.311L583.748 133.203C583.748 133.276 583.716 133.339 583.664 133.381L580.524 139.807C580.482 139.881 580.398 139.923 580.314 139.923ZM585.449 119.311C584.987 120.424 581.994 128.058 583.548 132.657L589.88 119.679L585.449 119.311Z" fill="#009DDD"/>
<path d="M576.943 119.291C576.723 119.27 576.482 119.238 576.24 119.175C576.135 119.144 576.061 119.039 576.093 118.923C576.114 118.818 576.209 118.755 576.314 118.766L576.345 118.776C576.555 118.829 576.765 118.871 576.965 118.881C579.915 119.123 581.689 115.584 581.71 115.553C581.752 115.448 581.879 115.406 581.994 115.458C582.099 115.511 582.141 115.626 582.088 115.731C582.088 115.731 580.156 119.553 576.943 119.291Z" fill="#009DDD"/>
<path d="M582.141 73.794C582.141 73.794 574.455 104.706 567.273 103.887C560.091 103.079 547.911 123.165 547.911 123.165L542.503 117.023L564.616 88.767L570.517 68.208L582.141 73.794Z" fill="#FF8E84"/>
<path d="M589.512 50.3895C589.512 50.3895 577.763 50.043 572.817 55.6605C570.98 57.75 568.239 73.794 567.273 75.873L573.048 77.5425L571.946 81.669C571.946 81.669 571.736 88.4205 578.141 90.6885C578.141 90.6885 579.989 104.947 580.01 105.766C580.031 106.585 578.907 110.092 578.939 111.111C578.97 112.129 576.135 119.994 576.135 119.994C576.135 119.994 586.982 127.039 593.744 127.659C600.506 128.278 619.238 125.275 619.238 125.275C619.238 125.275 618.744 122.22 618.093 121.012C617.442 119.805 616.959 117.369 616.686 114.922C616.413 112.476 617.369 110.407 614.859 108.433L619.689 84.7665L620.813 88.2105C620.813 88.2105 629.402 88.158 638.495 84.21C638.495 84.21 633.035 72.5025 631.061 67.8615C629.087 63.21 624.719 53.088 619.311 51.702C613.242 50.148 589.512 50.3895 589.512 50.3895Z" fill="#E0E0FC"/>
<path d="M591.664 83.748C591.664 83.748 603.204 90.867 612.003 84.945C612.003 84.9555 603.025 99.0255 591.664 83.748Z" fill="#E0E0FC"/>
<path d="M608.402 50.715L605.798 49.959C604.244 49.5075 603.11 48.1635 602.921 46.557L601.283 32.1405L588.819 32.97L588.504 48.8985L585.596 50.7045C588.851 55.377 595.004 57.0255 600.159 54.6L608.402 50.715Z" fill="#FF8E84"/>
<path d="M588.588 43.6695L588.683 36.414L601.304 33.159C601.314 33.1485 599.97 43.176 588.588 43.6695Z" fill="#D75050"/>
<path d="M634.651 86.247C634.651 86.247 638.095 96.873 639.324 100.811C640.552 104.748 630.472 119.49 609.588 133.739C609.588 133.739 606.396 135.702 604.674 135.702C602.952 135.702 598.038 133.245 598.038 133.245L591.895 136.196L593.365 133.739L591.643 132.51L585.742 133.245L597.051 125.381C597.051 125.381 607.288 127.019 608.233 126.735C609.829 126.242 626.545 100.076 627.522 99.8235C628.509 99.582 634.651 86.247 634.651 86.247Z" fill="#FF8E84"/>
<path d="M526.785 94.3425L588.493 95.172L596.442 140.259L535.153 140.049L526.785 94.3425Z" fill="#182E5A"/>
<path d="M579.617 140.051L618.925 140.574L618.977 136.668L579.669 136.145L579.617 140.051Z" fill="#182E5A"/>
<path d="M551.785 114.282C551.827 111.353 554.232 109.022 557.151 109.053C560.08 109.095 562.411 111.5 562.38 114.419C562.338 117.348 559.933 119.679 557.014 119.648C554.095 119.616 551.754 117.212 551.785 114.282Z" fill="white"/>
<path d="M713.486 422.772H699.363C698.586 422.772 697.945 422.132 697.945 421.355C697.945 420.577 698.586 419.937 699.363 419.937H713.486C714.263 419.937 714.903 420.577 714.903 421.355C714.903 422.132 714.263 422.772 713.486 422.772Z" fill="#FFAE6F"/>
<path d="M718.147 428.421H704.025C703.248 428.421 702.607 427.781 702.607 427.004C702.607 426.227 703.248 425.586 704.025 425.586H718.147C718.924 425.586 719.565 426.227 719.565 427.004C719.565 427.791 718.924 428.421 718.147 428.421Z" fill="#F0896B"/>
<path d="M765.145 435.393H711.932C711.155 435.393 710.514 434.753 710.514 433.976C710.514 433.198 711.155 432.558 711.932 432.558H765.145C765.922 432.558 766.563 433.198 766.563 433.976C766.552 434.753 765.922 435.393 765.145 435.393Z" fill="white"/>
<path d="M775.876 449.705H722.663C721.886 449.705 721.245 449.064 721.245 448.287C721.245 447.51 721.886 446.87 722.663 446.87H775.876C776.653 446.87 777.294 447.51 777.294 448.287C777.294 449.075 776.653 449.705 775.876 449.705Z" fill="white"/>
<path d="M799.239 455.921H722.673C721.896 455.921 721.255 455.28 721.255 454.503C721.255 453.726 721.896 453.086 722.673 453.086H799.239C800.016 453.086 800.657 453.726 800.657 454.503C800.646 455.291 800.016 455.921 799.239 455.921Z" fill="white"/>
<path d="M739.641 462.137H722.085C721.633 462.137 721.255 461.769 721.255 461.307V460.131C721.255 459.68 721.623 459.302 722.085 459.302H739.641C740.092 459.302 740.471 459.669 740.471 460.131V461.307C740.471 461.769 740.092 462.137 739.641 462.137Z" fill="white"/>
<path d="M794.146 442.732H711.932C711.155 442.732 710.514 442.092 710.514 441.315C710.514 440.538 711.155 439.897 711.932 439.897H794.146C794.923 439.897 795.564 440.538 795.564 441.315C795.564 442.102 794.923 442.732 794.146 442.732Z" fill="white"/>
<path d="M713.486 470.043H699.363C698.586 470.043 697.945 469.402 697.945 468.625C697.945 467.848 698.586 467.208 699.363 467.208H713.486C714.263 467.208 714.903 467.848 714.903 468.625C714.903 469.413 714.263 470.043 713.486 470.043Z" fill="#FFAE6F"/>
<path d="M718.147 475.702H704.025C703.248 475.702 702.607 475.062 702.607 474.285C702.607 473.508 703.248 472.868 704.025 472.868H718.147C718.924 472.868 719.565 473.508 719.565 474.285C719.565 475.062 718.924 475.702 718.147 475.702Z" fill="#F0896B"/>
<path d="M765.145 482.664H711.932C711.155 482.664 710.514 482.023 710.514 481.246C710.514 480.469 711.155 479.829 711.932 479.829H765.145C765.922 479.829 766.563 480.469 766.563 481.246C766.552 482.034 765.922 482.664 765.145 482.664Z" fill="white"/>
<path d="M776.622 490.014H711.774C711.081 490.014 710.514 489.447 710.514 488.754V488.439C710.514 487.746 711.081 487.179 711.774 487.179H776.622C777.315 487.179 777.882 487.746 777.882 488.439V488.754C777.882 489.447 777.315 490.014 776.622 490.014Z" fill="white"/>
<path d="M719.471 447.447C719.471 446.565 718.757 445.851 717.875 445.851C716.993 445.851 716.279 446.565 716.279 447.447C716.279 448.329 716.993 449.043 717.875 449.043C718.757 449.043 719.471 448.329 719.471 447.447Z" fill="#FFAE6F"/>
<path d="M717.864 456.383C718.745 456.383 719.46 455.668 719.46 454.787C719.46 453.905 718.745 453.19 717.864 453.19C716.983 453.19 716.268 453.905 716.268 454.787C716.268 455.668 716.983 456.383 717.864 456.383Z" fill="#FFAE6F"/>
<path d="M717.864 462.042C718.745 462.042 719.46 461.327 719.46 460.446C719.46 459.565 718.745 458.85 717.864 458.85C716.983 458.85 716.268 459.565 716.268 460.446C716.268 461.327 716.983 462.042 717.864 462.042Z" fill="#FFAE6F"/>
<path d="M716.877 499.8H702.755C701.978 499.8 701.337 499.16 701.337 498.383C701.337 497.606 701.978 496.965 702.755 496.965H716.877C717.654 496.965 718.294 497.606 718.294 498.383C718.284 499.17 717.654 499.8 716.877 499.8Z" fill="#F0896B"/>
<path d="M763.864 506.772H710.651C709.874 506.772 709.233 506.131 709.233 505.354C709.233 504.577 709.874 503.937 710.651 503.937H763.864C764.641 503.937 765.282 504.577 765.282 505.354C765.282 506.142 764.641 506.772 763.864 506.772Z" fill="white"/>
<path d="M774.606 521.084H721.392C720.615 521.084 719.975 520.443 719.975 519.666C719.975 518.889 720.615 518.249 721.392 518.249H774.606C775.383 518.249 776.023 518.889 776.023 519.666C776.013 520.454 775.383 521.084 774.606 521.084Z" fill="white"/>
<path d="M797.958 527.3H721.392C720.615 527.3 719.975 526.659 719.975 525.882C719.975 525.105 720.615 524.465 721.392 524.465H797.958C798.735 524.465 799.375 525.105 799.375 525.882C799.375 526.67 798.735 527.3 797.958 527.3Z" fill="white"/>
<path d="M738.371 533.516H720.815C720.363 533.516 719.985 533.148 719.985 532.686V531.51C719.985 531.058 720.353 530.68 720.815 530.68H738.371C738.822 530.68 739.2 531.048 739.2 531.51V532.686C739.2 533.148 738.822 533.516 738.371 533.516Z" fill="white"/>
<path d="M792.876 514.122H710.661C709.884 514.122 709.244 513.482 709.244 512.705C709.244 511.928 709.884 511.287 710.661 511.287H792.876C793.653 511.287 794.293 511.928 794.293 512.705C794.283 513.482 793.653 514.122 792.876 514.122Z" fill="white"/>
<path d="M716.594 520.422C717.475 520.422 718.19 519.707 718.19 518.826C718.19 517.945 717.475 517.23 716.594 517.23C715.712 517.23 714.998 517.945 714.998 518.826C714.998 519.707 715.712 520.422 716.594 520.422Z" fill="#FFAE6F"/>
<path d="M716.594 527.772C717.475 527.772 718.19 527.058 718.19 526.176C718.19 525.295 717.475 524.58 716.594 524.58C715.712 524.58 714.998 525.295 714.998 526.176C714.998 527.058 715.712 527.772 716.594 527.772Z" fill="#FFAE6F"/>
<path d="M718.19 531.825C718.19 530.943 717.475 530.229 716.594 530.229C715.712 530.229 714.998 530.943 714.998 531.825C714.998 532.707 715.712 533.421 716.594 533.421C717.475 533.421 718.19 532.707 718.19 531.825Z" fill="#FFAE6F"/>
<path d="M731.703 383.712L712.666 391.157V391.283L731.703 398.727V406.896L701.316 395V387.429L731.703 375.533V383.712Z" fill="#F46C6B"/>
<path d="M754.288 363.71L761.134 365.81L743.116 412.598L736.333 410.498L754.288 363.71Z" fill="#F46C6B"/>
<path d="M765.754 398.727L784.791 391.283V391.157L765.754 383.712V375.543L796.141 387.44V395.01L765.754 406.907V398.727Z" fill="#F46C6B"/>
<path d="M220.248 307.692L231.126 329.983L202.681 333.848L177.503 330.865L172.788 321.773L179.329 313.708L220.248 307.692Z" fill="#3B4E84"/>
<path d="M181.461 356.559C181.461 356.559 181.041 358.46 177.618 360.035C174.195 361.61 165.333 361.904 161.816 362.513C158.298 363.122 146.538 364.077 144.176 359.121C141.813 354.175 143.052 348.117 146.507 346.899C149.961 345.681 156.524 346.994 160.587 346.941C164.661 346.899 175.707 345.03 177.072 345.135C178.458 345.251 181.461 356.559 181.461 356.559Z" fill="#FFAE6F"/>
<path d="M169.05 361.683C168.389 361.568 153.279 362.366 150.497 361.442C147.714 360.518 145.625 356.381 146.685 350.437C147.105 348.064 148.859 346.92 150.801 346.395C149.153 346.384 147.641 346.5 146.486 346.909C143.031 348.127 141.792 354.186 144.155 359.132C146.517 364.077 158.267 363.122 161.795 362.523C163.433 362.24 166.236 362.03 169.103 361.715L169.05 361.683Z" fill="#F5F8F6"/>
<path d="M201.642 351.445C201.642 351.445 189.053 352.915 185.483 354.637C182.858 355.908 180.537 357.273 180.537 357.273C180.537 357.273 173.345 351.708 176.463 345.513C176.463 345.513 192.308 341.103 193.967 339.265C195.626 337.417 201.642 351.445 201.642 351.445Z" fill="#FF8E84"/>
<path d="M159.726 357.231C159.684 356.822 159.327 356.527 158.918 356.569C158.508 356.611 158.214 356.968 158.256 357.378C158.298 357.788 158.655 358.082 159.065 358.04C159.474 357.998 159.768 357.63 159.726 357.231Z" fill="#303030"/>
<path d="M158.959 358.229C158.508 358.208 158.13 357.851 158.078 357.399C158.025 356.895 158.393 356.444 158.897 356.391C159.411 356.36 159.852 356.717 159.904 357.21C159.957 357.714 159.589 358.166 159.085 358.218C159.043 358.229 159.001 358.229 158.959 358.229Z" fill="#ABC9FF"/>
<path d="M159.023 350.259C158.981 349.849 158.624 349.556 158.214 349.598C157.805 349.64 157.511 349.996 157.553 350.406C157.595 350.816 157.952 351.11 158.361 351.068C158.76 351.026 159.065 350.668 159.023 350.259Z" fill="#303030"/>
<path d="M158.246 351.257C157.794 351.236 157.416 350.878 157.364 350.427C157.343 350.185 157.406 349.944 157.563 349.755C157.721 349.566 157.941 349.45 158.183 349.419C158.708 349.377 159.138 349.744 159.191 350.249C159.243 350.742 158.876 351.204 158.372 351.257C158.33 351.257 158.288 351.257 158.246 351.257Z" fill="#ABC9FF"/>
<path d="M164.346 356.758C164.304 356.349 163.947 356.055 163.538 356.097C163.128 356.139 162.834 356.496 162.876 356.906C162.918 357.315 163.275 357.609 163.685 357.567C164.094 357.525 164.388 357.168 164.346 356.758Z" fill="#303030"/>
<path d="M163.569 357.756C163.117 357.735 162.74 357.378 162.687 356.927C162.635 356.412 163.012 355.971 163.516 355.919C163.558 355.919 163.611 355.919 163.653 355.919C164.104 355.94 164.482 356.297 164.535 356.748C164.587 357.263 164.22 357.704 163.716 357.756C163.663 357.756 163.611 357.756 163.569 357.756Z" fill="#ABC9FF"/>
<path d="M163.632 349.787C163.59 349.377 163.233 349.083 162.824 349.125C162.414 349.167 162.12 349.524 162.162 349.934C162.204 350.343 162.561 350.637 162.971 350.595C163.38 350.564 163.674 350.196 163.632 349.787Z" fill="#303030"/>
<path d="M162.855 350.784C162.404 350.763 162.026 350.406 161.973 349.955C161.921 349.451 162.288 348.999 162.792 348.947C163.317 348.915 163.748 349.272 163.8 349.776C163.821 350.018 163.758 350.259 163.601 350.448C163.443 350.637 163.223 350.753 162.981 350.784C162.95 350.784 162.908 350.784 162.855 350.784Z" fill="#ABC9FF"/>
<path d="M169.082 356.276C169.04 355.866 168.682 355.572 168.273 355.614C167.863 355.656 167.57 356.013 167.612 356.423C167.654 356.832 168.01 357.126 168.42 357.084C168.829 357.042 169.124 356.685 169.082 356.276Z" fill="#303030"/>
<path d="M168.304 357.273C167.853 357.252 167.475 356.895 167.422 356.444C167.37 355.929 167.748 355.488 168.252 355.436C168.294 355.436 168.346 355.436 168.388 355.436C168.84 355.457 169.218 355.813 169.271 356.265C169.323 356.779 168.955 357.221 168.451 357.273C168.399 357.273 168.346 357.273 168.304 357.273Z" fill="#ABC9FF"/>
<path d="M168.368 349.303C168.326 348.894 167.969 348.6 167.559 348.642C167.15 348.684 166.856 349.041 166.898 349.45C166.94 349.86 167.297 350.154 167.706 350.112C168.116 350.07 168.41 349.713 168.368 349.303Z" fill="#303030"/>
<path d="M167.591 350.301C167.139 350.28 166.761 349.923 166.709 349.472C166.656 348.968 167.024 348.516 167.528 348.464C168.053 348.432 168.483 348.789 168.536 349.293C168.557 349.535 168.494 349.776 168.336 349.965C168.179 350.154 167.958 350.27 167.717 350.301C167.685 350.301 167.643 350.301 167.591 350.301Z" fill="#ABC9FF"/>
<path d="M173.628 355.813C173.586 355.404 173.229 355.11 172.82 355.152C172.41 355.194 172.116 355.551 172.158 355.961C172.2 356.37 172.557 356.664 172.967 356.622C173.376 356.58 173.67 356.212 173.628 355.813Z" fill="#303030"/>
<path d="M172.862 356.801C172.41 356.78 172.032 356.423 171.98 355.971C171.959 355.73 172.022 355.488 172.179 355.299C172.337 355.11 172.557 354.995 172.799 354.963C173.303 354.89 173.765 355.289 173.807 355.782C173.828 356.024 173.765 356.265 173.607 356.454C173.45 356.643 173.229 356.759 172.988 356.79C172.946 356.801 172.904 356.811 172.862 356.801Z" fill="#ABC9FF"/>
<path d="M156.807 350.984L175.697 348.548C176.705 348.422 177.618 349.073 177.734 350.007L178.206 353.651C178.332 354.596 177.597 355.467 176.579 355.572L157.416 357.641L156.807 350.984Z" fill="#FFAE6F"/>
<path d="M172.925 348.842C172.883 348.432 172.526 348.138 172.116 348.18C171.707 348.222 171.413 348.579 171.455 348.989C171.497 349.398 171.854 349.692 172.263 349.65C172.673 349.608 172.967 349.251 172.925 348.842Z" fill="#303030"/>
<path d="M172.148 349.839C171.696 349.818 171.318 349.461 171.276 349.02C171.224 348.506 171.602 348.065 172.106 348.012C172.589 347.939 173.061 348.338 173.114 348.831C173.166 349.346 172.799 349.787 172.295 349.839C172.242 349.839 172.19 349.839 172.148 349.839Z" fill="#ABC9FF"/>
<path d="M159.002 357.819H158.949C158.781 357.787 158.666 357.651 158.645 357.494L157.91 350.375C157.889 350.175 158.036 349.997 158.235 349.976C158.435 350.007 158.624 350.101 158.645 350.301L159.243 356.181L162.561 349.702C162.645 349.555 162.792 349.513 162.96 349.503C163.128 349.534 163.244 349.671 163.265 349.829L163.853 355.604L167.307 349.209C167.381 349.062 167.528 349.03 167.706 349.02C167.864 349.051 167.979 349.188 168 349.345L168.578 355.089L171.78 348.6C171.843 348.464 171.98 348.39 172.127 348.39H172.179C172.347 348.421 172.463 348.558 172.484 348.715L173.208 355.835C173.229 356.034 173.082 356.212 172.872 356.233H172.841C172.641 356.223 172.484 356.087 172.473 355.898L171.885 350.06L168.683 356.549C168.609 356.706 168.452 356.801 168.284 356.748C168.116 356.717 168 356.58 167.979 356.423L167.391 350.585L163.937 356.979C163.863 357.126 163.695 357.168 163.538 357.168C163.38 357.137 163.265 357 163.244 356.843L162.656 351.12L159.338 357.599C159.275 357.756 159.138 357.829 159.002 357.819Z" fill="white"/>
<path d="M163.59 357.2C163.485 357.2 163.401 357.158 163.327 357.074L158.078 350.836C157.941 350.679 157.972 350.448 158.119 350.311C158.287 350.175 158.497 350.206 158.644 350.353L163.894 356.59C164.031 356.748 163.999 356.979 163.852 357.115C163.768 357.168 163.684 357.2 163.59 357.2Z" fill="white"/>
<path d="M168.263 356.727C168.158 356.727 168.074 356.685 168 356.59L162.75 350.354C162.614 350.207 162.645 349.965 162.803 349.839C162.95 349.703 163.17 349.724 163.317 349.892L168.567 356.129C168.704 356.276 168.672 356.517 168.515 356.643C168.441 356.706 168.357 356.727 168.263 356.727Z" fill="white"/>
<path d="M173.04 356.233C172.935 356.233 172.851 356.192 172.778 356.108L167.528 349.87C167.391 349.713 167.423 349.482 167.57 349.345C167.738 349.209 167.958 349.24 168.095 349.387L173.345 355.625C173.481 355.782 173.45 356.013 173.303 356.15C173.219 356.213 173.124 356.233 173.04 356.233Z" fill="white"/>
<path d="M171.885 361.61C171.749 361.599 171.612 361.526 171.56 361.379C170.636 359.058 170.709 356.338 171.77 354.102L171.906 353.819C172.127 353.367 172.347 352.905 172.41 352.464C172.358 352.548 172.316 352.632 172.274 352.726L171.014 355.268C170.489 356.328 169.775 357.766 168.452 358.396C168.021 358.606 167.475 358.649 167.066 358.47C166.782 358.355 166.583 358.155 166.499 357.871C166.415 357.619 166.436 357.378 166.478 357.168C166.793 355.068 168.021 352.485 170.499 351.571C171.182 351.319 171.822 351.298 172.326 351.477C172.41 351.424 172.505 351.382 172.61 351.351C172.799 351.319 172.988 351.404 173.061 351.593C173.082 351.666 173.103 351.729 173.114 351.802C174.678 352.527 175.875 354.028 176.18 355.719C176.306 356.402 176.085 356.759 175.896 356.937C175.497 357.284 174.951 357.2 174.584 356.927C174.279 356.706 174.101 356.38 173.954 356.065C173.544 355.215 173.187 354.333 172.883 353.43C172.788 353.661 172.673 353.903 172.568 354.123L172.431 354.396C171.465 356.454 171.392 358.964 172.242 361.085C172.316 361.274 172.221 361.484 172.043 361.568L171.885 361.61ZM171.696 352.107C171.392 352.096 171.056 352.159 170.772 352.264C168.966 352.926 167.57 354.9 167.213 357.283C167.192 357.42 167.171 357.557 167.213 357.651C167.213 357.651 167.255 357.746 167.36 357.798C167.559 357.882 167.885 357.851 168.147 357.735C169.155 357.252 169.754 356.192 170.373 354.942L171.623 352.412C171.654 352.328 171.717 352.223 171.77 352.118L171.696 352.107ZM173.471 352.842L173.502 352.947C173.828 353.955 174.206 354.879 174.626 355.761C174.752 356.013 174.867 356.234 175.046 356.36C175.172 356.444 175.361 356.465 175.434 356.412C175.518 356.339 175.539 356.129 175.487 355.866C175.245 354.638 174.5 353.525 173.471 352.842Z" fill="white"/>
<path d="M146.507 346.91C143.052 348.128 141.813 354.186 144.176 359.132C145.688 362.303 151.053 363.048 155.641 363.017C156.45 354.239 155.127 349.083 154.088 346.552C151.253 346.332 148.407 346.238 146.507 346.91Z" fill="#F5F8F6"/>
<path d="M154.844 362.114C153.321 362.051 151.568 361.463 150.161 360.539C148.628 359.541 146.738 357.651 146.412 354.396C145.835 348.705 148.89 346.405 149.373 346.258C149.457 346.195 149.573 346.28 149.604 346.374C149.636 346.469 149.583 346.574 149.489 346.605C149.048 346.763 146.244 349.03 146.78 354.365C147.095 357.473 148.901 359.279 150.36 360.234C151.988 361.316 154.056 361.893 155.673 361.725H155.694C155.778 361.725 155.862 361.799 155.873 361.893C155.883 361.998 155.81 362.082 155.705 362.093C155.432 362.114 155.138 362.124 154.844 362.114Z" fill="#FFDBD0"/>
<path d="M215.292 355.226C215.292 355.226 215.901 357.263 219.754 358.743C223.608 360.213 233.31 359.867 237.195 360.266C241.08 360.665 253.995 360.822 256.2 355.247C258.405 349.671 256.599 343.151 252.735 342.08C248.871 341.009 241.805 342.93 237.353 343.182C232.901 343.434 220.7 342.227 219.209 342.447C217.728 342.657 215.292 355.226 215.292 355.226Z" fill="#FFAE6F"/>
<path d="M229.226 359.887C229.94 359.709 246.498 359.457 249.469 358.239C252.441 357.021 254.404 352.348 252.809 345.933C252.168 343.371 250.173 342.247 248.01 341.827C249.805 341.691 251.464 341.712 252.766 342.069C256.63 343.14 258.436 349.661 256.231 355.236C254.026 360.812 241.111 360.654 237.227 360.255C235.421 360.066 232.344 360.045 229.194 359.93C229.184 359.93 229.205 359.898 229.226 359.887Z" fill="#F5F8F6"/>
<path d="M204.319 349.272C204.319 349.272 208.498 351.225 211.05 353.126C213.612 355.026 216.352 355.929 216.352 355.929C216.352 355.929 223.786 349.314 219.922 342.773C219.922 342.773 214.483 340.925 212.53 339.045C210.577 337.166 204.319 349.272 204.319 349.272Z" fill="#FF8E84"/>
<path d="M239.075 354.333C239.085 353.892 239.463 353.535 239.904 353.556C240.345 353.567 240.702 353.945 240.681 354.386C240.671 354.827 240.293 355.183 239.852 355.162C239.4 355.152 239.054 354.774 239.075 354.333Z" fill="#303030"/>
<path d="M239.831 355.362C239.274 355.341 238.844 354.869 238.875 354.323C238.896 353.766 239.358 353.325 239.915 353.346C240.471 353.367 240.902 353.829 240.891 354.396C240.881 354.659 240.765 354.911 240.566 355.1C240.377 355.278 240.114 355.373 239.841 355.373L239.831 355.362Z" fill="#ABC9FF"/>
<path d="M239.327 346.668C239.337 346.227 239.715 345.87 240.156 345.891C240.597 345.901 240.954 346.279 240.933 346.72C240.912 347.161 240.545 347.519 240.104 347.498C239.663 347.477 239.306 347.109 239.327 346.668Z" fill="#303030"/>
<path d="M240.082 347.697C239.526 347.676 239.096 347.203 239.127 346.657C239.138 346.384 239.253 346.143 239.453 345.954C239.652 345.776 239.904 345.681 240.177 345.692C240.744 345.713 241.164 346.174 241.153 346.731C241.132 347.277 240.67 347.718 240.114 347.707L240.082 347.697Z" fill="#ABC9FF"/>
<path d="M233.992 354.165C234.003 353.724 234.381 353.367 234.822 353.388C235.263 353.398 235.62 353.776 235.599 354.217C235.588 354.658 235.21 355.015 234.769 354.994C234.328 354.984 233.982 354.606 233.992 354.165Z" fill="#303030"/>
<path d="M234.77 355.194C234.213 355.173 233.772 354.701 233.793 354.144C233.804 353.881 233.909 353.629 234.108 353.44C234.308 353.262 234.56 353.167 234.833 353.167C235.389 353.188 235.82 353.661 235.809 354.207C235.788 354.774 235.326 355.215 234.77 355.194Z" fill="#ABC9FF"/>
<path d="M234.255 346.5C234.265 346.059 234.643 345.702 235.084 345.723C235.525 345.733 235.882 346.111 235.861 346.552C235.84 346.993 235.473 347.35 235.032 347.329C234.591 347.308 234.234 346.941 234.255 346.5Z" fill="#303030"/>
<path d="M235.021 347.539C234.465 347.518 234.024 347.046 234.045 346.489C234.045 346.227 234.171 345.975 234.37 345.786C234.559 345.608 234.822 345.513 235.095 345.513C235.662 345.534 236.092 346.007 236.071 346.563C236.061 346.826 235.945 347.078 235.746 347.267C235.546 347.445 235.294 347.539 235.021 347.539Z" fill="#ABC9FF"/>
<path d="M228.785 353.987C228.795 353.546 229.173 353.189 229.614 353.21C230.055 353.22 230.412 353.598 230.391 354.039C230.38 354.48 230.003 354.837 229.562 354.816C229.121 354.806 228.774 354.438 228.785 353.987Z" fill="#303030"/>
<path d="M229.541 355.015C228.995 354.994 228.564 354.522 228.585 353.976C228.606 353.419 229.068 352.989 229.635 352.999C230.191 353.02 230.622 353.493 230.612 354.039C230.601 354.312 230.486 354.554 230.286 354.743C230.087 354.921 229.835 355.016 229.562 355.005L229.541 355.015Z" fill="#ABC9FF"/>
<path d="M229.036 346.321C229.047 345.88 229.425 345.523 229.866 345.544C230.307 345.555 230.664 345.933 230.643 346.374C230.632 346.815 230.254 347.172 229.813 347.151C229.372 347.14 229.026 346.773 229.036 346.321Z" fill="#303030"/>
<path d="M229.803 347.361C229.247 347.34 228.816 346.878 228.837 346.322C228.858 345.765 229.32 345.335 229.887 345.345C230.444 345.366 230.874 345.839 230.864 346.385C230.853 346.658 230.738 346.899 230.538 347.088C230.339 347.267 230.087 347.361 229.814 347.351L229.803 347.361Z" fill="#ABC9FF"/>
<path d="M223.776 353.818C223.786 353.377 224.164 353.021 224.605 353.042C225.046 353.052 225.403 353.43 225.382 353.871C225.372 354.312 224.994 354.669 224.553 354.648C224.112 354.637 223.765 354.27 223.776 353.818Z" fill="#303030"/>
<path d="M224.553 354.858C223.996 354.837 223.566 354.365 223.576 353.808C223.576 353.545 223.702 353.294 223.902 353.105C224.091 352.926 224.353 352.831 224.626 352.831C225.183 352.852 225.624 353.325 225.603 353.882C225.571 354.438 225.109 354.879 224.553 354.858Z" fill="#ABC9FF"/>
<path d="M241.794 347.288L220.983 346.049C219.88 345.986 218.925 346.762 218.862 347.802L218.62 351.824C218.557 352.863 219.429 353.766 220.542 353.808L241.626 354.627L241.794 347.288Z" fill="#FFAE6F"/>
<path d="M224.039 346.164C224.049 345.723 224.427 345.366 224.868 345.387C225.309 345.397 225.666 345.776 225.645 346.216C225.635 346.657 225.257 347.014 224.816 346.993C224.364 346.972 224.018 346.605 224.039 346.164Z" fill="#303030"/>
<path d="M224.794 347.193C224.248 347.172 223.818 346.7 223.839 346.143C223.849 345.881 223.965 345.629 224.165 345.44C224.364 345.261 224.616 345.167 224.889 345.167C225.445 345.188 225.876 345.66 225.865 346.217C225.844 346.773 225.372 347.204 224.815 347.193H224.794Z" fill="#ABC9FF"/>
<path d="M229.572 354.49C229.435 354.48 229.31 354.407 229.236 354.291L225.267 347.435L225.046 353.861C225.036 354.081 224.847 354.26 224.637 354.249H224.626C224.406 354.239 224.227 354.049 224.238 353.839L224.5 346.007C224.511 345.818 224.626 345.671 224.805 345.629C224.994 345.618 225.162 345.671 225.256 345.818L229.225 352.664L229.435 346.343C229.446 346.164 229.561 346.007 229.729 345.965C229.897 345.954 230.097 345.996 230.181 346.143L234.433 352.874L234.654 346.521C234.664 346.332 234.79 346.185 234.958 346.143C235.127 346.112 235.326 346.175 235.399 346.322L239.515 353.157L239.725 346.689C239.736 346.469 239.925 346.29 240.135 346.301H240.146C240.366 346.311 240.544 346.5 240.534 346.71L240.271 354.543C240.261 354.722 240.135 354.879 239.967 354.921C239.799 354.952 239.61 354.9 239.526 354.743L235.41 347.907L235.2 354.207C235.189 354.386 235.074 354.543 234.906 354.585C234.759 354.617 234.549 354.554 234.454 354.407L230.202 347.676L229.992 354.092C229.981 354.281 229.855 354.428 229.687 354.47L229.572 354.49Z" fill="white"/>
<path d="M234.78 354.595C234.707 354.595 234.622 354.564 234.559 354.512C234.381 354.375 234.339 354.134 234.475 353.945L239.746 346.731C239.883 346.552 240.135 346.521 240.313 346.647C240.492 346.784 240.534 347.025 240.397 347.214L235.126 354.427C235.042 354.543 234.917 354.595 234.78 354.595Z" fill="white"/>
<path d="M229.646 354.417C229.572 354.417 229.488 354.385 229.425 354.333C229.247 354.196 229.205 353.955 229.341 353.766L234.612 346.552C234.748 346.384 235 346.332 235.179 346.468C235.357 346.605 235.399 346.847 235.263 347.036L229.992 354.249C229.897 354.364 229.772 354.427 229.646 354.417Z" fill="white"/>
<path d="M224.396 354.249C224.322 354.249 224.238 354.218 224.175 354.165C223.997 354.029 223.955 353.787 224.091 353.598L229.362 346.385C229.498 346.217 229.75 346.164 229.929 346.3C230.107 346.437 230.149 346.678 230.013 346.867L224.742 354.081C224.658 354.197 224.532 354.249 224.396 354.249Z" fill="white"/>
<path d="M226.055 360.024C226.013 360.024 225.981 360.013 225.95 360.003C225.74 359.94 225.624 359.709 225.687 359.499C226.454 357.105 226.181 354.375 224.973 352.202L224.805 351.918C224.669 351.687 224.532 351.435 224.406 351.194C224.133 352.233 223.808 353.22 223.44 354.144C223.304 354.47 223.136 354.858 222.81 355.142C222.422 355.446 221.823 355.582 221.372 355.246C221.036 354.994 220.899 354.554 220.952 353.945C221.162 352.055 222.359 350.322 224.007 349.419C224.018 349.346 224.028 349.272 224.049 349.199C224.102 348.989 224.301 348.873 224.501 348.894C224.627 348.915 224.742 348.957 224.837 349.01C225.404 348.758 226.097 348.758 226.842 348.978C229.635 349.787 231.158 352.517 231.662 354.785C231.725 355.016 231.767 355.289 231.693 355.562C231.609 355.866 231.41 356.097 231.116 356.244C230.706 356.465 230.108 356.465 229.593 356.255C228.102 355.667 227.21 354.144 226.559 353.042L225.005 350.364C224.952 350.27 224.9 350.175 224.826 350.081C224.931 350.553 225.215 351.047 225.488 351.519L225.656 351.824C226.979 354.197 227.273 357.168 226.433 359.762C226.401 359.919 226.233 360.035 226.055 360.024ZM225.54 349.64C225.614 349.755 225.677 349.86 225.729 349.955L227.283 352.632C228.05 353.945 228.774 355.057 229.919 355.509C230.202 355.614 230.559 355.635 230.78 355.52C230.895 355.467 230.927 355.404 230.927 355.404C230.969 355.247 230.937 355.1 230.906 354.963C230.339 352.38 228.669 350.333 226.653 349.734C226.286 349.619 225.887 349.587 225.54 349.64ZM223.734 350.553C222.663 351.382 221.928 352.653 221.771 353.997C221.739 354.302 221.781 354.522 221.876 354.585C221.939 354.648 222.149 354.617 222.296 354.501C222.474 354.354 222.59 354.081 222.695 353.819C223.083 352.853 223.419 351.824 223.682 350.753C223.713 350.7 223.724 350.627 223.734 350.553Z" fill="white"/>
<path d="M252.735 342.069C256.599 343.14 258.405 349.661 256.2 355.236C254.782 358.806 248.976 360.024 243.967 360.339C242.424 350.816 243.484 345.083 244.429 342.237C247.516 341.796 250.603 341.481 252.735 342.069Z" fill="#F5F8F6"/>
<path d="M243.82 359.331C243.715 359.331 243.621 359.237 243.631 359.121C243.631 359.016 243.726 358.922 243.841 358.932C245.574 358.995 248.23 358.197 250.278 356.276C251.989 354.68 252.924 352.59 253.008 350.217C253.207 344.369 249.963 342.09 249.469 341.943C249.364 341.912 249.301 341.807 249.322 341.691C249.354 341.586 249.438 341.513 249.564 341.555C250.099 341.691 253.606 344.001 253.407 350.228C253.333 352.695 252.336 354.89 250.551 356.559C248.419 358.565 245.626 359.394 243.82 359.331Z" fill="#FFDBD0"/>
<path d="M165.785 302.831C165.785 302.831 153.857 298.032 146.937 299.45C140.018 300.867 134.684 312.743 135.387 316.334C136.08 319.925 153.542 333.711 165.47 338.51C177.398 343.308 205.285 350.637 205.285 350.637L215.628 333.48L165.785 302.831Z" fill="#4B5B95"/>
<path d="M224.479 306.453C224.479 306.453 244.503 304.699 251.832 308.899C259.15 313.099 261.397 327.222 255.874 332.21C250.351 337.187 189.84 358.396 189.84 358.396C189.84 358.396 181.587 352.989 180.243 340.337L219.502 319.914L224.479 306.453Z" fill="#666EA7"/>
<path d="M183.676 337.796C183.676 337.796 184.989 351.802 193.84 357.819L188.443 359.698C188.443 359.698 178.5 350.038 179.34 339.675L183.676 337.796Z" fill="#DFECFF"/>
<path d="M225.897 318.024C225.813 318.024 225.719 317.982 225.656 317.93C225.488 317.783 225.466 317.52 225.613 317.363C227.776 314.874 234.685 310.149 234.99 309.95C235.179 309.813 235.41 309.876 235.557 310.055C235.683 310.244 235.63 310.485 235.452 310.622C235.378 310.664 228.333 315.494 226.244 317.888C226.128 317.982 226.012 318.035 225.897 318.024Z" fill="#5996D1"/>
<path d="M248.052 256.956C248.052 256.956 259.455 277.914 259.192 283.7C258.94 289.475 230.475 310.842 230.475 310.842L225.256 294.725C225.256 294.725 239.379 281.274 240.345 280.644L234.58 269.283L248.052 256.956Z" fill="#FF8E84"/>
<path d="M154.224 255.455C154.224 255.455 144.448 275.825 145.099 279.29C145.75 282.755 155.316 295.082 177.891 305.162L181.755 295.239C181.755 295.239 165.722 278.586 164.924 278.544C164.115 278.513 168.808 268.212 168.808 268.212L154.224 255.455Z" fill="#FF8E84"/>
<path d="M210.556 227.84C210.556 227.84 229.75 232.187 236.743 238.413C243.736 244.64 253.113 264.17 253.113 264.17C253.113 264.17 245.983 273.284 235.903 272.969L230.727 265.073C230.727 265.073 227.272 276.234 226.853 285.905C226.433 295.575 224.122 299.25 224.122 299.25L175.35 293.885L176.715 281.285L173.67 264.726L170.478 269.976C170.478 269.976 154.865 269.829 148.428 263.088C148.428 263.088 160.85 237.783 167.213 233.751C173.586 229.719 195.479 227.724 195.479 227.724L210.556 227.84Z" fill="#FFAE6F"/>
<path d="M211.428 220.721L211.585 227.084C211.617 228.491 212.635 228.197 213.906 228.701C213.906 228.701 212.341 237.552 202.199 237.111C192.056 236.67 189 228.459 189 228.459C191.992 227.514 194.145 225.299 194.554 222.18L195.678 213.539L211.428 220.721Z" fill="#FF8E84"/>
<path d="M211.554 225.929L211.428 220.721L195.668 213.528L194.901 219.429C199.752 230.307 209.706 226.716 211.554 225.929Z" fill="#D75050"/>
<path d="M232.848 275.425L171.822 272.748C169.827 272.664 168.136 274.207 168.042 276.202L166.288 316.239C166.204 318.234 167.748 319.925 169.743 320.019L230.769 322.697C232.764 322.781 234.455 321.237 234.549 319.242L236.303 279.205C236.397 277.2 234.854 275.509 232.848 275.425Z" fill="#182E5A"/>
<path d="M205.254 296.268C205.349 294.063 203.637 292.194 201.432 292.1C199.227 292.005 197.358 293.717 197.263 295.922C197.169 298.127 198.88 299.996 201.085 300.09C203.291 300.185 205.16 298.484 205.254 296.268Z" fill="#F5F8F6"/>
<path d="M659.316 557.172L658.434 522.123L670.919 520.485L671.895 554.432L659.316 557.172Z" fill="#FF8E84"/>
<path d="M659.169 554.516C659.169 554.516 658.224 562.968 659.652 569.72L697.358 570.402C697.358 570.402 699.815 563.21 691.32 561.246C682.826 559.283 671.979 552.594 671.979 552.594C671.979 552.594 664.251 558.999 659.169 554.516Z" fill="#FFAE6F"/>
<path d="M659.642 569.72L697.347 570.402C697.347 570.402 697.946 568.638 697.526 566.612L659.106 565.929C659.095 567.221 659.379 568.502 659.642 569.72Z" fill="#F3EDEB"/>
<path d="M670.666 561.109C670.414 561.109 670.173 561.046 669.984 560.931C669.564 560.7 669.291 560.196 669.249 559.639C669.218 559.156 669.343 558.705 669.48 558.274C669.816 557.224 670.236 556.206 670.74 555.24C671.066 554.641 671.454 553.959 672.063 553.465C672.924 552.772 674.048 552.573 675.035 552.468C675.864 552.373 676.704 552.332 677.544 552.332H677.702C678.835 552.342 680.138 552.447 681.146 553.161C681.608 553.487 681.818 553.896 681.734 554.285C681.671 554.568 681.44 554.82 681.062 554.988C680.705 555.145 680.295 555.219 679.823 555.219C679.35 555.219 678.867 555.146 678.458 555.072C676.61 554.757 674.751 554.347 672.945 553.864C673.134 554.82 673.218 555.797 673.176 556.762C673.124 558.012 672.882 559.009 672.43 559.828C672.147 560.322 671.832 560.668 671.454 560.878C671.233 561.025 670.95 561.109 670.666 561.109ZM672.42 553.823C672.42 553.823 672.399 553.833 672.378 553.854C671.843 554.284 671.475 554.915 671.181 555.461C670.687 556.395 670.278 557.393 669.953 558.411C669.837 558.789 669.711 559.199 669.742 559.597C669.763 559.912 669.9 560.311 670.215 560.5C670.499 560.668 670.908 560.637 671.223 560.459C671.528 560.291 671.78 560.007 672.011 559.597C672.42 558.863 672.641 557.928 672.683 556.762C672.735 555.776 672.651 554.778 672.42 553.823ZM673.145 553.413C674.919 553.886 676.746 554.274 678.552 554.589C678.951 554.652 679.392 554.726 679.833 554.726C680.232 554.726 680.579 554.662 680.873 554.526C680.999 554.473 681.219 554.348 681.261 554.169C681.324 553.907 680.978 553.634 680.883 553.56C679.98 552.92 678.773 552.825 677.723 552.825H677.565C676.746 552.825 675.927 552.867 675.108 552.962C674.468 553.035 673.775 553.14 673.145 553.413Z" fill="#303030"/>
<path d="M697.526 566.853L659.274 566.16C659.138 566.15 659.033 566.045 659.033 565.908C659.043 565.771 659.148 565.666 659.285 565.666H659.295L697.536 566.36C697.673 566.37 697.778 566.475 697.778 566.612C697.767 566.748 697.652 566.853 697.526 566.853Z" fill="#303030"/>
<path d="M669.785 566.296C669.669 566.296 669.553 566.212 669.543 566.086C668.44 558.464 660.398 558.18 659.232 558.18C659.148 558.18 659.096 558.191 659.096 558.191H659.085C658.948 558.191 658.844 558.086 658.833 557.949C658.823 557.813 658.938 557.697 659.074 557.697C659.19 557.708 668.777 557.414 670.026 566.034C670.047 566.17 669.952 566.286 669.816 566.307L669.785 566.296Z" fill="#303030"/>
<path d="M674.404 566.423C674.32 566.423 674.236 566.381 674.194 566.297C674.131 566.181 674.163 566.024 674.289 565.961L674.446 565.877C677.89 563.934 681.797 562.905 685.745 562.884L695.3 562.842C695.436 562.842 695.552 562.958 695.552 563.094C695.552 563.231 695.436 563.346 695.3 563.346L685.745 563.388C681.881 563.399 678.058 564.417 674.688 566.307L674.53 566.391C674.52 566.391 674.446 566.423 674.404 566.423Z" fill="#303030"/>
<path d="M682.353 561.677C682.353 561.677 682.279 561.666 682.248 561.645L668.944 555.114C668.829 555.051 668.766 554.904 668.829 554.789C668.881 554.673 669.039 554.589 669.154 554.673L682.269 561.11L683.991 558.747C684.075 558.632 684.222 558.632 684.337 558.695C684.442 558.779 684.474 558.926 684.39 559.041L682.542 561.572C682.51 561.635 682.426 561.677 682.353 561.677Z" fill="#303030"/>
<path d="M598.426 557.161L603.708 518.563L617.536 521.482L611.005 554.421L598.426 557.161Z" fill="#FF8E84"/>
<path d="M598.279 554.505C598.279 554.505 597.334 562.958 598.762 569.709L636.468 570.392C636.468 570.392 638.925 563.199 630.43 561.236C621.936 559.272 611.089 552.584 611.089 552.584C611.089 552.584 603.361 558.989 598.279 554.505Z" fill="#FFAE6F"/>
<path d="M598.752 569.709L636.458 570.392C636.458 570.392 637.056 568.628 636.636 566.601L598.216 565.919C598.216 567.21 598.489 568.491 598.752 569.709Z" fill="#F3EDEB"/>
<path d="M609.766 561.099C609.514 561.099 609.294 561.036 609.095 560.921C608.675 560.669 608.401 560.185 608.359 559.618C608.328 559.146 608.454 558.705 608.59 558.253C608.926 557.203 609.346 556.195 609.861 555.229C610.176 554.631 610.575 553.959 611.184 553.455C612.034 552.772 613.168 552.562 614.155 552.447C614.995 552.363 615.846 552.31 616.654 552.31H616.822C617.956 552.321 619.258 552.426 620.266 553.14C620.718 553.455 620.938 553.875 620.854 554.263C620.781 554.568 620.539 554.809 620.172 554.967C619.815 555.124 619.405 555.198 618.933 555.198C618.471 555.198 617.998 555.124 617.589 555.051C615.73 554.725 613.872 554.316 612.076 553.843C612.265 554.799 612.35 555.775 612.308 556.741C612.255 558.001 612.013 558.999 611.562 559.808C611.289 560.301 610.974 560.637 610.585 560.858C610.344 561.015 610.05 561.099 609.766 561.099ZM611.541 553.822L611.499 553.854C610.953 554.295 610.596 554.914 610.302 555.46C609.808 556.395 609.388 557.392 609.063 558.4C608.947 558.81 608.832 559.209 608.853 559.598C608.874 559.997 609.063 560.332 609.336 560.5C609.619 560.668 610.008 560.637 610.344 560.459C610.638 560.28 610.901 560.007 611.132 559.598C611.541 558.863 611.761 557.928 611.803 556.752C611.856 555.754 611.772 554.767 611.541 553.822ZM612.265 553.402C614.04 553.875 615.856 554.263 617.673 554.589C618.061 554.652 618.513 554.725 618.943 554.725C619.353 554.725 619.689 554.662 619.993 554.526C620.098 554.484 620.34 554.369 620.392 554.169C620.445 553.959 620.235 553.717 620.014 553.56C619.111 552.919 617.904 552.825 616.854 552.825H616.686C615.888 552.825 615.069 552.867 614.239 552.961C613.546 553.024 612.864 553.14 612.265 553.402Z" fill="#303030"/>
<path d="M636.625 566.853L598.374 566.16C598.237 566.15 598.133 566.045 598.133 565.908C598.143 565.771 598.248 565.666 598.384 565.666H598.395L636.636 566.36C636.772 566.37 636.877 566.475 636.877 566.612C636.867 566.748 636.762 566.853 636.625 566.853Z" fill="#303030"/>
<path d="M608.895 566.286C608.78 566.286 608.664 566.202 608.654 566.076C607.478 557.917 598.595 558.169 598.206 558.169H598.196C598.059 558.169 597.954 558.064 597.944 557.928C597.933 557.791 598.049 557.676 598.185 557.676C598.185 557.676 598.238 557.676 598.322 557.676C599.54 557.676 607.971 557.97 609.126 566.013C609.147 566.149 609.053 566.265 608.916 566.286C608.916 566.286 608.906 566.286 608.895 566.286Z" fill="#303030"/>
<path d="M613.515 566.412C613.431 566.412 613.336 566.37 613.305 566.286C613.242 566.17 613.284 566.013 613.399 565.95L613.546 565.866C617.001 563.923 620.907 562.895 624.855 562.874L634.4 562.832C634.536 562.832 634.652 562.947 634.652 563.084C634.652 563.22 634.536 563.336 634.4 563.336L624.855 563.377C620.991 563.388 617.169 564.407 613.788 566.297L613.641 566.38C613.641 566.37 613.557 566.412 613.515 566.412Z" fill="#303030"/>
<path d="M621.464 561.666L621.359 561.634L608.055 555.104C607.94 555.041 607.877 554.894 607.94 554.778C608.003 554.663 608.139 554.589 608.265 554.663L621.39 561.099L623.112 558.736C623.207 558.621 623.354 558.621 623.459 558.684C623.564 558.768 623.595 558.915 623.511 559.03L621.663 561.561C621.611 561.634 621.537 561.666 621.464 561.666Z" fill="#303030"/>
<path d="M630.892 265.545C633.076 264.883 634.704 263.025 635.082 260.778L637.581 245.742L654.045 250.32L654.896 267.025L657.3 268.117L651.242 275.026C651.242 275.026 638.967 274.869 638.663 274.638C638.348 274.407 631.596 270.133 631.596 270.133L630.892 265.545Z" fill="#FF8E84"/>
<path d="M675.402 372.897C675.402 372.897 677.061 392.784 677.061 397.75C677.061 402.717 674.573 546.063 674.573 546.063H655.095L645.981 411.831L617.4 543.995L598.343 543.165L615.741 370.828L675.402 372.897Z" fill="#B0AFD5"/>
<path d="M656.345 267.677C656.345 267.677 673.439 271.404 678.09 276.066C682.752 280.728 690.827 304.962 690.827 304.962C690.827 304.962 688.338 310.863 674.048 313.667L672.809 309.782C672.809 309.782 673.585 337.743 673.743 339.297C673.9 340.851 677.166 382.021 677.166 382.021C677.166 382.021 646.096 394.558 614.092 382.431L614.25 309.624L613.473 313.352C613.473 313.352 604.926 318.318 592.189 312.417C592.189 312.417 595.612 280.098 603.067 274.817C610.522 269.535 631.501 265.188 631.501 265.188C631.501 265.188 649.194 280.256 656.345 267.677Z" fill="#E7704F"/>
<path d="M594.352 303.87C594.352 303.87 588.924 344.62 590.163 346.437C594.205 352.39 597.618 356.38 645.939 336.493L643.608 330.435L609.535 332.923L613.777 307.44L594.352 303.87Z" fill="#FF8E84"/>
<path d="M593.019 312.721C603.257 317.163 610.596 314.643 612.77 313.635L613.82 307.177L594.185 303.482C594.185 303.482 593.681 307.335 593.019 312.721Z" fill="#E7704F"/>
<path d="M653.132 328.913L660.985 328.01L665.668 331.674C665.668 331.674 666.865 334.751 660.618 330.666L656.901 331.17L661.468 332.608L664.765 338.09C664.765 338.09 663.61 338.688 661.899 337.386L662.518 339.707C662.518 339.707 660.303 339.392 659.284 337.722L656.733 336.893L658.854 339.707L659.631 342.752C659.631 342.752 658.749 343.644 657.037 340.232C655.987 338.132 654.286 338.268 654.286 338.268L650.128 333.68L653.132 328.913Z" fill="#FF8E84"/>
<path d="M637.077 339.832C637.077 339.832 642.211 338.058 644.143 338.667C646.075 339.276 656.838 338.1 656.838 338.1L656.964 328.493L644.899 329.721L638.085 331.443L637.077 339.832Z" fill="#FF8E84"/>
<path d="M734.128 294.315L668.724 295.186L660.292 342.983L725.266 342.752L734.128 294.315Z" fill="#182E5A"/>
<path d="M678.075 338.614L636.405 339.169L636.46 343.305L678.13 342.751L678.075 338.614Z" fill="#182E5A"/>
<path d="M707.626 315.452C707.584 312.354 705.033 309.866 701.936 309.908C698.838 309.95 696.35 312.501 696.392 315.599C696.434 318.696 698.985 321.185 702.083 321.143C705.191 321.101 707.668 318.549 707.626 315.452Z" fill="white"/>
<path d="M654.664 258.636V264.768C654.664 264.768 640.532 264.842 638.432 249.154C636.489 234.601 654.664 258.636 654.664 258.636Z" fill="#D75050"/>
<path d="M710.64 342.762C710.64 342.762 713.433 339.234 714.367 337.344C715.302 335.454 717.16 331.17 718.557 331.422C719.953 331.674 717.318 337.722 717.318 337.722C717.318 337.722 720.499 329.847 722.673 329.28L721.045 338.163C721.045 338.163 723.922 327.831 726.946 327.768C726.946 327.768 724.93 337.407 724.93 337.155C724.93 336.903 727.03 328.398 728.731 328.02C730.443 327.642 727.954 343.077 725.938 343.518C723.922 343.959 723.996 343.203 722.368 343.707C720.741 344.211 719.649 344.337 717.864 344.337C716.079 344.337 712.74 345.66 699.143 342.825L710.64 342.762Z" fill="#FF8E84"/>
<path d="M664.44 242.424C664.44 242.424 667.191 241.322 668.02 242.939C668.892 244.64 667.233 248.955 662.802 248.094C662.802 248.094 662.665 245.543 664.44 242.424Z" fill="#D75050"/>
<path d="M665.983 231.987C665.983 231.987 666.141 238.865 665.794 242.434C665.794 242.434 668.997 233.111 668.178 230.223C667.369 227.346 665.983 231.987 665.983 231.987Z" fill="#182E5A"/>
<path d="M261.618 524.822C261.618 524.822 256.431 550.337 261.629 564.606L150.927 565.058L150.916 524.412L261.618 524.822Z" fill="#FFE8DB"/>
<path d="M212.541 541.695L259.329 547.165C259.318 545.538 259.35 543.911 259.424 542.325L212.541 541.695Z" fill="#FFE8DB"/>
<path d="M259.613 553.34L170.709 551.754L260.138 557.498C259.907 556.154 259.739 554.757 259.613 553.34Z" fill="#FFE8DB"/>
<path d="M259.738 537.4C259.875 535.825 260.022 534.324 260.19 532.928L188.864 533.264L259.738 537.4Z" fill="#FFE8DB"/>
<path d="M157.185 524.297C157.185 524.297 164.755 534.786 164.755 545.811C164.755 556.836 155.358 565.814 155.358 565.814L157.185 524.297Z" fill="#182E5A"/>
<path d="M158.707 561.593L158.697 526.995L262.92 526.974C264.589 526.974 265.944 525.619 265.944 523.95C265.944 522.28 264.589 520.926 262.92 520.926L31.164 520.978C29.001 520.978 27.237 522.732 27.237 524.905L27.2475 563.756C27.2475 565.919 29.001 567.683 31.1745 567.683L262.93 567.641C264.6 567.641 265.954 566.286 265.954 564.617C265.954 562.947 264.6 561.593 262.93 561.593H158.707Z" fill="#FFAE6F"/>
<path d="M265.913 564.606C265.913 562.936 264.558 561.582 262.888 561.582L158.666 561.603L158.655 527.005L262.878 526.984C264.548 526.984 265.902 525.63 265.902 523.96C265.902 522.375 264.684 521.094 263.13 520.957L156.251 520.978C154.088 520.978 152.324 522.732 152.324 524.905L152.334 563.755C152.334 565.845 153.962 567.525 156.02 567.651L262.888 567.63C264.558 567.63 265.913 566.275 265.913 564.606Z" fill="#F0896B"/>
<path d="M139.136 544.362C139.136 539.312 135.041 535.227 130.001 535.227C124.961 535.227 120.866 539.322 120.866 544.362C120.866 549.402 124.961 553.497 130.001 553.497C135.041 553.497 139.136 549.402 139.136 544.362Z" fill="#182E5A"/>
<path d="M130.001 554.789C124.247 554.789 119.564 550.106 119.564 544.352C119.564 538.597 124.247 533.914 129.99 533.914C135.744 533.914 140.427 538.597 140.427 544.341C140.427 550.116 135.755 554.789 130.001 554.789ZM130.001 536.518C125.685 536.518 122.168 540.036 122.168 544.362C122.168 548.688 125.685 552.206 130.011 552.206C134.337 552.206 137.844 548.688 137.844 544.362C137.834 540.036 134.316 536.518 130.001 536.518Z" fill="#E0E0FC"/>
<path d="M231.924 478.138C231.924 478.138 226.79 503.38 231.935 517.503L122.388 517.954L122.378 477.729L231.924 478.138Z" fill="#FFE8DB"/>
<path d="M183.362 494.833L229.656 500.251C229.646 498.634 229.677 497.028 229.75 495.453L183.362 494.833Z" fill="#FFE8DB"/>
<path d="M229.94 506.363L141.971 504.788L230.465 510.468C230.234 509.145 230.066 507.769 229.94 506.363Z" fill="#FFE8DB"/>
<path d="M230.065 490.591C230.191 489.037 230.349 487.546 230.506 486.171L159.936 486.496L230.065 490.591Z" fill="#FFE8DB"/>
<path d="M128.583 477.624C128.583 477.624 136.07 487.998 136.08 498.907C136.08 509.817 126.777 518.7 126.777 518.7L128.583 477.624Z" fill="#182E5A"/>
<path d="M130.095 514.532L130.085 480.302L233.216 480.281C234.875 480.281 236.208 478.937 236.208 477.288C236.208 475.629 234.864 474.296 233.216 474.296L3.885 474.338C1.743 474.338 0 476.081 0 478.223L0.0105 516.663C0.0105 518.805 1.7535 520.548 3.8955 520.548L233.226 520.506C234.885 520.506 236.219 519.162 236.219 517.514C236.219 515.855 234.875 514.521 233.226 514.521L130.095 514.532Z" fill="#2A28FB"/>
<g opacity="0.33">
<path opacity="0.33" d="M236.24 517.492C236.24 515.833 234.896 514.5 233.247 514.5L130.116 514.521L130.106 480.291L233.237 480.27C234.896 480.27 236.229 478.926 236.229 477.278C236.229 475.713 235.021 474.443 233.488 474.306L127.733 474.327C125.591 474.327 123.848 476.07 123.848 478.212L123.858 516.652C123.858 518.71 125.475 520.39 127.502 520.516L233.247 520.495C234.906 520.495 236.24 519.151 236.24 517.492Z" fill="#666EA7"/>
</g>
<path d="M110.723 497.469C110.723 492.471 106.67 488.429 101.682 488.429C96.6945 488.429 92.6415 492.481 92.6415 497.469C92.6415 502.456 96.6945 506.509 101.682 506.509C106.68 506.509 110.723 502.467 110.723 497.469Z" fill="#182E5A"/>
<path d="M101.693 507.801C96.0015 507.801 91.371 503.17 91.371 497.479C91.371 491.788 96.0015 487.158 101.693 487.158C107.384 487.158 112.014 491.788 112.014 497.479C112.014 503.17 107.384 507.801 101.693 507.801ZM101.682 489.72C97.4085 489.72 93.933 493.206 93.933 497.479C93.933 501.753 97.419 505.239 101.693 505.239C105.966 505.239 109.452 501.753 109.442 497.479C109.442 493.195 105.956 489.72 101.682 489.72Z" fill="#E0E0FC"/>
<path d="M253.796 432.474C253.796 432.474 248.661 457.716 253.806 471.838L144.26 472.29L144.249 432.064L253.796 432.474Z" fill="#FFE8DB"/>
<path d="M205.233 449.169L251.527 454.587C251.517 452.97 251.548 451.364 251.622 449.788L205.233 449.169Z" fill="#FFE8DB"/>
<path d="M251.8 460.698L163.832 459.123L252.326 464.804C252.094 463.481 251.926 462.095 251.8 460.698Z" fill="#FFE8DB"/>
<path d="M251.926 444.917C252.052 443.363 252.21 441.871 252.367 440.496L181.797 440.821L251.926 444.917Z" fill="#FFE8DB"/>
<path d="M150.454 431.96C150.454 431.96 157.941 442.334 157.952 453.243C157.952 464.153 148.648 473.036 148.648 473.036L150.454 431.96Z" fill="#182E5A"/>
<path d="M151.966 468.867L151.956 434.637L255.087 434.616C256.746 434.616 258.079 433.272 258.079 431.623C258.079 429.964 256.735 428.631 255.087 428.631L25.7565 428.673C23.6145 428.673 21.8715 430.416 21.8715 432.558L21.882 470.999C21.882 473.141 23.625 474.883 25.767 474.883L255.097 474.842C256.756 474.842 258.09 473.498 258.09 471.849C258.09 470.19 256.746 468.856 255.097 468.856L151.966 468.867Z" fill="#F46C6B"/>
<g opacity="0.52">
<g opacity="0.52">
<path opacity="0.52" d="M258.111 471.828C258.111 470.169 256.767 468.836 255.118 468.836L151.987 468.857L151.977 434.626L255.108 434.606C256.767 434.606 258.1 433.262 258.1 431.613C258.1 430.049 256.893 428.778 255.36 428.642L149.604 428.663C147.462 428.663 145.719 430.406 145.719 432.548L145.729 470.988C145.729 473.046 147.346 474.726 149.373 474.852L255.118 474.831C256.777 474.821 258.111 473.487 258.111 471.828Z" fill="#C1202A"/>
</g>
</g>
<path d="M132.594 451.805C132.594 446.807 128.541 442.764 123.554 442.764C118.566 442.764 114.513 446.817 114.513 451.805C114.513 456.792 118.566 460.845 123.554 460.845C128.552 460.845 132.594 456.792 132.594 451.805Z" fill="#182E5A"/>
<path d="M123.564 462.126C117.873 462.126 113.242 457.496 113.242 451.805C113.242 446.114 117.873 441.483 123.564 441.483C129.255 441.483 133.885 446.114 133.885 451.805C133.875 457.496 129.244 462.126 123.564 462.126ZM123.553 444.056C119.28 444.056 115.804 447.541 115.804 451.815C115.804 456.088 119.29 459.574 123.564 459.574C127.837 459.574 131.323 456.088 131.313 451.815C131.313 447.531 127.827 444.045 123.553 444.056Z" fill="#E0E0FC"/>
<path d="M46.3365 455.07C46.3365 455.942 46.263 456.782 46.1055 457.601C45.9585 458.42 45.6645 459.134 45.2445 459.764C44.814 460.394 44.2155 460.898 43.428 461.286C42.6405 461.664 41.6115 461.853 40.3305 461.853C38.8395 461.853 37.5795 461.496 36.5505 460.782C35.5215 460.068 34.86 458.966 34.5555 457.464L38.3565 456.53C38.409 456.992 38.619 457.38 38.976 457.706C39.3435 458.031 39.753 458.178 40.215 458.178C40.698 458.178 41.0655 458.063 41.328 457.821C41.601 457.58 41.79 457.286 41.916 456.929C42.042 456.572 42.1155 456.194 42.147 455.774C42.1785 455.364 42.189 454.976 42.189 454.619V442.543H46.3365V455.07Z" fill="white"/>
<path d="M56.1015 442.543H59.535L67.725 461.37H63.042L61.425 457.38H54.1065L52.5315 461.37H47.9535L56.1015 442.543ZM57.6975 448.014L55.4085 453.873H60.018L57.6975 448.014Z" fill="white"/>
<path d="M66.0975 442.543H70.833L75.4845 454.881H75.537L80.2725 442.543H84.714L76.944 461.37H73.6155L66.0975 442.543Z" fill="white"/>
<path d="M91.4235 442.543H94.857L103.047 461.37H98.364L96.747 457.38H89.4285L87.8535 461.37H83.2755L91.4235 442.543ZM93.0195 448.014L90.7305 453.873H95.34L93.0195 448.014Z" fill="white"/>
<path d="M43.827 536.183H47.523V542.43H54.684V536.183H58.3695V552.93H54.684V545.696H47.523V552.93H43.827V536.183Z" fill="white"/>
<path d="M65.016 539.448H60.2385V536.183H73.4895V539.448H68.712V552.93H65.0265V539.448H65.016Z" fill="white"/>
<path d="M75.3585 536.183H80.9445L84.798 547.113H84.84L88.7145 536.183H94.269V552.93H90.5835V540.089H90.531L86.1315 552.93H83.3175L79.086 540.089H79.044V552.93H75.348V536.183H75.3585Z" fill="white"/>
<path d="M97.8286 536.183H101.514V549.517H108.35V552.919H97.8286V536.183Z" fill="white"/>
<path d="M16.8105 484.27H25.473C26.6805 484.27 27.825 484.386 28.896 484.596C29.9775 484.816 30.912 485.194 31.71 485.73C32.508 486.276 33.1485 486.99 33.621 487.903C34.0935 488.817 34.3245 489.961 34.3245 491.347C34.3245 492.712 34.104 493.857 33.6735 494.77C33.2325 495.694 32.6235 496.429 31.857 496.986C31.0905 497.532 30.177 497.92 29.127 498.151C28.077 498.382 26.9325 498.498 25.704 498.498H21.9555V507.591H16.821V484.27H16.8105ZM21.9555 494.161H25.3785C25.8405 494.161 26.2815 494.109 26.712 494.025C27.1425 493.93 27.5205 493.783 27.867 493.573C28.203 493.363 28.476 493.08 28.686 492.712C28.896 492.345 29.001 491.893 29.001 491.347C29.001 490.759 28.8645 490.276 28.5915 489.919C28.3185 489.552 27.9615 489.279 27.531 489.079C27.1005 488.88 26.628 488.754 26.103 488.691C25.578 488.638 25.074 488.607 24.5805 488.607H21.945V494.161H21.9555Z" fill="white"/>
<path d="M37.569 484.27H42.7035V492.975H52.689V484.27H57.8235V507.591H52.689V497.511H42.7035V507.591H37.569V484.27Z" fill="white"/>
<path d="M62.5695 484.27H71.232C72.4395 484.27 73.584 484.386 74.655 484.596C75.7365 484.816 76.671 485.194 77.469 485.73C78.267 486.276 78.9075 486.99 79.38 487.903C79.8525 488.817 80.0835 489.961 80.0835 491.347C80.0835 492.712 79.863 493.857 79.4325 494.77C78.9915 495.694 78.3825 496.429 77.616 496.986C76.8495 497.532 75.936 497.92 74.886 498.151C73.836 498.382 72.6915 498.498 71.463 498.498H67.7145V507.591H62.58V484.27H62.5695ZM67.704 494.161H71.127C71.589 494.161 72.03 494.109 72.4605 494.025C72.891 493.93 73.269 493.783 73.6155 493.573C73.9515 493.363 74.2245 493.08 74.4345 492.712C74.6445 492.345 74.7495 491.893 74.7495 491.347C74.7495 490.759 74.613 490.276 74.34 489.919C74.067 489.552 73.71 489.279 73.2795 489.079C72.849 488.88 72.3765 488.754 71.8515 488.691C71.3265 488.638 70.8225 488.607 70.329 488.607H67.6935V494.161H67.704Z" fill="white"/>
<path d="M205.453 186.333C205.453 186.333 221.539 187.32 219.513 204.624C217.486 221.928 206.755 225.981 206.755 225.981C206.755 225.981 202.555 226.611 199.762 224.165C196.969 221.718 193.326 217.382 192.749 210.935C192.171 204.488 190.68 205.737 191.068 201.621C191.467 197.505 191.415 184.643 205.453 186.333Z" fill="#F9A9A5"/>
<path d="M655.085 222.012C655.085 222.012 671.58 225.971 666.435 242.624C661.29 259.276 649.457 261.282 649.457 261.282C649.457 261.282 644.994 261.124 642.537 258.195C640.08 255.265 637.067 250.32 637.602 243.862C638.138 237.405 636.374 238.361 637.508 234.381C638.642 230.402 640.836 217.739 655.085 222.012Z" fill="#F9A9A5"/>
<path d="M592.966 6.03749C592.966 6.03749 578.939 6.94049 580.703 22.7325C582.467 38.5245 591.822 42.231 591.822 42.231C591.822 42.231 595.486 42.8085 597.922 40.572C600.358 38.3355 603.54 34.377 604.044 28.4865C604.548 22.596 605.85 23.7405 605.503 19.992C605.157 16.2435 605.209 4.49399 592.966 6.03749Z" fill="#F9A9A5"/>
<path d="M217.707 207.26C217.707 207.26 220.185 206.147 221.004 207.585C221.875 209.118 220.521 213.129 216.426 212.52C216.426 212.52 216.206 210.189 217.707 207.26Z" fill="#FF8A80"/>
<path d="M206.934 214.819C206.892 214.809 206.85 214.788 206.829 214.746C206.661 214.41 206.703 214.169 206.955 213.843C207.092 213.665 207.312 213.675 207.501 213.685C207.553 213.685 207.606 213.696 207.606 213.696L207.816 213.685C208.11 213.675 208.393 213.664 208.656 213.57C208.918 213.475 209.202 213.234 209.212 212.94C209.223 212.793 209.16 212.646 209.107 212.478L209.097 212.447C208.53 210.882 208.467 209.139 208.918 207.543C208.939 207.47 209.023 207.428 209.086 207.449C209.16 207.47 209.202 207.543 209.181 207.617C208.75 209.16 208.803 210.84 209.349 212.352L209.359 212.384C209.422 212.562 209.485 212.741 209.475 212.951C209.454 213.381 209.086 213.696 208.74 213.832C208.435 213.937 208.12 213.959 207.816 213.969L207.659 213.979C207.659 213.979 207.543 213.979 207.48 213.979C207.354 213.969 207.218 213.969 207.176 214.032C206.987 214.273 206.966 214.41 207.081 214.651C207.113 214.714 207.081 214.799 207.018 214.84L206.934 214.819Z" fill="#D75050"/>
<path d="M218.715 197.642C218.715 197.642 219.125 203.931 218.946 207.218C218.946 207.218 221.518 198.555 220.658 195.941C219.797 193.337 218.715 197.642 218.715 197.642Z" fill="#182E5A"/>
<path d="M202.387 195.122C201.127 198.828 198.649 201.789 196.234 204.635C196.129 204.761 195.898 205.118 195.783 205.244C195.52 205.527 195.079 205.968 194.827 206.262C194.239 206.945 193.672 208.037 193.347 208.845C191.226 205.779 190.312 201.821 190.417 197.862C190.48 195.29 190.89 192.675 191.898 190.365C192.906 188.055 194.565 186.06 196.633 185.115C195.846 184.601 194.911 184.37 194.008 184.485C195.09 183.645 196.549 183.509 197.715 184.149C197.82 182.417 198.471 180.716 199.531 179.466C199.311 180.905 199.3 182.385 199.51 183.813C200.203 183.015 201.169 182.616 202.114 182.333C208.509 180.422 215.691 183.036 219.933 188.822C220.805 190.008 221.55 191.31 222.485 192.413C223.419 193.526 224.585 194.46 225.918 194.67C224.564 194.901 223.157 194.66 221.907 194.009C222.831 195.909 224.459 197.316 226.286 197.82C225.162 198.671 223.776 199.007 222.464 198.755C223.199 199.584 224.07 200.256 225.015 200.708C222.138 202.325 218.736 202.325 215.701 201.285C212.667 200.246 209.937 198.24 207.459 195.983C207.595 198.492 209.191 200.487 210.703 202.262C209.433 201.705 208.163 201.138 206.902 200.571C206.104 200.214 205.275 199.847 204.645 199.175C203.595 198.083 203.206 196.371 202.366 195.059C202.461 195.321 202.545 195.573 202.639 195.836" fill="#182E5A"/>
<path d="M194.838 205.989C194.838 205.989 195.594 201.663 190.9 202.619C189.031 202.997 188.254 207.9 193.095 209.349C193.095 209.339 194.891 209.192 194.838 205.989Z" fill="#FF8E84"/>
<path d="M207.186 217.938C205.695 217.875 203.773 217.549 201.841 216.573C201.757 216.531 201.736 216.426 201.768 216.342C201.82 216.268 201.915 216.237 201.999 216.268C206.031 218.306 209.989 217.424 209.989 217.424L210.052 217.403C210.136 217.403 210.21 217.465 210.22 217.539C210.241 217.633 210.178 217.728 210.094 217.738C210.094 217.738 208.908 218.011 207.186 217.938Z" fill="#1E2136"/>
<path d="M205.905 219.502C205.443 219.482 204.907 219.377 204.288 219.093C204.204 219.062 204.172 218.957 204.204 218.873C204.246 218.799 204.32 218.747 204.425 218.789C206.126 219.565 207.217 218.915 207.27 218.894C207.364 218.862 207.469 218.883 207.501 218.946C207.543 219.03 207.522 219.125 207.449 219.177C207.417 219.198 206.85 219.544 205.905 219.502Z" fill="#1E2136"/>
<path d="M604.149 24.276C599.287 20.5905 595.003 16.149 591.517 11.1405C591.979 13.9125 593.911 16.17 595.612 18.4065C597.313 20.643 598.92 23.2785 598.584 26.061C598.437 22.974 596.169 20.4435 593.995 18.249C591.822 16.0545 589.47 13.65 589.082 10.584C588.084 11.865 587.076 13.1355 586.078 14.4165C584.797 16.0545 583.506 17.703 582.446 19.4985C580.64 22.575 579.558 26.0715 579.306 29.631C577.909 25.3155 577.458 20.622 578.56 16.233C579.663 11.8335 582.414 7.77 586.372 5.565C590.677 3.171 596.242 3.2025 600.516 5.6595C604.789 8.1165 607.624 12.894 607.729 17.829C607.74 18.606 607.698 19.404 607.393 20.1285C606.7 21.7455 604.884 22.6695 604.149 24.276Z" fill="#182E5A"/>
<path d="M589.354 31.3215C589.396 31.3215 589.438 31.3005 589.459 31.2585C589.606 31.0485 589.627 30.765 589.533 30.5235C589.512 30.4815 589.47 30.45 589.428 30.4395C589.134 30.4185 588.819 30.387 588.557 30.261C588.336 30.156 588.095 29.946 588.063 29.6415C588.042 29.4105 588.147 29.19 588.252 28.9485L588.294 28.8435C588.945 27.3735 588.819 25.6305 588.714 24.234C588.703 24.1605 588.64 24.0975 588.567 24.108C588.493 24.1185 588.441 24.1815 588.441 24.255C588.546 25.6935 588.661 27.3315 588.042 28.728L588 28.833C587.885 29.085 587.759 29.3685 587.79 29.673C587.822 30.0195 588.073 30.345 588.43 30.513C588.714 30.6495 589.029 30.681 589.312 30.702C589.344 30.828 589.312 30.975 589.249 31.08C589.207 31.143 589.218 31.227 589.281 31.269C589.27 31.3005 589.323 31.3215 589.354 31.3215Z" fill="#E05252"/>
<path d="M603.981 24.108C603.981 24.108 604.716 20.643 607.74 22.7955C608.937 23.6565 608.045 27.5625 604.223 27.153C604.212 27.153 603.005 26.4915 603.981 24.108Z" fill="#FF8E84"/>
<path d="M585.648 33.3585C585.648 33.3585 593.04 33.39 594.741 32.529C594.741 32.529 591.875 36.7815 589.281 36.519C586.687 36.246 585.648 33.3585 585.648 33.3585Z" fill="white"/>
<path d="M675.559 222.001C675.748 223.398 674.604 224.627 674.341 226.013C674.016 227.756 675.097 229.488 674.961 231.252C674.751 234.119 671.265 235.83 668.472 235.158C665.123 234.35 662.456 231.126 659.012 231.336C657.384 231.441 655.82 232.333 654.213 232.092C652.491 231.829 651.263 230.381 649.94 229.247C648.617 228.113 646.632 227.241 645.215 228.249C644.301 228.9 643.997 230.087 643.65 231.147C642.495 234.727 640.238 237.93 637.266 240.229C633.297 232.879 636.237 223.335 641.981 217.266C643.776 215.376 646.076 213.623 648.68 213.749C650.57 213.843 652.449 214.914 654.255 214.357C655.253 214.053 656.04 213.287 656.954 212.793C659.19 211.586 662.266 212.216 663.841 214.221C664.902 215.565 665.343 217.413 666.729 218.41C668.104 219.397 669.963 219.23 671.653 219.366C673.354 219.503 675.328 220.321 675.559 222.001Z" fill="#182E5A"/>
<path d="M639.576 239.978C639.576 239.978 640.605 235.305 635.45 236.124C633.402 236.45 632.32 241.763 637.539 243.558C637.529 243.558 639.482 243.474 639.576 239.978Z" fill="#FF8E84"/>
<path d="M652.533 249.386C652.533 249.386 652.439 249.344 652.407 249.291C652.229 248.882 652.281 248.577 652.607 248.189C652.775 247.979 653.058 248.01 653.279 248.031C653.342 248.042 653.404 248.042 653.404 248.042H653.667C654.034 248.042 654.371 248.042 654.696 247.937C655.022 247.832 655.379 247.559 655.41 247.191C655.431 247.013 655.368 246.824 655.305 246.635L655.295 246.593C654.686 244.661 654.707 242.529 655.337 240.608C655.368 240.524 655.463 240.471 655.547 240.503C655.631 240.534 655.683 240.629 655.652 240.713C655.043 242.571 655.032 244.629 655.61 246.488L655.62 246.53C655.694 246.75 655.757 246.981 655.736 247.223C655.694 247.737 655.232 248.115 654.791 248.252C654.423 248.367 654.034 248.367 653.667 248.367H653.467C653.394 248.367 653.321 248.357 653.247 248.357C653.09 248.346 652.932 248.325 652.869 248.399C652.628 248.682 652.596 248.85 652.722 249.144C652.764 249.228 652.722 249.323 652.638 249.365C652.638 249.375 652.565 249.396 652.533 249.386Z" fill="#D75050"/>
<path d="M657.5 252.504C657.5 252.504 649.509 251.328 644.794 249.186C644.794 249.186 647.157 254.52 650.927 255.57C654.696 256.62 657.5 252.504 657.5 252.504Z" fill="white"/>
</svg>
