<svg width="480" height="480" viewBox="0 0 480 480" fill="none" xmlns="http://www.w3.org/2000/svg">
<g clip-path="url(#clip0_36_1679)">
<path d="M76.4 100.7C76.4 100.7 79 98.6 80.4 100.1C81.9 101.6 81.6 106.8 76.6 107.3C76.5 107.3 75.5 104.6 76.4 100.7Z" fill="#D55050"/>
<path d="M15.6 465.4L17.2 425.1L34 427.7L26.1 466.3L15.6 465.4Z" fill="#F9A9A5"/>
<path d="M15.6 461.5C15.6 461.5 11.9 471.5 13.5 479.2L56.8 480C56.8 480 59.6 471.8 49.9 469.5C40.2 467.2 27.7 459.6 27.7 459.6C27.7 459.6 21.4 466.6 15.6 461.5Z" fill="#E57354"/>
<path d="M13.5 479.2L56.8 480C56.8 480 57.5 478 57 475.7L13.1 474.9C13.1 476.3 13.2 477.8 13.5 479.2Z" fill="white"/>
<path d="M25.4 469.1C24.9 468.8 24.6 468.3 24.6 467.6C24.6 467 24.7 466.5 24.9 466C25.3 464.8 25.8 463.6 26.4 462.5C26.8 461.8 27.2 461 27.9 460.5C28.9 459.7 30.2 459.5 31.3 459.4C32.3 459.3 33.2 459.2 34.2 459.2H34.4C35.7 459.2 37.2 459.3 38.4 460.2C38.9 460.6 39.2 461 39.1 461.5C39 461.8 38.7 462.1 38.3 462.3C37.9 462.5 37.4 462.6 36.9 462.6C36.4 462.6 35.8 462.5 35.3 462.4C33.2 462 31 461.6 29 461C29.2 462.1 29.3 463.2 29.3 464.3C29.2 465.7 29 466.9 28.5 467.8C28.2 468.4 27.8 468.8 27.4 469C27.1 469.2 26.8 469.3 26.5 469.3C25.9 469.3 25.6 469.3 25.4 469.1ZM28.1 461C27.5 461.5 27.1 462.2 26.7 462.9C26.1 464 25.6 465.1 25.3 466.3C25.2 466.7 25 467.2 25.1 467.7C25.1 468.2 25.3 468.6 25.7 468.7C26 468.9 26.5 468.9 26.9 468.6C27.2 468.4 27.5 468.1 27.8 467.6C28.3 466.7 28.5 465.7 28.6 464.3C28.5 463.2 28.5 462.1 28.1 461C28.2 461 28.2 461 28.1 461ZM31.3 460C30.5 460.1 29.7 460.2 29 460.5C31 461 33.1 461.5 35.2 461.9C36.1 462.1 37.2 462.1 37.9 461.8C38 461.7 38.3 461.6 38.3 461.4C38.4 461.2 38.1 460.9 37.9 460.7C36.9 460 35.5 459.9 34.3 459.9H34.1C33.2 459.8 32.2 459.9 31.3 460Z" fill="#303030"/>
<path d="M57 475.9C57.2 475.9 57.3 475.8 57.3 475.6C57.3 475.4 57.2 475.3 57 475.3L13.1 474.5C12.9 474.5 12.8 474.6 12.8 474.8C12.8 475 12.9 475.1 13.1 475.1L57 475.9Z" fill="#303030"/>
<path d="M25.2 475.3C25.4 475.3 25.5 475.1 25.5 475C24.1 465.2 15.5 462.5 15.4 462.5C15.3 462.5 15.1 462.5 15.1 462.7C15.1 462.8 15.1 463 15.3 463.1C15.4 463.1 23.6 465.7 25 475.2C24.9 475.2 25 475.3 25.2 475.3Z" fill="#303030"/>
<path d="M30.5 475.4H30.6L30.8 475.3C34.7 473.1 39.1 472 43.5 471.9H54.5C54.7 471.9 54.8 471.8 54.8 471.6C54.8 471.4 54.7 471.3 54.5 471.3H43.5C39 471.3 34.5 472.5 30.5 474.7L30.3 474.8C30.2 474.9 30.1 475.1 30.2 475.2C30.3 475.4 30.4 475.4 30.5 475.4Z" fill="#303030"/>
<path d="M39.6 470C39.7 470 39.8 470 39.8 469.9L41.9 467C42 466.9 42 466.7 41.8 466.6C41.7 466.5 41.5 466.5 41.4 466.7L39.4 469.4L24.4 462C24.3 461.9 24.1 462 24 462.1C23.9 462.2 24 462.4 24.1 462.5L39.4 470H39.6Z" fill="#303030"/>
<path d="M109.9 465.4L104.8 426.5L118.1 427.3L122.3 464.7L109.9 465.4Z" fill="#FF8E84"/>
<path d="M109.8 461.5C109.8 461.5 106.1 471.5 107.7 479.2L151 480C151 480 153.8 471.8 144.1 469.5C134.4 467.2 121.9 459.6 121.9 459.6C121.9 459.6 115.7 466.6 109.8 461.5Z" fill="#E57354"/>
<path d="M107.7 479.2L151 480C151 480 151.7 478 151.2 475.7L107.3 474.9C107.3 476.3 107.4 477.8 107.7 479.2Z" fill="white"/>
<path d="M119.6 469.1C119.1 468.8 118.8 468.3 118.8 467.6C118.8 467 118.9 466.5 119.1 466C119.5 464.8 120 463.6 120.6 462.5C121 461.8 121.4 461 122.1 460.5C123.1 459.7 124.3 459.5 125.5 459.4C126.5 459.3 127.4 459.2 128.4 459.2H128.6C129.9 459.2 131.4 459.3 132.6 460.2C133.1 460.6 133.4 461 133.3 461.5C133.2 461.8 132.9 462.1 132.5 462.3C132.1 462.5 131.6 462.6 131.1 462.6C130.6 462.6 130 462.5 129.5 462.4C127.4 462 125.2 461.6 123.2 461C123.4 462.1 123.5 463.2 123.5 464.3C123.4 465.7 123.2 466.9 122.6 467.8C122.3 468.4 121.9 468.8 121.5 469C121.2 469.2 120.9 469.3 120.6 469.3C120.1 469.3 119.8 469.3 119.6 469.1ZM122.4 461C121.8 461.5 121.4 462.2 121 462.9C120.4 464 120 465.1 119.6 466.3C119.5 466.7 119.3 467.2 119.4 467.7C119.4 468.2 119.6 468.6 120 468.7C120.3 468.9 120.8 468.9 121.2 468.6C121.5 468.4 121.8 468.1 122.1 467.6C122.6 466.8 122.8 465.7 122.9 464.3C122.8 463.2 122.7 462.1 122.4 461ZM125.5 460C124.7 460.1 123.9 460.2 123.3 460.5C125.3 461 127.4 461.5 129.5 461.9C130 462 130.5 462.1 131 462.1C131.5 462.1 131.9 462 132.2 461.9C132.3 461.8 132.6 461.7 132.7 461.5C132.8 461.3 132.5 461 132.3 460.8C131.3 460.1 129.9 460 128.7 460H128.5C127.4 459.8 126.4 459.9 125.5 460Z" fill="#303030"/>
<path d="M151.2 475.9C151.4 475.9 151.5 475.8 151.5 475.6C151.5 475.4 151.4 475.3 151.2 475.3L107.3 474.5C107.1 474.5 107 474.6 107 474.8C107 475 107.1 475.1 107.3 475.1L151.2 475.9Z" fill="#303030"/>
<path d="M119.4 475.3C119.6 475.3 119.7 475.1 119.7 475C118.3 465.2 109.7 462.5 109.6 462.5C109.5 462.5 109.3 462.5 109.3 462.7C109.3 462.8 109.3 463 109.5 463.1C109.6 463.1 117.8 465.7 119.2 475.2C119.1 475.2 119.2 475.3 119.4 475.3Z" fill="#303030"/>
<path d="M124.7 475.4H124.8L125 475.3C128.9 473.1 133.3 472 137.7 471.9H148.7C148.9 471.9 149 471.8 149 471.6C149 471.4 148.9 471.3 148.7 471.3H137.7C133.2 471.3 128.7 472.5 124.7 474.7L124.5 474.8C124.4 474.9 124.3 475.1 124.4 475.2C124.5 475.4 124.6 475.4 124.7 475.4Z" fill="#303030"/>
<path d="M133.8 470C133.9 470 134 470 134 469.9L136.1 467C136.2 466.9 136.2 466.7 136 466.6C135.9 466.5 135.7 466.5 135.6 466.7L133.6 469.4L118.5 462C118.4 461.9 118.2 462 118.1 462.1C118 462.2 118.1 462.4 118.2 462.5L133.5 470C133.7 470 133.8 470 133.8 470Z" fill="#303030"/>
<path d="M94 174.5C94 174.5 119.8 205.7 122.7 207.9C142.5 223 163.4 159.9 163.4 159.9L155.7 153.7C155.7 153.7 132 184.7 132.2 184L104.3 154.1L94 174.5Z" fill="#FF8E84"/>
<path d="M31 255.6L13 454.8L33.9 457.1C33.9 457.1 64.5 300.3 67.6 287.6C70.6 274.9 81.6 355.5 84.6 367C87.6 378.5 102.2 455.7 102.2 455.7L123.6 453.4C123.6 453.4 107.1 286.3 103.4 266.9C99.8 247.5 99.8 242.6 99.8 242.6C99.8 242.6 56.1 249.3 37.9 243.8L31 255.6Z" fill="#FFAE6F"/>
<path d="M68.5 286.3C68.6 286.3 68.7 286.2 68.7 286.1C68.7 286 71.4 271.1 68.9 245.7C68.9 245.6 68.8 245.5 68.7 245.5C68.6 245.5 68.5 245.6 68.5 245.7C71 271 68.4 285.8 68.3 286C68.3 286.1 68.4 286.2 68.5 286.3Z" fill="#34344F"/>
<path d="M69.3 281.3H69.4C69.6 281.2 75.5 277.9 76.5 275.7C77.4 273.6 77.1 246.6 77.1 245.4C77.1 245.3 77 245.2 76.9 245.2C76.8 245.2 76.7 245.3 76.7 245.4C76.8 255.1 76.8 273.8 76.1 275.5C75.2 277.5 69.3 280.8 69.2 280.9C69.1 281 69.1 281.1 69.1 281.2C69.1 281.2 69.2 281.3 69.3 281.3Z" fill="#34344F"/>
<path d="M27.1 453.2C27.2 453.2 27.3 453.1 27.3 453L51.9 282.9C51.9 282.8 51.8 282.7 51.7 282.7C51.6 282.7 51.5 282.8 51.5 282.9L26.9 452.9C26.9 453 27 453.1 27.1 453.2Z" fill="#34344F"/>
<path d="M28.6 175.5C28.6 175.5 18.8 212 18.8 214.2C18.8 216.5 -2.3 240.7 0.300002 218.1C2.9 195.5 12.2 166.6 12.2 166.6L28.6 175.5Z" fill="#F9A9A5"/>
<path d="M119.5 450.9C119.6 450.9 119.7 450.8 119.7 450.7L97.4 287.8C97.4 287.7 97.3 287.6 97.2 287.6C97.1 287.6 97 287.7 97 287.8L119.3 450.6C119.3 450.8 119.4 450.9 119.5 450.9Z" fill="#34344F"/>
<path d="M49.7 134.5C49.7 134.5 25 142.6 20 146.3C15 150 2.3 191.7 2.3 191.7C2.3 191.7 13.2 196 25.2 201L28.7 188.3C28.7 188.3 30.8 217.8 31.2 223.2C31.6 228.6 29.5 258.1 29.5 258.1C29.5 258.1 72.7 271.8 103.9 256.4C103.9 256.4 98.5 224.8 98.5 220.7C98.5 216.6 99.7 185.8 99.7 185.8L111.8 200.3C111.8 200.3 125.9 187 129.7 177.9C129.7 177.9 103.5 144.3 98.1 141.8C92.7 139.3 72.7 134.5 72.7 134.5H49.7Z" fill="#FFE8DB"/>
<path d="M48.8 134.8C51 133.9 52.5 131.7 52.5 129.2L52.6 116.1L72.2 115.9V129.9C72.2 132.3 73.6 134.4 75.9 135.3C69.1 139.3 60.8 139.9 53.5 136.7L48.8 134.8Z" fill="#FF8E84"/>
<path d="M52.6 116.1L72.2 115.9V126C69.6 127.2 60.7 130.1 52.6 120.6V116.1Z" fill="#D55050"/>
<path d="M246.3 147H49.1V277.3H246.3V147Z" fill="white"/>
<path d="M246.3 146.9H49.1V155.3H246.3V146.9Z" fill="#182E5A"/>
<path d="M57.1 151C57.1 149.8 56.2 148.9 55 148.9C53.8 148.9 52.9 149.8 52.9 151C52.9 152.2 53.8 153.1 55 153.1C56.2 153.1 57.1 152.2 57.1 151Z" fill="#F0896B"/>
<path d="M64.1 151C64.1 149.8 63.2 148.9 62 148.9C60.8 148.9 59.9 149.8 59.9 151C59.9 152.2 60.8 153.1 62 153.1C63.2 153.2 64.1 152.2 64.1 151Z" fill="#FFAE6F"/>
<path d="M71.5 151C71.5 149.8 70.6 148.9 69.4 148.9C68.2 148.9 67.3 149.8 67.3 151C67.3 152.2 68.2 153.1 69.4 153.1C70.6 153.1 71.5 152.2 71.5 151Z" fill="#E0E0FC"/>
<path d="M240.8 159.7H53.1V196.4H240.8V159.7Z" fill="#FFAE6F"/>
<path d="M229.2 216.9C232.735 216.9 235.6 214.034 235.6 210.5C235.6 206.965 232.735 204.1 229.2 204.1C225.665 204.1 222.8 206.965 222.8 210.5C222.8 214.034 225.665 216.9 229.2 216.9Z" fill="#B0AFD5"/>
<path d="M235.6 238C235.6 234.5 232.7 231.6 229.2 231.6C225.7 231.6 222.8 234.5 222.8 238C222.8 241.5 225.7 244.4 229.2 244.4C232.7 244.4 235.6 241.5 235.6 238Z" fill="#B0AFD5"/>
<path d="M235.6 263.8C235.6 260.3 232.7 257.4 229.2 257.4C225.7 257.4 222.8 260.3 222.8 263.8C222.8 267.3 225.7 270.2 229.2 270.2C232.7 270.2 235.6 267.4 235.6 263.8Z" fill="#B0AFD5"/>
<path d="M212.6 216H129.7C126.8 216 124.4 213.6 124.4 210.7C124.4 207.8 126.8 205.4 129.7 205.4H212.6C215.5 205.4 217.9 207.8 217.9 210.7C217.8 213.6 215.5 216 212.6 216Z" fill="#8E92C1"/>
<path d="M212.6 241.6H129.7C126.8 241.6 124.4 239.2 124.4 236.3C124.4 233.4 126.8 231 129.7 231H212.6C215.5 231 217.9 233.4 217.9 236.3C217.8 239.2 215.5 241.6 212.6 241.6Z" fill="#8E92C1"/>
<path d="M212.6 268.6H129.7C126.8 268.6 124.4 266.2 124.4 263.3C124.4 260.4 126.8 258 129.7 258H212.6C215.5 258 217.9 260.4 217.9 263.3C217.8 266.2 215.5 268.6 212.6 268.6Z" fill="#8E92C1"/>
<path d="M112.5 203.6H53.5V262.5H112.5V203.6Z" fill="#E57354"/>
<path d="M108.9 254.2H58.2C57.3 254.2 56.5 253.5 56.5 252.5C56.5 251.6 57.2 250.8 58.2 250.8H108.8C109.7 250.8 110.5 251.5 110.5 252.5C110.5 253.4 109.8 254.2 108.9 254.2Z" fill="white"/>
<path d="M108.2 254.2C107.5 254.2 106.9 253.8 106.7 253.2L92.9 219.5L82.2 239C82 239.4 81.6 239.7 81.1 239.8C80.6 239.9 80.2 239.8 79.8 239.6L73.8 235.5L60.6 253.7C60.1 254.5 59 254.6 58.3 254.1C57.6 253.6 57.4 252.5 57.9 251.8L72.1 232.3C72.6 231.6 73.6 231.4 74.4 231.9L80.3 235.9L91.8 215C92.1 214.4 92.8 214.1 93.4 214.1C94 214.1 94.6 214.5 94.9 215.1L110.1 252.1C110.4 253 110 253.9 109.2 254.3C108.6 254.1 108.4 254.2 108.2 254.2Z" fill="white"/>
<path d="M72.2 227.4C68.2 227.4 64.9 224.1 64.9 220.1C64.9 216.1 68.2 212.8 72.2 212.8C76.2 212.8 79.5 216.1 79.5 220.1C79.5 224.1 76.2 227.4 72.2 227.4ZM72.2 216.1C70 216.1 68.2 217.9 68.2 220.1C68.2 222.3 70 224.1 72.2 224.1C74.4 224.1 76.2 222.3 76.2 220.1C76.2 217.9 74.4 216.1 72.2 216.1Z" fill="white"/>
<path d="M43 241.2L56.2 247.1C56.2 247.1 66 255.1 65.5 256.6C65 258.1 55.7 266.2 55.7 266.2C55.7 266.2 51.2 259.9 45.8 253C45.7 252.9 33.9 246 33.9 246L43 241.2Z" fill="#F9A9A5"/>
<path d="M51.2 245.3C51.2 245.3 56.3 245.5 63.3 247.6C66 248.4 72.9 248.1 72.2 249.8C71.6 251.5 63 250.6 62.8 251.1C62.5 251.6 65.3 255.5 65.3 255.5L58.3 252.6L51.2 245.3Z" fill="#F9A9A5"/>
<path d="M63.1 253.7C63.1 253.7 77.7 263.9 77.1 265.2C76.5 266.5 64.3 258.6 64.3 258.6C64.3 258.6 75.7 269.6 74.9 270.7C74.1 271.9 61.3 261.1 61.3 261.1C61.3 261.1 70.2 273.7 69.2 274.5C68.2 275.3 58.2 263.6 58.2 263.6C58.2 263.6 63.4 274.8 62.5 275.5C61.6 276.2 55.7 266 55.7 266L51.8 259.3L63.1 253.7Z" fill="#F9A9A5"/>
<path d="M51.2 245.3L18.1 210.2L2.3 227.4L45.8 253L51.2 245.3Z" fill="#F9A9A5"/>
<path d="M367.6 311.6H261.9V470.5H367.6V311.6Z" fill="white" stroke="#8E92C1" stroke-miterlimit="10"/>
<path d="M362.1 316.1H266.3V355.1H362.1V316.1Z" fill="#E0E0FC"/>
<path d="M349.6 363.8H311.8C310.9 363.8 310.1 363.1 310.1 362.1C310.1 361.2 310.9 360.4 311.8 360.4H349.6C350.5 360.4 351.3 361.1 351.3 362.1C351.3 363.1 350.5 363.8 349.6 363.8Z" fill="#666EA7"/>
<path d="M349.6 382.3H311.8C310.9 382.3 310.1 381.6 310.1 380.6C310.1 379.7 310.9 378.9 311.8 378.9H349.6C350.5 378.9 351.3 379.6 351.3 380.6C351.3 381.6 350.5 382.3 349.6 382.3Z" fill="#666EA7"/>
<path d="M349.6 392.9H311.8C310.9 392.9 310.1 392.2 310.1 391.2C310.1 390.3 310.9 389.5 311.8 389.5H349.6C350.5 389.5 351.3 390.2 351.3 391.2C351.3 392.2 350.5 392.9 349.6 392.9Z" fill="#666EA7"/>
<path d="M353.7 407.4H270.4C269.5 407.4 268.7 406.7 268.7 405.7C268.7 404.8 269.5 404 270.4 404H353.7C354.6 404 355.4 404.7 355.4 405.7C355.4 406.6 354.6 407.4 353.7 407.4Z" fill="#666EA7"/>
<path d="M353.7 419.2H270.4C269.5 419.2 268.7 418.5 268.7 417.5C268.7 416.6 269.5 415.8 270.4 415.8H353.7C354.6 415.8 355.4 416.5 355.4 417.5C355.4 418.5 354.6 419.2 353.7 419.2Z" fill="#666EA7"/>
<path d="M353.7 459.9H270.4C269.5 459.9 268.7 459.2 268.7 458.2C268.7 457.3 269.5 456.5 270.4 456.5H353.7C354.6 456.5 355.4 457.2 355.4 458.2C355.4 459.2 354.6 459.9 353.7 459.9Z" fill="#666EA7"/>
<path d="M338.5 372.2H311.6C310.8 372.2 310.2 371.6 310.2 370.8V370.3C310.2 369.5 310.8 368.9 311.6 368.9H338.5C339.3 368.9 339.9 369.5 339.9 370.3V370.8C339.9 371.6 339.3 372.2 338.5 372.2Z" fill="#666EA7"/>
<path d="M269.201 394.709H304.601V359.309H269.201V394.709Z" fill="#FFAE6F"/>
<path d="M271.4 389.7H301.8C302.4 389.7 302.8 389.3 302.8 388.7C302.8 388.1 302.4 387.7 301.8 387.7H271.4C270.8 387.7 270.4 388.1 270.4 388.7C270.4 389.3 270.8 389.7 271.4 389.7Z" fill="white"/>
<path d="M271.8 389.7C272.2 389.7 272.6 389.5 272.7 389.1L281 368.8L287.4 380.5C287.5 380.7 287.8 380.9 288 381C288.3 381.1 288.6 381 288.8 380.9L292.4 378.4L300.4 389.3C300.7 389.8 301.4 389.8 301.8 389.5C302.2 389.2 302.3 388.5 302 388.1L293.5 376.4C293.2 376 292.6 375.9 292.1 376.2L288.6 378.6L281.7 366C281.5 365.7 281.1 365.4 280.8 365.5C280.4 365.5 280.1 365.8 279.9 366.1L270.8 388.3C270.6 388.8 270.8 389.4 271.3 389.6C271.5 389.7 271.7 389.7 271.8 389.7Z" fill="white"/>
<path d="M289 369.2C289 366.8 291 364.8 293.4 364.8C295.8 364.8 297.8 366.8 297.8 369.2C297.8 371.6 295.8 373.6 293.4 373.6C291 373.6 289 371.7 289 369.2ZM291 369.2C291 370.5 292.1 371.6 293.4 371.6C294.7 371.6 295.8 370.5 295.8 369.2C295.8 367.9 294.7 366.8 293.4 366.8C292.1 366.9 291 367.9 291 369.2Z" fill="white"/>
<path d="M282.6 448.6C288.841 448.6 293.9 443.541 293.9 437.3C293.9 431.059 288.841 426 282.6 426C276.359 426 271.3 431.059 271.3 437.3C271.3 443.541 276.359 448.6 282.6 448.6Z" fill="#666EA7"/>
<path d="M312.9 448.6C319.141 448.6 324.2 443.541 324.2 437.3C324.2 431.059 319.141 426 312.9 426C306.659 426 301.6 431.059 301.6 437.3C301.6 443.541 306.659 448.6 312.9 448.6Z" fill="#FFAE6F"/>
<path d="M342.2 448.6C348.441 448.6 353.5 443.541 353.5 437.3C353.5 431.059 348.441 426 342.2 426C335.959 426 330.9 431.059 330.9 437.3C330.9 443.541 335.959 448.6 342.2 448.6Z" fill="#E57354"/>
<path d="M251.7 291.6H146V450.5H251.7V291.6Z" fill="white" stroke="#8E92C1" stroke-miterlimit="10"/>
<path d="M246.3 296H150.5V335H246.3V296Z" stroke="#182E5A" stroke-miterlimit="10"/>
<path d="M233.8 343.8H196C195.1 343.8 194.3 343.1 194.3 342.1C194.3 341.2 195.1 340.4 196 340.4H233.8C234.7 340.4 235.5 341.1 235.5 342.1C235.4 343 234.7 343.8 233.8 343.8Z" fill="#182E5A"/>
<path d="M233.8 362.3H196C195.1 362.3 194.3 361.6 194.3 360.6C194.3 359.7 195.1 358.9 196 358.9H233.8C234.7 358.9 235.5 359.6 235.5 360.6C235.4 361.5 234.7 362.3 233.8 362.3Z" fill="#182E5A"/>
<path d="M233.8 372.9H196C195.1 372.9 194.3 372.2 194.3 371.2C194.3 370.3 195.1 369.5 196 369.5H233.8C234.7 369.5 235.5 370.2 235.5 371.2C235.4 372.1 234.7 372.9 233.8 372.9Z" fill="#182E5A"/>
<path d="M237.8 387.3H154.5C153.6 387.3 152.8 386.6 152.8 385.6C152.8 384.7 153.6 383.9 154.5 383.9H237.8C238.7 383.9 239.5 384.6 239.5 385.6C239.5 386.6 238.8 387.3 237.8 387.3Z" fill="#182E5A"/>
<path d="M237.8 399.2H154.5C153.6 399.2 152.8 398.5 152.8 397.5C152.8 396.6 153.6 395.8 154.5 395.8H237.8C238.7 395.8 239.5 396.5 239.5 397.5C239.5 398.4 238.8 399.2 237.8 399.2Z" fill="#182E5A"/>
<path d="M237.8 439.9H154.5C153.6 439.9 152.8 439.2 152.8 438.2C152.8 437.3 153.6 436.5 154.5 436.5H237.8C238.7 436.5 239.5 437.2 239.5 438.2C239.5 439.1 238.8 439.9 237.8 439.9Z" fill="#182E5A"/>
<path d="M222.7 352.2H195.8C195 352.2 194.4 351.6 194.4 350.8V350.3C194.4 349.5 195 348.9 195.8 348.9H222.7C223.5 348.9 224.1 349.5 224.1 350.3V350.8C224.1 351.5 223.4 352.2 222.7 352.2Z" fill="#182E5A"/>
<path d="M153.407 374.706H188.807V339.306H153.407V374.706Z" stroke="#182E5A" stroke-miterlimit="10"/>
<path d="M166.7 428.5C172.941 428.5 178 423.441 178 417.2C178 410.959 172.941 405.9 166.7 405.9C160.459 405.9 155.4 410.959 155.4 417.2C155.4 423.441 160.459 428.5 166.7 428.5Z" stroke="#182E5A" stroke-miterlimit="10"/>
<path d="M197.1 428.5C203.341 428.5 208.4 423.441 208.4 417.2C208.4 410.959 203.341 405.9 197.1 405.9C190.859 405.9 185.8 410.959 185.8 417.2C185.8 423.441 190.859 428.5 197.1 428.5Z" stroke="#182E5A" stroke-miterlimit="10"/>
<path d="M226.4 428.5C232.641 428.5 237.7 423.441 237.7 417.2C237.7 410.959 232.641 405.9 226.4 405.9C220.159 405.9 215.1 410.959 215.1 417.2C215.1 423.441 220.159 428.5 226.4 428.5Z" stroke="#182E5A" stroke-miterlimit="10"/>
<path d="M147.2 0C142.1 3.3 136.3 5.1 130.3 5.3L125.6 5.5V33.5C125.6 39.9 129.4 46 135.9 50.2L147.2 57.4L158.5 50.2C165 46 168.8 39.9 168.8 33.5V5.5L164.1 5.3C158.1 5.1 152.3 3.3 147.2 0Z" fill="#FFAE6F"/>
<g opacity="0.45">
<g opacity="0.45">
<path opacity="0.45" d="M147.2 7.69995C143.4 10.1 139.1 11.5 134.6 11.7L131.1 11.8V32.7C131.1 37.5 133.9 42.1 138.8 45.2L147.3 50.5999L155.8 45.2C160.7 42.1 163.5 37.5 163.5 32.7V11.8L160 11.7C155.4 11.5 151 10.1 147.2 7.69995Z" fill="#E7704F"/>
</g>
</g>
<path d="M146 38.2001C145.4 38.2001 144.8 37.9 144.4 37.5L133 23.7001C132.3 22.8001 132.4 21.5 133.3 20.8C134.2 20.1 135.5 20.2001 136.2 21.1L146.1 32.9001L164.3 10.7C165 9.80005 166.3 9.70005 167.2 10.4C168.1 11.1 168.2 12.4 167.5 13.3" fill="#182E5A"/>
<path d="M147.2 133.7V131.7" stroke="#182E5A" stroke-miterlimit="10"/>
<path d="M147.2 127.9V69.2998" stroke="#182E5A" stroke-miterlimit="10" stroke-dasharray="3.78 3.78"/>
<path d="M147.2 67.3999V65.3999" stroke="#182E5A" stroke-miterlimit="10"/>
<path d="M364.9 87.8C365.2 86.8 365.3 85.7 365.3 84.5C365.1 79.6 361.3 75.5 356.5 74.8C355.3 74.6 354.2 74.7 353.2 74.9C353.2 74.8 353.2 74.6 353.2 74.5C353.2 65.9 346.3 59 337.7 59C329.1 59 322.2 65.9 322.2 74.5C322.2 74.8 322.2 75.1 322.2 75.4C320.9 74.9 319.5 74.7 318.1 74.7C311.1 74.7 305.5 80.3 305.5 87.3C305.5 88.2 306.2 88.9 307.1 88.9H363.3C364.1 89 364.7 88.5 364.9 87.8Z" fill="white" stroke="#8E92C1" stroke-miterlimit="10"/>
<path d="M347.2 78.2H340.8V93.8H347.2V78.2Z" fill="#B0AFD5"/>
<path d="M337.9 79.9001H350.1L344 68.6001L337.9 79.9001Z" fill="#B0AFD5"/>
<path d="M327.702 84.1987H334.102V68.5987H327.702V84.1987Z" fill="#666EA7"/>
<path d="M336.9 82.3999H324.8L330.9 93.6999L336.9 82.3999Z" fill="#666EA7"/>
<path d="M335.3 156.1V154.1" stroke="#182E5A" stroke-miterlimit="10"/>
<path d="M335.3 150.4V108" stroke="#182E5A" stroke-miterlimit="10" stroke-dasharray="3.69 3.69"/>
<path d="M335.3 106.1V104.1" stroke="#182E5A" stroke-miterlimit="10"/>
<path d="M270.4 156.1V154.1" stroke="#182E5A" stroke-miterlimit="10"/>
<path d="M270.4 150.4V108" stroke="#182E5A" stroke-miterlimit="10" stroke-dasharray="3.69 3.69"/>
<path d="M270.4 106.1V104.1" stroke="#182E5A" stroke-miterlimit="10"/>
<path d="M235.4 134.1V132.1" stroke="#182E5A" stroke-miterlimit="10"/>
<path d="M235.4 128.4V108" stroke="#182E5A" stroke-miterlimit="10" stroke-dasharray="3.71 3.71"/>
<path d="M235.4 106.1V104.1" stroke="#182E5A" stroke-miterlimit="10"/>
<path d="M252.8 105.8V103.8" stroke="#182E5A" stroke-miterlimit="10"/>
<path d="M252.8 100.4V81.7" stroke="#182E5A" stroke-miterlimit="10" stroke-dasharray="3.4 3.4"/>
<path d="M252.8 80V78" stroke="#182E5A" stroke-miterlimit="10"/>
<path d="M238.9 104.9H240.9" stroke="#182E5A" stroke-miterlimit="10"/>
<path d="M244.3 104.9H263.1" stroke="#182E5A" stroke-miterlimit="10" stroke-dasharray="3.41 3.41"/>
<path d="M264.8 104.9H266.8" stroke="#182E5A" stroke-miterlimit="10"/>
<path d="M289.8 32.5H215.4C212.9 32.5 210.8 34.5 210.8 37.1V62.6C210.8 65.1 212.8 67.2 215.4 67.2H289.8C292.3 67.2 294.4 65.2 294.4 62.6V37.1C294.4 34.6 292.4 32.5 289.8 32.5Z" fill="white" stroke="#8E92C1" stroke-miterlimit="10"/>
<path d="M232.6 52H217.8V42.3C217.8 39.8 219.8 37.8 222.3 37.8H228.1C230.6 37.8 232.6 39.8 232.6 42.3V52ZM219.9 50H230.7V42.3C230.7 40.9 229.6 39.8 228.2 39.8H222.4C221 39.8 219.9 40.9 219.9 42.3V50Z" fill="#FF9652"/>
<path d="M233.5 47.8H217C216.6 47.8 216.2 48.1 216.2 48.6V62.3C216.2 63.6 217.3 64.7 218.6 64.7H231.8C233.1 64.7 234.2 63.6 234.2 62.3V48.6C234.3 48.1 234 47.8 233.5 47.8Z" fill="#FFAE6F"/>
<path d="M227.2 60.5L226 54.5C226.4 54.2 226.7 53.7 226.7 53.2C226.7 52.4 226 51.7 225.2 51.7C224.4 51.7 223.7 52.4 223.7 53.2C223.7 53.8 224 54.2 224.4 54.5L223.2 60.5H227.2Z" fill="#182E5A"/>
<path d="M267.3 45.2999H243.7C242.9 45.2999 242.3 44.7 242.3 43.9V43.0999C242.3 42.2999 242.9 41.7 243.7 41.7H267.3C268.1 41.7 268.7 42.2999 268.7 43.0999V43.9C268.7 44.6 268.1 45.2999 267.3 45.2999Z" fill="#182E5A"/>
<path d="M283.5 57.6H244.1C243.1 57.6 242.3 56.8 242.3 55.8C242.3 54.8 243.1 54 244.1 54H283.5C284.5 54 285.3 54.8 285.3 55.8C285.3 56.8 284.5 57.6 283.5 57.6Z" fill="#182E5A"/>
<path d="M57.3 84.3C57.3 84.3 77.5 75.1 78.5 98.4C79.3 117 70.8 124.5 70.8 124.5C70.8 124.5 66.3 126.5 62.5 125C58.6 123.4 53.3 120.2 50.7 113.8C48.1 107.4 46.8 109.2 46 104.8C45.1 100.4 41.2 87.2 57.3 84.3Z" fill="#F9A9A5"/>
<path d="M48.4 106.8C48.4 106.8 52.5 101.1 51.9 90.4C51.9 90.4 56.4 88.4 59.6 88.5C62.7 88.6 66.6 90.9 72.7 90.1C78.8 89.3 81.1 84.5 81.1 84.5C81.1 84.5 79.9 84.7 79.2 84.7C79.2 84.7 80.8 82.5 82.7 78.6C82.7 78.6 81.2 79 75.2 78.7C75.2 78.7 76.8 77.1 77.6 75.2C77.6 75.2 72.9 76.6 66.8 76.2C60.7 75.8 52.7 75.3 49.2 78.2C45.7 81.1 45.6 81.7 45.6 81.7C45.6 81.7 46.5 77.2 48.1 76.1C48.1 76.1 44.2 78.2 44.3 82.4C44.3 82.4 42 83 40.8 83.4C39.6 83.9 43.7 83.4 43.7 83.4C43.7 83.4 37.5 95.1 47.3 109.9L48.4 106.8Z" fill="#182E5A"/>
<path d="M45.4 81.5C45.4 81.5 47.7 76.5 52.2 74.3C56.7 72.1 65.9 72.8 69.3 71.2C69.3 71.2 67 74.7 61.6 76.8C56.2 78.8 52.1 81.3 52.1 81.3L45.4 81.5Z" fill="#182E5A"/>
<path d="M75.6 88.7999C75.6 88.7999 78.1 96.0999 78.9 99.9999C78.9 99.9999 79.2 88.9999 77.4 86.1999C75.6 83.3999 75.6 88.7999 75.6 88.7999Z" fill="#182E5A"/>
<path d="M50.2 106C50.2 106 49.7 100.7 44.5 103.3C42.4 104.3 43 110.3 49.2 110.5C49.2 110.5 51.3 109.8 50.2 106Z" fill="#FF8E84"/>
<path d="M67.4 111.8L67.2 111.7C66.9 111.3 66.9 111 67.1 110.6C67.2 110.3 67.5 110.3 67.7 110.2C67.8 110.2 67.8 110.2 67.9 110.2L68.1 110.1C68.5 110 68.8 109.9 69.1 109.7C69.4 109.5 69.7 109.1 69.6 108.8C69.6 108.6 69.4 108.5 69.3 108.3C68.1 106.6 67.5 104.5 67.5 102.4C67.5 102.3 67.6 102.2 67.7 102.2C67.8 102.2 67.9 102.3 67.9 102.4C67.9 104.4 68.5 106.4 69.6 108.1C69.7 108.3 69.9 108.5 69.9 108.7C70 109.2 69.7 109.7 69.3 110C69 110.2 68.6 110.3 68.2 110.5L68 110.6C67.9 110.6 67.9 110.6 67.8 110.7C67.6 110.7 67.5 110.8 67.4 110.9C67.3 111.3 67.3 111.4 67.5 111.7C67.5 111.5 67.5 111.7 67.4 111.8Z" fill="#D55050"/>
<path d="M60 114.1C60 114.1 66.4 115.1 72.5 113.6C72.5 113.6 70.3 118.1 66.8 118C63.3 117.9 60 114.1 60 114.1Z" fill="white"/>
<path d="M410.3 116.9C410 120.4 411.3 124.3 409.6 127.4C408.9 128.6 407.8 129.6 406.9 130.7C403.7 134.3 402.5 139.5 403.7 144.2C404.5 147.1 406.1 149.8 406.4 152.8C406.7 155.8 404.9 159.4 401.9 159.5C403.9 160.4 406.4 160.1 408.1 158.7C409.8 157.4 410.8 155.1 410.6 152.9C412.1 155.2 411.9 158.5 410 160.5C412 160.8 414.2 160 415.4 158.3C415.5 159.3 415.1 160.4 414.2 161C417.8 161.5 421.6 160.6 424.5 158.3C424.4 159.5 423.7 160.6 422.7 161.3C428.6 161.3 434.5 161.4 440.5 161.4C442.8 161.4 445 161.4 447.2 160.7C449.3 160 451.4 158.5 452.1 156.4C453.4 158.2 452.6 161 450.6 161.9C452.4 161.5 454.3 161 455.8 160C457.4 159 458.6 157.2 458.4 155.3C460.5 157.4 460 161.4 457.5 163C460.9 162.1 463.8 159.6 465.1 156.4C466.4 153.2 466.2 149.3 464.4 146.3C462.8 143.5 459.9 141.4 459 138.3C457.7 134 460.4 129 458.1 125.1C457 123.2 454.9 122.1 453.7 120.3C452.2 118.1 452.2 115.3 451.1 112.9C450 110.4 447.9 108.5 445.8 106.6C444.9 105.8 444 105 442.8 104.6C441.4 104.2 439.9 104.5 438.5 104.2C437.3 104 436.3 103.4 435.2 103C431.3 101.3 426.5 101.1 423.2 103.8C420.6 106 419.5 109.7 416.5 111.3C414.7 112.3 412.4 112.4 411.1 113.9C410.7 114.9 410.4 115.9 410.3 116.9Z" fill="#182E5A"/>
<path d="M454 166.8L442.8 161.1L441.9 140.2L426 140.8L425 161L421.2 163.2L409.5 200.4L434.7 206.2L454 166.8Z" fill="#FF8E84"/>
<path d="M423.9 462.6C423.9 462.6 422.5 459 423.3 444C424 429 409.8 447.3 409.8 447.3C409.8 447.3 412 457.3 411.3 463.4C410.5 469.5 422.4 468 422.4 468L423.9 462.6Z" fill="#FF8E84"/>
<path d="M423.9 462.6C423.9 462.6 424.9 471.9 423.4 479.2L382.1 479.9C382.1 479.9 379.6 472.8 388.7 469.9C398.2 466.9 411.3 461.3 411.3 461.3C411.3 461.3 418.3 467.5 423.9 462.6Z" fill="#FFAE6F"/>
<path d="M423.4 479.3L382.1 480C382.1 480 381.4 478.1 381.9 475.9L424 475.2C424 476.5 423.6 477.9 423.4 479.3Z" fill="#F3EDEB"/>
<path d="M411.3 469.8C411 469.8 410.7 469.7 410.4 469.6C410 469.4 409.6 469 409.3 468.4C408.8 467.5 408.5 466.4 408.5 465.1C408.5 464 408.5 463 408.8 461.9C406.8 462.4 404.8 462.9 402.8 463.2C402.3 463.3 401.8 463.4 401.3 463.4C400.8 463.4 400.3 463.3 399.9 463.1C399.5 462.9 399.2 462.7 399.2 462.3C399.1 461.9 399.3 461.4 399.8 461.1C400.9 460.3 402.3 460.2 403.6 460.2H403.7C404.6 460.2 405.5 460.3 406.5 460.4C407.6 460.5 408.8 460.7 409.8 461.5C410.4 462 410.9 462.7 411.3 463.4C411.9 464.5 412.3 465.6 412.7 466.7C412.8 467.1 413 467.7 413 468.2C413 468.8 412.7 469.4 412.2 469.6C411.8 469.8 411.6 469.8 411.3 469.8ZM409.3 461.8C409.1 462.9 409 464 409 465C409.1 466.3 409.3 467.3 409.7 468.1C409.9 468.5 410.2 468.9 410.6 469C411 469.2 411.4 469.2 411.7 469.1C412 468.9 412.2 468.5 412.2 468.1C412.2 467.7 412.1 467.2 412 466.8C411.7 465.7 411.2 464.6 410.7 463.6C410.4 463 410 462.4 409.3 461.8C409.4 461.9 409.3 461.8 409.3 461.8ZM403.7 460.8H403.6C402.4 460.8 401.1 460.9 400.1 461.6C399.9 461.8 399.6 462 399.7 462.3C399.7 462.5 400 462.6 400.1 462.7C400.8 463 401.7 462.9 402.6 462.8C404.6 462.5 406.6 462 408.5 461.5C407.8 461.2 407.1 461.1 406.4 461C405.5 460.8 404.6 460.8 403.7 460.8Z" fill="#303030"/>
<path d="M381.9 476.1C381.8 476.1 381.6 476 381.6 475.8C381.6 475.7 381.7 475.5 381.9 475.5L423.8 474.7C423.9 474.7 424.1 474.8 424.1 475C424.1 475.1 424 475.3 423.8 475.3L381.9 476.1Z" fill="#303030"/>
<path d="M412.3 475.5C412.1 475.5 412 475.3 412 475.2C413.3 466.4 422.5 466.1 423.8 466.1C423.9 466.1 424 466.1 424 466.1C424.2 466.1 424.3 466.2 424.3 466.4C424.3 466.5 424.2 466.7 424 466.7C423.9 466.7 423.9 466.7 423.7 466.7C422.1 466.7 413.7 467.1 412.5 475.4C412.5 475.4 412.4 475.5 412.3 475.5Z" fill="#303030"/>
<path d="M408.1 475.6H408L407.8 475.5C404.1 473.4 399.9 472.3 395.7 472.3H385.2C385.1 472.3 384.9 472.2 384.9 472C384.9 471.9 385 471.7 385.2 471.7H395.7C400 471.7 404.3 472.8 408.1 475L408.3 475.1C408.4 475.2 408.5 475.3 408.4 475.5C408.3 475.6 408.2 475.6 408.1 475.6Z" fill="#303030"/>
<path d="M398.5 470.4C398.4 470.4 398.3 470.4 398.3 470.3L396.3 467.5C396.2 467.4 396.2 467.2 396.4 467.1C396.5 467 396.7 467 396.8 467.2L398.7 469.8L413.1 462.7C413.2 462.6 413.4 462.7 413.5 462.8C413.6 462.9 413.5 463.1 413.4 463.2L398.8 470.3C398.6 470.4 398.5 470.4 398.5 470.4Z" fill="#303030"/>
<path d="M472.9 462.6C472.9 462.6 471.5 459 472.3 444C473 429 458.8 447.3 458.8 447.3C458.8 447.3 461 457.3 460.3 463.4C459.5 469.5 471.4 468 471.4 468L472.9 462.6Z" fill="#F9A9A5"/>
<path d="M472.9 462.6C472.9 462.6 473.9 471.9 472.4 479.2L431.1 479.9C431.1 479.9 428.6 472.8 437.7 469.9C447.2 466.9 460.3 461.3 460.3 461.3C460.3 461.3 467.4 467.5 472.9 462.6Z" fill="#FFAE6F"/>
<path d="M472.4 479.3L431.1 480C431.1 480 430.4 478.1 430.9 475.9L473 475.2C473 476.5 472.7 477.9 472.4 479.3Z" fill="#F3EDEB"/>
<path d="M460.4 469.8C460.1 469.8 459.8 469.7 459.5 469.6C459.1 469.4 458.7 469 458.4 468.4C457.9 467.5 457.6 466.4 457.6 465.1C457.6 464 457.6 463 457.9 461.9C455.9 462.4 453.9 462.9 451.9 463.2C451.4 463.3 450.9 463.4 450.4 463.4C449.9 463.4 449.4 463.3 449 463.1C448.6 462.9 448.3 462.7 448.3 462.3C448.2 461.9 448.4 461.4 448.9 461.1C450 460.3 451.4 460.2 452.7 460.2H452.8C453.7 460.2 454.6 460.3 455.6 460.4C456.7 460.5 457.9 460.7 458.9 461.5C459.5 462 460 462.7 460.4 463.4C461 464.5 461.4 465.6 461.8 466.7C461.9 467.1 462.1 467.7 462.1 468.2C462.1 468.8 461.8 469.4 461.3 469.6C460.9 469.8 460.6 469.8 460.4 469.8ZM458.4 461.8C458.2 462.9 458.1 464 458.1 465C458.1 466.3 458.4 467.3 458.8 468.1C459 468.5 459.3 468.9 459.7 469C460.1 469.2 460.5 469.2 460.8 469.1C461.1 468.9 461.3 468.5 461.3 468.1C461.3 467.7 461.2 467.2 461.1 466.8C460.8 465.7 460.3 464.6 459.8 463.6C459.4 463 459 462.4 458.4 461.8C458.4 461.9 458.4 461.9 458.4 461.8ZM452.7 460.8H452.6C451.4 460.8 450.1 460.9 449.1 461.6C448.9 461.8 448.6 462 448.7 462.3C448.7 462.5 449 462.6 449.1 462.7C449.8 463 450.7 462.9 451.6 462.8C453.6 462.5 455.6 462 457.5 461.5C456.8 461.2 456.1 461.1 455.4 461C454.5 460.8 453.6 460.8 452.7 460.8Z" fill="#303030"/>
<path d="M430.9 476.1C430.8 476.1 430.6 476 430.6 475.8C430.6 475.7 430.7 475.5 430.9 475.5L472.8 474.7C472.9 474.7 473.1 474.8 473.1 475C473.1 475.1 473 475.3 472.8 475.3L430.9 476.1Z" fill="#303030"/>
<path d="M461.3 475.5C461.1 475.5 461 475.3 461 475.2C462.3 466.4 471.5 466.1 472.8 466.1C472.9 466.1 473 466.1 473 466.1C473.2 466.1 473.3 466.2 473.3 466.4C473.3 466.5 473.2 466.7 473 466.7C472.9 466.7 472.9 466.7 472.7 466.7C471.1 466.7 462.7 467.1 461.5 475.4C461.6 475.4 461.4 475.5 461.3 475.5Z" fill="#303030"/>
<path d="M457.1 475.6H457L456.8 475.5C453.1 473.4 448.9 472.3 444.7 472.3H434.2C434.1 472.3 433.9 472.2 433.9 472C433.9 471.9 434 471.7 434.2 471.7H444.7C449 471.7 453.3 472.8 457.1 475L457.3 475.1C457.4 475.2 457.5 475.3 457.4 475.5C457.3 475.6 457.2 475.6 457.1 475.6Z" fill="#303030"/>
<path d="M447.5 470.4C447.4 470.4 447.3 470.4 447.3 470.3L445.3 467.5C445.2 467.4 445.2 467.2 445.4 467.1C445.5 467 445.7 467 445.8 467.2L447.7 469.8L462.1 462.7C462.2 462.6 462.4 462.7 462.5 462.8C462.6 462.9 462.5 463.1 462.4 463.2L447.8 470.3C447.6 470.4 447.6 470.4 447.5 470.4Z" fill="#303030"/>
<path d="M425.3 154.4L425.7 145.2L441.9 141.5C441.9 141.5 439.8 154.2 425.3 154.4Z" fill="#F27971"/>
<path d="M409.8 199.7C409.8 199.7 400 229.6 395.6 231.2C391.2 232.8 344.3 222.8 344.3 222.8L345.2 215.9L386.4 216L400.9 177.5L409.8 199.7Z" fill="#FF8E84"/>
<path d="M446.4 237.4C446.4 237.4 446.1 226.7 455 205.1L456.4 218.5L480.2 216.4C480.2 216.4 475 175.4 470.2 172.4C465.4 169.3 446.8 162.4 446.8 162.4C446.8 162.4 429.2 171.3 423.4 161.7C423.4 161.7 407.9 166.9 403.4 168.6C398.9 170.3 391.3 199.2 391.3 199.2L398.2 203C398.2 203 398.2 211.3 404.7 214.4L409.9 240.9L430.2 246.8L446.4 237.4Z" fill="white"/>
<path d="M398.2 203.3C398.1 203.3 397.9 203.2 397.9 203C397.9 200.5 399.9 197 402 193.3C404 189.8 406.1 186.1 406.4 183.2C406.4 183.1 406.5 183 406.7 183C406.8 183 406.9 183.2 406.9 183.3C406.5 186.3 404.4 190 402.4 193.6C400.3 197.3 398.4 200.7 398.4 203.1C398.4 203.2 398.3 203.3 398.2 203.3Z" fill="#E0E0FC"/>
<path d="M422.2 206.7C422.2 206.7 432.8 215.5 445.2 207.7C445.2 207.7 433.3 221.7 422.2 206.7Z" fill="#E0E0FC"/>
<path d="M446.4 237.4C446.4 237.4 419.5 242.9 409.2 238.1C409.2 238.1 397.5 261.5 395.1 287.3C393.3 306.8 407.3 419 406.6 456.8H425.8L430.2 297.3C430.2 297.3 454.7 433 456 454.7L476.3 454.2C476.3 454.2 473.2 383.1 471.1 366.9C469 350.7 471.4 282.9 466.3 268.8C461.2 254.6 446.4 237.4 446.4 237.4Z" fill="#182E5A"/>
<path d="M460.3 218.2C460.3 218.2 462.9 231.8 462.9 234.6C462.9 237.4 478.8 249.8 478.8 235C478.8 226.1 476.9 216.6 476.9 216.6L460.3 218.2Z" fill="#F9A9A5"/>
<path d="M444.5 132.7C444.5 132.7 445.8 128.5 449.3 131.5C450.7 132.7 449.2 137.4 444.5 136.5C444.5 136.5 443.1 135.6 444.5 132.7Z" fill="#FF8E84"/>
<path d="M357.1 216L344.7 215C344.7 215 334 216.9 333.8 218.3C333.6 219.7 337.2 229.6 337.2 229.6C337.2 229.6 343.2 226.8 350.1 223.8C350.2 223.8 359 225.8 359 225.8L357.1 216Z" fill="#FF8E84"/>
<path d="M349.3 215.7C349.3 215.7 345.4 213.7 339.2 212.4C336.9 211.9 331.8 208.8 331.5 210.4C331.3 212 338.1 214.8 338.1 215.3C338.1 215.8 334.4 217.5 334.4 217.5L340.9 218.2L349.3 215.7Z" fill="#FF8E84"/>
<path d="M336.8 217.1C336.8 217.1 321.6 218.7 321.5 220C321.4 221.3 333.8 220.3 333.8 220.3C333.8 220.3 320.6 223.8 320.8 225C320.9 226.2 335 223.4 335 223.4C335 223.4 323.1 229.2 323.5 230.2C323.9 231.3 336.3 226.5 336.3 226.5C336.3 226.5 327.7 232.8 328.1 233.7C328.5 234.6 337.1 229.4 337.1 229.4L342.8 226L336.8 217.1Z" fill="#FF8E84"/>
<path d="M249.2 283.8H414.3C420.5 283.8 425.5 278.8 425.5 272.6V163.3H237.9V272.7C237.9 278.8 243 283.8 249.2 283.8Z" fill="#666EA7"/>
<path d="M433.5 240.3L422.2 237.2C422.2 237.2 411.9 237.1 411.5 238.4C411.1 239.7 412.7 249.4 412.7 249.4C412.7 249.4 418.8 247.8 425.7 246.3C425.8 246.3 437.4 248.2 437.4 248.2L433.5 240.3Z" fill="#F9A9A5"/>
<path d="M426.3 238.7C426.3 238.7 423 236.2 417.5 233.9C415.4 233 411.3 229.3 410.8 230.7C410.3 232.1 416.1 235.9 416 236.4C415.9 236.9 412.2 237.8 412.2 237.8L418.1 239.6L426.3 238.7Z" fill="#F9A9A5"/>
<path d="M414.5 237.8C414.5 237.8 400.1 236.6 399.8 237.8C399.5 239 411.2 240.3 411.2 240.3C411.2 240.3 398.4 241.2 398.3 242.4C398.2 243.6 411.7 243.4 411.7 243.4C411.7 243.4 399.6 246.7 399.9 247.7C400.1 248.8 412.4 246.5 412.4 246.5C412.4 246.5 403.3 250.8 403.6 251.7C403.8 252.6 412.7 249.3 412.7 249.3L418.6 247.1L414.5 237.8Z" fill="#F9A9A5"/>
<path d="M426.3 238.7L463.6 231.5L478 239.7C478 239.7 479.9 247.1 467.6 249.7C455.3 252.3 425.7 246.3 425.7 246.3L426.3 238.7Z" fill="#F9A9A5"/>
<path d="M425.5 163.1H237.9V171.3H425.5V163.1Z" fill="#8E92C1"/>
<path d="M245.9 167.3C245.9 166.2 245 165.3 243.9 165.3C242.8 165.3 241.9 166.2 241.9 167.3C241.9 168.4 242.8 169.3 243.9 169.3C245 169.3 245.9 168.4 245.9 167.3Z" fill="#E57354"/>
<path d="M252.9 167.3C252.9 166.2 252 165.3 250.9 165.3C249.8 165.3 248.9 166.2 248.9 167.3C248.9 168.4 249.8 169.3 250.9 169.3C252.1 169.3 252.9 168.4 252.9 167.3Z" fill="#FFAE6F"/>
<path d="M260.2 167.3C260.2 166.2 259.3 165.3 258.2 165.3C257.1 165.3 256.2 166.2 256.2 167.3C256.2 168.4 257.1 169.3 258.2 169.3C259.3 169.3 260.2 168.4 260.2 167.3Z" fill="#E0E0FC"/>
<path d="M270.5 185.6H251.4C250.3 185.6 249.5 184.7 249.5 183.7C249.5 182.6 250.4 181.8 251.4 181.8H270.5C271.6 181.8 272.4 182.7 272.4 183.7C272.4 184.7 271.6 185.6 270.5 185.6Z" fill="#FFAE6F"/>
<path d="M276.8 193.3H257.7C256.6 193.3 255.8 192.4 255.8 191.4C255.8 190.3 256.7 189.5 257.7 189.5H276.8C277.9 189.5 278.7 190.4 278.7 191.4C278.8 192.4 277.9 193.3 276.8 193.3Z" fill="#F0896B"/>
<path d="M340.5 202.7H268.4C267.3 202.7 266.5 201.8 266.5 200.8C266.5 199.7 267.4 198.9 268.4 198.9H340.5C341.6 198.9 342.4 199.8 342.4 200.8C342.4 201.8 341.6 202.7 340.5 202.7Z" fill="white"/>
<path d="M355.1 222.1H283C281.9 222.1 281.1 221.2 281.1 220.2C281.1 219.1 282 218.3 283 218.3H355.1C356.2 218.3 357 219.2 357 220.2C357 221.2 356.1 222.1 355.1 222.1Z" fill="white"/>
<path d="M386.7 230.5H283C281.9 230.5 281.1 229.6 281.1 228.6C281.1 227.5 282 226.7 283 226.7H386.8C387.9 226.7 388.7 227.6 388.7 228.6C388.6 229.6 387.8 230.5 386.7 230.5Z" fill="white"/>
<path d="M379.8 212.6H268.4C267.3 212.6 266.5 211.7 266.5 210.7C266.5 209.6 267.4 208.8 268.4 208.8H379.8C380.9 208.8 381.7 209.7 381.7 210.7C381.8 211.8 380.9 212.6 379.8 212.6Z" fill="white"/>
<path d="M270.5 244.5H251.4C250.3 244.5 249.5 243.6 249.5 242.6C249.5 241.5 250.4 240.7 251.4 240.7H270.5C271.6 240.7 272.4 241.6 272.4 242.6C272.4 243.6 271.6 244.5 270.5 244.5Z" fill="#FFAE6F"/>
<path d="M276.8 252.2H257.7C256.6 252.2 255.8 251.3 255.8 250.3C255.8 249.2 256.7 248.4 257.7 248.4H276.8C277.9 248.4 278.7 249.3 278.7 250.3C278.8 251.3 277.9 252.2 276.8 252.2Z" fill="#F0896B"/>
<path d="M340.5 261.6H268.4C267.3 261.6 266.5 260.7 266.5 259.7C266.5 258.6 267.4 257.8 268.4 257.8H340.5C341.6 257.8 342.4 258.7 342.4 259.7C342.4 260.7 341.6 261.6 340.5 261.6Z" fill="white"/>
<path d="M379.8 271.5H268.4C267.3 271.5 266.5 270.6 266.5 269.6C266.5 268.5 267.4 267.7 268.4 267.7H379.8C380.9 267.7 381.7 268.6 381.7 269.6C381.8 270.7 380.9 271.5 379.8 271.5Z" fill="white"/>
<path d="M276.5 221.2C277.715 221.2 278.7 220.215 278.7 219C278.7 217.785 277.715 216.8 276.5 216.8C275.285 216.8 274.3 217.785 274.3 219C274.3 220.215 275.285 221.2 276.5 221.2Z" fill="#FFAE6F"/>
<path d="M276.5 231.2C277.715 231.2 278.7 230.215 278.7 229C278.7 227.785 277.715 226.8 276.5 226.8C275.285 226.8 274.3 227.785 274.3 229C274.3 230.215 275.285 231.2 276.5 231.2Z" fill="#FFAE6F"/>
<path d="M430.1 113C430.1 113 414.8 114 416.7 131.2C418.6 148.4 428.8 152.5 428.8 152.5C428.8 152.5 432.8 153.1 435.5 150.7C438.2 148.3 441.6 143.9 442.2 137.5C442.8 131.1 444.2 132.3 443.8 128.2C443.5 124.2 443.5 111.4 430.1 113Z" fill="#F9A9A5"/>
<path d="M414.5 125.4C414.6 122.1 414.6 118.7 416 115.7C417 113.7 418.5 112 419.9 110.4C421.1 109 422.4 107.6 423.9 106.6C426.2 105.1 429 104.4 431.7 104.4C435.8 104.3 440 105.6 443.3 108.2C447.1 111.2 449.4 115.9 449.7 120.7C450.1 125.5 448.5 130.4 445.5 134.2C442.3 132.1 439.8 128.9 438.7 125.2C438.2 123.5 437.9 121.7 437.3 120C436.6 118.3 435.4 116.8 433.6 116.3C432.9 116.1 432.2 116.1 431.5 115.9C430.7 115.6 430 114.9 429.1 114.6C426.8 113.8 424.6 116.1 424 118.4C423.3 120.7 423.5 123.3 422.2 125.3C421.4 126.6 420.1 127.6 419 128.8C416.3 131.7 415.2 135.9 416.1 139.8C414.4 135.3 414.5 130.3 414.5 125.4Z" fill="#182E5A"/>
<path d="M427.2 138.6C427.3 138.6 427.3 138.6 427.3 138.5C427.5 138.3 427.6 137.9 427.5 137.6C427.5 137.5 427.4 137.5 427.4 137.5C427 137.4 426.7 137.4 426.3 137.2C426 137.1 425.8 136.8 425.8 136.4C425.8 136.1 425.9 135.9 426.1 135.6L426.2 135.5C427.2 133.8 427.2 131.6 427.2 129.9C427.2 129.8 427.1 129.7 427 129.7C426.9 129.7 426.8 129.8 426.8 129.9C426.8 131.7 426.8 133.7 425.9 135.4L425.8 135.5C425.6 135.8 425.4 136.1 425.5 136.5C425.5 136.9 425.8 137.4 426.2 137.6C426.5 137.8 426.9 137.9 427.3 137.9C427.3 138.1 427.3 138.2 427.2 138.4C427 138.4 427 138.5 427.2 138.6C427.1 138.5 427.2 138.6 427.2 138.6Z" fill="#E05252"/>
<path d="M422.4 140.7C422.4 140.7 431.5 141.5 433.7 140.6C433.7 140.6 429.7 145.6 426.6 145C423.4 144.4 422.4 140.7 422.4 140.7Z" fill="white"/>
</g>
<defs>
<clipPath id="clip0_36_1679">
<rect width="480" height="480" fill="white"/>
</clipPath>
</defs>
</svg>
