<svg width="264" height="264" viewBox="0 0 264 264" fill="none" xmlns="http://www.w3.org/2000/svg">
<g clip-path="url(#clip0_21_3922)">
<path d="M232.8 222.64C232.8 222.64 227.86 246.94 232.81 260.53L127.38 260.96L127.37 222.25L232.8 222.64Z" fill="#FFE8DB"/>
<path d="M186.06 238.71L230.62 243.92C230.61 242.37 230.64 240.82 230.71 239.31L186.06 238.71Z" fill="#FFE8DB"/>
<path d="M230.89 249.8L146.22 248.29L231.39 253.76C231.17 252.48 231.01 251.15 230.89 249.8Z" fill="#FFE8DB"/>
<path d="M231.01 234.62C231.14 233.12 231.28 231.69 231.44 230.36L163.51 230.68L231.01 234.62Z" fill="#FFE8DB"/>
<path d="M133.34 222.14C133.34 222.14 140.55 232.13 140.55 242.63C140.55 253.13 131.6 261.68 131.6 261.68L133.34 222.14Z" fill="#182E5A"/>
<path d="M134.79 257.66L134.78 224.71L234.04 224.69C235.63 224.69 236.92 223.4 236.92 221.81C236.92 220.22 235.63 218.93 234.04 218.93L13.32 218.98C11.26 218.98 9.57999 220.65 9.57999 222.72L9.58999 259.72C9.58999 261.78 11.26 263.46 13.33 263.46L234.05 263.42C235.64 263.42 236.93 262.13 236.93 260.54C236.93 258.95 235.64 257.66 234.05 257.66H134.79Z" fill="#FFAE6F"/>
<path d="M236.89 260.53C236.89 258.94 235.6 257.65 234.01 257.65L134.75 257.67L134.74 224.72L234 224.7C235.59 224.7 236.88 223.41 236.88 221.82C236.88 220.31 235.72 219.09 234.24 218.96L132.45 218.98C130.39 218.98 128.71 220.65 128.71 222.72L128.72 259.72C128.72 261.71 130.27 263.31 132.23 263.43L234.01 263.41C235.6 263.41 236.89 262.12 236.89 260.53Z" fill="#F0896B"/>
<path d="M116.15 241.25C116.15 236.44 112.25 232.55 107.45 232.55C102.65 232.55 98.75 236.45 98.75 241.25C98.75 246.05 102.65 249.95 107.45 249.95C112.25 249.95 116.15 246.05 116.15 241.25Z" fill="#182E5A"/>
<path d="M107.45 251.18C101.97 251.18 97.51 246.72 97.51 241.24C97.51 235.76 101.97 231.3 107.44 231.3C112.92 231.3 117.38 235.76 117.38 241.23C117.38 246.73 112.93 251.18 107.45 251.18ZM107.44 233.78C103.33 233.78 99.98 237.13 99.98 241.25C99.98 245.37 103.33 248.72 107.45 248.72C111.57 248.72 114.91 245.37 114.91 241.25C114.91 237.13 111.56 233.78 107.44 233.78Z" fill="#E0E0FC"/>
<path d="M25.38 233.46H28.9V239.41H35.72V233.46H39.23V249.41H35.72V242.52H28.9V249.41H25.38V233.46Z" fill="white"/>
<path d="M45.56 236.57H41.01V233.46H53.63V236.57H49.08V249.41H45.57V236.57H45.56Z" fill="white"/>
<path d="M55.41 233.46H60.73L64.4 243.87H64.44L68.13 233.46H73.42V249.41H69.91V237.18H69.86L65.67 249.41H63L58.97 237.18H58.93V249.41H55.41V233.46Z" fill="white"/>
<path d="M76.8 233.46H80.31V246.16H86.82V249.4H76.8V233.46Z" fill="white"/>
<path d="M245.92 202.73C245.92 205.21 244.06 207.23 241.78 207.23H18.02C15.74 207.23 13.88 205.2 13.88 202.73L12.02 62.69C12.02 60.21 14.7 55.38 19.61 55.74L238.3 49.58C241.16 49.5 243.92 50.7 245.94 52.89C247.96 55.08 249.07 58.09 249 61.19L245.92 202.73Z" fill="#1E2136"/>
<path d="M241.83 198.41C241.83 200.75 240.07 202.67 237.92 202.67H23.41C21.26 202.67 19.5 200.75 19.5 198.41L17.74 71.29C17.95 63.64 24.11 60.89 27.84 61.05C27.84 61.05 198.76 56.06 237.43 54.93C239.44 54.87 241.38 55.71 242.8 57.26C244.22 58.8 245 60.92 244.95 63.1L241.83 198.41Z" fill="#666EA7"/>
<path d="M261.65 218.85H2.68001C1.35001 218.85 0.26001 217.76 0.26001 216.43V208.96C0.26001 207.63 1.35001 206.54 2.68001 206.54H261.65C262.98 206.54 264.07 207.63 264.07 208.96V216.43C264.07 217.76 262.98 218.85 261.65 218.85Z" fill="#1E2136"/>
<path d="M150.77 209.34C164.113 209.34 174.93 198.523 174.93 185.18C174.93 171.837 164.113 161.02 150.77 161.02C137.427 161.02 126.61 171.837 126.61 185.18C126.61 198.523 137.427 209.34 150.77 209.34Z" fill="#FFAE6F"/>
<path d="M126.83 183.76L132.92 180.58V181.93C132.92 182.03 132.89 182.13 132.84 182.21C132.79 182.29 132.7 182.37 132.59 182.43L129.8 183.86C129.68 183.92 129.56 183.97 129.43 184.02C129.3 184.06 129.16 184.1 129.01 184.14C129.16 184.18 129.3 184.22 129.43 184.26C129.56 184.3 129.69 184.36 129.8 184.42L132.59 185.86C132.71 185.92 132.79 185.99 132.84 186.08C132.89 186.16 132.92 186.26 132.92 186.36V187.71L126.83 184.52V183.76Z" fill="white"/>
<path d="M135.71 189.33V177.9H137.61V182.29C137.92 182 138.26 181.76 138.63 181.58C139 181.4 139.43 181.31 139.93 181.31C140.36 181.31 140.74 181.38 141.08 181.53C141.41 181.68 141.69 181.88 141.91 182.15C142.13 182.41 142.3 182.73 142.42 183.1C142.54 183.47 142.59 183.87 142.59 184.31V189.34H140.69V184.31C140.69 183.83 140.58 183.45 140.36 183.19C140.14 182.93 139.8 182.79 139.36 182.79C139.03 182.79 138.72 182.86 138.44 183.01C138.15 183.16 137.88 183.36 137.62 183.62V189.33H135.71Z" fill="white"/>
<path d="M147.05 189.46C146.37 189.46 145.84 189.27 145.47 188.88C145.1 188.49 144.92 187.96 144.92 187.28V182.87H144.12C144.02 182.87 143.93 182.84 143.85 182.77C143.78 182.7 143.74 182.6 143.74 182.47V181.72L145.01 181.51L145.41 179.36C145.43 179.26 145.48 179.18 145.55 179.12C145.62 179.06 145.72 179.04 145.83 179.04H146.81V181.53H148.89V182.88H146.81V187.16C146.81 187.41 146.87 187.6 146.99 187.74C147.11 187.88 147.28 187.95 147.48 187.95C147.6 187.95 147.7 187.94 147.78 187.91C147.86 187.88 147.93 187.85 147.99 187.82C148.05 187.79 148.1 187.76 148.15 187.73C148.2 187.7 148.24 187.69 148.29 187.69C148.35 187.69 148.39 187.7 148.43 187.73C148.47 187.76 148.5 187.8 148.55 187.86L149.12 188.78C148.84 189.01 148.52 189.19 148.17 189.3C147.81 189.4 147.43 189.46 147.05 189.46Z" fill="white"/>
<path d="M150.41 189.33V181.43H151.57C151.82 181.43 151.98 181.55 152.05 181.78L152.17 182.36C152.31 182.21 152.45 182.06 152.6 181.94C152.75 181.81 152.91 181.7 153.08 181.61C153.25 181.52 153.44 181.44 153.63 181.39C153.83 181.34 154.04 181.31 154.28 181.31C154.78 181.31 155.19 181.44 155.51 181.71C155.83 181.98 156.07 182.34 156.23 182.78C156.35 182.52 156.51 182.29 156.69 182.11C156.87 181.92 157.08 181.77 157.3 181.65C157.52 181.53 157.76 181.45 158 181.39C158.25 181.33 158.5 181.31 158.75 181.31C159.19 181.31 159.57 181.38 159.91 181.51C160.25 181.64 160.53 181.84 160.76 182.09C160.99 182.35 161.17 182.66 161.29 183.03C161.41 183.4 161.47 183.82 161.47 184.3V189.33H159.57V184.3C159.57 183.8 159.46 183.42 159.24 183.16C159.02 182.91 158.7 182.78 158.27 182.78C158.08 182.78 157.89 182.81 157.73 182.88C157.56 182.95 157.42 183.04 157.29 183.17C157.16 183.3 157.07 183.45 156.99 183.64C156.92 183.83 156.88 184.05 156.88 184.29V189.32H154.97V184.29C154.97 183.76 154.86 183.38 154.65 183.14C154.44 182.9 154.12 182.78 153.71 182.78C153.44 182.78 153.18 182.85 152.94 182.98C152.7 183.12 152.48 183.3 152.27 183.54V189.32H150.41V189.33Z" fill="white"/>
<path d="M165.4 177.9V189.34H163.5V177.9H165.4Z" fill="white"/>
<path d="M168.29 187.72V186.37C168.29 186.27 168.32 186.17 168.37 186.09C168.42 186.01 168.51 185.93 168.62 185.87L171.41 184.43C171.64 184.32 171.9 184.22 172.2 184.15C172.05 184.11 171.91 184.07 171.78 184.03C171.65 183.99 171.52 183.93 171.41 183.87L168.62 182.44C168.5 182.38 168.42 182.31 168.37 182.22C168.32 182.14 168.29 182.04 168.29 181.94V180.59L174.38 183.77V184.54L168.29 187.72Z" fill="white"/>
<path d="M78.5677 114.029C81.3408 102.285 74.0684 90.5164 62.3244 87.7433C50.5804 84.9702 38.8119 92.2426 36.0388 103.987C33.2657 115.731 40.5381 127.499 52.2821 130.272C64.0261 133.045 75.7946 125.773 78.5677 114.029Z" fill="#FFAE6F"/>
<path d="M37.99 108L42.65 105.57V106.61C42.65 106.69 42.63 106.76 42.59 106.82C42.55 106.88 42.49 106.94 42.4 106.99L40.26 108.09C40.17 108.14 40.07 108.18 39.97 108.21C39.87 108.24 39.76 108.27 39.65 108.3C39.76 108.33 39.87 108.36 39.97 108.39C40.07 108.42 40.17 108.46 40.26 108.51L42.4 109.61C42.49 109.66 42.55 109.71 42.59 109.78C42.63 109.84 42.65 109.92 42.65 110V111.04L37.99 108.6V108Z" fill="white"/>
<path d="M44.78 112.26V103.51H46.23V106.87C46.47 106.65 46.72 106.47 47.01 106.33C47.29 106.19 47.62 106.12 48 106.12C48.33 106.12 48.62 106.18 48.88 106.29C49.14 106.4 49.35 106.56 49.52 106.76C49.69 106.96 49.82 107.2 49.91 107.48C50 107.76 50.04 108.07 50.04 108.41V112.25H48.59V108.41C48.59 108.04 48.5 107.76 48.33 107.55C48.16 107.35 47.9 107.25 47.56 107.25C47.31 107.25 47.07 107.31 46.85 107.42C46.63 107.53 46.42 107.69 46.23 107.89V112.26H44.78Z" fill="white"/>
<path d="M53.97 106.13C54.35 106.13 54.7 106.19 55.02 106.31C55.34 106.43 55.62 106.61 55.85 106.84C56.08 107.07 56.26 107.36 56.39 107.7C56.52 108.04 56.58 108.43 56.58 108.86C56.58 108.97 56.58 109.06 56.57 109.13C56.56 109.2 56.54 109.26 56.52 109.3C56.49 109.34 56.46 109.37 56.42 109.39C56.38 109.41 56.32 109.42 56.26 109.42H52.53C52.57 110.04 52.74 110.5 53.03 110.79C53.32 111.08 53.7 111.23 54.18 111.23C54.42 111.23 54.62 111.2 54.79 111.15C54.96 111.1 55.11 111.03 55.24 110.97C55.37 110.9 55.48 110.84 55.58 110.79C55.68 110.74 55.77 110.71 55.86 110.71C55.92 110.71 55.97 110.72 56.01 110.75C56.05 110.77 56.09 110.81 56.12 110.85L56.54 111.38C56.38 111.57 56.2 111.73 56 111.85C55.8 111.98 55.59 112.08 55.37 112.16C55.15 112.24 54.93 112.29 54.7 112.32C54.47 112.35 54.26 112.37 54.04 112.37C53.62 112.37 53.23 112.3 52.87 112.16C52.51 112.02 52.19 111.81 51.93 111.54C51.66 111.27 51.45 110.93 51.3 110.53C51.15 110.13 51.07 109.66 51.07 109.13C51.07 108.72 51.14 108.33 51.27 107.97C51.4 107.61 51.59 107.29 51.84 107.02C52.09 106.75 52.39 106.54 52.75 106.38C53.11 106.21 53.52 106.13 53.97 106.13ZM54 107.17C53.58 107.17 53.24 107.29 53.01 107.53C52.77 107.77 52.62 108.11 52.55 108.55H55.28C55.28 108.36 55.25 108.18 55.2 108.02C55.15 107.85 55.07 107.71 54.96 107.58C54.85 107.45 54.72 107.36 54.56 107.28C54.4 107.21 54.21 107.17 54 107.17Z" fill="white"/>
<path d="M62.5 112.26H61.85C61.71 112.26 61.6 112.24 61.53 112.2C61.45 112.16 61.39 112.08 61.35 111.95L61.22 111.52C61.07 111.66 60.92 111.78 60.77 111.88C60.62 111.98 60.47 112.07 60.31 112.14C60.15 112.21 59.99 112.26 59.81 112.3C59.63 112.34 59.44 112.35 59.22 112.35C58.96 112.35 58.73 112.32 58.51 112.25C58.29 112.18 58.11 112.08 57.95 111.94C57.79 111.8 57.67 111.63 57.59 111.43C57.5 111.23 57.46 110.99 57.46 110.72C57.46 110.49 57.52 110.27 57.64 110.04C57.76 109.82 57.96 109.62 58.24 109.44C58.52 109.26 58.89 109.11 59.35 108.99C59.81 108.87 60.39 108.81 61.07 108.81V108.45C61.07 108.04 60.98 107.74 60.81 107.55C60.64 107.35 60.39 107.26 60.07 107.26C59.83 107.26 59.64 107.29 59.48 107.34C59.32 107.39 59.19 107.46 59.07 107.53C58.95 107.6 58.85 107.66 58.75 107.72C58.65 107.78 58.54 107.8 58.43 107.8C58.33 107.8 58.25 107.77 58.18 107.72C58.11 107.67 58.05 107.61 58.01 107.53L57.75 107.07C58.44 106.43 59.28 106.12 60.26 106.12C60.61 106.12 60.93 106.18 61.2 106.29C61.48 106.41 61.71 106.57 61.9 106.77C62.09 106.98 62.24 107.22 62.34 107.51C62.44 107.8 62.49 108.11 62.49 108.45V112.26H62.5ZM59.67 111.36C59.82 111.36 59.96 111.35 60.08 111.32C60.21 111.29 60.32 111.25 60.44 111.2C60.55 111.15 60.66 111.08 60.76 111C60.86 110.92 60.97 110.83 61.07 110.72V109.71C60.65 109.71 60.29 109.74 60.01 109.79C59.73 109.84 59.5 109.91 59.32 109.99C59.15 110.07 59.02 110.17 58.95 110.28C58.88 110.39 58.84 110.51 58.84 110.64C58.84 110.9 58.92 111.08 59.07 111.19C59.23 111.3 59.43 111.36 59.67 111.36Z" fill="white"/>
<path d="M68.18 112.26C67.99 112.26 67.87 112.17 67.81 111.99L67.69 111.41C67.56 111.55 67.43 111.68 67.3 111.79C67.16 111.9 67.01 112 66.86 112.08C66.7 112.16 66.53 112.23 66.35 112.27C66.17 112.32 65.97 112.34 65.76 112.34C65.43 112.34 65.13 112.27 64.85 112.13C64.58 111.99 64.34 111.79 64.14 111.53C63.94 111.27 63.79 110.95 63.68 110.56C63.57 110.18 63.52 109.74 63.52 109.24C63.52 108.79 63.58 108.38 63.7 107.99C63.82 107.61 64 107.27 64.22 106.99C64.45 106.71 64.72 106.49 65.04 106.33C65.36 106.17 65.71 106.09 66.11 106.09C66.45 106.09 66.74 106.14 66.98 106.25C67.22 106.36 67.43 106.5 67.62 106.68V103.49H69.07V112.24H68.18V112.26ZM66.24 111.2C66.54 111.2 66.8 111.14 67.01 111.01C67.22 110.88 67.42 110.71 67.61 110.47V107.76C67.44 107.56 67.27 107.42 67.07 107.34C66.88 107.26 66.67 107.22 66.44 107.22C66.22 107.22 66.02 107.26 65.84 107.34C65.66 107.42 65.51 107.55 65.39 107.71C65.27 107.88 65.17 108.09 65.1 108.35C65.03 108.61 65 108.91 65 109.26C65 109.61 65.03 109.91 65.09 110.16C65.15 110.41 65.23 110.61 65.33 110.76C65.44 110.92 65.57 111.03 65.72 111.1C65.89 111.16 66.06 111.2 66.24 111.2Z" fill="white"/>
<path d="M71.21 111.03V109.99C71.21 109.91 71.23 109.84 71.27 109.77C71.31 109.71 71.37 109.65 71.46 109.6L73.6 108.5C73.77 108.41 73.97 108.34 74.21 108.29C74.1 108.26 73.99 108.23 73.89 108.2C73.79 108.17 73.69 108.13 73.6 108.08L71.46 106.98C71.37 106.93 71.3 106.88 71.27 106.81C71.23 106.75 71.21 106.67 71.21 106.6V105.56L75.87 107.99V108.58L71.21 111.03Z" fill="white"/>
<path d="M129.87 152.71C148.112 152.71 162.9 137.922 162.9 119.68C162.9 101.438 148.112 86.65 129.87 86.65C111.628 86.65 96.84 101.438 96.84 119.68C96.84 137.922 111.628 152.71 129.87 152.71Z" fill="white"/>
<path d="M112.41 119.74L121.96 114.76V116.88C121.96 117.04 121.92 117.19 121.84 117.32C121.76 117.45 121.63 117.57 121.44 117.66L117.06 119.9C116.88 120 116.68 120.08 116.48 120.15C116.28 120.22 116.06 120.28 115.82 120.34C116.05 120.4 116.27 120.46 116.48 120.53C116.69 120.6 116.88 120.68 117.06 120.78L121.44 123.03C121.62 123.13 121.76 123.24 121.84 123.37C121.92 123.5 121.96 123.65 121.96 123.81V125.93L112.41 120.94V119.74Z" fill="url(#paint0_linear_21_3922)"/>
<path d="M127.34 128.5C127.27 128.69 127.18 128.85 127.06 128.98C126.95 129.12 126.82 129.23 126.67 129.32C126.53 129.41 126.37 129.48 126.21 129.53C126.05 129.58 125.89 129.6 125.74 129.6H124.49L131.53 111.59C131.67 111.25 131.86 110.99 132.12 110.81C132.38 110.63 132.69 110.54 133.05 110.54H134.32L127.34 128.5Z" fill="url(#paint1_linear_21_3922)"/>
<path d="M136.81 125.93V123.81C136.81 123.65 136.85 123.5 136.93 123.37C137.01 123.24 137.14 123.12 137.33 123.03L141.71 120.78C142.06 120.6 142.48 120.46 142.95 120.35C142.72 120.29 142.5 120.23 142.29 120.16C142.09 120.09 141.89 120.01 141.71 119.91L137.33 117.67C137.15 117.57 137.01 117.46 136.93 117.33C136.85 117.2 136.81 117.05 136.81 116.89V114.77L146.36 119.75V120.96L136.81 125.93Z" fill="url(#paint2_linear_21_3922)"/>
<path d="M89.3261 191.629C101.623 186.535 107.463 172.437 102.369 160.139C97.2753 147.842 83.1772 142.003 70.88 147.097C58.5828 152.19 52.7433 166.288 57.8371 178.586C62.9308 190.883 77.029 196.722 89.3261 191.629Z" fill="#F46C6B"/>
<path d="M66.48 172.16V176.3H64.3V164.55H68.13C68.92 164.55 69.59 164.64 70.17 164.83C70.74 165.01 71.22 165.27 71.59 165.6C71.96 165.93 72.24 166.33 72.42 166.79C72.6 167.25 72.69 167.75 72.69 168.3C72.69 168.87 72.6 169.39 72.41 169.86C72.22 170.33 71.94 170.74 71.56 171.08C71.18 171.42 70.71 171.69 70.14 171.88C69.57 172.07 68.91 172.16 68.14 172.16H66.48ZM66.48 170.45H68.12C68.52 170.45 68.87 170.4 69.17 170.3C69.47 170.2 69.71 170.06 69.91 169.87C70.11 169.68 70.25 169.46 70.35 169.19C70.45 168.92 70.5 168.62 70.5 168.29C70.5 167.98 70.45 167.69 70.35 167.44C70.25 167.19 70.11 166.97 69.91 166.79C69.72 166.61 69.47 166.47 69.17 166.38C68.87 166.29 68.52 166.24 68.12 166.24H66.48V170.45Z" fill="white"/>
<path d="M84.29 176.29H82.09V171.16H76.58V176.29H74.38V164.54H76.58V169.59H82.09V164.54H84.29V176.29Z" fill="white"/>
<path d="M88.92 172.16V176.3H86.73V164.55H90.56C91.35 164.55 92.02 164.64 92.6 164.83C93.17 165.01 93.65 165.27 94.02 165.6C94.39 165.93 94.67 166.33 94.85 166.79C95.03 167.25 95.12 167.75 95.12 168.3C95.12 168.87 95.03 169.39 94.84 169.86C94.65 170.33 94.37 170.74 93.99 171.08C93.61 171.42 93.14 171.69 92.57 171.88C92 172.07 91.34 172.16 90.57 172.16H88.92ZM88.92 170.45H90.56C90.96 170.45 91.31 170.4 91.61 170.3C91.91 170.2 92.15 170.06 92.35 169.87C92.55 169.68 92.69 169.46 92.79 169.19C92.89 168.92 92.94 168.62 92.94 168.29C92.94 167.98 92.89 167.69 92.79 167.44C92.69 167.19 92.55 166.97 92.35 166.79C92.16 166.61 91.91 166.47 91.61 166.38C91.31 166.29 90.96 166.24 90.56 166.24H88.92V170.45Z" fill="white"/>
<path d="M238.041 112.277C241.689 96.83 232.123 81.3506 216.676 77.7031C201.229 74.0555 185.749 83.6211 182.102 99.0684C178.454 114.516 188.02 129.995 203.467 133.643C218.914 137.29 234.394 127.725 238.041 112.277Z" fill="#F46C6B"/>
<path d="M203.45 112.49C203.59 112.49 203.72 112.55 203.82 112.66L204.86 113.79C204.28 114.5 203.58 115.05 202.74 115.43C201.9 115.81 200.89 116 199.72 116C198.67 116 197.72 115.82 196.88 115.46C196.04 115.1 195.32 114.6 194.73 113.96C194.14 113.32 193.68 112.55 193.36 111.67C193.04 110.78 192.88 109.81 192.88 108.76C192.88 107.69 193.06 106.72 193.41 105.83C193.76 104.94 194.26 104.18 194.9 103.54C195.54 102.9 196.31 102.4 197.2 102.05C198.09 101.69 199.08 101.52 200.16 101.52C201.21 101.52 202.13 101.69 202.92 102.02C203.71 102.36 204.38 102.8 204.94 103.36L204.06 104.59C204.01 104.67 203.94 104.74 203.86 104.8C203.78 104.86 203.67 104.89 203.52 104.89C203.37 104.89 203.22 104.83 203.06 104.71C202.9 104.59 202.7 104.46 202.46 104.33C202.22 104.19 201.91 104.07 201.54 103.95C201.17 103.83 200.7 103.77 200.13 103.77C199.46 103.77 198.85 103.89 198.29 104.12C197.73 104.35 197.25 104.68 196.85 105.12C196.45 105.55 196.13 106.08 195.91 106.69C195.68 107.31 195.57 108 195.57 108.77C195.57 109.57 195.68 110.28 195.91 110.9C196.14 111.52 196.44 112.04 196.83 112.47C197.22 112.89 197.67 113.22 198.19 113.45C198.71 113.68 199.27 113.79 199.88 113.79C200.24 113.79 200.56 113.77 200.86 113.73C201.15 113.69 201.42 113.63 201.66 113.54C201.91 113.46 202.14 113.35 202.36 113.21C202.58 113.08 202.8 112.91 203.01 112.71C203.08 112.65 203.14 112.6 203.22 112.57C203.29 112.51 203.37 112.49 203.45 112.49Z" fill="white"/>
<path d="M212.07 104.33V108.35H215.88V110.14H212.07V114.18H210.11V110.14H206.32V108.35H210.11V104.33H212.07Z" fill="white"/>
<path d="M223.44 104.33V108.35H227.25V110.14H223.44V114.18H221.48V110.14H217.69V108.35H221.48V104.33H223.44Z" fill="white"/>
<path d="M185.05 129.93C185.53 129.46 185.51 128.68 185 128.23L124.8 74.51C124.63 74.36 124.39 74.32 124.18 74.42C123.82 74.59 123.75 75.07 124.04 75.34L183.47 129.95C183.92 130.36 184.62 130.35 185.05 129.93Z" fill="url(#paint3_linear_21_3922)"/>
<path d="M241.56 171.74C243.13 173.41 245.43 174.85 247.05 175.76C244.63 178.75 241.35 181.75 237.01 184.69L235.77 187.48L231.79 182.71C231.79 182.7 238.93 179.15 241.56 171.74Z" fill="#FF8E84"/>
<path d="M231.53 250.06L230.46 255.23C230.38 255.61 230.09 255.89 229.74 255.93C229.31 255.97 228.69 255.99 228.08 255.9C227.53 255.82 227.14 255.26 227.24 254.65L227.99 250.06H231.53Z" fill="url(#paint4_linear_21_3922)"/>
<path d="M230.51 253.84L227.98 253.64C227.98 253.64 221.58 256.82 220.29 261.93C220.27 262.02 220.26 262.1 220.26 262.19C220.27 262.65 220.59 263.05 221.03 263.11C223.01 263.37 227.74 263.87 230.72 263.25C231.11 263.17 231.41 262.85 231.52 262.44C231.53 262.41 231.54 262.37 231.55 262.34C231.78 261.1 231.97 258.34 230.51 253.84Z" fill="#1E2136"/>
<path d="M209.52 254.54C202.69 256.18 199.23 259.96 197.87 261.85C197.84 261.89 197.83 261.93 197.81 261.97C197.6 262.42 197.88 262.99 198.37 262.99L213.74 263.09C214.03 263.09 214.26 262.84 214.27 262.53C214.28 262.24 214.28 261.95 214.28 261.67C214.25 256.97 212.79 254.43 212.79 254.43L209.52 254.54Z" fill="#1E2136"/>
<path d="M213.4 249.47C213.36 249.71 212.91 253.43 212.74 254.87C212.7 255.21 212.45 255.48 212.14 255.51C211.58 255.58 210.68 255.64 209.89 255.48C209.46 255.39 209.16 254.98 209.16 254.51V248.68L213.4 249.47Z" fill="url(#paint5_linear_21_3922)"/>
<path d="M216.03 181.71C216.03 181.71 208.13 211.75 208.27 249.56C208.27 250.25 208.76 250.84 209.43 250.99C210.42 251.2 211.88 251.45 213.09 251.41C213.74 251.39 214.28 250.91 214.38 250.28C215.49 243.78 221.85 207.16 225.47 201.22C225.47 201.22 227.85 233.83 227.09 250.75C227.07 251.17 227.38 251.54 227.8 251.58C228.43 251.65 229.45 251.71 230.74 251.57C231.23 251.52 231.63 251.15 231.7 250.66C232.49 245.16 237.03 212.41 236.84 188.83C236.83 187.5 233.32 181.72 233.32 181.72H216.03V181.71Z" fill="#B0AFD5"/>
<path d="M203.91 141.24C205.29 137.7 207.63 135.28 209.98 132.48C218.78 134.08 233.2 135.5 239.22 136.26C241.1 136.5 242.82 137.42 244.05 138.85C248.96 144.53 259.73 160.08 247.05 175.75C245.43 174.85 243.12 173.41 241.56 171.73C242.96 167.78 243.08 162.72 240.14 156.53C240.04 157.02 239.92 157.51 239.76 157.99C235.71 170.82 235.49 181.5 235.5 183.96C235.5 184.29 235.3 184.6 234.99 184.72C229.66 186.86 219.4 185.58 215.95 185.07C215.32 184.98 214.89 184.39 214.98 183.76C216.67 171.51 207.99 151.36 205.7 146.31C205.36 145.57 204.77 144.98 204.04 144.64C203.67 144.47 203.31 144.3 202.95 144.13C203.22 143.16 203.53 142.2 203.91 141.24Z" fill="#2A28FB"/>
<path d="M230 124.48L230.63 135.43C230.65 135.75 230.44 136.04 230.12 136.12C228.73 136.47 224.89 137.17 221.55 135.27C221.12 135.02 220.92 134.5 221.05 134.02L223.85 124.18L230 124.48Z" fill="#FF8E84"/>
<path d="M223.15 112.51C223.01 112.64 217.15 124.14 217.15 124.14L223.79 127.34L230.96 117.26C230.96 117.28 225.53 110.27 223.15 112.51Z" fill="#F9A9A5"/>
<path d="M228.02 117.55C228.14 117.86 228.11 118.2 227.94 118.48L224.63 124C224.58 124.08 224.52 124.16 224.45 124.23C224.06 124.6 222.71 125.66 221.67 124.21C220.78 122.97 219.95 121.85 219.05 121.38C218.53 121.11 217.89 121.33 217.62 121.85C217.07 122.93 216.02 125.13 215.35 127.22C215.18 127.74 215.45 128.31 215.96 128.51C217.3 129.05 219.96 130.04 222.32 130.36C222.71 130.41 223.09 130.25 223.32 129.93C224.33 128.54 227.19 124.66 228.17 123.69C229.08 122.79 230.75 123.13 231.5 123.34C231.79 123.42 232.09 123.38 232.35 123.23C233.11 122.77 234.45 121.62 233.23 119.68C232.93 119.2 233.08 118.55 233.56 118.24C234.41 117.68 235.34 116.62 234.46 114.92C233.57 113.19 231.97 113.04 230.88 113.17C230.4 113.23 229.91 112.98 229.73 112.53C229.65 112.33 229.49 112.16 229.18 112.1C228.61 111.98 228.24 111.46 228.35 110.89C228.54 109.91 228.4 108.64 226.84 107.78C223.98 106.21 221.47 108.77 220.83 110.94C220.19 113.11 223.39 114.64 225.41 114.89C226.88 115.1 227.69 116.71 228.02 117.55Z" fill="url(#paint6_linear_21_3922)"/>
<path d="M226.93 125.73C226.93 125.73 228.2 122 229.83 122.14C231.46 122.28 232.74 123.9 230.72 125.73C228.21 128 226.93 125.73 226.93 125.73Z" fill="#F9A9A5"/>
<path d="M240.67 155.58C242.82 149.7 242.04 142.6 242.03 142.53L241.44 142.6C241.45 142.67 242.21 149.63 240.11 155.38L240.67 155.58Z" fill="url(#paint7_linear_21_3922)"/>
<path d="M225.77 200.44C225.9 200.44 226.02 200.35 226.06 200.22C226.72 197.69 231.62 194.91 231.67 194.89C231.81 194.81 231.86 194.63 231.78 194.48C231.7 194.34 231.52 194.29 231.37 194.37C231.16 194.49 226.19 197.3 225.47 200.07C225.43 200.23 225.52 200.39 225.68 200.43C225.72 200.44 225.75 200.44 225.77 200.44Z" fill="url(#paint8_linear_21_3922)"/>
<path d="M183.78 135.88C192.15 138.94 209.98 132.48 209.98 132.48L211.21 147.05C196.93 151.56 187.64 150.25 181.6 146.46C181.21 142.16 182.51 138.41 183.78 135.88Z" fill="#2A28FB"/>
<path d="M170.45 120.85L173.95 120.16C173.95 120.16 174.9 131.3 182.7 135.42C183.03 135.6 183.39 135.75 183.77 135.89C182.5 138.42 181.21 142.17 181.58 146.47C169.31 138.76 170.45 120.85 170.45 120.85Z" fill="#FF8E84"/>
<path d="M173.78 121.12L173.96 120.15C173.96 120.15 174.69 117.78 172.76 115.44C169.97 112.06 167.92 113.31 167.92 113.31C167.92 113.31 168.07 114.03 168.06 114.67C168.05 115.19 167.43 115.45 167.05 115.1L162.49 110.91C162.49 110.91 161.21 117.56 170.99 122.13L173.78 121.12Z" fill="url(#paint9_linear_21_3922)"/>
<path d="M71.62 230.65C71.58 230.63 49.9 192.67 46.97 189.1C46.48 188.5 45.71 188.19 44.94 188.29L38.9 189L31.79 204.38L43.63 197.48C42.46 205.58 57.67 217.63 62.89 222.02C63.42 222.47 63.46 223.26 62.98 223.77L60.9 225.95C64.32 229.42 68.27 231.64 72.72 232.67L71.62 230.65Z" fill="#661722"/>
<path d="M62.11 224.77C62.11 224.77 60.78 225.2 60.33 226.38C60.11 226.95 60.35 227.59 60.84 227.94C63.03 229.51 70.25 234.57 73.58 235.56C73.85 235.64 74.11 235.39 74.05 235.12C73.88 234.35 73.33 232.8 71.54 230.54L71.7 230.86C71.9 231.27 71.46 231.7 71.06 231.47C68.83 230.22 64.29 227.47 62.11 224.77Z" fill="url(#paint10_linear_21_3922)"/>
<path d="M63.18 239.97C63.14 239.95 59.89 232.11 59.85 232.09C56.87 213.93 49.59 198.38 47.45 194.29C47.09 193.6 46.4 193.15 45.63 193.08L39.56 192.56L29.49 206.18L42.48 201.82C39.69 209.52 52.15 224.39 56.37 229.75C56.8 230.29 56.68 231.09 56.11 231.48L53.63 233.19C56.28 237.28 59.69 240.26 63.85 242.16L63.18 239.97Z" fill="#C4421B"/>
<path d="M55.05 232.29C55.05 232.29 53.66 232.44 52.98 233.51C52.65 234.02 52.75 234.7 53.16 235.14C54.99 237.12 61.03 243.54 64.1 245.18C64.35 245.31 64.66 245.13 64.65 244.84C64.64 244.05 64.41 242.42 63.12 239.84L63.21 240.19C63.33 240.63 62.8 240.96 62.46 240.66C60.53 238.98 56.64 235.37 55.05 232.29Z" fill="url(#paint11_linear_21_3922)"/>
<path d="M11.14 189.69C11.14 189.69 5.65001 197.86 5.20001 201.59C4.75001 205.32 6.72001 206.61 12.47 207.08C29.58 208.49 38.01 203.37 38.01 203.37C39.18 195.91 40.01 194.01 49.79 189.95C49.79 189.95 37.43 190.93 34.94 189.97C32.44 188.99 11.14 189.69 11.14 189.69Z" fill="url(#paint12_linear_21_3922)"/>
<path d="M33.04 143.92C33.04 143.92 29.21 139.39 25.15 144.95C24.41 145.96 21.58 145.13 20.55 147.23C20.01 148.32 18.86 148.93 17.67 148.71C14.7 148.16 9.85 148.12 7.46 152.77C5.63 156.32 7.04 158.4 8.87 159.58C10.21 160.45 10.69 162.22 9.88 163.59C9.1 164.91 8.96 166.7 10.97 168.86C15.47 173.69 24.39 165.8 24.39 165.8L31.47 149.07L33.04 143.92Z" fill="url(#paint13_linear_21_3922)"/>
<path d="M25.99 188.61C25.99 188.61 32.39 182.52 35.53 178.49C37.23 176.31 37.77 173.44 36.98 170.79C35.54 165.95 32.99 160.93 32.75 160.15C32.39 158.95 25.22 159 25.22 159C25.22 159 11.11 168.16 5.56 183.67L11.79 185.61C11.79 185.61 15.47 179.43 19.12 175.5C19.12 175.5 12.82 183.82 12.6 187.23L25.99 188.61Z" fill="#F46C6B"/>
<path d="M38.18 191.01L33.37 185.78L27.82 187.27C27.82 187.27 21.35 188.27 17.65 187.27C13.95 186.27 13.95 186.27 13.95 186.27L5.58001 183.66L4.27001 187.37C3.94001 188.31 4.27001 189.36 5.09001 189.94C5.81001 190.45 6.66001 191.02 7.20001 191.26C8.30001 191.74 32.59 191.41 32.59 191.41L38.18 191.01Z" fill="#C4421B"/>
<path d="M30.16 150.37L25.34 159.33C25.66 161.29 30.59 161.34 31.35 160.17C31.43 160.05 31.47 159.91 31.5 159.77L34.38 153.78C34.5 153.2 32.9 151.23 32.38 150.95L30.46 149.93C29.72 149.55 32.8 149.52 30.16 150.37Z" fill="#661722"/>
<path d="M39.91 148.26C39.91 148.26 40.45 151.29 38.07 155.14C35.69 158.99 33.32 158.82 32.12 157.44C30.92 156.07 29.47 153.78 30.13 149.94C30.79 146.11 39.09 144.4 39.91 148.26Z" fill="#C4421B"/>
<path d="M33.01 150.36C33.01 150.36 36.86 145.3 39.82 149.71L39.77 151.23C39.77 151.23 43.62 151.05 43.2 147.5C42.78 143.95 39.64 141.53 35.29 142.74C30.93 143.95 28.39 145.33 27.9 148.36C27.41 151.38 29.88 150.89 29.88 150.89C29.88 150.89 30.82 148.8 31.96 148.66C33.1 148.52 32.69 150.17 32.69 150.17L33.01 150.36Z" fill="url(#paint14_linear_21_3922)"/>
<path d="M32.13 150.23C32.13 150.23 34.13 147.64 32.31 147.1C30.49 146.56 30.56 149.64 30.68 150.78L32.13 150.23Z" fill="#C4421B"/>
<path d="M22.27 193.08C22.29 193.08 22.3 193.08 22.32 193.08L44.43 193.06C44.98 193.06 45.42 192.62 45.42 192.07C45.42 191.52 44.97 191.07 44.43 191.08L22.32 191.1C21.77 191.1 21.33 191.54 21.33 192.09C21.33 192.62 21.75 193.05 22.27 193.08Z" fill="#242640"/>
<path d="M64.3 173.01H45.89C44.53 173.01 43.3 173.79 42.72 175.02L34.21 193.07H57.09C57.97 193.07 58.75 192.54 59.07 191.72L65.67 175.02C66.05 174.05 65.34 173.01 64.3 173.01Z" fill="#242640"/>
<path d="M51.33 182.26C50.93 183.5 51.23 184.7 51.99 184.95C52.75 185.2 53.69 184.39 54.09 183.15C54.49 181.91 54.19 180.71 53.43 180.46C52.67 180.22 51.73 181.02 51.33 182.26Z" fill="white"/>
<path d="M35.25 18.95C34.04 17.87 29.53 14.16 23.15 13C22.81 12.94 22.51 13.09 22.34 13.34C22.17 13.59 22.14 13.92 22.32 14.22C22.42 14.39 22.55 14.57 22.71 14.77C23.71 16.02 31.78 24.3 31.78 24.3C31.78 24.3 34.34 24.61 35.12 24.16C35.37 24.01 35.5 21.35 35.55 20.01C35.55 19.89 35.56 19.77 35.56 19.68C35.57 19.4 35.46 19.14 35.25 18.95Z" fill="#2A28FB"/>
<path d="M35.24 28.61V23.68C35.24 23.26 34.97 22.89 34.58 22.76C33.97 22.56 33.03 22.38 32.17 22.7C31.67 22.89 31.33 23.36 31.29 23.9L30.92 28.5L35.24 28.61Z" fill="#F9A9A5"/>
<path d="M15.69 24.24C15.63 24.05 15.52 23.88 15.37 23.76C15.14 23.57 14.84 23.48 14.53 23.55C11.99 24.08 4.31 25.89 0.290001 29.14C-0.109999 29.46 0.0100007 30.11 0.500001 30.26C0.570001 30.28 0.640001 30.3 0.720001 30.33C2.91 30.97 7.9 31.95 15.05 30.56L16.46 29.9C16.46 29.89 16.36 26.45 15.69 24.24Z" fill="#2A28FB"/>
<path d="M19.1 32.87L16.09 29.26C15.8 28.91 15.32 28.77 14.89 28.91C14.41 29.07 13.77 29.39 13.15 30.07C12.86 30.38 12.8 30.85 13 31.23L15.19 35.47L19.1 32.87Z" fill="#F9A9A5"/>
<path d="M30.26 26.89C30.26 26.89 33.93 26.19 35.97 26.89C35.97 26.89 38.66 43.01 38.19 48.19L30.26 49.8C30.26 49.8 30.04 31.64 30.26 26.89Z" fill="url(#paint15_linear_21_3922)"/>
<path d="M62.82 55.13C62.82 55.13 36.88 56.59 26.35 55.86C25.32 55.79 24.4 55.18 23.94 54.25C21.68 49.73 14.92 36.18 14.32 34.88C14.32 34.88 17.07 32.58 19.1 32.27C19.1 32.27 28.71 42.96 29.11 48.41C29.11 48.41 51.36 42.01 53.56 42.07C55.76 42.13 62.5 45.14 62.5 45.14L62.82 55.13Z" fill="url(#paint16_linear_21_3922)"/>
<path d="M97.4 34.91C97.4 34.91 96.45 32.93 97.27 31.89C98.1 30.85 101.07 27.61 101.07 27.61L101.42 25.38L102.64 29.02L100.02 34.51C100.02 34.5 98.48 36.16 97.4 34.91Z" fill="#FF8E84"/>
<path d="M104.06 44.11C103.1 40.73 101.78 37.52 100.01 34.5L97.39 34.91L98.68 43.99C99.68 44.29 102.38 44.97 104.06 44.11Z" fill="#FF8E84"/>
<path d="M105.76 52.96C105.42 49.91 104.87 46.96 104.06 44.12C102.37 44.98 99.68 44.3 98.69 44L99.06 46.61L98.07 43.1C96.86 38.83 94.29 35.07 90.75 32.39L88.28 30.52C85.86 28.69 81.98 29.32 79.51 31.09C74.03 35 65.89 41.57 63.11 43.84C62.51 44.33 61.69 44.43 60.99 44.12L60.53 43.91C60.09 43.72 59.61 44.07 59.66 44.55L60.84 55.35L79.69 55.13C81.95 55.13 88.5 54.9 89.54 52.89L91.28 48.61C95.36 52.08 100.6 54.47 103.41 55.17C104.7 55.49 105.91 54.36 105.76 52.96Z" fill="#7D97F4"/>
<path d="M92.52 24.72L86.72 30.35C86.33 30.73 86.3 31.34 86.64 31.75C88.43 33.88 89.96 35 91.24 35.08C91.78 35.12 92.29 34.83 92.58 34.37L95.66 29.51L92.52 24.72Z" fill="#FF8E84"/>
<path d="M104.22 52.46L109.2 50.52L115 55.13L104.62 55.17L104.22 52.46Z" fill="#FF8E84"/>
<path d="M102.24 23.42C102.24 23.42 101.45 28.98 99.31 30.69C97.17 32.4 93.01 31.11 91.61 26.92L94.41 19.75L102.24 23.42Z" fill="#F9A9A5"/>
<path d="M94.09 24.39C94.25 24.44 94.42 24.34 94.45 24.17C94.53 23.66 94.72 22.64 95.11 21.95C95.11 21.95 94.91 21.22 96.95 22.32C99 23.42 102.07 25.04 103.88 24.08C105.65 23.14 107.43 18.41 102.77 19.29C102.59 19.32 102.43 19.18 102.44 19C102.5 18.22 102.42 16.43 100.61 15.86C98.92 15.32 97.99 16.09 97.6 16.55C97.49 16.69 97.28 16.68 97.17 16.54C96.66 15.88 95.28 14.47 93.25 15.36C91.58 16.1 91.32 17.13 91.35 17.77C91.36 17.98 91.15 18.12 90.96 18.03C90.45 17.79 89.62 17.67 88.84 18.66C87.75 20.03 89.31 21.21 89.78 21.52C89.86 21.57 89.9 21.66 89.9 21.75C89.9 22.46 90.02 25.56 91.57 27.31C91.7 27.46 91.95 27.42 92.03 27.23L93.23 24.38C93.29 24.25 93.43 24.18 93.57 24.22L94.09 24.39Z" fill="url(#paint17_linear_21_3922)"/>
<path d="M94.12 24.97C94.12 24.97 93.39 21.99 92.28 22.96C91.17 23.93 92.57 26.05 93.84 26.46L94.12 24.97Z" fill="url(#paint18_linear_21_3922)"/>
<path d="M85.77 37.52C85.77 37.52 85.99 30.64 83.17 30.5C79.66 30.33 74.01 32.87 77.37 42.96C79.23 48.53 82.02 52.67 89.7 54.42C90.07 51.6 91.35 49.63 92.3 48.52C89.18 46.31 86.53 42.88 85.77 37.52Z" fill="#91B3FA"/>
<path opacity="0.37" d="M91.95 48.54C91.9 48.54 91.84 48.52 91.79 48.49C88.19 45.95 86.19 42.48 85.49 37.56C85.49 37.54 85.49 37.53 85.49 37.51C85.55 35.67 85.24 30.87 83.15 30.77C82.14 30.72 81.07 30.91 80.16 31.31C80.02 31.37 79.86 31.31 79.8 31.17C79.74 31.03 79.8 30.87 79.94 30.81C80.93 30.38 82.08 30.18 83.18 30.23C86.18 30.38 86.06 36.98 86.05 37.51C86.72 42.25 88.65 45.6 92.12 48.04C92.24 48.13 92.27 48.3 92.19 48.42C92.13 48.5 92.04 48.54 91.95 48.54Z" fill="white"/>
<path opacity="0.37" d="M87.26 54.01C87.23 54.01 87.2 54.01 87.17 53.99C80.8 51.79 78.57 47.43 77.11 43.05C76.78 42.06 76.52 41.1 76.35 40.21C76.32 40.06 76.42 39.92 76.57 39.89C76.72 39.86 76.86 39.96 76.89 40.11C77.06 40.98 77.31 41.91 77.63 42.88C79.05 47.13 81.2 51.36 87.35 53.48C87.49 53.53 87.57 53.69 87.52 53.83C87.48 53.93 87.38 54.01 87.26 54.01Z" fill="white"/>
<path d="M105.63 55.13L105.62 52.46C105.62 52.46 98.14 52.63 92.31 48.52C91.36 49.63 90.08 51.6 89.71 54.42C93.59 55.31 98.73 55.59 105.63 55.13Z" fill="url(#paint19_linear_21_3922)"/>
<path d="M96.03 56.06C96.05 56.06 96.07 56.06 96.08 56.06L119.88 56.03C120.47 56.03 120.94 55.55 120.94 54.96C120.94 54.37 120.46 53.89 119.87 53.9L96.07 53.93C95.48 53.93 95.01 54.41 95.01 55C95.02 55.57 95.47 56.03 96.03 56.06Z" fill="url(#paint20_linear_21_3922)"/>
<path d="M141.29 34.45H121.47C120.01 34.45 118.68 35.29 118.05 36.62L108.89 56.05H133.53C134.47 56.05 135.32 55.47 135.67 54.6L142.78 36.62C143.18 35.57 142.41 34.45 141.29 34.45Z" fill="#B6B6B6"/>
<path d="M127.33 44.41C126.9 45.74 127.22 47.04 128.04 47.31C128.86 47.57 129.87 46.71 130.3 45.37C130.73 44.04 130.41 42.74 129.59 42.47C128.77 42.21 127.76 43.08 127.33 44.41Z" fill="white"/>
<path d="M97.53 85.4C108.034 85.4 116.55 76.8844 116.55 66.38C116.55 55.8755 108.034 47.36 97.53 47.36C87.0256 47.36 78.51 55.8755 78.51 66.38C78.51 76.8844 87.0256 85.4 97.53 85.4Z" fill="#F46C6B"/>
<path d="M80.71 65.51L84.77 63.39V64.29C84.77 64.36 84.75 64.42 84.72 64.48C84.69 64.54 84.63 64.58 84.55 64.63L82.69 65.58C82.61 65.62 82.53 65.66 82.44 65.69C82.35 65.72 82.26 65.75 82.16 65.77C82.26 65.79 82.35 65.82 82.44 65.85C82.53 65.88 82.61 65.91 82.69 65.96L84.55 66.92C84.63 66.96 84.68 67.01 84.72 67.07C84.75 67.13 84.77 67.19 84.77 67.26V68.16L80.71 66.04V65.51Z" fill="white"/>
<path d="M86.62 69.22V61.6H87.89V64.53C88.09 64.34 88.32 64.18 88.57 64.06C88.82 63.94 89.1 63.88 89.44 63.88C89.73 63.88 89.98 63.93 90.2 64.03C90.42 64.13 90.61 64.26 90.76 64.44C90.91 64.62 91.02 64.83 91.1 65.07C91.18 65.31 91.22 65.58 91.22 65.88V69.23H89.95V65.88C89.95 65.56 89.88 65.31 89.73 65.13C89.58 64.95 89.36 64.87 89.06 64.87C88.84 64.87 88.64 64.92 88.45 65.02C88.26 65.12 88.08 65.25 87.91 65.43V69.23H86.62V69.22Z" fill="white"/>
<path d="M94.62 63.88C94.95 63.88 95.26 63.93 95.53 64.04C95.81 64.15 96.05 64.3 96.25 64.5C96.45 64.7 96.61 64.95 96.72 65.25C96.83 65.55 96.89 65.88 96.89 66.26C96.89 66.36 96.89 66.44 96.88 66.5C96.87 66.56 96.86 66.61 96.83 66.65C96.81 66.69 96.78 66.71 96.74 66.73C96.7 66.75 96.65 66.75 96.6 66.75H93.35C93.39 67.29 93.53 67.69 93.79 67.94C94.04 68.19 94.38 68.32 94.79 68.32C95 68.32 95.17 68.3 95.32 68.25C95.47 68.2 95.6 68.15 95.71 68.09C95.82 68.03 95.92 67.98 96 67.93C96.08 67.88 96.16 67.86 96.24 67.86C96.29 67.86 96.34 67.87 96.37 67.89C96.41 67.91 96.44 67.94 96.47 67.98L96.84 68.44C96.7 68.6 96.54 68.74 96.37 68.85C96.2 68.96 96.01 69.05 95.82 69.12C95.63 69.19 95.44 69.23 95.24 69.26C95.04 69.29 94.85 69.3 94.67 69.3C94.3 69.3 93.96 69.24 93.65 69.12C93.34 69 93.06 68.82 92.83 68.58C92.6 68.34 92.41 68.05 92.28 67.7C92.15 67.35 92.08 66.94 92.08 66.48C92.08 66.12 92.14 65.78 92.25 65.47C92.37 65.15 92.53 64.88 92.75 64.64C92.97 64.41 93.23 64.22 93.54 64.08C93.88 63.95 94.23 63.88 94.62 63.88ZM94.65 64.79C94.28 64.79 93.99 64.89 93.78 65.1C93.57 65.31 93.44 65.6 93.38 65.99H95.76C95.76 65.83 95.74 65.67 95.69 65.53C95.65 65.38 95.58 65.26 95.48 65.15C95.39 65.04 95.27 64.95 95.13 64.89C95 64.82 94.84 64.79 94.65 64.79Z" fill="white"/>
<path d="M102.05 69.22H101.48C101.36 69.22 101.27 69.2 101.2 69.17C101.13 69.13 101.08 69.06 101.05 68.95L100.94 68.58C100.81 68.7 100.68 68.8 100.55 68.9C100.42 68.99 100.29 69.07 100.15 69.13C100.01 69.19 99.87 69.24 99.71 69.27C99.56 69.3 99.39 69.32 99.2 69.32C98.98 69.32 98.77 69.29 98.58 69.23C98.39 69.17 98.23 69.08 98.1 68.96C97.97 68.84 97.86 68.69 97.78 68.51C97.7 68.33 97.67 68.12 97.67 67.89C97.67 67.69 97.72 67.49 97.83 67.3C97.93 67.11 98.11 66.93 98.35 66.78C98.59 66.62 98.92 66.49 99.32 66.39C99.72 66.29 100.22 66.24 100.82 66.24V65.93C100.82 65.58 100.75 65.31 100.6 65.14C100.45 64.97 100.24 64.88 99.95 64.88C99.74 64.88 99.57 64.9 99.44 64.95C99.3 65 99.18 65.05 99.08 65.11C98.98 65.17 98.89 65.22 98.8 65.27C98.71 65.32 98.62 65.34 98.52 65.34C98.43 65.34 98.36 65.32 98.3 65.27C98.24 65.23 98.19 65.17 98.15 65.11L97.92 64.71C98.52 64.16 99.25 63.88 100.11 63.88C100.42 63.88 100.69 63.93 100.93 64.03C101.17 64.13 101.37 64.27 101.54 64.45C101.71 64.63 101.83 64.84 101.92 65.09C102.01 65.34 102.05 65.61 102.05 65.91V69.22ZM99.59 68.43C99.72 68.43 99.84 68.42 99.95 68.39C100.06 68.37 100.16 68.33 100.26 68.28C100.36 68.23 100.45 68.17 100.54 68.11C100.63 68.04 100.72 67.96 100.81 67.87V66.99C100.44 66.99 100.13 67.01 99.88 67.06C99.63 67.11 99.43 67.17 99.28 67.24C99.13 67.31 99.02 67.4 98.96 67.49C98.9 67.59 98.87 67.69 98.87 67.8C98.87 68.02 98.94 68.18 99.07 68.28C99.21 68.38 99.38 68.43 99.59 68.43Z" fill="white"/>
<path d="M107 69.22C106.84 69.22 106.73 69.14 106.68 68.99L106.58 68.48C106.47 68.6 106.36 68.71 106.24 68.81C106.12 68.91 105.99 68.99 105.85 69.07C105.71 69.14 105.56 69.2 105.4 69.24C105.24 69.28 105.07 69.3 104.88 69.3C104.59 69.3 104.33 69.24 104.09 69.12C103.85 69 103.65 68.83 103.47 68.6C103.3 68.37 103.16 68.09 103.07 67.76C102.98 67.42 102.93 67.04 102.93 66.61C102.93 66.22 102.98 65.86 103.09 65.52C103.2 65.19 103.35 64.89 103.55 64.65C103.75 64.4 103.99 64.21 104.26 64.07C104.54 63.93 104.85 63.86 105.19 63.86C105.48 63.86 105.74 63.91 105.94 64C106.15 64.09 106.33 64.22 106.5 64.38V61.6H107.77V69.22H107ZM105.31 68.29C105.57 68.29 105.8 68.24 105.98 68.13C106.16 68.02 106.34 67.87 106.5 67.66V65.3C106.36 65.13 106.2 65 106.03 64.93C105.86 64.86 105.68 64.82 105.48 64.82C105.29 64.82 105.12 64.86 104.96 64.93C104.8 65 104.67 65.11 104.57 65.26C104.46 65.41 104.38 65.59 104.32 65.81C104.26 66.03 104.23 66.3 104.23 66.6C104.23 66.91 104.25 67.17 104.3 67.38C104.35 67.59 104.42 67.77 104.51 67.9C104.6 68.04 104.71 68.13 104.85 68.19C105 68.26 105.15 68.29 105.31 68.29Z" fill="white"/>
<path d="M109.64 68.14V67.24C109.64 67.17 109.66 67.11 109.69 67.05C109.72 66.99 109.78 66.94 109.86 66.9L111.72 65.94C111.87 65.86 112.05 65.8 112.25 65.76C112.15 65.74 112.06 65.71 111.97 65.68C111.88 65.65 111.8 65.62 111.72 65.57L109.86 64.62C109.78 64.58 109.72 64.53 109.69 64.47C109.66 64.41 109.64 64.35 109.64 64.28V63.38L113.7 65.5V66.01L109.64 68.14Z" fill="white"/>
<path d="M164.84 78.08C180.724 78.08 193.6 65.2037 193.6 49.32C193.6 33.4363 180.724 20.56 164.84 20.56C148.956 20.56 136.08 33.4363 136.08 49.32C136.08 65.2037 148.956 78.08 164.84 78.08Z" fill="#FFAE6F"/>
<path d="M150.19 40.94C150.19 41.57 150.11 42.14 149.96 42.65C149.8 43.16 149.57 43.59 149.26 43.95C148.95 44.31 148.57 44.58 148.1 44.78C147.64 44.97 147.1 45.07 146.49 45.07C146.21 45.07 145.93 45.05 145.66 45.02C145.39 44.99 145.11 44.93 144.81 44.86L144.92 43.61C144.93 43.5 144.97 43.4 145.05 43.33C145.13 43.26 145.24 43.22 145.38 43.22C145.47 43.22 145.58 43.24 145.73 43.27C145.87 43.31 146.05 43.32 146.27 43.32C146.57 43.32 146.83 43.28 147.06 43.19C147.29 43.1 147.48 42.97 147.63 42.78C147.78 42.59 147.9 42.35 147.98 42.05C148.06 41.75 148.1 41.39 148.1 40.96V33.66H150.19V40.94Z" fill="white"/>
<path d="M161.95 44.94H160.33C160.15 44.94 160 44.89 159.88 44.8C159.76 44.71 159.68 44.6 159.63 44.46L158.79 42.16H154.13L153.29 44.46C153.25 44.58 153.17 44.69 153.04 44.79C152.92 44.89 152.77 44.94 152.59 44.94H150.96L155.38 33.68H157.52L161.95 44.94ZM154.66 40.69H158.25L156.88 36.95C156.82 36.78 156.75 36.59 156.67 36.36C156.59 36.13 156.52 35.89 156.45 35.62C156.38 35.88 156.31 36.13 156.24 36.36C156.17 36.59 156.1 36.79 156.03 36.96L154.66 40.69Z" fill="white"/>
<path d="M160.69 33.69H162.38C162.56 33.69 162.71 33.73 162.82 33.82C162.93 33.91 163.02 34.02 163.08 34.16L165.73 41.03C165.82 41.25 165.9 41.5 165.98 41.77C166.06 42.04 166.14 42.32 166.21 42.61C166.33 42.01 166.48 41.49 166.65 41.03L169.29 34.16C169.34 34.04 169.42 33.93 169.54 33.83C169.66 33.73 169.81 33.68 169.98 33.68H171.67L167.12 44.94H165.23L160.69 33.69Z" fill="white"/>
<path d="M181.43 44.94H179.81C179.63 44.94 179.48 44.89 179.36 44.8C179.24 44.71 179.16 44.6 179.11 44.46L178.27 42.16H173.61L172.77 44.46C172.73 44.58 172.65 44.69 172.52 44.79C172.4 44.89 172.25 44.94 172.07 44.94H170.44L174.86 33.68H177L181.43 44.94ZM174.14 40.69H177.73L176.36 36.95C176.3 36.78 176.23 36.59 176.15 36.36C176.07 36.13 176 35.89 175.93 35.62C175.86 35.88 175.79 36.13 175.72 36.36C175.65 36.59 175.58 36.79 175.51 36.96L174.14 40.69Z" fill="white"/>
<path d="M151.69 54.42C151.63 54.53 151.57 54.61 151.49 54.66C151.41 54.71 151.33 54.73 151.22 54.73C151.12 54.73 151 54.69 150.87 54.61C150.74 54.53 150.59 54.44 150.41 54.34C150.23 54.24 150.03 54.15 149.79 54.07C149.55 53.99 149.27 53.95 148.95 53.95C148.66 53.95 148.41 53.99 148.19 54.06C147.97 54.13 147.79 54.23 147.65 54.35C147.5 54.47 147.39 54.62 147.32 54.8C147.25 54.97 147.21 55.16 147.21 55.37C147.21 55.63 147.28 55.86 147.43 56.03C147.58 56.21 147.77 56.36 148.02 56.48C148.26 56.6 148.54 56.72 148.85 56.81C149.16 56.91 149.48 57.01 149.8 57.13C150.12 57.24 150.44 57.37 150.75 57.52C151.06 57.67 151.34 57.85 151.58 58.08C151.82 58.31 152.02 58.58 152.17 58.91C152.32 59.24 152.39 59.63 152.39 60.1C152.39 60.61 152.3 61.08 152.13 61.53C151.96 61.98 151.7 62.36 151.37 62.69C151.03 63.02 150.63 63.28 150.14 63.47C149.66 63.66 149.1 63.75 148.48 63.75C148.12 63.75 147.77 63.72 147.42 63.64C147.07 63.57 146.74 63.47 146.42 63.34C146.1 63.21 145.8 63.05 145.52 62.87C145.24 62.69 144.99 62.49 144.78 62.26L145.39 61.26C145.45 61.19 145.52 61.13 145.6 61.08C145.68 61.03 145.77 61.01 145.87 61.01C146 61.01 146.14 61.06 146.29 61.17C146.44 61.28 146.62 61.39 146.82 61.52C147.03 61.65 147.27 61.77 147.54 61.87C147.82 61.98 148.15 62.03 148.54 62.03C149.14 62.03 149.6 61.89 149.93 61.61C150.26 61.33 150.42 60.92 150.42 60.39C150.42 60.09 150.35 59.85 150.2 59.67C150.05 59.48 149.86 59.33 149.61 59.2C149.37 59.07 149.09 58.97 148.78 58.88C148.47 58.79 148.15 58.7 147.83 58.59C147.51 58.49 147.19 58.36 146.88 58.22C146.57 58.07 146.29 57.89 146.05 57.65C145.81 57.42 145.61 57.12 145.46 56.77C145.31 56.42 145.24 55.99 145.24 55.47C145.24 55.06 145.32 54.66 145.49 54.27C145.65 53.88 145.89 53.54 146.21 53.23C146.52 52.93 146.91 52.69 147.37 52.51C147.83 52.33 148.35 52.24 148.93 52.24C149.59 52.24 150.21 52.34 150.77 52.55C151.33 52.76 151.81 53.05 152.2 53.42L151.69 54.42Z" fill="white"/>
<path d="M159.51 57.33C159.45 57.4 159.4 57.46 159.34 57.5C159.28 57.54 159.21 57.56 159.1 57.56C159 57.56 158.91 57.53 158.81 57.47C158.72 57.41 158.61 57.34 158.48 57.27C158.35 57.19 158.2 57.13 158.02 57.07C157.84 57.01 157.62 56.9799 157.35 56.9799C157.01 56.9799 156.72 57.04 156.46 57.16C156.21 57.28 155.99 57.4599 155.83 57.6899C155.66 57.9199 155.54 58.19 155.45 58.52C155.37 58.84 155.33 59.2099 155.33 59.6199C155.33 60.0499 155.38 60.4199 155.47 60.7599C155.56 61.0899 155.69 61.3699 155.86 61.5999C156.03 61.8299 156.24 62 156.48 62.11C156.72 62.23 157 62.29 157.31 62.29C157.62 62.29 157.86 62.25 158.05 62.18C158.24 62.1 158.4 62.02 158.53 61.93C158.66 61.84 158.77 61.76 158.87 61.68C158.97 61.6 159.07 61.57 159.19 61.57C159.35 61.57 159.46 61.63 159.54 61.75L160.09 62.45C159.88 62.7 159.65 62.91 159.4 63.08C159.15 63.25 158.89 63.38 158.63 63.4799C158.36 63.58 158.09 63.6499 157.8 63.6899C157.51 63.7299 157.23 63.75 156.95 63.75C156.46 63.75 155.99 63.66 155.56 63.47C155.12 63.29 154.74 63.02 154.42 62.66C154.1 62.31 153.84 61.88 153.65 61.36C153.46 60.85 153.37 60.27 153.37 59.61C153.37 59.02 153.45 58.4799 153.62 57.9799C153.79 57.4799 154.04 57.05 154.36 56.68C154.69 56.31 155.09 56.03 155.57 55.82C156.05 55.61 156.61 55.5099 157.24 55.5099C157.84 55.5099 158.36 55.6099 158.81 55.7999C159.26 55.9899 159.66 56.27 160.02 56.63L159.51 57.33Z" fill="white"/>
<path d="M161.33 63.63V55.64H162.46C162.66 55.64 162.79 55.68 162.87 55.75C162.95 55.82 163 55.95 163.03 56.12L163.15 57.09C163.44 56.6 163.77 56.21 164.15 55.92C164.53 55.63 164.96 55.49 165.44 55.49C165.83 55.49 166.16 55.58 166.42 55.76L166.17 57.2C166.15 57.29 166.12 57.36 166.07 57.4C166.02 57.44 165.95 57.46 165.86 57.46C165.78 57.46 165.68 57.44 165.54 57.41C165.4 57.37 165.23 57.36 165 57.36C164.6 57.36 164.26 57.47 163.97 57.69C163.68 57.91 163.44 58.23 163.25 58.66V63.63H161.33Z" fill="white"/>
<path d="M170.02 53.31C170.02 53.48 169.99 53.63 169.92 53.78C169.85 53.93 169.76 54.05 169.65 54.16C169.54 54.27 169.41 54.36 169.26 54.42C169.11 54.48 168.95 54.52 168.78 54.52C168.61 54.52 168.46 54.49 168.31 54.42C168.16 54.36 168.03 54.27 167.92 54.16C167.81 54.05 167.72 53.92 167.66 53.78C167.6 53.63 167.56 53.48 167.56 53.31C167.56 53.14 167.59 52.98 167.66 52.83C167.72 52.68 167.81 52.55 167.92 52.44C168.03 52.33 168.16 52.24 168.31 52.18C168.46 52.12 168.61 52.08 168.78 52.08C168.95 52.08 169.11 52.11 169.26 52.18C169.41 52.25 169.54 52.33 169.65 52.44C169.76 52.55 169.85 52.68 169.92 52.83C169.99 52.98 170.02 53.14 170.02 53.31ZM169.74 55.64V63.63H167.82V55.64H169.74Z" fill="white"/>
<path d="M171.91 66.24V55.64H173.09C173.21 55.64 173.32 55.67 173.41 55.73C173.5 55.79 173.56 55.88 173.58 55.99L173.74 56.73C174.06 56.36 174.43 56.06 174.85 55.83C175.27 55.6 175.76 55.49 176.32 55.49C176.76 55.49 177.15 55.58 177.52 55.76C177.88 55.94 178.19 56.21 178.45 56.55C178.71 56.9 178.91 57.32 179.06 57.83C179.2 58.34 179.27 58.92 179.27 59.57C179.27 60.17 179.19 60.72 179.03 61.23C178.87 61.74 178.64 62.18 178.34 62.55C178.04 62.92 177.68 63.22 177.26 63.43C176.84 63.64 176.36 63.75 175.84 63.75C175.39 63.75 175.01 63.68 174.69 63.54C174.38 63.4 174.09 63.21 173.85 62.97V66.24H171.91ZM175.64 57.01C175.24 57.01 174.9 57.09 174.62 57.26C174.34 57.43 174.07 57.67 173.83 57.97V61.55C174.05 61.82 174.29 62.01 174.54 62.11C174.8 62.22 175.07 62.27 175.37 62.27C175.66 62.27 175.92 62.22 176.16 62.11C176.4 62 176.6 61.83 176.76 61.61C176.92 61.39 177.05 61.11 177.14 60.77C177.23 60.43 177.27 60.03 177.27 59.57C177.27 59.1 177.23 58.71 177.16 58.38C177.08 58.06 176.98 57.79 176.84 57.59C176.7 57.39 176.53 57.24 176.33 57.15C176.13 57.06 175.9 57.01 175.64 57.01Z" fill="white"/>
<path d="M183.34 63.75C182.65 63.75 182.12 63.55 181.74 63.16C181.37 62.7699 181.18 62.23 181.18 61.54V57.08H180.37C180.27 57.08 180.18 57.0499 180.1 56.9799C180.02 56.91 179.99 56.81 179.99 56.68V55.9199L181.27 55.7099L181.67 53.5299C181.69 53.4299 181.74 53.35 181.81 53.29C181.89 53.23 181.98 53.2 182.09 53.2H183.09V55.7099H185.19V57.08H183.09V61.41C183.09 61.66 183.15 61.85 183.28 61.99C183.4 62.13 183.57 62.2 183.78 62.2C183.9 62.2 184 62.1899 184.08 62.16C184.16 62.13 184.23 62.0999 184.29 62.07C184.35 62.04 184.4 62.0099 184.45 61.9799C184.5 61.95 184.54 61.9399 184.59 61.9399C184.65 61.9399 184.69 61.95 184.73 61.9799C184.77 62.0099 184.81 62.05 184.85 62.11L185.43 63.04C185.15 63.27 184.83 63.45 184.46 63.57C184.1 63.6899 183.72 63.75 183.34 63.75Z" fill="white"/>
</g>
<defs>
<linearGradient id="paint0_linear_21_3922" x1="112.409" y1="120.346" x2="121.955" y2="120.346" gradientUnits="userSpaceOnUse">
<stop stop-color="#09005D"/>
<stop offset="1" stop-color="#1A0F91"/>
</linearGradient>
<linearGradient id="paint1_linear_21_3922" x1="124.498" y1="120.081" x2="134.322" y2="120.081" gradientUnits="userSpaceOnUse">
<stop stop-color="#09005D"/>
<stop offset="1" stop-color="#1A0F91"/>
</linearGradient>
<linearGradient id="paint2_linear_21_3922" x1="136.805" y1="120.346" x2="146.352" y2="120.346" gradientUnits="userSpaceOnUse">
<stop stop-color="#09005D"/>
<stop offset="1" stop-color="#1A0F91"/>
</linearGradient>
<linearGradient id="paint3_linear_21_3922" x1="147.563" y1="87.0326" x2="221.868" y2="243.803" gradientUnits="userSpaceOnUse">
<stop stop-color="#09005D"/>
<stop offset="1" stop-color="#1A0F91"/>
</linearGradient>
<linearGradient id="paint4_linear_21_3922" x1="228.522" y1="245.088" x2="230.708" y2="264.164" gradientUnits="userSpaceOnUse">
<stop stop-color="#FEBBBA"/>
<stop offset="1" stop-color="#FF928E"/>
</linearGradient>
<linearGradient id="paint5_linear_21_3922" x1="210.717" y1="247.128" x2="212.903" y2="266.204" gradientUnits="userSpaceOnUse">
<stop stop-color="#FEBBBA"/>
<stop offset="1" stop-color="#FF928E"/>
</linearGradient>
<linearGradient id="paint6_linear_21_3922" x1="229.402" y1="126.144" x2="217.28" y2="113.266" gradientUnits="userSpaceOnUse">
<stop stop-color="#09005D"/>
<stop offset="1" stop-color="#1A0F91"/>
</linearGradient>
<linearGradient id="paint7_linear_21_3922" x1="251.555" y1="127.555" x2="229.777" y2="172.219" gradientUnits="userSpaceOnUse">
<stop stop-color="#09005D"/>
<stop offset="1" stop-color="#1A0F91"/>
</linearGradient>
<linearGradient id="paint8_linear_21_3922" x1="223.953" y1="189.025" x2="229.815" y2="199.457" gradientUnits="userSpaceOnUse">
<stop stop-color="#09005D"/>
<stop offset="1" stop-color="#1A0F91"/>
</linearGradient>
<linearGradient id="paint9_linear_21_3922" x1="166.179" y1="108.729" x2="175.209" y2="138.239" gradientUnits="userSpaceOnUse">
<stop stop-color="#FEBBBA"/>
<stop offset="1" stop-color="#FF928E"/>
</linearGradient>
<linearGradient id="paint10_linear_21_3922" x1="72.3508" y1="218.35" x2="56.9555" y2="255.611" gradientUnits="userSpaceOnUse">
<stop stop-color="#4F52FF"/>
<stop offset="1" stop-color="#4042E2"/>
</linearGradient>
<linearGradient id="paint11_linear_21_3922" x1="66.3804" y1="228.071" x2="43.7631" y2="261.441" gradientUnits="userSpaceOnUse">
<stop stop-color="#4F52FF"/>
<stop offset="1" stop-color="#4042E2"/>
</linearGradient>
<linearGradient id="paint12_linear_21_3922" x1="55.3783" y1="138.973" x2="8.95921" y2="232.456" gradientUnits="userSpaceOnUse">
<stop stop-color="#4F52FF"/>
<stop offset="1" stop-color="#4042E2"/>
</linearGradient>
<linearGradient id="paint13_linear_21_3922" x1="38.896" y1="132.556" x2="24.0348" y2="149.711" gradientUnits="userSpaceOnUse">
<stop stop-color="#09005D"/>
<stop offset="1" stop-color="#1A0F91"/>
</linearGradient>
<linearGradient id="paint14_linear_21_3922" x1="48.1652" y1="144.869" x2="27.4201" y2="149.032" gradientUnits="userSpaceOnUse">
<stop stop-color="#09005D"/>
<stop offset="1" stop-color="#1A0F91"/>
</linearGradient>
<linearGradient id="paint15_linear_21_3922" x1="72.8015" y1="-12.6046" x2="53.4603" y2="12.5389" gradientUnits="userSpaceOnUse">
<stop stop-color="#4F52FF"/>
<stop offset="1" stop-color="#4042E2"/>
</linearGradient>
<linearGradient id="paint16_linear_21_3922" x1="36.1523" y1="35.8924" x2="55.9643" y2="74.5992" gradientUnits="userSpaceOnUse">
<stop stop-color="#4F52FF"/>
<stop offset="1" stop-color="#4042E2"/>
</linearGradient>
<linearGradient id="paint17_linear_21_3922" x1="95.2016" y1="9.31431" x2="98.2735" y2="26.8352" gradientUnits="userSpaceOnUse">
<stop stop-color="#09005D"/>
<stop offset="1" stop-color="#1A0F91"/>
</linearGradient>
<linearGradient id="paint18_linear_21_3922" x1="94.7608" y1="30.3613" x2="91.4569" y2="19.464" gradientUnits="userSpaceOnUse">
<stop stop-color="#FEBBBA"/>
<stop offset="1" stop-color="#FF928E"/>
</linearGradient>
<linearGradient id="paint19_linear_21_3922" x1="110.797" y1="41.9937" x2="85.963" y2="62.6312" gradientUnits="userSpaceOnUse">
<stop stop-color="#FEBBBA"/>
<stop offset="1" stop-color="#FF928E"/>
</linearGradient>
<linearGradient id="paint20_linear_21_3922" x1="91.9962" y1="49.7355" x2="110.892" y2="55.9331" gradientUnits="userSpaceOnUse">
<stop stop-color="#09005D"/>
<stop offset="1" stop-color="#1A0F91"/>
</linearGradient>
<clipPath id="clip0_21_3922">
<rect width="264" height="264" fill="white"/>
</clipPath>
</defs>
</svg>
