<svg width="552" height="552" viewBox="0 0 552 552" fill="none" xmlns="http://www.w3.org/2000/svg">
<path d="M315.675 472.65C446.194 472.65 552 366.844 552 236.325C552 105.806 446.194 0 315.675 0C185.156 0 79.35 105.806 79.35 236.325C79.35 366.844 185.156 472.65 315.675 472.65Z" fill="#EAEAF4"/>
<path d="M367.77 444.59C367.77 444.59 346.84 462.645 334.535 463.91C330.165 464.37 326.14 464.485 322.92 464.485C317.17 464.485 311.88 467.13 308.43 471.73C303.37 478.515 295.32 487.485 286.925 489.555C280.485 491.165 271.285 491.625 263.235 491.74C254.035 491.855 247.365 500.595 249.665 509.45C253.115 522.905 260.59 540.845 276.92 552C276.92 552 305.21 540.615 325.22 528.54C340.4 519.34 365.47 501.86 379.04 495.765C392.61 489.67 391.69 487.715 391.69 487.715L367.77 444.59Z" fill="#B0AFD5"/>
<path d="M367.77 444.59L391.69 487.715C391.69 487.715 392.61 489.67 379.04 495.765C378.58 495.995 378.005 496.225 377.545 496.455C372.83 488.06 359.72 464.945 353.51 455.285C361.33 450.11 367.77 444.59 367.77 444.59Z" fill="#666EA7"/>
<path d="M370.53 428.95L364.55 437.46C362.825 439.99 362.48 443.21 363.745 445.97L383.87 491.74C385.135 494.615 387.205 497.145 389.735 498.87L410.435 513.475C418.255 518.995 428.95 517.04 434.47 509.335L451.145 485.76L370.53 428.95Z" fill="#B0AFD5"/>
<path d="M493.81 496.455L476.675 484.38C475.065 483.23 474.72 481.045 475.755 479.435L524.86 409.63C526.01 408.02 528.195 407.675 529.805 408.71L546.94 420.785C552.23 424.58 553.495 431.825 549.815 437.23L510.14 493.695C506.46 498.87 499.1 500.135 493.81 496.455Z" fill="#FFAE6F"/>
<path d="M432.515 337.065L408.595 370.99L400.2 382.95L376.28 416.875C313.605 372.83 269.33 344.54 160.31 372.945L237.13 263.81L241.385 257.715L318.205 148.58C328.21 260.82 369.84 293.02 432.515 337.065Z" fill="white"/>
<path d="M276.46 365.585C258.29 361.675 238.165 360.41 214.475 362.825L326.83 203.09C332.58 226.205 340.515 244.72 350.29 260.475L276.46 365.585Z" fill="#FFAE6F"/>
<path d="M472.88 491.165L460.92 482.77L523.02 394.45L534.98 402.845C537.625 404.685 538.315 408.365 536.36 411.125L481.045 489.67C479.205 492.43 475.525 493.005 472.88 491.165Z" fill="#C24D35"/>
<path d="M364.435 437.805C364.55 437.69 364.55 437.575 364.665 437.46L370.645 428.95L451.26 485.645L445.05 494.385" fill="#666EA7"/>
<path d="M449.65 489.9L360.755 427.455C357.19 424.925 356.385 420.095 358.915 416.645L426.19 320.965C428.72 317.4 433.55 316.595 437 319.125L525.895 381.57C529.46 383.985 530.265 388.93 527.735 392.38L460.46 488.06C458.045 491.51 453.1 492.315 449.65 489.9Z" fill="#F46C6B"/>
<path d="M418.14 346.725L506.115 408.595C509.91 411.24 511.98 414.69 510.715 416.415L509.68 417.91L519.57 424.81C522.215 426.65 523.71 429.065 522.79 430.33L522.33 431.02L532.565 438.265C538.66 442.52 541.995 448.155 540.155 450.915L547.975 439.76C549.93 437 546.48 431.365 540.385 427.11L530.15 419.865L530.61 419.175C531.415 418.025 529.92 415.495 527.39 413.655L517.5 406.755L518.535 405.26C519.685 403.535 517.615 400.085 513.935 397.44L425.96 335.57C422.165 332.925 418.255 332.12 417.105 333.845L409.285 345C410.435 343.275 414.345 344.08 418.14 346.725Z" fill="white"/>
<path d="M315.79 140.645L317.745 142.025C320.16 143.75 320.735 147.2 319.01 149.615L161.46 373.52C159.735 375.935 156.285 376.625 153.87 374.9L151.915 373.52C149.5 371.795 148.925 368.345 150.65 365.93L308.2 142.025C309.925 139.61 313.375 138.92 315.79 140.645Z" fill="#182E5A"/>
<path d="M97.865 150.765C98.325 152.72 96.37 154.33 94.53 153.525L5.865 112.125C2.185 110.285 -1.15 115.23 1.955 117.99L144.095 237.475C145.82 238.97 148.465 237.245 147.89 235.06L132.595 176.985C132.135 175.03 134.09 173.42 135.93 174.225L224.595 215.625C228.275 217.465 231.61 212.52 228.505 209.76L86.365 90.275C84.64 88.78 81.995 90.505 82.57 92.69L97.865 150.765Z" fill="#F46C6B"/>
<path d="M194.925 84.7552C194.925 85.9052 193.545 86.4802 192.74 85.6752L152.49 50.1402C150.765 48.5302 148.235 50.7152 149.5 52.6702L205.735 137.54C206.425 138.575 208.035 138.115 208.15 136.85L209.07 103.96C209.07 102.81 210.45 102.235 211.255 103.04L251.505 138.575C253.23 140.185 255.76 138 254.495 136.045L198.26 51.1752C197.57 50.1402 195.96 50.6002 195.845 51.8652L194.925 84.7552Z" fill="#F46C6B"/>
<path d="M91.195 293.365C90.275 294.055 90.62 295.435 91.655 295.665L143.865 308.315C146.05 308.775 145.82 312.11 143.52 312.225L41.745 314.64C40.48 314.64 39.905 313.03 40.94 312.34L67.39 292.79C68.31 292.1 67.965 290.72 66.93 290.49L14.72 277.84C12.535 277.38 12.765 274.045 15.065 273.93L116.84 271.515C118.105 271.515 118.68 273.125 117.645 273.815L91.195 293.365Z" fill="#F46C6B"/>
</svg>
