<svg width="80" height="80" viewBox="0 0 80 80" fill="none" xmlns="http://www.w3.org/2000/svg">
<path d="M25.7 26.9H20.4V53.1H25.7V46.9L29.6 43.1L39.3 53.1H46.4L39.8 46.1L42.9 43.1L52.5 53.1H59.6L46.7 39.4L59.6 26.9H52.8L36.7 42.8L33.5 39.4L46.4 26.9H39.6L25.7 40.5V26.9Z" fill="#242640"/>
<path d="M6.4 41.3H4.9L4 40.4L6.4 38V36.3L3.1 39.4L0 36.3V37.9L3.3 41.3H0V42.6H6.4V41.3Z" fill="#242640"/>
<path d="M7.49999 28.5C7.29999 28.1 6.99999 27.8 6.69999 27.5C6.39999 27.2 5.99999 27 5.49999 26.9C4.99999 26.8 4.59999 26.7 4.19999 26.8C3.79999 26.9 3.39999 27 2.99999 27.2C2.59999 27.4 2.29999 27.7 2.09999 28.1C1.79999 28.5 1.59999 28.9 1.49999 29.5C1.39999 30 1.29999 30.5 1.29999 31C1.29999 31.5 1.39999 31.9 1.59999 32.3C1.79999 32.7 2.09999 33 2.39999 33.3C2.69999 33.6 3.09999 33.8 3.59999 33.9C3.99999 34 4.49999 34.1 4.89999 34C5.29999 33.9 5.69999 33.8 6.09999 33.6C6.49999 33.4 6.79999 33.1 7.09999 32.7C7.39999 32.3 7.59999 31.9 7.69999 31.3C7.79999 30.8 7.89999 30.3 7.89999 29.8C7.79999 29.3 7.69999 28.9 7.49999 28.5ZM6.59999 31C6.49999 31.3 6.39999 31.6 6.19999 31.9C5.99999 32.1 5.79999 32.4 5.59999 32.5C5.39999 32.7 5.09999 32.8 4.79999 32.8C4.49999 32.8 4.19999 32.8 3.89999 32.7C3.59999 32.6 3.29999 32.5 3.09999 32.3C2.89999 32.1 2.69999 31.9 2.59999 31.6C2.49999 31.3 2.39999 31.1 2.39999 30.8C2.39999 30.5 2.39999 30.2 2.49999 29.9C2.59999 29.6 2.69999 29.3 2.89999 29C3.09999 28.7 3.29999 28.5 3.49999 28.4C3.69999 28.2 3.99999 28.1 4.29999 28.1C4.59999 28.1 4.89999 28.1 5.19999 28.2C5.49999 28.3 5.79999 28.4 5.99999 28.6C6.19999 28.8 6.39999 29 6.49999 29.3C6.59999 29.6 6.69999 29.8 6.69999 30.1C6.69999 30.3 6.69999 30.6 6.59999 31Z" fill="#242640"/>
<path d="M9.3 24.3C9.7 24.2 10.1 24 10.5 23.7C10.9 23.4 11.2 23 11.5 22.6C11.8 22.1 12 21.7 12.1 21.2C12.2 20.7 12.2 20.3 12.1 19.9C12 19.5 11.9 19.1 11.6 18.7C11.3 18.3 11 18 10.6 17.8C10.2 17.5 9.8 17.4 9.3 17.3C8.9 17.2 8.4 17.3 8 17.4C7.6 17.5 7.2 17.7 6.8 18C6.4 18.3 6.1 18.7 5.8 19.1C5.5 19.6 5.3 20 5.2 20.5C5.1 21 5.1 21.4 5.2 21.8C5.3 22.2 5.4 22.6 5.7 23C5.9 23.4 6.3 23.7 6.7 23.9C7.1 24.2 7.5 24.3 8 24.4C8.5 24.4 8.9 24.4 9.3 24.3ZM7.4 22.8C7.1 22.6 6.9 22.4 6.7 22.2C6.5 22 6.4 21.7 6.4 21.4C6.4 21.1 6.4 20.8 6.4 20.5C6.5 20.2 6.6 19.9 6.8 19.6C7 19.3 7.2 19.1 7.4 18.9C7.6 18.7 7.9 18.6 8.1 18.5C8.4 18.4 8.6 18.4 8.9 18.4C9.2 18.4 9.5 18.5 9.7 18.7C10 18.9 10.2 19.1 10.4 19.3C10.6 19.5 10.7 19.8 10.7 20.1C10.7 20.4 10.7 20.7 10.7 21C10.6 21.3 10.5 21.6 10.3 21.9C10.1 22.2 9.9 22.4 9.7 22.6C9.6 22.8 9.4 23 9.1 23C8.8 23.1 8.6 23.1 8.3 23.1C8 23.1 7.7 23 7.4 22.8Z" fill="#242640"/>
<path d="M16.9 15.7C17.4 15.2 17.8 14.8 18 14.3C18.3 13.8 18.4 13.4 18.5 13C18.5 12.6 18.5 12.2 18.4 11.8C18.3 11.4 18 11 17.7 10.7C17.4 10.3 17 10.1 16.6 9.9C16.2 9.7 15.8 9.6 15.4 9.7C15 9.7 14.5 9.8 14.1 10.1C13.6 10.3 13.1 10.7 12.6 11.1L10.9 12.7L15.2 17.4L16.9 15.7ZM13.5 11.7C13.8 11.4 14.1 11.2 14.3 11.1C14.6 11 14.8 10.9 15.1 10.9C15.4 10.9 15.6 11 15.9 11.1C16.1 11.2 16.4 11.4 16.6 11.6C16.8 11.8 17 12.1 17.1 12.3C17.2 12.6 17.2 12.8 17.2 13.1C17.2 13.4 17.1 13.6 17 13.9C16.9 14.2 16.6 14.4 16.4 14.7L15.4 15.6L12.6 12.6L13.5 11.7Z" fill="#242640"/>
<path d="M19.7588 5.63531L18.6481 6.31079L21.9735 11.779L23.0842 11.1035L19.7588 5.63531Z" fill="#242640"/>
<path d="M26.9 9.10002L26.4 7.70002L27 6.50002L30 8.00002L31.7 7.40002L27.6 5.30002L29.5 1.40002L27.9 2.00002L25.9 6.20002L24.8 3.10002L23.6 3.60002L25.7 9.50002L26.9 9.10002Z" fill="#242640"/>
<path d="M33.4 5.4C33.6 5.7 33.8 6 34.1 6.2C34.4 6.4 34.7 6.6 35.1 6.7C35.5 6.8 36 6.8 36.4 6.8C36.9 6.7 37.3 6.6 37.7 6.5C38.1 6.3 38.4 6.1 38.6 5.8C38.8 5.5 39 5.2 39.1 4.9C39.2 4.5 39.2 4.2 39.2 3.7L38.9 0L37.6 0.1L38 3.6C38 3.9 38 4.1 38 4.4C37.9 4.6 37.8 4.8 37.7 5C37.6 5.2 37.4 5.3 37.2 5.4C37 5.5 36.7 5.6 36.4 5.6C36.1 5.6 35.8 5.6 35.6 5.6C35.4 5.5 35.2 5.4 35 5.3C34.8 5.2 34.7 5 34.6 4.8C34.5 4.6 34.4 4.3 34.4 4L34 0.5L32.7 0.6L33 4.3C33.1 4.7 33.2 5.1 33.4 5.4Z" fill="#242640"/>
<path d="M44.5 2.09998L46.4 4.69998L49.1 2.89998L48.3 7.39998L49.5 7.69998L50.7 1.39998L49.4 1.19998L46.7 2.99998L44.9 0.299976L43.6 0.0999756L42.4 6.39998L43.7 6.59998L44.5 2.09998Z" fill="#242640"/>
<path d="M55.7 5.2L56.7 8.2L59.8 7.3L57.7 11.4L58.8 12L61.8 6.4L60.6 5.8L57.5 6.7L56.5 3.6L55.4 3L52.5 8.7L53.6 9.3L55.7 5.2Z" fill="#242640"/>
<path d="M65.2819 9.07392L61.1693 13.9776L62.1653 14.813L66.278 9.9093L65.2819 9.07392Z" fill="#242640"/>
<path d="M65.6 18.3L66.5 19.3L70.5 16L72 17.8L72.9 17.1L69.1 12.5L68.2 13.2L69.7 15L65.6 18.3Z" fill="#242640"/>
<path d="M16.1 63.7L11.4 63.4L13.9 61.2L13 60.2L8.20001 64.4L9.10001 65.4L10.2 64.4L11.5 64.5L11.2 67.9L12.4 69.2L12.8 64.6L17.2 65L16.1 63.7Z" fill="#242640"/>
<path d="M22.4 68.9C22.1 68.5 21.7 68.2 21.3 67.9C20.8 67.6 20.4 67.4 19.9 67.3C19.4 67.2 19 67.2 18.6 67.2C18.2 67.3 17.8 67.4 17.4 67.6C17 67.8 16.7 68.1 16.4 68.5C16.1 68.9 16 69.3 15.9 69.8C15.8 70.2 15.8 70.7 15.9 71.1C16 71.5 16.2 71.9 16.5 72.3C16.8 72.7 17.1 73 17.6 73.3C18 73.6 18.5 73.8 19 73.9C19.5 74 19.9 74 20.3 74C20.7 73.9 21.1 73.8 21.5 73.6C21.9 73.4 22.2 73 22.5 72.6C22.8 72.2 22.9 71.8 23 71.4C23.1 71 23.1 70.5 23 70.1C22.9 69.7 22.7 69.3 22.4 68.9ZM21.8 71.1C21.8 71.4 21.6 71.7 21.5 71.9C21.3 72.2 21.1 72.4 20.9 72.5C20.7 72.7 20.4 72.7 20.1 72.8C19.8 72.8 19.5 72.8 19.2 72.7C18.9 72.6 18.6 72.5 18.3 72.3C18 72.1 17.8 71.9 17.6 71.7C17.4 71.5 17.3 71.2 17.2 70.9C17.1 70.6 17.1 70.4 17.2 70.1C17.2 69.8 17.4 69.5 17.5 69.3C17.7 69 17.9 68.8 18.1 68.7C18.3 68.5 18.6 68.5 18.9 68.4C19.2 68.4 19.5 68.4 19.7 68.5C20 68.6 20.3 68.7 20.6 68.9C20.9 69.1 21.1 69.3 21.3 69.5C21.5 69.7 21.6 70 21.7 70.3C21.9 70.5 21.9 70.8 21.8 71.1Z" fill="#242640"/>
<path d="M32 73.6C31.8 73.2 31.5 72.9 31.1 72.6C30.7 72.3 30.3 72.1 29.8 71.9C29.3 71.7 28.8 71.7 28.3 71.7C27.8 71.7 27.4 71.8 27 72C26.6 72.2 26.3 72.4 26 72.8C25.7 73.1 25.5 73.5 25.3 74C25.2 74.5 25.1 74.9 25.1 75.3C25.1 75.7 25.3 76.1 25.5 76.5C25.7 76.9 26 77.2 26.4 77.5C26.8 77.8 27.2 78 27.7 78.2C28.2 78.4 28.7 78.4 29.2 78.4C29.7 78.4 30.1 78.3 30.5 78.1C30.9 77.9 31.2 77.7 31.5 77.3C31.8 77 32 76.6 32.2 76.1C32.3 75.6 32.4 75.2 32.4 74.8C32.4 74.4 32.2 74 32 73.6ZM31 75.8C30.9 76.1 30.8 76.4 30.6 76.6C30.4 76.8 30.2 77 29.9 77.1C29.6 77.2 29.4 77.3 29.1 77.3C28.8 77.3 28.5 77.3 28.2 77.2C27.9 77.1 27.6 77 27.4 76.8C27.2 76.6 27 76.4 26.8 76.2C26.7 76 26.6 75.7 26.5 75.4C26.5 75.1 26.5 74.8 26.6 74.5C26.7 74.2 26.8 73.9 27 73.7C27.2 73.5 27.4 73.3 27.7 73.2C28 73.1 28.2 73 28.5 73C28.8 73 29.1 73 29.4 73.2C29.7 73.3 30 73.4 30.2 73.6C30.4 73.8 30.6 74 30.8 74.2C30.9 74.4 31 74.7 31.1 75C31.2 75.2 31.1 75.5 31 75.8Z" fill="#242640"/>
<path d="M41.1 74.6C40.8 74.3 40.4 74.1 39.9 73.9C39.4 73.7 38.8 73.6 38.1 73.6L35.8 73.5L35.5 79.9L37.8 80C38.5 80 39.1 80 39.6 79.8C40.1 79.7 40.5 79.5 40.9 79.2C41.2 78.9 41.5 78.6 41.7 78.2C41.9 77.8 42 77.4 42 76.9C42 76.4 42 76 41.8 75.6C41.7 75.2 41.4 74.9 41.1 74.6ZM40.5 77.7C40.4 78 40.2 78.2 40 78.3C39.8 78.5 39.6 78.6 39.3 78.7C39 78.8 38.7 78.8 38.3 78.8L36.9 78.7L37.1 74.6L38.5 74.7C38.9 74.7 39.2 74.8 39.5 74.9C39.8 75 40 75.2 40.2 75.3C40.4 75.5 40.5 75.7 40.6 76C40.7 76.3 40.7 76.5 40.7 76.9C40.6 77.2 40.6 77.5 40.5 77.7Z" fill="#242640"/>
<path d="M45.7965 73.1413L44.5121 73.3421L45.5009 79.6653L46.7853 79.4645L45.7965 73.1413Z" fill="#242640"/>
<path d="M54.7 70.5L53.1 71.1L51 75.3L50 72.2L48.7 72.6L50.8 78.6L52.1 78.2L51.6 76.8L52.2 75.6L55.2 77.1L56.8 76.5L52.7 74.4L54.7 70.5Z" fill="#242640"/>
<path d="M63.3 69.3L61.3 66.3L60.2 67L62.1 69.9C62.3 70.1 62.4 70.4 62.4 70.6C62.5 70.8 62.5 71.1 62.4 71.3C62.4 71.5 62.3 71.7 62.1 71.9C62 72.1 61.8 72.3 61.5 72.4C61.2 72.6 61 72.7 60.8 72.7C60.6 72.8 60.3 72.8 60.1 72.7C59.9 72.7 59.7 72.6 59.5 72.4C59.3 72.3 59.1 72.1 59 71.8L57.2 69L56.1 69.7L58.1 72.7C58.3 73 58.6 73.3 58.9 73.5C59.2 73.7 59.5 73.8 59.9 73.9C60.3 74 60.6 73.9 61 73.8C61.4 73.7 61.8 73.5 62.2 73.2C62.6 72.9 62.9 72.6 63.2 72.3C63.5 72 63.6 71.6 63.7 71.3C63.8 70.9 63.8 70.6 63.7 70.2C63.7 70 63.6 69.7 63.3 69.3Z" fill="#242640"/>
<path d="M67.2 60L67.5 63.2L64.2 63.5L63.4 64.5L68.3 68.6L69.1 67.6L65.6 64.7L68.8 64.3L68.6 61.1L72.1 64.1L72.9 63.1L68 59L67.2 60Z" fill="#242640"/>
<path d="M71.9 51L73.1 54.1L70.1 55.3L69.6 56.5L75.4 58.9L75.9 57.8L71.7 56L74.7 54.7L73.5 51.7L77.7 53.5L78.2 52.3L72.4 49.8L71.9 51Z" fill="#242640"/>
<path d="M73.1083 45.6725L72.8664 46.9497L79.1544 48.1407L79.3963 46.8635L73.1083 45.6725Z" fill="#242640"/>
<path d="M74.7 39.6V37.2H73.6V43.2H74.7V40.8L80 40.9V39.6H74.7Z" fill="#242640"/>
<path d="M5.30001 52.1C4.7 52.3 4.3 53.1 4.6 53.7C4.8 54.3 5.6 54.7 6.2 54.4C6.8 54.2 7.2 53.4 6.9 52.8C6.7 52.2 5.90001 51.8 5.30001 52.1Z" fill="#242640"/>
<path d="M74.8 28.1C75.4 27.9 75.8 27.1 75.5 26.5C75.3 25.9 74.5 25.5 73.9 25.8C73.3 26 72.9 26.8 73.2 27.4C73.4 28 74.1 28.4 74.8 28.1Z" fill="#242640"/>
</svg>
